<svg width="30" height="30" viewBox="0 0 30 30" fill="none" xmlns="http://www.w3.org/2000/svg">
<path d="M17.4999 3.75C18.1629 3.75 18.7988 4.01339 19.2676 4.48223C19.7365 4.95107 19.9999 5.58696 19.9999 6.25V10H24.9999C25.6629 10 26.2988 10.2634 26.7676 10.7322C27.2365 11.2011 27.4999 11.837 27.4999 12.5V23.75C27.4999 24.413 27.2365 25.0489 26.7676 25.5178C26.2988 25.9866 25.6629 26.25 24.9999 26.25H4.99988C4.33684 26.25 3.70095 25.9866 3.23211 25.5178C2.76327 25.0489 2.49988 24.413 2.49988 23.75V16.25C2.49988 15.587 2.76327 14.9511 3.23211 14.4822C3.70095 14.0134 4.33684 13.75 4.99988 13.75H9.99988V6.25C9.99988 5.58696 10.2633 4.95107 10.7321 4.48223C11.201 4.01339 11.8368 3.75 12.4999 3.75H17.4999ZM17.4999 6.25H12.4999V23.75H17.4999V6.25ZM24.9999 12.5H19.9999V23.75H24.9999V12.5ZM9.99988 16.25H4.99988V23.75H9.99988V16.25Z" fill="#543310"/>
</svg>
