<svg width="30" height="30" viewBox="0 0 30 30" fill="none" xmlns="http://www.w3.org/2000/svg">
<path d="M16.2499 3.75C16.8806 3.7498 17.4881 3.98801 17.9506 4.41687C18.413 4.84573 18.6963 5.43356 18.7436 6.0625L18.7499 6.25V26.25H11.2499V6.25C11.2497 5.61928 11.4879 5.01179 11.9167 4.54932C12.3456 4.08684 12.9334 3.80355 13.5624 3.75625L13.7499 3.75H16.2499ZM24.9999 10C25.6629 10 26.2988 10.2634 26.7676 10.7322C27.2365 11.2011 27.4999 11.837 27.4999 12.5V23.75C27.4999 24.413 27.2365 25.0489 26.7676 25.5178C26.2988 25.9866 25.6629 26.25 24.9999 26.25H21.2499V10H24.9999ZM8.74988 13.75V26.25H4.99988C4.33684 26.25 3.70095 25.9866 3.23211 25.5178C2.76327 25.0489 2.49988 24.413 2.49988 23.75V16.25C2.49988 15.587 2.76327 14.9511 3.23211 14.4822C3.70095 14.0134 4.33684 13.75 4.99988 13.75H8.74988Z" fill="#543310"/>
</svg>
