<svg width="30" height="30" viewBox="0 0 30 30" fill="none" xmlns="http://www.w3.org/2000/svg">
<path d="M20.6251 13.75C21.8195 13.7499 22.9934 14.061 24.031 14.6527C25.0686 15.2443 25.9342 16.0961 26.5424 17.1241C27.1507 18.1521 27.4806 19.3208 27.4997 20.5151C27.5188 21.7094 27.2264 22.8881 26.6513 23.935L27.1338 25.5737C27.1976 25.7903 27.2018 26.0201 27.1461 26.2389C27.0904 26.4576 26.9767 26.6573 26.817 26.817C26.6574 26.9766 26.4577 27.0903 26.2389 27.146C26.0201 27.2018 25.7904 27.1975 25.5738 27.1338L23.9363 26.6512C23.0175 27.1558 21.9955 27.4435 20.9484 27.4925C19.9013 27.5415 18.8569 27.3503 17.895 26.9338C16.9331 26.5172 16.0792 25.8862 15.3986 25.089C14.718 24.2917 14.2287 23.3495 13.9681 22.3341C13.7075 21.3188 13.6825 20.2574 13.8951 19.2309C14.1076 18.2045 14.5521 17.2402 15.1944 16.4119C15.8368 15.5835 16.6601 14.9131 17.6013 14.4517C18.5426 13.9904 19.5768 13.7503 20.6251 13.75ZM13.7501 3.75C16.2375 3.75034 18.6547 4.57467 20.624 6.09418C22.5933 7.61369 24.0038 9.74278 24.6351 12.1488C22.7432 11.252 20.6056 11.0144 18.5629 11.4737C16.5203 11.933 14.6902 13.0628 13.3643 14.6831C12.0384 16.3034 11.293 18.3209 11.2469 20.414C11.2008 22.5071 11.8567 24.5554 13.1101 26.2325C11.3012 26.1318 9.54374 25.5935 7.9888 24.6638L4.6763 25.6388C4.45903 25.7028 4.2285 25.7072 4.00897 25.6513C3.78945 25.5954 3.58905 25.4814 3.42887 25.3212C3.26869 25.161 3.15466 24.9606 3.09877 24.7411C3.04289 24.5216 3.04722 24.291 3.1113 24.0738L4.0863 20.7612C3.0681 19.0535 2.52067 17.1064 2.49977 15.1183C2.47887 13.1301 2.98525 11.1719 3.96733 9.44315C4.94942 7.71437 6.37212 6.27674 8.09057 5.27668C9.80901 4.27661 11.7618 3.74984 13.7501 3.75Z" fill="#543310"/>
</svg>
