<svg width="30" height="30" viewBox="0 0 30 30" fill="none" xmlns="http://www.w3.org/2000/svg">
<path fill-rule="evenodd" clip-rule="evenodd" d="M4.99992 15.0001C4.9986 12.9685 5.70428 10.9998 6.99588 9.43162C8.28749 7.86344 10.0845 6.79359 12.0787 6.40556C14.0729 6.01754 16.14 6.33555 17.9254 7.30502C19.7108 8.27449 21.1031 9.83502 21.8637 11.7189C21.9895 12.024 22.2309 12.267 22.5352 12.3948C22.8395 12.5226 23.182 12.5248 23.488 12.4011C23.794 12.2773 24.0386 12.0375 24.1684 11.7341C24.2983 11.4307 24.3029 11.0882 24.1812 10.7814C23.603 9.33974 22.7326 8.03339 21.6248 6.94458C20.517 5.85576 19.1959 5.00805 17.7445 4.45482C16.293 3.90158 14.7428 3.6548 13.1914 3.72999C11.6399 3.80519 10.1208 4.20074 8.72969 4.89176C7.33859 5.58277 6.10559 6.55427 5.10831 7.74512C4.11103 8.93596 3.37107 10.3204 2.935 11.8112C2.49894 13.302 2.37621 14.8669 2.57454 16.4075C2.77287 17.9481 3.28797 19.4309 4.08742 20.7626L3.11242 24.0739C3.04833 24.2912 3.044 24.5217 3.09988 24.7412C3.15577 24.9608 3.2698 25.1611 3.42998 25.3213C3.59016 25.4815 3.79056 25.5955 4.01009 25.6514C4.22961 25.7073 4.46014 25.703 4.67742 25.6389L7.98992 24.6639C9.32217 25.4608 10.8057 25.9716 12.3462 26.1639C12.6752 26.205 13.0071 26.1137 13.2688 25.9101C13.5305 25.7065 13.7007 25.4073 13.7418 25.0783C13.7829 24.7492 13.6916 24.4173 13.488 24.1556C13.2844 23.8939 12.9852 23.7238 12.6562 23.6826C11.3746 23.5231 10.1448 23.0798 9.05617 22.3851C8.84132 22.2477 8.59952 22.1578 8.34704 22.1216C8.09456 22.0853 7.83725 22.1036 7.59242 22.1751L6.15242 22.5989L6.57617 21.1589C6.72617 20.6489 6.63492 20.1164 6.36617 19.6964C5.47117 18.2938 4.99703 16.664 4.99992 15.0001ZM24.9999 20.6251C24.9998 19.6544 24.6769 18.7112 24.0819 17.9442C23.4869 17.1771 22.6537 16.6297 21.7135 16.3882C20.7733 16.1466 19.7794 16.2246 18.8884 16.61C17.9974 16.9953 17.2598 17.666 16.7918 18.5165C16.3239 19.367 16.152 20.349 16.3035 21.3079C16.4549 22.2668 16.9209 23.1481 17.6282 23.8131C18.3354 24.478 19.2438 24.8888 20.2102 24.9809C21.1765 25.0729 22.1461 24.8409 22.9662 24.3214C23.3038 24.1066 23.7105 24.0284 24.1037 24.1026C24.0291 23.7096 24.1068 23.3029 24.3212 22.9651C24.7657 22.2657 25.0012 21.4539 24.9999 20.6251ZM20.6249 13.7501C21.8194 13.7501 22.9932 14.0612 24.0309 14.6528C25.0685 15.2445 25.9341 16.0963 26.5423 17.1243C27.1505 18.1522 27.4805 19.321 27.4995 20.5153C27.5186 21.7096 27.2262 22.8882 26.6512 23.9351L27.1337 25.5739C27.1975 25.7905 27.2017 26.0202 27.146 26.239C27.0902 26.4578 26.9765 26.6575 26.8169 26.8171C26.6573 26.9768 26.4575 27.0904 26.2388 27.1462C26.02 27.2019 25.7902 27.1977 25.5737 27.1339L23.9362 26.6514C23.0173 27.1559 21.9953 27.4437 20.9482 27.4926C19.9012 27.5416 18.8568 27.3505 17.8949 26.9339C16.933 26.5173 16.0791 25.8863 15.3985 25.0891C14.7178 24.2919 14.2285 23.3496 13.9679 22.3343C13.7073 21.319 13.6824 20.2575 13.8949 19.2311C14.1075 18.2046 14.5519 17.2404 15.1943 16.412C15.8367 15.5837 16.6599 14.9132 17.6012 14.4519C18.5424 13.9905 19.5767 13.7505 20.6249 13.7501Z" fill="#543310"/>
</svg>
