<svg width="146" height="179" viewBox="0 0 146 179" fill="none" xmlns="http://www.w3.org/2000/svg">
<path d="M16.6523 171.619C17.4818 172.357 18.5755 173.137 19.9336 173.957C20.1888 174.103 20.3164 174.253 20.3164 174.408C20.3164 174.527 20.2663 174.636 20.166 174.736C20.0658 174.837 19.9564 174.887 19.8379 174.887C19.5918 174.887 19.0312 174.595 18.1562 174.012C17.2904 173.428 16.5065 172.818 15.8047 172.18C14.1367 173.1 12.4232 173.561 10.6641 173.561C8.95052 173.561 7.31901 173.128 5.76953 172.262C4.0013 171.277 2.67057 169.874 1.77734 168.051C1.09375 166.674 0.751953 165.216 0.751953 163.676C0.751953 161.124 1.59961 158.913 3.29492 157.045C4.25195 155.979 5.39128 155.163 6.71289 154.598C7.96159 154.051 9.27409 153.777 10.6504 153.777C12.5462 153.777 14.2962 154.274 15.9004 155.268C17.5319 156.288 18.7669 157.683 19.6055 159.451C20.2435 160.8 20.5625 162.213 20.5625 163.689C20.5625 165.221 20.2116 166.702 19.5098 168.133C18.8079 169.555 17.8555 170.717 16.6523 171.619ZM15.9414 171.045C16.7161 170.525 17.4453 169.773 18.1289 168.789C19.1771 167.285 19.7012 165.59 19.7012 163.703C19.7012 162.108 19.2956 160.59 18.4844 159.15C17.6914 157.738 16.5977 156.63 15.2031 155.828C13.8177 155.026 12.3001 154.625 10.6504 154.625C10.2858 154.625 9.93034 154.657 9.58398 154.721V172.645C9.90299 172.708 10.2174 172.74 10.5273 172.74C12.25 172.74 13.7767 172.348 15.1074 171.564C13.4941 169.96 12.6875 169.003 12.6875 168.693C12.6875 168.593 12.7331 168.497 12.8242 168.406C12.9154 168.315 13.0065 168.27 13.0977 168.27C13.2526 168.27 13.4668 168.434 13.7402 168.762C14.5332 169.701 15.2669 170.462 15.9414 171.045ZM29.791 162.309L29.7637 167.559L29.8184 173H22.8047L22.8184 172.248L22.832 169.459L22.873 164.441L22.8184 158.863L22.8047 158.07H29.8047V160.887C30.8529 159.775 31.582 159.073 31.9922 158.781C32.9401 158.116 33.8333 157.783 34.6719 157.783C35.1823 157.783 35.6016 157.893 35.9297 158.111C36.2669 158.33 36.4355 158.608 36.4355 158.945C36.4355 159.21 36.3353 159.428 36.1348 159.602C35.9342 159.775 35.6836 159.861 35.3828 159.861C35.1914 159.861 34.9772 159.807 34.7402 159.697C34.3392 159.506 34.0065 159.41 33.7422 159.41C33.0859 159.41 32.4525 159.633 31.8418 160.08C31.2311 160.527 30.5475 161.27 29.791 162.309ZM55.6719 158.07L55.6309 168.816L55.6719 173H48.6855V171.072C47.528 171.865 46.4707 172.435 45.5137 172.781C44.5658 173.128 43.5723 173.301 42.5332 173.301C40.6283 173.301 39.2474 172.736 38.3906 171.605C38.0716 171.186 37.8483 170.712 37.7207 170.184C37.6022 169.646 37.543 168.885 37.543 167.9L37.5703 164.701L37.584 162.568L37.5156 158.07H44.502L44.4336 164.934L44.4473 167.531L44.4609 169.281C44.4609 170.329 44.5247 170.958 44.6523 171.168C44.8073 171.405 45.099 171.523 45.5273 171.523C45.9648 171.523 46.416 171.41 46.8809 171.182C47.3548 170.954 47.9655 170.548 48.7129 169.965L48.7266 168.174L48.7539 163.293L48.6719 158.494V158.07H55.6719ZM76.6172 160.285C77.8021 159.374 78.9049 158.717 79.9258 158.316C80.9557 157.906 82.0404 157.701 83.1797 157.701C85.2669 157.701 86.7207 158.371 87.541 159.711C87.778 160.112 87.9421 160.577 88.0332 161.105C88.1243 161.625 88.1699 162.4 88.1699 163.43L88.1152 167.039V167.887L88.1836 172.439L88.1973 173H81.1836L81.2383 168.68L81.3066 164.332L81.293 162.568C81.2839 161.921 81.2839 161.543 81.293 161.434C81.3021 160.714 81.2246 160.217 81.0605 159.943C80.8965 159.67 80.6003 159.533 80.1719 159.533C79.7161 159.533 79.2148 159.665 78.668 159.93C78.1302 160.194 77.5469 160.595 76.918 161.133C76.9635 161.488 76.9863 161.999 76.9863 162.664L76.959 166.082L76.9316 169.924C76.9316 171.054 76.9544 172.079 77 173H70L70.0273 170.02L70.0684 163.594C70.0684 161.479 70.041 160.312 69.9863 160.094C69.8861 159.702 69.5579 159.506 69.002 159.506C68.5827 159.506 68.1087 159.638 67.5801 159.902C67.0605 160.158 66.4818 160.549 65.8438 161.078L65.7891 166.861L65.8574 173H58.8438V172.453L58.8711 169.965L58.8848 166.574L58.8984 163.293L58.8438 158.07H65.8438V159.984C66.8646 159.219 67.8809 158.649 68.8926 158.275C69.9134 157.893 70.9297 157.701 71.9414 157.701C73.4635 157.701 74.6895 158.084 75.6191 158.85C75.9928 159.15 76.3255 159.629 76.6172 160.285ZM91.1914 154.338H98.1914L98.1367 159.506C98.8294 158.904 99.5449 158.453 100.283 158.152C101.031 157.852 101.805 157.701 102.607 157.701C104.394 157.701 106.003 158.353 107.434 159.656C109.047 161.124 109.854 163.033 109.854 165.385C109.854 167.809 109.024 169.81 107.365 171.387C106.016 172.663 104.471 173.301 102.73 173.301C101.837 173.301 101.04 173.141 100.338 172.822C99.6361 172.503 98.916 171.97 98.1777 171.223V173H91.1914V172.385L91.2324 165.754L91.2188 161.023L91.1914 154.338ZM98.1367 160.627V169.951C98.7474 170.598 99.2305 171.068 99.5859 171.359C100.315 171.952 100.976 172.248 101.568 172.248C101.979 172.248 102.243 172.052 102.361 171.66C102.416 171.478 102.448 171.018 102.457 170.279V161.092L102.471 160.49C102.471 159.798 102.407 159.328 102.279 159.082C102.161 158.827 101.928 158.699 101.582 158.699C101.145 158.699 100.639 158.859 100.064 159.178C99.4902 159.497 98.8477 159.98 98.1367 160.627ZM119.055 154.338L119.068 155.035L119.041 159.848L119.027 161.926L119 165.713L119.055 172.467V173H112.082V172.357L112.109 170.184L112.123 166.246L112.15 161.092L112.137 158.316L112.096 155.268L112.109 154.338H119.055ZM127.709 165.973V170.211C127.709 171.031 127.759 171.551 127.859 171.77C128.051 172.189 128.502 172.398 129.213 172.398C130.27 172.398 131.314 172.111 132.344 171.537C133.383 170.954 134.281 170.152 135.037 169.131C135.283 168.794 135.461 168.579 135.57 168.488C135.68 168.397 135.798 168.352 135.926 168.352C136.081 168.352 136.208 168.411 136.309 168.529C136.409 168.639 136.459 168.78 136.459 168.953C136.459 169.336 136.154 169.851 135.543 170.498C134.741 171.327 133.743 172.002 132.549 172.521C131.364 173.041 130.206 173.301 129.076 173.301C127.135 173.301 125.421 172.649 123.936 171.346C123.07 170.58 122.404 169.637 121.939 168.516C121.529 167.531 121.324 166.547 121.324 165.562C121.324 164.615 121.507 163.667 121.871 162.719C122.236 161.762 122.737 160.937 123.375 160.244C124.113 159.433 124.988 158.804 126 158.357C126.993 157.92 128.033 157.701 129.117 157.701C130.803 157.701 132.33 158.198 133.697 159.191C135.83 160.741 136.887 162.988 136.869 165.932H133.684L129.582 165.945L127.709 165.973ZM131.209 165.07V161.078C131.191 160.221 131.173 159.711 131.154 159.547C131.136 159.374 131.072 159.214 130.963 159.068C130.708 158.713 130.188 158.535 129.404 158.535C128.602 158.535 128.101 158.74 127.9 159.15C127.773 159.396 127.709 160.039 127.709 161.078V165.07L129.377 165.125L131.209 165.07Z" fill="#DD4E3E"/>
<path d="M93.125 112.688C96.9167 116.062 101.917 119.625 108.125 123.375C109.292 124.042 109.875 124.729 109.875 125.438C109.875 125.979 109.646 126.479 109.188 126.938C108.729 127.396 108.229 127.625 107.688 127.625C106.562 127.625 104 126.292 100 123.625C96.0417 120.958 92.4583 118.167 89.25 115.25C81.625 119.458 73.7917 121.562 65.75 121.562C57.9167 121.562 50.4583 119.583 43.375 115.625C35.2917 111.125 29.2083 104.708 25.125 96.375C22 90.0833 20.4375 83.4167 20.4375 76.375C20.4375 64.7083 24.3125 54.6042 32.0625 46.0625C36.4375 41.1875 41.6458 37.4583 47.6875 34.875C53.3958 32.375 59.3958 31.125 65.6875 31.125C74.3542 31.125 82.3542 33.3958 89.6875 37.9375C97.1458 42.6042 102.792 48.9792 106.625 57.0625C109.542 63.2292 111 69.6875 111 76.4375C111 83.4375 109.396 90.2083 106.188 96.75C102.979 103.25 98.625 108.562 93.125 112.688ZM89.875 110.062C93.4167 107.688 96.75 104.25 99.875 99.75C104.667 92.875 107.062 85.125 107.062 76.5C107.062 69.2083 105.208 62.2708 101.5 55.6875C97.875 49.2292 92.875 44.1667 86.5 40.5C80.1667 36.8333 73.2292 35 65.6875 35C64.0208 35 62.3958 35.1458 60.8125 35.4375V117.375C62.2708 117.667 63.7083 117.812 65.125 117.812C73 117.812 79.9792 116.021 86.0625 112.438C78.6875 105.104 75 100.729 75 99.3125C75 98.8542 75.2083 98.4167 75.625 98C76.0417 97.5833 76.4583 97.375 76.875 97.375C77.5833 97.375 78.5625 98.125 79.8125 99.625C83.4375 103.917 86.7917 107.396 89.875 110.062Z" fill="#232323"/>
<circle cx="117.5" cy="127.5" r="2.5" fill="#232323"/>
<circle cx="130.5" cy="127.5" r="2.5" fill="#232323"/>
<circle cx="143.5" cy="127.5" r="2.5" fill="#232323"/>
<path d="M92.125 110.688C95.9167 114.062 100.917 117.625 107.125 121.375C108.292 122.042 108.875 122.729 108.875 123.438C108.875 123.979 108.646 124.479 108.188 124.938C107.729 125.396 107.229 125.625 106.688 125.625C105.562 125.625 103 124.292 99 121.625C95.0417 118.958 91.4583 116.167 88.25 113.25C80.625 117.458 72.7917 119.562 64.75 119.562C56.9167 119.562 49.4583 117.583 42.375 113.625C34.2917 109.125 28.2083 102.708 24.125 94.375C21 88.0833 19.4375 81.4167 19.4375 74.375C19.4375 62.7083 23.3125 52.6042 31.0625 44.0625C35.4375 39.1875 40.6458 35.4583 46.6875 32.875C52.3958 30.375 58.3958 29.125 64.6875 29.125C73.3542 29.125 81.3542 31.3958 88.6875 35.9375C96.1458 40.6042 101.792 46.9792 105.625 55.0625C108.542 61.2292 110 67.6875 110 74.4375C110 81.4375 108.396 88.2083 105.188 94.75C101.979 101.25 97.625 106.562 92.125 110.688ZM88.875 108.062C92.4167 105.688 95.75 102.25 98.875 97.75C103.667 90.875 106.062 83.125 106.062 74.5C106.062 67.2083 104.208 60.2708 100.5 53.6875C96.875 47.2292 91.875 42.1667 85.5 38.5C79.1667 34.8333 72.2292 33 64.6875 33C63.0208 33 61.3958 33.1458 59.8125 33.4375V115.375C61.2708 115.667 62.7083 115.812 64.125 115.812C72 115.812 78.9792 114.021 85.0625 110.438C77.6875 103.104 74 98.7292 74 97.3125C74 96.8542 74.2083 96.4167 74.625 96C75.0417 95.5833 75.4583 95.375 75.875 95.375C76.5833 95.375 77.5625 96.125 78.8125 97.625C82.4375 101.917 85.7917 105.396 88.875 108.062Z" fill="#DD4E3E"/>
<circle cx="116.5" cy="125.5" r="2.5" fill="#DD4E3E"/>
<circle cx="129.5" cy="125.5" r="2.5" fill="#DD4E3E"/>
<circle cx="142.5" cy="125.5" r="2.5" fill="#DD4E3E"/>
</svg>
