<svg width="30" height="30" viewBox="0 0 30 30" fill="none" xmlns="http://www.w3.org/2000/svg">
<path fill-rule="evenodd" clip-rule="evenodd" d="M21.875 3.75C22.2631 3.75 22.6459 3.84036 22.993 4.01393C23.3402 4.1875 23.6421 4.43951 23.875 4.75L27.235 9.23C27.4037 9.45096 27.4934 9.72205 27.49 10H27.5V11.25C27.5012 12.4682 27.0566 13.6446 26.25 14.5575V23.75C26.25 24.413 25.9866 25.0489 25.5178 25.5178C25.0489 25.9866 24.413 26.25 23.75 26.25H6.25001C5.58696 26.25 4.95108 25.9866 4.48224 25.5178C4.0134 25.0489 3.75001 24.413 3.75001 23.75V14.5575C2.9429 13.6449 2.4982 12.4683 2.50001 11.25V10H2.51001C2.50657 9.72205 2.59635 9.45096 2.76501 9.23L6.12501 4.75C6.35787 4.43951 6.65983 4.1875 7.00697 4.01393C7.35411 3.84036 7.73689 3.75 8.12501 3.75H21.875ZM25 11.25H20C19.9971 11.8987 20.2465 12.5232 20.6955 12.9914C21.1445 13.4597 21.7579 13.7351 22.4062 13.7594C23.0545 13.7838 23.6868 13.5552 24.1697 13.1219C24.6525 12.6886 24.948 12.0846 24.9938 11.4375L25 11.25ZM17.5 11.25H12.5C12.4971 11.8987 12.7465 12.5232 13.1955 12.9914C13.6445 13.4597 14.2579 13.7351 14.9062 13.7594C15.5545 13.7838 16.1868 13.5552 16.6697 13.1219C17.1525 12.6886 17.448 12.0846 17.4938 11.4375L17.5 11.25ZM10 11.25H5.00001C4.9971 11.8987 5.24649 12.5232 5.69548 12.9914C6.14447 13.4597 6.7579 13.7351 7.40618 13.7594C8.05446 13.7838 8.68681 13.5552 9.16965 13.1219C9.65249 12.6886 9.948 12.0846 9.99376 11.4375L10 11.25Z" fill="#543310"/>
</svg>
