<svg width="30" height="30" viewBox="0 0 30 30" fill="none" xmlns="http://www.w3.org/2000/svg">
<path fill-rule="evenodd" clip-rule="evenodd" d="M21.8751 3.75C22.2632 3.75 22.646 3.84036 22.9931 4.01393C23.3402 4.1875 23.6422 4.43951 23.8751 4.75L27.2351 9.23C27.4037 9.45096 27.4935 9.72205 27.4901 10H27.5001V11.25C27.5013 12.4682 27.0567 13.6446 26.2501 14.5575V23.75C26.2501 24.413 25.9867 25.0489 25.5178 25.5178C25.049 25.9866 24.4131 26.25 23.7501 26.25H6.25007C5.58703 26.25 4.95114 25.9866 4.4823 25.5178C4.01346 25.0489 3.75007 24.413 3.75007 23.75V14.5575C2.94296 13.6449 2.49826 12.4683 2.50007 11.25V10H2.51007C2.50663 9.72205 2.59641 9.45096 2.76507 9.23L6.12507 4.75C6.35793 4.43951 6.65989 4.1875 7.00703 4.01393C7.35417 3.84036 7.73695 3.75 8.12507 3.75H21.8751ZM18.7501 14.5575C18.2813 15.0901 17.7044 15.5166 17.0577 15.8084C16.411 16.1003 15.7095 16.2508 15.0001 16.25C14.2906 16.2508 13.5891 16.1003 12.9424 15.8084C12.2957 15.5166 11.7188 15.0901 11.2501 14.5575C10.6752 15.2112 9.93926 15.7031 9.11538 15.9842C8.29149 16.2654 7.40838 16.326 6.55382 16.16L6.25007 16.0925V23.75H23.7501V16.0925L23.4463 16.16C22.5916 16.3258 21.7085 16.265 20.8846 15.9837C20.0607 15.7023 19.3248 15.2114 18.7501 14.5575ZM25.0001 11.25H20.0001C19.9972 11.8987 20.2466 12.5232 20.6955 12.9914C21.1445 13.4597 21.758 13.7351 22.4062 13.7594C23.0545 13.7838 23.6869 13.5552 24.1697 13.1219C24.6526 12.6886 24.9481 12.0846 24.9938 11.4375L25.0001 11.25ZM17.5001 11.25H12.5001C12.4972 11.8987 12.7466 12.5232 13.1955 12.9914C13.6445 13.4597 14.258 13.7351 14.9062 13.7594C15.5545 13.7838 16.1869 13.5552 16.6697 13.1219C17.1526 12.6886 17.4481 12.0846 17.4938 11.4375L17.5001 11.25ZM10.0001 11.25H5.00007C4.99716 11.8987 5.24655 12.5232 5.69554 12.9914C6.14453 13.4597 6.75796 13.7351 7.40624 13.7594C8.05452 13.7838 8.68687 13.5552 9.16971 13.1219C9.65255 12.6886 9.94806 12.0846 9.99382 11.4375L10.0001 11.25ZM21.8751 6.25H8.12507L6.25007 8.75H23.7501L21.8751 6.25Z" fill="#543310"/>
</svg>
