<svg width="30" height="30" viewBox="0 0 30 30" fill="none" xmlns="http://www.w3.org/2000/svg">
<path d="M15 16.2499C17.995 16.2499 20.7188 17.1174 22.7225 18.3399C23.7225 18.9499 24.5775 19.6699 25.195 20.4524C25.8025 21.2211 26.25 22.1411 26.25 23.1249C26.25 24.1811 25.7362 25.0136 24.9963 25.6074C24.2962 26.1699 23.3725 26.5424 22.3913 26.8024C20.4188 27.3236 17.7863 27.4999 15 27.4999C12.2137 27.4999 9.58125 27.3249 7.60875 26.8024C6.6275 26.5424 5.70375 26.1699 5.00375 25.6074C4.2625 25.0124 3.75 24.1811 3.75 23.1249C3.75 22.1411 4.1975 21.2211 4.805 20.4511C5.4225 19.6699 6.27625 18.9511 7.2775 18.3386C9.28125 17.1186 12.0063 16.2499 15 16.2499ZM15 2.49988C16.6576 2.49988 18.2473 3.15836 19.4194 4.33046C20.5915 5.50256 21.25 7.09227 21.25 8.74988C21.25 10.4075 20.5915 11.9972 19.4194 13.1693C18.2473 14.3414 16.6576 14.9999 15 14.9999C13.3424 14.9999 11.7527 14.3414 10.5806 13.1693C9.40848 11.9972 8.75 10.4075 8.75 8.74988C8.75 7.09227 9.40848 5.50256 10.5806 4.33046C11.7527 3.15836 13.3424 2.49988 15 2.49988Z" fill="#543310"/>
</svg>
