<svg width="14" height="14" viewBox="0 0 14 14" fill="none" xmlns="http://www.w3.org/2000/svg">
<path d="M6.17164 12.1039L6.52519 11.7504L6.50278 11.728L6.47773 11.7086L6.17164 12.1039ZM11.13 11.2289L10.655 11.0728L10.6493 11.09L10.6449 11.1077L11.13 11.2289ZM12.53 6.97061L12.0589 6.80239L12.055 6.81445L12.53 6.97061ZM8.50497 4.75394L8.01092 4.67675L8.01 4.68323L8.50497 4.75394ZM8.79664 2.88728L8.30855 2.77881L8.30509 2.79436L8.30263 2.81009L8.79664 2.88728ZM8.03831 1.60394L7.86274 2.07211L7.87141 2.07536L7.88019 2.07829L8.03831 1.60394ZM6.75497 2.01228L7.16995 2.2912L7.171 2.28963L6.75497 2.01228ZM4.36331 10.7039L4.05722 11.0993L5.86555 12.4993L6.17164 12.1039L6.47773 11.7086L4.66939 10.3086L4.36331 10.7039ZM6.17164 12.1039L5.81809 12.4575C6.02365 12.6631 6.30989 12.7801 6.54469 12.8472C6.79174 12.9178 7.05668 12.9539 7.27997 12.9539V12.4539V11.9539C7.15326 11.9539 6.98071 11.9318 6.81942 11.8857C6.64588 11.8361 6.55296 11.7782 6.52519 11.7504L6.17164 12.1039ZM7.27997 12.4539V12.9539H9.49664V12.4539V11.9539H7.27997V12.4539ZM9.49664 12.4539V12.9539C9.96648 12.9539 10.4325 12.7803 10.8054 12.5075C11.1787 12.2343 11.4937 11.8355 11.615 11.3502L11.13 11.2289L10.6449 11.1077C10.5912 11.3224 10.4396 11.536 10.2149 11.7004C9.98991 11.8651 9.7268 11.9539 9.49664 11.9539V12.4539ZM11.13 11.2289L11.605 11.3851L13.005 7.12677L12.53 6.97061L12.055 6.81445L10.655 11.0728L11.13 11.2289ZM12.53 6.97061L13.0008 7.13878C13.196 6.59228 13.1298 6.03548 12.8158 5.60943C12.5043 5.18657 11.9944 4.95394 11.4216 4.95394V5.45394V5.95394C11.7239 5.95394 11.914 6.07132 12.0108 6.20263C12.1052 6.33074 12.1556 6.53228 12.0591 6.80244L12.53 6.97061ZM11.4216 5.45394V4.95394H9.08831V5.45394V5.95394H11.4216V5.45394ZM9.08831 5.45394V4.95394C9.05341 4.95394 9.03069 4.94016 9.01843 4.92626C9.01221 4.9192 9.0064 4.90973 9.00246 4.89618C8.9986 4.88287 8.99491 4.85989 8.99995 4.82465L8.50497 4.75394L8.01 4.68323C7.90741 5.40134 8.44274 5.95394 9.08831 5.95394V5.45394ZM8.50497 4.75394L8.99898 4.83113L9.29064 2.96447L8.79664 2.88728L8.30263 2.81009L8.01097 4.67676L8.50497 4.75394ZM8.79664 2.88728L9.28473 2.99574C9.46095 2.20276 8.94673 1.37971 8.19642 1.1296L8.03831 1.60394L7.88019 2.07829C8.17988 2.17818 8.36566 2.5218 8.30855 2.77881L8.79664 2.88728ZM8.03831 1.60394L8.21387 1.13578C7.84918 0.999024 7.46452 1.02911 7.1466 1.13839C6.83205 1.24652 6.52836 1.45081 6.33895 1.73493L6.75497 2.01228L7.171 2.28963C7.21492 2.22374 7.31956 2.13637 7.47168 2.08408C7.62043 2.03295 7.76076 2.03387 7.86274 2.07211L8.03831 1.60394ZM6.75497 2.01228L6.34 1.73336L3.94833 5.29169L4.36331 5.57061L4.77828 5.84953L7.16995 2.2912L6.75497 2.01228ZM1.38831 10.7039H1.88831V4.98728H1.38831H0.888306V10.7039H1.38831ZM1.38831 4.98728H1.88831C1.88831 4.63529 1.9658 4.53001 2.00453 4.49426C2.05308 4.44944 2.18496 4.37894 2.55497 4.37894V3.87894V3.37894C2.10832 3.37894 1.65686 3.45428 1.32625 3.75946C0.985809 4.07371 0.888306 4.5226 0.888306 4.98728H1.38831ZM2.55497 3.87894V4.37894H3.13831V3.87894V3.37894H2.55497V3.87894ZM3.13831 3.87894V4.37894C3.50832 4.37894 3.6402 4.44944 3.68875 4.49426C3.72748 4.53001 3.80497 4.63529 3.80497 4.98728H4.30497H4.80497C4.80497 4.5226 4.70747 4.07371 4.36703 3.75946C4.03642 3.45428 3.58496 3.37894 3.13831 3.37894V3.87894ZM4.30497 4.98728H3.80497V10.7039H4.30497H4.80497V4.98728H4.30497ZM4.30497 10.7039H3.80497C3.80497 11.0559 3.72748 11.1612 3.68875 11.197C3.6402 11.2418 3.50832 11.3123 3.13831 11.3123V11.8123V12.3123C3.58496 12.3123 4.03642 12.2369 4.36703 11.9318C4.70747 11.6175 4.80497 11.1686 4.80497 10.7039H4.30497ZM3.13831 11.8123V11.3123H2.55497V11.8123V12.3123H3.13831V11.8123ZM2.55497 11.8123V11.3123C2.18496 11.3123 2.05308 11.2418 2.00453 11.197C1.9658 11.1612 1.88831 11.0559 1.88831 10.7039H1.38831H0.888306C0.888306 11.1686 0.985809 11.6175 1.32625 11.9318C1.65686 12.2369 2.10832 12.3123 2.55497 12.3123V11.8123Z" fill="#74512D"/>
</svg>
