<svg width="20" height="20" viewBox="0 0 20 20" fill="none" xmlns="http://www.w3.org/2000/svg">
<path d="M11.6667 7.50033V4.16699C11.6667 3.50395 11.4034 2.86807 10.9345 2.39923C10.4657 1.93038 9.82979 1.66699 9.16675 1.66699L5.83341 9.16699V18.3337H15.2334C15.6354 18.3382 16.0254 18.1973 16.3317 17.937C16.6379 17.6767 16.8398 17.3144 16.9001 16.917L18.0501 9.41699C18.0863 9.17812 18.0702 8.93423 18.0029 8.7022C17.9355 8.47018 17.8185 8.25557 17.66 8.07325C17.5014 7.89094 17.3051 7.74527 17.0847 7.64634C16.8643 7.54741 16.625 7.49759 16.3834 7.50033H11.6667ZM5.83341 18.3337H3.33341C2.89139 18.3337 2.46746 18.1581 2.1549 17.8455C1.84234 17.5329 1.66675 17.109 1.66675 16.667V10.8337C1.66675 10.3916 1.84234 9.96771 2.1549 9.65515C2.46746 9.34259 2.89139 9.16699 3.33341 9.16699H5.83341" fill="#74512D"/>
<path d="M5.83341 9.16699L9.16675 1.66699C9.82979 1.66699 10.4657 1.93038 10.9345 2.39923C11.4034 2.86807 11.6667 3.50395 11.6667 4.16699V7.50033H16.3834C16.625 7.49759 16.8643 7.54741 17.0847 7.64634C17.3051 7.74527 17.5014 7.89094 17.66 8.07325C17.8185 8.25557 17.9355 8.47018 18.0029 8.7022C18.0702 8.93423 18.0863 9.17812 18.0501 9.41699L16.9001 16.917C16.8398 17.3144 16.6379 17.6767 16.3317 17.937C16.0254 18.1973 15.6354 18.3382 15.2334 18.3337H5.83341M5.83341 9.16699V18.3337M5.83341 9.16699H3.33341C2.89139 9.16699 2.46746 9.34259 2.1549 9.65515C1.84234 9.96771 1.66675 10.3916 1.66675 10.8337V16.667C1.66675 17.109 1.84234 17.5329 2.1549 17.8455C2.46746 18.1581 2.89139 18.3337 3.33341 18.3337H5.83341" stroke="white" stroke-linecap="round" stroke-linejoin="round"/>
</svg>
