<svg width="28" height="28" viewBox="0 0 28 28" fill="none" xmlns="http://www.w3.org/2000/svg">
<rect width="28" height="28" rx="14" fill="white"/>
<path fill-rule="evenodd" clip-rule="evenodd" d="M14 0C21.732 0 28 6.26801 28 14C28 18.2956 26.0641 22.1379 23.0186 24.7061C21.03 21.862 17.7336 20 14 20C10.2662 20 6.96896 21.8617 4.98047 24.7061C1.93527 22.1379 0 18.2954 0 14C0 6.26801 6.26801 0 14 0ZM14 6C10.6863 6 8 8.68629 8 12C8 15.3137 10.6863 18 14 18C17.3137 18 20 15.3137 20 12C20 8.68629 17.3137 6 14 6Z" fill="#74512D"/>
</svg>
