<svg width="33" height="33" viewBox="0 0 33 33" fill="none" xmlns="http://www.w3.org/2000/svg">
<path d="M28.5 15H33V18H28.5V15ZM0 15H4.5V18H0V15ZM18 0V4.5H15V0H18ZM5.88 3.75L9.075 6.96L6.945 9.075L3.75 5.895L5.88 3.75ZM23.925 6.945L27.105 3.75L29.25 5.895L26.055 9.075L23.925 6.945ZM16.5 7.5C18.8869 7.5 21.1761 8.44821 22.864 10.136C24.5518 11.8239 25.5 14.1131 25.5 16.5C25.5 19.83 23.685 22.74 21 24.3V27C21 27.3978 20.842 27.7794 20.5607 28.0607C20.2794 28.342 19.8978 28.5 19.5 28.5H13.5C13.1022 28.5 12.7206 28.342 12.4393 28.0607C12.158 27.7794 12 27.3978 12 27V24.3C9.315 22.74 7.5 19.83 7.5 16.5C7.5 14.1131 8.44821 11.8239 10.136 10.136C11.8239 8.44821 14.1131 7.5 16.5 7.5ZM19.5 30V31.5C19.5 31.8978 19.342 32.2794 19.0607 32.5607C18.7794 32.842 18.3978 33 18 33H15C14.6022 33 14.2206 32.842 13.9393 32.5607C13.658 32.2794 13.5 31.8978 13.5 31.5V30H19.5ZM15 25.5H18V22.305C20.595 21.645 22.5 19.29 22.5 16.5C22.5 14.9087 21.8679 13.3826 20.7426 12.2574C19.6174 11.1321 18.0913 10.5 16.5 10.5C14.9087 10.5 13.3826 11.1321 12.2574 12.2574C11.1321 13.3826 10.5 14.9087 10.5 16.5C10.5 19.29 12.405 21.645 15 22.305V25.5Z" fill="#74512D"/>
</svg>
