<svg width="30" height="30" viewBox="0 0 30 30" fill="none" xmlns="http://www.w3.org/2000/svg">
<g clip-path="url(#clip0_850_2715)">
<path d="M23.415 8.30248C23.7218 10.3492 24.078 11.5207 22.614 11.5207C20.622 11.5207 20.6213 6.80623 17.25 4.12048C13.9148 1.46398 11.427 2.10973 11.3745 2.12398C11.3738 2.12473 11.3723 2.12623 11.3715 2.12698C14.1495 4.44598 12.6 8.25748 10.782 9.30823C9.03752 10.3162 7.04627 9.04498 8.08877 6.05323C5.79602 9.18823 3.81677 12.987 3.81677 16.7722C3.81677 22.9485 8.82377 27.9555 15 27.9555C21.1763 27.9555 26.1833 22.9485 26.1833 16.7722C26.1833 13.854 25.0043 10.9275 23.415 8.30248Z" fill="#EF4452"/>
<path d="M15 15.0135C15 15.0135 19.863 17.814 19.863 21.7267C19.863 24.4125 17.6857 26.5897 15 26.5897C12.3142 26.5897 10.137 24.4125 10.137 21.7267C10.137 17.814 15 15.0135 15 15.0135Z" fill="#FF7978"/>
</g>
<defs>
<clipPath id="clip0_850_2715">
<rect width="30" height="30" fill="white"/>
</clipPath>
</defs>
</svg>
