<svg width="30" height="30" viewBox="0 0 30 30" fill="none" xmlns="http://www.w3.org/2000/svg">
<path d="M16.4055 2.72323L19.2413 8.46898C19.4693 8.93173 19.911 9.25198 20.421 9.32623L26.7623 10.248C28.0478 10.4347 28.5608 12.0142 27.6308 12.921L23.0423 17.3932C22.6733 17.7532 22.5045 18.2722 22.5915 18.7807L23.6745 25.0957C23.8943 26.376 22.5503 27.3525 21.4005 26.748L15.729 23.766C15.2723 23.526 14.727 23.526 14.2703 23.766L8.59875 26.748C7.449 27.3525 6.105 26.376 6.32475 25.0957L7.40775 18.7807C7.49475 18.2722 7.32675 17.754 6.957 17.3932L2.3685 12.921C1.4385 12.0142 1.9515 10.4347 3.237 10.248L9.57825 9.32623C10.089 9.25198 10.53 8.93173 10.758 8.46898L13.5938 2.72323C14.1683 1.55848 15.8295 1.55848 16.4048 2.72323H16.4055Z" fill="#FFCD00"/>
</svg>
