<svg width="18" height="26" viewBox="0 0 18 26" fill="none" xmlns="http://www.w3.org/2000/svg">
<path d="M9 0.5C11.3869 0.5 13.6761 1.44821 15.364 3.13604C17.0518 4.82387 18 7.11305 18 9.5C18 12.83 16.185 15.74 13.5 17.3V20C13.5 20.3978 13.342 20.7794 13.0607 21.0607C12.7794 21.342 12.3978 21.5 12 21.5H6C5.60218 21.5 5.22064 21.342 4.93934 21.0607C4.65804 20.7794 4.5 20.3978 4.5 20V17.3C1.815 15.74 0 12.83 0 9.5C0 7.11305 0.948212 4.82387 2.63604 3.13604C4.32387 1.44821 6.61305 0.5 9 0.5ZM12 23V24.5C12 24.8978 11.842 25.2794 11.5607 25.5607C11.2794 25.842 10.8978 26 10.5 26H7.5C7.10218 26 6.72064 25.842 6.43934 25.5607C6.15804 25.2794 6 24.8978 6 24.5V23H12ZM7.5 18.5H10.5V15.305C13.095 14.645 15 12.29 15 9.5C15 7.9087 14.3679 6.38258 13.2426 5.25736C12.1174 4.13214 10.5913 3.5 9 3.5C7.4087 3.5 5.88258 4.13214 4.75736 5.25736C3.63214 6.38258 3 7.9087 3 9.5C3 12.29 4.905 14.645 7.5 15.305V18.5Z" fill="#D8C4B1"/>
</svg>
