<svg width="40" height="40" viewBox="0 0 40 40" fill="none" xmlns="http://www.w3.org/2000/svg">
<rect width="40" height="40" rx="20" fill="#AAB396"/>
<g clip-path="url(#clip0_1111_3470)">
<path d="M25.9272 31.7517C24.3237 30.806 20.2985 27.7895 20 21.2075C19.7022 27.788 15.6785 30.8052 14.0742 31.751C13.6925 31.976 13.211 31.9595 12.8555 31.6962C8.47321 28.4532 5.29396 22.6227 7.76371 16.5147C9.85321 11.3487 14.7642 7.94674 20.3345 8.08624C27.4287 8.26399 33.1242 14.0705 33.1242 21.2075C33.1242 25.496 30.3965 29.303 27.1437 31.6977C26.7875 31.9602 26.3082 31.9767 25.9272 31.7517Z" fill="#FFD98D"/>
</g>
<path d="M16.2285 14.2656L16.2285 6.52045L27.1944 7.74224L21.921 13.7317L22.7673 17.8989L20.2283 20.5413V23.6275L18.7058 20.5413L19.6968 17.8989L16.2285 14.2656Z" fill="#AAB396"/>
<defs>
<clipPath id="clip0_1111_3470">
<rect width="30" height="30" fill="white" transform="matrix(1 0 0 -1 5 35)"/>
</clipPath>
</defs>
</svg>
