<svg width="14" height="14" viewBox="0 0 14 14" fill="none" xmlns="http://www.w3.org/2000/svg">
<path d="M6.17176 12.1042L6.52531 11.7506L6.50291 11.7282L6.47785 11.7088L6.17176 12.1042ZM11.1301 11.2292L10.6551 11.073L10.6494 11.0903L10.645 11.1079L11.1301 11.2292ZM12.5301 6.97086L12.0591 6.80263L12.0551 6.81469L12.5301 6.97086ZM8.50509 4.75419L8.01105 4.67699L8.01012 4.68348L8.50509 4.75419ZM8.79676 2.88752L8.30867 2.77906L8.30521 2.7946L8.30275 2.81033L8.79676 2.88752ZM8.03843 1.60419L7.86287 2.07235L7.87153 2.0756L7.88031 2.07853L8.03843 1.60419ZM6.75509 2.01252L7.17007 2.29144L7.17112 2.28987L6.75509 2.01252ZM4.36343 10.7042L4.05734 11.0996L5.86567 12.4995L6.17176 12.1042L6.47785 11.7088L4.66951 10.3088L4.36343 10.7042ZM6.17176 12.1042L5.81821 12.4577C6.02378 12.6633 6.31002 12.7804 6.54482 12.8475C6.79186 12.918 7.0568 12.9542 7.28009 12.9542V12.4542V11.9542C7.15338 11.9542 6.98083 11.932 6.81954 11.8859C6.64601 11.8363 6.55308 11.7784 6.52531 11.7506L6.17176 12.1042ZM7.28009 12.4542V12.9542H9.49676V12.4542V11.9542H7.28009V12.4542ZM9.49676 12.4542V12.9542C9.96661 12.9542 10.4327 12.7806 10.8056 12.5077C11.1788 12.2346 11.4938 11.8358 11.6152 11.3505L11.1301 11.2292L10.645 11.1079C10.5914 11.3226 10.4397 11.5363 10.215 11.7007C9.99003 11.8653 9.72692 11.9542 9.49676 11.9542V12.4542ZM11.1301 11.2292L11.6051 11.3853L13.0051 7.12702L12.5301 6.97086L12.0551 6.81469L10.6551 11.073L11.1301 11.2292ZM12.5301 6.97086L13.001 7.13902C13.1961 6.59252 13.1299 6.03573 12.816 5.60967C12.5044 5.18681 11.9945 4.95419 11.4218 4.95419V5.45419V5.95419C11.724 5.95419 11.9141 6.07156 12.0109 6.20287C12.1053 6.33099 12.1557 6.53252 12.0592 6.80269L12.5301 6.97086ZM11.4218 5.45419V4.95419H9.08843V5.45419V5.95419H11.4218V5.45419ZM9.08843 5.45419V4.95419C9.05353 4.95419 9.03082 4.9404 9.01855 4.9265C9.01233 4.91945 9.00652 4.90997 9.00258 4.89642C8.99872 4.88312 8.99504 4.86013 9.00007 4.8249L8.50509 4.75419L8.01012 4.68348C7.90753 5.40159 8.44286 5.95419 9.08843 5.95419V5.45419ZM8.50509 4.75419L8.9991 4.83138L9.29077 2.96471L8.79676 2.88752L8.30275 2.81033L8.01109 4.677L8.50509 4.75419ZM8.79676 2.88752L9.28485 2.99599C9.46107 2.203 8.94685 1.37995 8.19654 1.12985L8.03843 1.60419L7.88031 2.07853C8.18 2.17843 8.36578 2.52204 8.30867 2.77906L8.79676 2.88752ZM8.03843 1.60419L8.21399 1.13602C7.84931 0.999268 7.46464 1.02935 7.14672 1.13864C6.83217 1.24676 6.52848 1.45106 6.33907 1.73517L6.75509 2.01252L7.17112 2.28987C7.21504 2.22399 7.31968 2.13661 7.4718 2.08432C7.62055 2.03319 7.76088 2.03411 7.86287 2.07235L8.03843 1.60419ZM6.75509 2.01252L6.34012 1.7336L3.94845 5.29194L4.36343 5.57086L4.7784 5.84977L7.17007 2.29144L6.75509 2.01252ZM1.38843 10.7042H1.88843V4.98752H1.38843H0.888428V10.7042H1.38843ZM1.38843 4.98752H1.88843C1.88843 4.63553 1.96592 4.53026 2.00465 4.49451C2.0532 4.44969 2.18508 4.37919 2.55509 4.37919V3.87919V3.37919C2.10844 3.37919 1.65698 3.45452 1.32637 3.7597C0.985931 4.07396 0.888428 4.52285 0.888428 4.98752H1.38843ZM2.55509 3.87919V4.37919H3.13843V3.87919V3.37919H2.55509V3.87919ZM3.13843 3.87919V4.37919C3.50844 4.37919 3.64032 4.44969 3.68887 4.49451C3.7276 4.53026 3.80509 4.63553 3.80509 4.98752H4.30509H4.80509C4.80509 4.52285 4.70759 4.07396 4.36715 3.7597C4.03654 3.45452 3.58508 3.37919 3.13843 3.37919V3.87919ZM4.30509 4.98752H3.80509V10.7042H4.30509H4.80509V4.98752H4.30509ZM4.30509 10.7042H3.80509C3.80509 11.0562 3.7276 11.1615 3.68887 11.1972C3.64032 11.242 3.50844 11.3125 3.13843 11.3125V11.8125V12.3125C3.58508 12.3125 4.03654 12.2372 4.36715 11.932C4.70759 11.6178 4.80509 11.1689 4.80509 10.7042H4.30509ZM3.13843 11.8125V11.3125H2.55509V11.8125V12.3125H3.13843V11.8125ZM2.55509 11.8125V11.3125C2.18508 11.3125 2.0532 11.242 2.00465 11.1972C1.96592 11.1615 1.88843 11.0562 1.88843 10.7042H1.38843H0.888428C0.888428 11.1689 0.985931 11.6178 1.32637 11.932C1.65698 12.2372 2.10844 12.3125 2.55509 12.3125V11.8125Z" fill="#74512D"/>
</svg>
