<svg width="50" height="50" viewBox="0 0 50 50" fill="none" xmlns="http://www.w3.org/2000/svg">
<rect width="50" height="50" rx="25" fill="#AF8F6F"/>
<path d="M16.25 28.75H15C14.337 28.75 13.7011 28.4866 13.2322 28.0178C12.7634 27.5489 12.5 26.913 12.5 26.25V15C12.5 14.337 12.7634 13.7011 13.2322 13.2322C13.7011 12.7634 14.337 12.5 15 12.5H26.25C26.913 12.5 27.5489 12.7634 28.0178 13.2322C28.4866 13.7011 28.75 14.337 28.75 15V16.25M23.75 21.25H35C36.3807 21.25 37.5 22.3693 37.5 23.75V35C37.5 36.3807 36.3807 37.5 35 37.5H23.75C22.3693 37.5 21.25 36.3807 21.25 35V23.75C21.25 22.3693 22.3693 21.25 23.75 21.25Z" stroke="white" stroke-width="2" stroke-linecap="round" stroke-linejoin="round"/>
</svg>
