<svg width="24" height="24" viewBox="0 0 24 24" fill="none" xmlns="http://www.w3.org/2000/svg">
<g clip-path="url(#clip0_850_3863)">
<path d="M8.46402 7.04998L16.95 15.536L13.485 19H20C20.2652 19 20.5196 19.1053 20.7071 19.2929C20.8947 19.4804 21 19.7348 21 20C21 20.2652 20.8947 20.5196 20.7071 20.7071C20.5196 20.8946 20.2652 21 20 21H8.89302C8.49533 20.9996 8.11405 20.8414 7.83302 20.56L2.80702 15.536C2.62122 15.3503 2.47383 15.1297 2.37327 14.887C2.27271 14.6443 2.22095 14.3842 2.22095 14.1215C2.22095 13.8588 2.27271 13.5986 2.37327 13.3559C2.47383 13.1132 2.62122 12.8927 2.80702 12.707L8.46402 7.04998ZM15.535 2.80799L21.192 8.46398C21.3778 8.64971 21.5252 8.87023 21.6258 9.11293C21.7263 9.35563 21.7781 9.61577 21.7781 9.87848C21.7781 10.1412 21.7263 10.4013 21.6258 10.644C21.5252 10.8867 21.3778 11.1073 21.192 11.293L18.364 14.121L9.87902 5.63599L12.707 2.80799C13.0821 2.43304 13.5907 2.22241 14.121 2.22241C14.6513 2.22241 15.16 2.43304 15.535 2.80799Z" fill="#FEFBF5"/>
</g>
<defs>
<clipPath id="clip0_850_3863">
<rect width="24" height="24" fill="white"/>
</clipPath>
</defs>
</svg>
