<svg width="30" height="30" viewBox="0 0 30 30" fill="none" xmlns="http://www.w3.org/2000/svg">
<g clip-path="url(#clip0_850_2710)">
<path d="M20.9272 26.7517C19.3237 25.806 15.2985 22.7895 15 16.2075C14.7022 22.788 10.6785 25.8052 9.07421 26.751C8.69246 26.976 8.21096 26.9595 7.85546 26.6962C3.47321 23.4532 0.293964 17.6227 2.76371 11.5147C4.85321 6.34874 9.76421 2.94674 15.3345 3.08624C22.4287 3.26399 28.1242 9.07049 28.1242 16.2075C28.1242 20.496 25.3965 24.303 22.1437 26.6977C21.7875 26.9602 21.3082 26.9767 20.9272 26.7517Z" fill="#FFD98D"/>
</g>
<defs>
<clipPath id="clip0_850_2710">
<rect width="30" height="30" fill="white" transform="matrix(1 0 0 -1 0 30)"/>
</clipPath>
</defs>
</svg>
