<svg width="129" height="65" viewBox="0 0 129 65" fill="none" xmlns="http://www.w3.org/2000/svg">
<g filter="url(#filter0_d_853_4024)">
<rect x="6" y="3" width="117" height="53" rx="26.5" fill="white" fill-opacity="0.8" shape-rendering="crispEdges"/>
<path d="M43 18.5C45.3869 18.5 47.6761 19.4482 49.364 21.136C51.0518 22.8239 52 25.1131 52 27.5C52 30.83 50.185 33.74 47.5 35.3V38C47.5 38.3978 47.342 38.7794 47.0607 39.0607C46.7794 39.342 46.3978 39.5 46 39.5H40C39.6022 39.5 39.2206 39.342 38.9393 39.0607C38.658 38.7794 38.5 38.3978 38.5 38V35.3C35.815 33.74 34 30.83 34 27.5C34 25.1131 34.9482 22.8239 36.636 21.136C38.3239 19.4482 40.6131 18.5 43 18.5ZM46 41V42.5C46 42.8978 45.842 43.2794 45.5607 43.5607C45.2794 43.842 44.8978 44 44.5 44H41.5C41.1022 44 40.7206 43.842 40.4393 43.5607C40.158 43.2794 40 42.8978 40 42.5V41H46ZM41.5 36.5H44.5V33.305C47.095 32.645 49 30.29 49 27.5C49 25.9087 48.3679 24.3826 47.2426 23.2574C46.1174 22.1321 44.5913 21.5 43 21.5C41.4087 21.5 39.8826 22.1321 38.7574 23.2574C37.6321 24.3826 37 25.9087 37 27.5C37 30.29 38.905 32.645 41.5 33.305V36.5Z" fill="#D8C4B1"/>
<path d="M69.538 37.144C69.166 37.144 68.878 37.042 68.674 36.838C68.482 36.622 68.386 36.328 68.386 35.956V25.354C68.386 24.97 68.482 24.676 68.674 24.472C68.878 24.268 69.166 24.166 69.538 24.166C69.91 24.166 70.192 24.268 70.384 24.472C70.588 24.676 70.69 24.97 70.69 25.354V29.602H77.224V25.354C77.224 24.97 77.32 24.676 77.512 24.472C77.716 24.268 78.004 24.166 78.376 24.166C78.748 24.166 79.03 24.268 79.222 24.472C79.426 24.676 79.528 24.97 79.528 25.354V35.956C79.528 36.328 79.426 36.622 79.222 36.838C79.03 37.042 78.748 37.144 78.376 37.144C78.004 37.144 77.716 37.042 77.512 36.838C77.32 36.622 77.224 36.328 77.224 35.956V31.528H70.69V35.956C70.69 36.328 70.594 36.622 70.402 36.838C70.21 37.042 69.922 37.144 69.538 37.144ZM83.2079 37.126C82.8479 37.126 82.5719 37.018 82.3799 36.802C82.1879 36.586 82.0919 36.286 82.0919 35.902V29.296C82.0919 28.9 82.1879 28.6 82.3799 28.396C82.5719 28.18 82.8479 28.072 83.2079 28.072C83.5679 28.072 83.8439 28.18 84.0359 28.396C84.2399 28.6 84.3419 28.9 84.3419 29.296V35.902C84.3419 36.286 84.2459 36.586 84.0539 36.802C83.8619 37.018 83.5799 37.126 83.2079 37.126ZM83.2079 26.398C82.7879 26.398 82.4579 26.296 82.2179 26.092C81.9899 25.876 81.8759 25.582 81.8759 25.21C81.8759 24.826 81.9899 24.532 82.2179 24.328C82.4579 24.124 82.7879 24.022 83.2079 24.022C83.6399 24.022 83.9699 24.124 84.1979 24.328C84.4259 24.532 84.5399 24.826 84.5399 25.21C84.5399 25.582 84.4259 25.876 84.1979 26.092C83.9699 26.296 83.6399 26.398 83.2079 26.398ZM87.7958 37.144C87.4358 37.144 87.1598 37.048 86.9678 36.856C86.7758 36.652 86.6798 36.364 86.6798 35.992V29.188C86.6798 28.816 86.7758 28.534 86.9678 28.342C87.1598 28.15 87.4298 28.054 87.7778 28.054C88.1258 28.054 88.3958 28.15 88.5878 28.342C88.7798 28.534 88.8758 28.816 88.8758 29.188V30.412L88.6778 29.962C88.9418 29.326 89.3498 28.846 89.9018 28.522C90.4658 28.186 91.1018 28.018 91.8098 28.018C92.5178 28.018 93.0998 28.15 93.5558 28.414C94.0118 28.678 94.3538 29.08 94.5818 29.62C94.8098 30.148 94.9238 30.82 94.9238 31.636V35.992C94.9238 36.364 94.8278 36.652 94.6358 36.856C94.4438 37.048 94.1678 37.144 93.8078 37.144C93.4478 37.144 93.1658 37.048 92.9618 36.856C92.7698 36.652 92.6738 36.364 92.6738 35.992V31.744C92.6738 31.06 92.5418 30.562 92.2778 30.25C92.0258 29.938 91.6298 29.782 91.0898 29.782C90.4298 29.782 89.9018 29.992 89.5058 30.412C89.1218 30.82 88.9298 31.366 88.9298 32.05V35.992C88.9298 36.76 88.5518 37.144 87.7958 37.144ZM101.241 37.18C100.461 37.18 99.8071 37.048 99.2791 36.784C98.7631 36.52 98.3791 36.136 98.1271 35.632C97.8751 35.116 97.7491 34.48 97.7491 33.724V29.89H96.8131C96.5251 29.89 96.3031 29.818 96.1471 29.674C95.9911 29.518 95.9131 29.308 95.9131 29.044C95.9131 28.768 95.9911 28.558 96.1471 28.414C96.3031 28.27 96.5251 28.198 96.8131 28.198H97.7491V26.56C97.7491 26.188 97.8451 25.906 98.0371 25.714C98.2411 25.522 98.5231 25.426 98.8831 25.426C99.2431 25.426 99.5191 25.522 99.7111 25.714C99.9031 25.906 99.9991 26.188 99.9991 26.56V28.198H101.907C102.195 28.198 102.417 28.27 102.573 28.414C102.729 28.558 102.807 28.768 102.807 29.044C102.807 29.308 102.729 29.518 102.573 29.674C102.417 29.818 102.195 29.89 101.907 29.89H99.9991V33.598C99.9991 34.174 100.125 34.606 100.377 34.894C100.629 35.182 101.037 35.326 101.601 35.326C101.805 35.326 101.985 35.308 102.141 35.272C102.297 35.236 102.435 35.212 102.555 35.2C102.699 35.188 102.819 35.236 102.915 35.344C103.011 35.44 103.059 35.644 103.059 35.956C103.059 36.196 103.017 36.412 102.933 36.604C102.861 36.784 102.723 36.91 102.519 36.982C102.363 37.03 102.159 37.072 101.907 37.108C101.655 37.156 101.433 37.18 101.241 37.18Z" fill="#D8C4B1"/>
</g>
<defs>
<filter id="filter0_d_853_4024" x="0" y="0" width="129" height="65" filterUnits="userSpaceOnUse" color-interpolation-filters="sRGB">
<feFlood flood-opacity="0" result="BackgroundImageFix"/>
<feColorMatrix in="SourceAlpha" type="matrix" values="0 0 0 0 0 0 0 0 0 0 0 0 0 0 0 0 0 0 127 0" result="hardAlpha"/>
<feOffset dy="3"/>
<feGaussianBlur stdDeviation="3"/>
<feComposite in2="hardAlpha" operator="out"/>
<feColorMatrix type="matrix" values="0 0 0 0 0 0 0 0 0 0 0 0 0 0 0 0 0 0 0.15 0"/>
<feBlend mode="normal" in2="BackgroundImageFix" result="effect1_dropShadow_853_4024"/>
<feBlend mode="normal" in="SourceGraphic" in2="effect1_dropShadow_853_4024" result="shape"/>
</filter>
</defs>
</svg>
