<svg width="14" height="14" viewBox="0 0 14 14" fill="none" xmlns="http://www.w3.org/2000/svg">
<path d="M6.17164 12.1042L6.52519 11.7506L6.50278 11.7282L6.47773 11.7088L6.17164 12.1042ZM11.13 11.2292L10.655 11.073L10.6493 11.0903L10.6449 11.1079L11.13 11.2292ZM12.53 6.97086L12.0589 6.80263L12.055 6.81469L12.53 6.97086ZM8.50497 4.75419L8.01092 4.67699L8.01 4.68348L8.50497 4.75419ZM8.79664 2.88752L8.30855 2.77906L8.30509 2.7946L8.30263 2.81033L8.79664 2.88752ZM8.03831 1.60419L7.86274 2.07235L7.87141 2.0756L7.88019 2.07853L8.03831 1.60419ZM6.75497 2.01252L7.16995 2.29144L7.171 2.28987L6.75497 2.01252ZM4.36331 10.7042L4.05722 11.0996L5.86555 12.4995L6.17164 12.1042L6.47773 11.7088L4.66939 10.3088L4.36331 10.7042ZM6.17164 12.1042L5.81809 12.4577C6.02365 12.6633 6.30989 12.7804 6.54469 12.8475C6.79174 12.918 7.05668 12.9542 7.27997 12.9542V12.4542V11.9542C7.15326 11.9542 6.98071 11.932 6.81942 11.8859C6.64588 11.8363 6.55296 11.7784 6.52519 11.7506L6.17164 12.1042ZM7.27997 12.4542V12.9542H9.49664V12.4542V11.9542H7.27997V12.4542ZM9.49664 12.4542V12.9542C9.96648 12.9542 10.4325 12.7806 10.8054 12.5077C11.1787 12.2346 11.4937 11.8358 11.615 11.3505L11.13 11.2292L10.6449 11.1079C10.5912 11.3226 10.4396 11.5363 10.2149 11.7007C9.98991 11.8653 9.7268 11.9542 9.49664 11.9542V12.4542ZM11.13 11.2292L11.605 11.3853L13.005 7.12702L12.53 6.97086L12.055 6.81469L10.655 11.073L11.13 11.2292ZM12.53 6.97086L13.0008 7.13902C13.196 6.59252 13.1298 6.03573 12.8158 5.60967C12.5043 5.18681 11.9944 4.95419 11.4216 4.95419V5.45419V5.95419C11.7239 5.95419 11.914 6.07156 12.0108 6.20287C12.1052 6.33099 12.1556 6.53252 12.0591 6.80269L12.53 6.97086ZM11.4216 5.45419V4.95419H9.08831V5.45419V5.95419H11.4216V5.45419ZM9.08831 5.45419V4.95419C9.05341 4.95419 9.03069 4.9404 9.01843 4.9265C9.01221 4.91945 9.0064 4.90997 9.00246 4.89642C8.9986 4.88312 8.99491 4.86013 8.99995 4.8249L8.50497 4.75419L8.01 4.68348C7.90741 5.40159 8.44274 5.95419 9.08831 5.95419V5.45419ZM8.50497 4.75419L8.99898 4.83138L9.29064 2.96471L8.79664 2.88752L8.30263 2.81033L8.01097 4.677L8.50497 4.75419ZM8.79664 2.88752L9.28473 2.99599C9.46095 2.203 8.94673 1.37995 8.19642 1.12985L8.03831 1.60419L7.88019 2.07853C8.17988 2.17843 8.36566 2.52204 8.30855 2.77906L8.79664 2.88752ZM8.03831 1.60419L8.21387 1.13602C7.84918 0.999268 7.46452 1.02935 7.1466 1.13864C6.83205 1.24676 6.52836 1.45106 6.33895 1.73517L6.75497 2.01252L7.171 2.28987C7.21492 2.22399 7.31956 2.13661 7.47168 2.08432C7.62043 2.03319 7.76076 2.03411 7.86274 2.07235L8.03831 1.60419ZM6.75497 2.01252L6.34 1.7336L3.94833 5.29194L4.36331 5.57086L4.77828 5.84977L7.16995 2.29144L6.75497 2.01252ZM1.38831 10.7042H1.88831V4.98752H1.38831H0.888306V10.7042H1.38831ZM1.38831 4.98752H1.88831C1.88831 4.63553 1.9658 4.53026 2.00453 4.49451C2.05308 4.44969 2.18496 4.37919 2.55497 4.37919V3.87919V3.37919C2.10832 3.37919 1.65686 3.45452 1.32625 3.7597C0.985809 4.07396 0.888306 4.52285 0.888306 4.98752H1.38831ZM2.55497 3.87919V4.37919H3.13831V3.87919V3.37919H2.55497V3.87919ZM3.13831 3.87919V4.37919C3.50832 4.37919 3.6402 4.44969 3.68875 4.49451C3.72748 4.53026 3.80497 4.63553 3.80497 4.98752H4.30497H4.80497C4.80497 4.52285 4.70747 4.07396 4.36703 3.7597C4.03642 3.45452 3.58496 3.37919 3.13831 3.37919V3.87919ZM4.30497 4.98752H3.80497V10.7042H4.30497H4.80497V4.98752H4.30497ZM4.30497 10.7042H3.80497C3.80497 11.0562 3.72748 11.1615 3.68875 11.1972C3.6402 11.242 3.50832 11.3125 3.13831 11.3125V11.8125V12.3125C3.58496 12.3125 4.03642 12.2372 4.36703 11.932C4.70747 11.6178 4.80497 11.1689 4.80497 10.7042H4.30497ZM3.13831 11.8125V11.3125H2.55497V11.8125V12.3125H3.13831V11.8125ZM2.55497 11.8125V11.3125C2.18496 11.3125 2.05308 11.242 2.00453 11.1972C1.9658 11.1615 1.88831 11.0562 1.88831 10.7042H1.38831H0.888306C0.888306 11.1689 0.985809 11.6178 1.32625 11.932C1.65686 12.2372 2.10832 12.3125 2.55497 12.3125V11.8125Z" fill="#AAB396"/>
</svg>
