<svg width="21" height="20" viewBox="0 0 21 20" fill="none" xmlns="http://www.w3.org/2000/svg">
<path d="M6.33341 9.16675L9.66675 1.66675C10.3298 1.66675 10.9657 1.93014 11.4345 2.39898C11.9034 2.86782 12.1667 3.50371 12.1667 4.16675V7.50008H16.8834C17.125 7.49735 17.3643 7.54717 17.5847 7.6461C17.8051 7.74502 18.0014 7.89069 18.16 8.07301C18.3185 8.25533 18.4355 8.46993 18.5029 8.70196C18.5702 8.93398 18.5863 9.17788 18.5501 9.41675L17.4001 16.9167C17.3398 17.3142 17.1379 17.6764 16.8317 17.9368C16.5254 18.1971 16.1354 18.338 15.7334 18.3334H6.33341M6.33341 9.16675V18.3334M6.33341 9.16675H3.83341C3.39139 9.16675 2.96746 9.34234 2.6549 9.6549C2.34234 9.96746 2.16675 10.3914 2.16675 10.8334V16.6667C2.16675 17.1088 2.34234 17.5327 2.6549 17.8453C2.96746 18.1578 3.39139 18.3334 3.83341 18.3334H6.33341" stroke="#74512D" stroke-linecap="round" stroke-linejoin="round"/>
</svg>
