<svg width="47" height="47" viewBox="0 0 47 47" fill="none" xmlns="http://www.w3.org/2000/svg">
<rect width="47" height="47" rx="23.5" fill="#AAB396"/>
<g clip-path="url(#clip0_645_3838)">
<path d="M26.1625 35.25C25.9427 35.6288 25.6273 35.9433 25.2478 36.1619C24.8683 36.3805 24.438 36.4956 24 36.4956C23.562 36.4956 23.1317 36.3805 22.7522 36.1619C22.3727 35.9433 22.0573 35.6288 21.8375 35.25M32.2875 25.25C31.7314 23.2143 31.4663 21.1101 31.5 19C31.502 17.6413 31.1349 16.3076 30.4379 15.1414C29.7409 13.9751 28.7402 13.0201 27.5427 12.3783C26.3451 11.7365 24.9957 11.4321 23.6386 11.4976C22.2815 11.5631 20.9677 11.9959 19.8375 12.75M16.825 16.825C16.6078 17.5295 16.4983 18.2628 16.5 19C16.5 27.75 12.75 30.25 12.75 30.25H30.25M10.25 10.25L37.75 37.75" stroke="white" stroke-width="2" stroke-linecap="round" stroke-linejoin="round"/>
</g>
<defs>
<clipPath id="clip0_645_3838">
<rect width="30" height="30" fill="white" transform="translate(9 9)"/>
</clipPath>
</defs>
</svg>
