<svg width="47" height="47" viewBox="0 0 47 47" fill="none" xmlns="http://www.w3.org/2000/svg">
<rect width="47" height="47" rx="23.5" fill="#AAB396"/>
<path d="M26.1625 35.25C25.9427 35.6288 25.6273 35.9433 25.2478 36.1619C24.8683 36.3805 24.438 36.4956 24 36.4956C23.562 36.4956 23.1317 36.3805 22.7522 36.1619C22.3727 35.9433 22.0573 35.6288 21.8375 35.25M31.5 19C31.5 17.0109 30.7098 15.1032 29.3033 13.6967C27.8968 12.2902 25.9891 11.5 24 11.5C22.0109 11.5 20.1032 12.2902 18.6967 13.6967C17.2902 15.1032 16.5 17.0109 16.5 19C16.5 27.75 12.75 30.25 12.75 30.25H35.25C35.25 30.25 31.5 27.75 31.5 19Z" stroke="white" stroke-width="2" stroke-linecap="round" stroke-linejoin="round"/>
</svg>
