<svg width="288" height="146" viewBox="0 0 288 146" fill="none" xmlns="http://www.w3.org/2000/svg">
<rect x="0.5" y="0.5" width="287" height="145" rx="9.5" fill="#FEFBF5"/>
<rect x="0.5" y="0.5" width="287" height="145" rx="9.5" stroke="#74512D"/>
<path d="M15.68 29.184C16.048 29.184 16.272 29.424 16.272 29.824V39.456C16.272 39.856 16.048 40.096 15.68 40.096C15.312 40.096 15.104 39.856 15.104 39.456V29.824C15.104 29.424 15.312 29.184 15.68 29.184ZM25.0766 29.6C23.9406 29.6 23.2846 30.304 23.2846 31.568V32.384H26.6126C26.9486 32.384 27.1566 32.56 27.1566 32.88C27.1566 33.184 26.9486 33.376 26.6126 33.376H23.2846V39.504C23.2846 39.872 23.0766 40.096 22.7406 40.096C22.3886 40.096 22.1806 39.872 22.1806 39.504V31.584C22.1806 29.728 23.2526 28.608 25.0286 28.608C26.2126 28.608 27.1246 29.12 27.5726 29.984C27.6206 30.08 27.6526 30.176 27.6526 30.272C27.6526 30.576 27.4446 30.784 27.1406 30.784C26.9326 30.784 26.7566 30.64 26.6606 30.464C26.3566 29.904 25.7966 29.6 25.0766 29.6ZM35.4056 35.904C35.4056 36.336 35.1496 36.576 34.7016 36.576H28.5896C28.7656 38.144 29.9016 39.2 31.5816 39.2C32.6056 39.2 33.4376 38.8 33.9336 38.16C34.0296 38.032 34.1896 37.936 34.3816 37.936C34.6856 37.936 34.8936 38.144 34.8936 38.448C34.8936 38.576 34.8616 38.672 34.7816 38.784C34.0936 39.664 32.9416 40.192 31.5816 40.192C29.1016 40.192 27.4536 38.576 27.4536 36.192C27.4536 33.808 29.1016 32.192 31.4856 32.192C33.7576 32.192 35.4056 33.776 35.4056 35.904ZM31.4856 33.184C29.9496 33.184 28.8456 34.16 28.6216 35.616H34.3656C34.1416 34.16 33.0376 33.184 31.4856 33.184ZM37.5375 28.704C37.8735 28.704 38.0815 28.928 38.0815 29.296V39.504C38.0815 39.872 37.8735 40.096 37.5375 40.096C37.1855 40.096 36.9775 39.872 36.9775 39.504V29.296C36.9775 28.928 37.1855 28.704 37.5375 28.704ZM45.365 38.528C45.365 38.64 45.333 38.752 45.301 38.816C44.853 39.696 43.973 40.192 42.773 40.192C41.045 40.192 39.973 39.072 39.973 37.216V30.384C39.973 30.016 40.181 29.792 40.517 29.792C40.869 29.792 41.077 30.016 41.077 30.384V32.384H44.405C44.741 32.384 44.949 32.56 44.949 32.88C44.949 33.184 44.741 33.376 44.405 33.376H41.077V37.232C41.077 38.496 41.733 39.2 42.837 39.2C43.605 39.2 44.117 38.864 44.421 38.272C44.501 38.112 44.661 38 44.869 38C45.157 38 45.365 38.224 45.365 38.528ZM57.567 32.288C57.919 32.288 58.111 32.496 58.111 32.88V39.424C58.111 41.744 56.607 43.168 54.143 43.168C52.607 43.168 51.311 42.688 50.735 41.904C50.655 41.792 50.623 41.696 50.623 41.568C50.623 41.264 50.831 41.04 51.151 41.04C51.279 41.04 51.391 41.088 51.487 41.184C52.047 41.824 52.927 42.176 54.111 42.176C55.903 42.176 57.007 41.152 57.007 39.472V38.656H56.975C56.351 39.568 55.279 40.048 53.887 40.048C51.615 40.048 50.063 38.48 50.063 36.112C50.063 33.76 51.615 32.192 53.887 32.192C55.263 32.192 56.351 32.688 56.975 33.584H57.007V32.88C57.007 32.496 57.215 32.288 57.567 32.288ZM54.079 39.056C55.823 39.056 57.007 37.872 57.007 36.112C57.007 34.368 55.823 33.184 54.079 33.184C52.351 33.184 51.183 34.368 51.183 36.112C51.183 37.872 52.351 39.056 54.079 39.056ZM59.8443 36.192C59.8443 33.808 61.4923 32.192 63.8763 32.192C66.2763 32.192 67.9243 33.808 67.9243 36.192C67.9243 38.56 66.2763 40.192 63.8763 40.192C61.4923 40.192 59.8443 38.56 59.8443 36.192ZM60.9643 36.192C60.9643 37.984 62.1483 39.2 63.8763 39.2C65.6203 39.2 66.8043 37.984 66.8043 36.192C66.8043 34.4 65.6203 33.184 63.8763 33.184C62.1483 33.184 60.9643 34.4 60.9643 36.192ZM69.2974 36.192C69.2974 33.808 70.9454 32.192 73.3294 32.192C75.7294 32.192 77.3774 33.808 77.3774 36.192C77.3774 38.56 75.7294 40.192 73.3294 40.192C70.9454 40.192 69.2974 38.56 69.2974 36.192ZM70.4174 36.192C70.4174 37.984 71.6014 39.2 73.3294 39.2C75.0734 39.2 76.2574 37.984 76.2574 36.192C76.2574 34.4 75.0734 33.184 73.3294 33.184C71.6014 33.184 70.4174 34.4 70.4174 36.192ZM86.2545 28.704C86.6065 28.704 86.7985 28.912 86.7985 29.296V39.504C86.7985 39.872 86.6065 40.096 86.2545 40.096C85.9025 40.096 85.6945 39.872 85.6945 39.504V38.752H85.6625C85.0545 39.664 83.9825 40.192 82.6065 40.192C80.3025 40.192 78.7505 38.592 78.7505 36.192C78.7505 33.792 80.3025 32.192 82.6065 32.192C83.9825 32.192 85.0545 32.72 85.6625 33.632H85.6945V29.296C85.6945 28.912 85.9025 28.704 86.2545 28.704ZM82.7825 39.2C84.4945 39.2 85.6945 37.984 85.6945 36.192C85.6945 34.416 84.4945 33.184 82.7825 33.184C81.0545 33.184 79.8705 34.4 79.8705 36.192C79.8705 37.984 81.0545 39.2 82.7825 39.2ZM97.8494 38.528C97.8494 38.64 97.8174 38.752 97.7854 38.816C97.3374 39.696 96.4574 40.192 95.2574 40.192C93.5294 40.192 92.4574 39.072 92.4574 37.216V30.384C92.4574 30.016 92.6654 29.792 93.0014 29.792C93.3534 29.792 93.5614 30.016 93.5614 30.384V32.384H96.8894C97.2254 32.384 97.4334 32.56 97.4334 32.88C97.4334 33.184 97.2254 33.376 96.8894 33.376H93.5614V37.232C93.5614 38.496 94.2174 39.2 95.3214 39.2C96.0894 39.2 96.6014 38.864 96.9054 38.272C96.9854 38.112 97.1454 38 97.3534 38C97.6414 38 97.8494 38.224 97.8494 38.528ZM98.6568 36.192C98.6568 33.808 100.305 32.192 102.689 32.192C105.089 32.192 106.737 33.808 106.737 36.192C106.737 38.56 105.089 40.192 102.689 40.192C100.305 40.192 98.6568 38.56 98.6568 36.192ZM99.7768 36.192C99.7768 37.984 100.961 39.2 102.689 39.2C104.433 39.2 105.617 37.984 105.617 36.192C105.617 34.4 104.433 33.184 102.689 33.184C100.961 33.184 99.7768 34.4 99.7768 36.192ZM121.044 32.192C122.996 32.192 123.988 33.376 123.988 35.6V39.504C123.988 39.872 123.78 40.096 123.428 40.096C123.092 40.096 122.884 39.872 122.884 39.504V35.696C122.884 34.064 122.196 33.184 120.868 33.184C119.508 33.184 118.66 34.272 118.66 35.984V39.504C118.66 39.872 118.452 40.096 118.1 40.096C117.764 40.096 117.556 39.872 117.556 39.504V35.696C117.556 34.064 116.868 33.184 115.524 33.184C114.18 33.184 113.332 34.272 113.332 35.984V39.504C113.332 39.872 113.124 40.096 112.788 40.096C112.436 40.096 112.228 39.872 112.228 39.504V32.88C112.228 32.496 112.436 32.288 112.788 32.288C113.124 32.288 113.332 32.496 113.332 32.88V33.392H113.364C113.876 32.624 114.708 32.192 115.764 32.192C116.964 32.192 117.844 32.704 118.276 33.648H118.308C118.82 32.72 119.732 32.192 121.044 32.192ZM133.484 35.904C133.484 36.336 133.228 36.576 132.78 36.576H126.668C126.844 38.144 127.98 39.2 129.66 39.2C130.684 39.2 131.516 38.8 132.012 38.16C132.108 38.032 132.268 37.936 132.46 37.936C132.764 37.936 132.972 38.144 132.972 38.448C132.972 38.576 132.94 38.672 132.86 38.784C132.172 39.664 131.02 40.192 129.66 40.192C127.18 40.192 125.532 38.576 125.532 36.192C125.532 33.808 127.18 32.192 129.564 32.192C131.836 32.192 133.484 33.776 133.484 35.904ZM129.564 33.184C128.028 33.184 126.924 34.16 126.7 35.616H132.444C132.22 34.16 131.116 33.184 129.564 33.184ZM142.656 35.904C142.656 36.336 142.4 36.576 141.952 36.576H135.84C136.016 38.144 137.152 39.2 138.832 39.2C139.856 39.2 140.688 38.8 141.184 38.16C141.28 38.032 141.44 37.936 141.632 37.936C141.936 37.936 142.144 38.144 142.144 38.448C142.144 38.576 142.112 38.672 142.032 38.784C141.344 39.664 140.192 40.192 138.832 40.192C136.352 40.192 134.704 38.576 134.704 36.192C134.704 33.808 136.352 32.192 138.736 32.192C141.008 32.192 142.656 33.776 142.656 35.904ZM138.736 33.184C137.2 33.184 136.096 34.16 135.872 35.616H141.616C141.392 34.16 140.288 33.184 138.736 33.184ZM149.428 38.528C149.428 38.64 149.396 38.752 149.364 38.816C148.916 39.696 148.036 40.192 146.836 40.192C145.108 40.192 144.036 39.072 144.036 37.216V30.384C144.036 30.016 144.243 29.792 144.58 29.792C144.932 29.792 145.14 30.016 145.14 30.384V32.384H148.468C148.804 32.384 149.012 32.56 149.012 32.88C149.012 33.184 148.804 33.376 148.468 33.376H145.14V37.232C145.14 38.496 145.796 39.2 146.9 39.2C147.668 39.2 148.18 38.864 148.484 38.272C148.564 38.112 148.724 38 148.932 38C149.22 38 149.428 38.224 149.428 38.528ZM163.294 32.192C165.246 32.192 166.238 33.376 166.238 35.6V39.504C166.238 39.872 166.03 40.096 165.678 40.096C165.342 40.096 165.134 39.872 165.134 39.504V35.696C165.134 34.064 164.446 33.184 163.118 33.184C161.758 33.184 160.91 34.272 160.91 35.984V39.504C160.91 39.872 160.702 40.096 160.35 40.096C160.014 40.096 159.806 39.872 159.806 39.504V35.696C159.806 34.064 159.118 33.184 157.774 33.184C156.43 33.184 155.582 34.272 155.582 35.984V39.504C155.582 39.872 155.374 40.096 155.038 40.096C154.686 40.096 154.478 39.872 154.478 39.504V32.88C154.478 32.496 154.686 32.288 155.038 32.288C155.374 32.288 155.582 32.496 155.582 32.88V33.392H155.614C156.126 32.624 156.958 32.192 158.014 32.192C159.214 32.192 160.094 32.704 160.526 33.648H160.558C161.07 32.72 161.982 32.192 163.294 32.192ZM174.694 32.288C175.03 32.288 175.238 32.496 175.238 32.88V39.408C175.238 41.744 173.798 43.168 171.446 43.168C170.038 43.168 168.854 42.752 168.23 41.904C168.15 41.792 168.118 41.696 168.118 41.568C168.118 41.264 168.326 41.04 168.646 41.04C168.774 41.04 168.886 41.088 168.982 41.184C169.606 41.872 170.39 42.176 171.43 42.176C173.11 42.176 174.134 41.136 174.134 39.44V38.672H174.102C173.526 39.536 172.55 40.048 171.254 40.048C169.126 40.048 167.958 38.8 167.958 36.496V32.88C167.958 32.496 168.166 32.288 168.502 32.288C168.854 32.288 169.062 32.496 169.062 32.88V36.4C169.062 38.128 169.91 39.056 171.494 39.056C173.094 39.056 174.134 37.904 174.134 36.08V32.88C174.134 32.496 174.342 32.288 174.694 32.288ZM185.103 32.192C187.263 32.192 188.415 33.44 188.415 35.744V39.504C188.415 39.872 188.223 40.096 187.871 40.096C187.519 40.096 187.311 39.872 187.311 39.504V35.84C187.311 34.096 186.463 33.184 184.863 33.184C183.231 33.184 182.191 34.336 182.191 36.16V39.504C182.191 39.872 181.983 40.096 181.647 40.096C181.295 40.096 181.087 39.872 181.087 39.504V29.296C181.087 28.928 181.295 28.704 181.647 28.704C181.983 28.704 182.191 28.928 182.191 29.296V33.568H182.223C182.799 32.704 183.791 32.192 185.103 32.192ZM190.881 30.672C190.465 30.672 190.193 30.384 190.193 29.984C190.193 29.568 190.465 29.28 190.881 29.28C191.281 29.28 191.553 29.568 191.553 29.984C191.553 30.384 191.281 30.672 190.881 30.672ZM190.881 32.288C191.217 32.288 191.425 32.496 191.425 32.88V39.504C191.425 39.872 191.217 40.096 190.881 40.096C190.529 40.096 190.321 39.872 190.321 39.504V32.88C190.321 32.496 190.529 32.288 190.881 32.288ZM200.661 32.288C201.013 32.288 201.205 32.496 201.205 32.88V39.424C201.205 41.744 199.701 43.168 197.237 43.168C195.701 43.168 194.405 42.688 193.829 41.904C193.749 41.792 193.717 41.696 193.717 41.568C193.717 41.264 193.925 41.04 194.245 41.04C194.373 41.04 194.485 41.088 194.581 41.184C195.141 41.824 196.021 42.176 197.205 42.176C198.997 42.176 200.101 41.152 200.101 39.472V38.656H200.069C199.445 39.568 198.373 40.048 196.981 40.048C194.709 40.048 193.157 38.48 193.157 36.112C193.157 33.76 194.709 32.192 196.981 32.192C198.357 32.192 199.445 32.688 200.069 33.584H200.101V32.88C200.101 32.496 200.309 32.288 200.661 32.288ZM197.173 39.056C198.917 39.056 200.101 37.872 200.101 36.112C200.101 34.368 198.917 33.184 197.173 33.184C195.445 33.184 194.277 34.368 194.277 36.112C194.277 37.872 195.445 39.056 197.173 39.056ZM207.306 32.192C209.466 32.192 210.618 33.44 210.618 35.744V39.504C210.618 39.872 210.426 40.096 210.074 40.096C209.722 40.096 209.514 39.872 209.514 39.504V35.84C209.514 34.096 208.666 33.184 207.066 33.184C205.434 33.184 204.394 34.336 204.394 36.16V39.504C204.394 39.872 204.186 40.096 203.85 40.096C203.498 40.096 203.29 39.872 203.29 39.504V29.296C203.29 28.928 203.498 28.704 203.85 28.704C204.186 28.704 204.394 28.928 204.394 29.296V33.568H204.426C205.002 32.704 205.994 32.192 207.306 32.192ZM217.026 34.576C217.026 35.28 217.57 35.568 219.298 35.584C221.842 35.6 222.738 36.288 222.738 37.824C222.738 39.296 221.474 40.192 219.378 40.192C217.826 40.192 216.706 39.84 215.954 39.104C215.842 38.992 215.794 38.848 215.794 38.704C215.794 38.384 216.018 38.176 216.29 38.176C216.498 38.176 216.626 38.272 216.754 38.384C217.33 38.896 218.242 39.184 219.314 39.184C220.754 39.184 221.634 38.656 221.634 37.808C221.634 37.024 221.058 36.704 219.234 36.672C216.754 36.624 215.906 36.016 215.906 34.576C215.906 33.136 217.218 32.192 219.234 32.192C220.53 32.192 221.49 32.48 222.194 33.088C222.322 33.2 222.386 33.328 222.386 33.536C222.386 33.84 222.178 34.064 221.89 34.064C221.73 34.064 221.586 34 221.474 33.904C220.93 33.456 220.114 33.184 219.298 33.184C217.89 33.184 217.026 33.712 217.026 34.576ZM231.172 38.448C231.172 38.56 231.14 38.656 231.076 38.752C230.372 39.68 229.252 40.192 227.908 40.192C225.524 40.192 223.876 38.56 223.876 36.192C223.876 33.808 225.524 32.192 227.908 32.192C229.108 32.192 230.132 32.592 230.916 33.408C231.012 33.52 231.044 33.632 231.044 33.76C231.044 34.08 230.836 34.288 230.532 34.288C230.356 34.288 230.228 34.208 230.1 34.08C229.572 33.52 228.804 33.184 227.908 33.184C226.18 33.184 224.996 34.4 224.996 36.192C224.996 37.984 226.18 39.2 227.908 39.2C228.916 39.2 229.716 38.816 230.276 38.096C230.356 38 230.5 37.936 230.66 37.936C230.964 37.936 231.172 38.144 231.172 38.448ZM236.759 32.192C238.919 32.192 240.071 33.44 240.071 35.744V39.504C240.071 39.872 239.879 40.096 239.527 40.096C239.175 40.096 238.967 39.872 238.967 39.504V35.84C238.967 34.096 238.119 33.184 236.519 33.184C234.887 33.184 233.847 34.336 233.847 36.16V39.504C233.847 39.872 233.639 40.096 233.303 40.096C232.951 40.096 232.743 39.872 232.743 39.504V29.296C232.743 28.928 232.951 28.704 233.303 28.704C233.639 28.704 233.847 28.928 233.847 29.296V33.568H233.879C234.455 32.704 235.447 32.192 236.759 32.192ZM241.626 36.192C241.626 33.808 243.274 32.192 245.658 32.192C248.058 32.192 249.706 33.808 249.706 36.192C249.706 38.56 248.058 40.192 245.658 40.192C243.274 40.192 241.626 38.56 241.626 36.192ZM242.746 36.192C242.746 37.984 243.93 39.2 245.658 39.2C247.402 39.2 248.586 37.984 248.586 36.192C248.586 34.4 247.402 33.184 245.658 33.184C243.93 33.184 242.746 34.4 242.746 36.192ZM251.079 36.192C251.079 33.808 252.727 32.192 255.111 32.192C257.511 32.192 259.159 33.808 259.159 36.192C259.159 38.56 257.511 40.192 255.111 40.192C252.727 40.192 251.079 38.56 251.079 36.192ZM252.199 36.192C252.199 37.984 253.383 39.2 255.111 39.2C256.855 39.2 258.039 37.984 258.039 36.192C258.039 34.4 256.855 33.184 255.111 33.184C253.383 33.184 252.199 34.4 252.199 36.192ZM261.444 28.704C261.78 28.704 261.988 28.928 261.988 29.296V39.504C261.988 39.872 261.78 40.096 261.444 40.096C261.092 40.096 260.884 39.872 260.884 39.504V29.296C260.884 28.928 261.092 28.704 261.444 28.704ZM17.936 55.6C16.8 55.6 16.144 56.304 16.144 57.568V58.384H19.472C19.808 58.384 20.016 58.56 20.016 58.88C20.016 59.184 19.808 59.376 19.472 59.376H16.144V65.504C16.144 65.872 15.936 66.096 15.6 66.096C15.248 66.096 15.04 65.872 15.04 65.504V57.584C15.04 55.728 16.112 54.608 17.888 54.608C19.072 54.608 19.984 55.12 20.432 55.984C20.48 56.08 20.512 56.176 20.512 56.272C20.512 56.576 20.304 56.784 20 56.784C19.792 56.784 19.616 56.64 19.52 56.464C19.216 55.904 18.656 55.6 17.936 55.6ZM25.1475 58.24C25.4675 58.24 25.6915 58.416 25.6915 58.768C25.6915 59.12 25.4675 59.312 25.1475 59.312C23.3395 59.312 22.3315 60.416 22.3315 62.656V65.504C22.3315 65.872 22.1235 66.096 21.7875 66.096C21.4355 66.096 21.2275 65.872 21.2275 65.504V58.88C21.2275 58.496 21.4355 58.288 21.7875 58.288C22.1235 58.288 22.3315 58.496 22.3315 58.88V59.744H22.3635C22.8915 58.768 23.8355 58.24 25.1475 58.24ZM27.4906 56.672C27.0746 56.672 26.8026 56.384 26.8026 55.984C26.8026 55.568 27.0746 55.28 27.4906 55.28C27.8906 55.28 28.1626 55.568 28.1626 55.984C28.1626 56.384 27.8906 56.672 27.4906 56.672ZM27.4906 58.288C27.8266 58.288 28.0346 58.496 28.0346 58.88V65.504C28.0346 65.872 27.8266 66.096 27.4906 66.096C27.1386 66.096 26.9306 65.872 26.9306 65.504V58.88C26.9306 58.496 27.1386 58.288 27.4906 58.288ZM37.7181 61.904C37.7181 62.336 37.4621 62.576 37.0141 62.576H30.9021C31.0781 64.144 32.2141 65.2 33.8941 65.2C34.9181 65.2 35.7501 64.8 36.2461 64.16C36.3421 64.032 36.5021 63.936 36.6941 63.936C36.9981 63.936 37.2061 64.144 37.2061 64.448C37.2061 64.576 37.1741 64.672 37.0941 64.784C36.4061 65.664 35.2541 66.192 33.8941 66.192C31.4141 66.192 29.7661 64.576 29.7661 62.192C29.7661 59.808 31.4141 58.192 33.7981 58.192C36.0701 58.192 37.7181 59.776 37.7181 61.904ZM33.7981 59.184C32.2621 59.184 31.1581 60.16 30.9341 61.616H36.6781C36.4541 60.16 35.3501 59.184 33.7981 59.184ZM43.306 58.192C45.466 58.192 46.618 59.44 46.618 61.744V65.504C46.618 65.872 46.426 66.096 46.074 66.096C45.722 66.096 45.514 65.872 45.514 65.504V61.84C45.514 60.096 44.666 59.184 43.066 59.184C41.434 59.184 40.394 60.336 40.394 62.16V65.504C40.394 65.872 40.186 66.096 39.85 66.096C39.498 66.096 39.29 65.872 39.29 65.504V58.88C39.29 58.512 39.498 58.288 39.85 58.288C40.186 58.288 40.394 58.512 40.394 58.88V59.568H40.426C41.002 58.704 41.994 58.192 43.306 58.192ZM55.6764 54.704C56.0284 54.704 56.2204 54.912 56.2204 55.296V65.504C56.2204 65.872 56.0284 66.096 55.6764 66.096C55.3244 66.096 55.1164 65.872 55.1164 65.504V64.752H55.0844C54.4764 65.664 53.4044 66.192 52.0284 66.192C49.7244 66.192 48.1724 64.592 48.1724 62.192C48.1724 59.792 49.7244 58.192 52.0284 58.192C53.4044 58.192 54.4764 58.72 55.0844 59.632H55.1164V55.296C55.1164 54.912 55.3244 54.704 55.6764 54.704ZM52.2044 65.2C53.9164 65.2 55.1164 63.984 55.1164 62.192C55.1164 60.416 53.9164 59.184 52.2044 59.184C50.4764 59.184 49.2924 60.4 49.2924 62.192C49.2924 63.984 50.4764 65.2 52.2044 65.2ZM69.2233 58.288C69.5753 58.288 69.7673 58.496 69.7673 58.88V65.504C69.7673 65.872 69.5753 66.096 69.2233 66.096C68.8713 66.096 68.6633 65.872 68.6633 65.504V64.752H68.6313C68.0233 65.664 66.9513 66.192 65.5753 66.192C63.2713 66.192 61.7193 64.592 61.7193 62.192C61.7193 59.792 63.2713 58.192 65.5753 58.192C66.9513 58.192 68.0233 58.72 68.6313 59.632H68.6633V58.88C68.6633 58.496 68.8713 58.288 69.2233 58.288ZM65.7513 65.2C67.4633 65.2 68.6633 63.984 68.6633 62.192C68.6633 60.416 67.4633 59.184 65.7513 59.184C64.0233 59.184 62.8393 60.4 62.8393 62.192C62.8393 63.984 64.0233 65.2 65.7513 65.2ZM74.7485 55.6C73.6125 55.6 72.9565 56.304 72.9565 57.568V58.384H76.2845C76.6205 58.384 76.8285 58.56 76.8285 58.88C76.8285 59.184 76.6205 59.376 76.2845 59.376H72.9565V65.504C72.9565 65.872 72.7485 66.096 72.4125 66.096C72.0605 66.096 71.8525 65.872 71.8525 65.504V57.584C71.8525 55.728 72.9245 54.608 74.7005 54.608C75.8845 54.608 76.7965 55.12 77.2445 55.984C77.2925 56.08 77.3245 56.176 77.3245 56.272C77.3245 56.576 77.1165 56.784 76.8125 56.784C76.6045 56.784 76.4285 56.64 76.3325 56.464C76.0285 55.904 75.4685 55.6 74.7485 55.6ZM83.3025 64.528C83.3025 64.64 83.2705 64.752 83.2385 64.816C82.7905 65.696 81.9105 66.192 80.7105 66.192C78.9825 66.192 77.9105 65.072 77.9105 63.216V56.384C77.9105 56.016 78.1185 55.792 78.4545 55.792C78.8065 55.792 79.0145 56.016 79.0145 56.384V58.384H82.3425C82.6785 58.384 82.8865 58.56 82.8865 58.88C82.8865 59.184 82.6785 59.376 82.3425 59.376H79.0145V63.232C79.0145 64.496 79.6705 65.2 80.7745 65.2C81.5425 65.2 82.0545 64.864 82.3585 64.272C82.4385 64.112 82.5985 64 82.8065 64C83.0945 64 83.3025 64.224 83.3025 64.528ZM92.0619 61.904C92.0619 62.336 91.8059 62.576 91.3579 62.576H85.2459C85.4219 64.144 86.5579 65.2 88.2379 65.2C89.2619 65.2 90.0939 64.8 90.5899 64.16C90.6859 64.032 90.8459 63.936 91.0379 63.936C91.3419 63.936 91.5499 64.144 91.5499 64.448C91.5499 64.576 91.5179 64.672 91.4379 64.784C90.7499 65.664 89.5979 66.192 88.2379 66.192C85.7579 66.192 84.1099 64.576 84.1099 62.192C84.1099 59.808 85.7579 58.192 88.1419 58.192C90.4139 58.192 92.0619 59.776 92.0619 61.904ZM88.1419 59.184C86.6059 59.184 85.5019 60.16 85.2779 61.616H91.0219C90.7979 60.16 89.6939 59.184 88.1419 59.184ZM97.5538 58.24C97.8738 58.24 98.0978 58.416 98.0978 58.768C98.0978 59.12 97.8738 59.312 97.5538 59.312C95.7458 59.312 94.7378 60.416 94.7378 62.656V65.504C94.7378 65.872 94.5298 66.096 94.1938 66.096C93.8418 66.096 93.6338 65.872 93.6338 65.504V58.88C93.6338 58.496 93.8418 58.288 94.1938 58.288C94.5298 58.288 94.7378 58.496 94.7378 58.88V59.744H94.7698C95.2978 58.768 96.2418 58.24 97.5538 58.24ZM110.255 58.288C110.607 58.288 110.799 58.496 110.799 58.88V65.504C110.799 65.872 110.607 66.096 110.255 66.096C109.903 66.096 109.695 65.872 109.695 65.504V64.752H109.663C109.055 65.664 107.983 66.192 106.607 66.192C104.303 66.192 102.751 64.592 102.751 62.192C102.751 59.792 104.303 58.192 106.607 58.192C107.983 58.192 109.055 58.72 109.663 59.632H109.695V58.88C109.695 58.496 109.903 58.288 110.255 58.288ZM106.783 65.2C108.495 65.2 109.695 63.984 109.695 62.192C109.695 60.416 108.495 59.184 106.783 59.184C105.055 59.184 103.871 60.4 103.871 62.192C103.871 63.984 105.055 65.2 106.783 65.2ZM117.209 54.704C117.545 54.704 117.753 54.928 117.753 55.296V65.504C117.753 65.872 117.545 66.096 117.209 66.096C116.857 66.096 116.649 65.872 116.649 65.504V55.296C116.649 54.928 116.857 54.704 117.209 54.704ZM119.485 62.192C119.485 59.808 121.133 58.192 123.517 58.192C125.917 58.192 127.565 59.808 127.565 62.192C127.565 64.56 125.917 66.192 123.517 66.192C121.133 66.192 119.485 64.56 119.485 62.192ZM120.605 62.192C120.605 63.984 121.789 65.2 123.517 65.2C125.261 65.2 126.445 63.984 126.445 62.192C126.445 60.4 125.261 59.184 123.517 59.184C121.789 59.184 120.605 60.4 120.605 62.192ZM133.306 58.192C135.466 58.192 136.618 59.44 136.618 61.744V65.504C136.618 65.872 136.426 66.096 136.074 66.096C135.722 66.096 135.514 65.872 135.514 65.504V61.84C135.514 60.096 134.666 59.184 133.066 59.184C131.434 59.184 130.394 60.336 130.394 62.16V65.504C130.394 65.872 130.186 66.096 129.85 66.096C129.498 66.096 129.29 65.872 129.29 65.504V58.88C129.29 58.512 129.498 58.288 129.85 58.288C130.186 58.288 130.394 58.512 130.394 58.88V59.568H130.426C131.002 58.704 131.994 58.192 133.306 58.192ZM145.676 58.288C146.028 58.288 146.22 58.496 146.22 58.88V65.424C146.22 67.744 144.716 69.168 142.252 69.168C140.716 69.168 139.42 68.688 138.844 67.904C138.764 67.792 138.732 67.696 138.732 67.568C138.732 67.264 138.94 67.04 139.26 67.04C139.388 67.04 139.5 67.088 139.596 67.184C140.156 67.824 141.036 68.176 142.22 68.176C144.012 68.176 145.116 67.152 145.116 65.472V64.656H145.084C144.46 65.568 143.388 66.048 141.996 66.048C139.724 66.048 138.172 64.48 138.172 62.112C138.172 59.76 139.724 58.192 141.996 58.192C143.372 58.192 144.46 58.688 145.084 59.584H145.116V58.88C145.116 58.496 145.324 58.288 145.676 58.288ZM142.188 65.056C143.932 65.056 145.116 63.872 145.116 62.112C145.116 60.368 143.932 59.184 142.188 59.184C140.46 59.184 139.292 60.368 139.292 62.112C139.292 63.872 140.46 65.056 142.188 65.056ZM157.271 64.528C157.271 64.64 157.239 64.752 157.207 64.816C156.759 65.696 155.879 66.192 154.679 66.192C152.951 66.192 151.879 65.072 151.879 63.216V56.384C151.879 56.016 152.087 55.792 152.423 55.792C152.775 55.792 152.983 56.016 152.983 56.384V58.384H156.311C156.647 58.384 156.855 58.56 156.855 58.88C156.855 59.184 156.647 59.376 156.311 59.376H152.983V63.232C152.983 64.496 153.639 65.2 154.743 65.2C155.511 65.2 156.023 64.864 156.327 64.272C156.407 64.112 156.567 64 156.775 64C157.063 64 157.271 64.224 157.271 64.528ZM159.116 56.672C158.7 56.672 158.428 56.384 158.428 55.984C158.428 55.568 158.7 55.28 159.116 55.28C159.516 55.28 159.788 55.568 159.788 55.984C159.788 56.384 159.516 56.672 159.116 56.672ZM159.116 58.288C159.452 58.288 159.66 58.496 159.66 58.88V65.504C159.66 65.872 159.452 66.096 159.116 66.096C158.764 66.096 158.556 65.872 158.556 65.504V58.88C158.556 58.496 158.764 58.288 159.116 58.288ZM170.559 58.192C172.511 58.192 173.503 59.376 173.503 61.6V65.504C173.503 65.872 173.295 66.096 172.943 66.096C172.607 66.096 172.399 65.872 172.399 65.504V61.696C172.399 60.064 171.711 59.184 170.383 59.184C169.023 59.184 168.175 60.272 168.175 61.984V65.504C168.175 65.872 167.967 66.096 167.615 66.096C167.279 66.096 167.071 65.872 167.071 65.504V61.696C167.071 60.064 166.383 59.184 165.039 59.184C163.695 59.184 162.847 60.272 162.847 61.984V65.504C162.847 65.872 162.639 66.096 162.303 66.096C161.951 66.096 161.743 65.872 161.743 65.504V58.88C161.743 58.496 161.951 58.288 162.303 58.288C162.639 58.288 162.847 58.496 162.847 58.88V59.392H162.879C163.391 58.624 164.223 58.192 165.279 58.192C166.479 58.192 167.359 58.704 167.791 59.648H167.823C168.335 58.72 169.247 58.192 170.559 58.192ZM182.999 61.904C182.999 62.336 182.743 62.576 182.295 62.576H176.183C176.359 64.144 177.495 65.2 179.175 65.2C180.199 65.2 181.031 64.8 181.527 64.16C181.623 64.032 181.783 63.936 181.975 63.936C182.279 63.936 182.487 64.144 182.487 64.448C182.487 64.576 182.455 64.672 182.375 64.784C181.687 65.664 180.535 66.192 179.175 66.192C176.695 66.192 175.047 64.576 175.047 62.192C175.047 59.808 176.695 58.192 179.079 58.192C181.351 58.192 182.999 59.776 182.999 61.904ZM179.079 59.184C177.543 59.184 176.439 60.16 176.215 61.616H181.959C181.735 60.16 180.631 59.184 179.079 59.184ZM185.246 66.096C184.814 66.096 184.526 65.808 184.526 65.376C184.526 64.928 184.814 64.64 185.246 64.64C185.678 64.64 185.982 64.928 185.982 65.376C185.982 65.808 185.678 66.096 185.246 66.096ZM205.884 55.184C206.236 55.184 206.492 55.408 206.492 55.76C206.492 55.872 206.46 55.968 206.412 56.112L203.02 65.584C202.908 65.888 202.7 66.096 202.364 66.096C201.996 66.096 201.82 65.888 201.708 65.584L198.796 57.44H198.764L195.868 65.584C195.756 65.888 195.532 66.096 195.212 66.096C194.844 66.096 194.668 65.888 194.556 65.584L191.18 56.128C191.132 55.984 191.1 55.888 191.1 55.776C191.1 55.424 191.34 55.184 191.708 55.184C191.948 55.184 192.14 55.312 192.236 55.584L195.196 64.064H195.228L198.204 55.68C198.316 55.376 198.476 55.184 198.78 55.184C199.1 55.184 199.26 55.376 199.372 55.68L202.364 64.064H202.396L205.372 55.6C205.468 55.312 205.644 55.184 205.884 55.184ZM214.64 61.904C214.64 62.336 214.384 62.576 213.936 62.576H207.824C208 64.144 209.136 65.2 210.816 65.2C211.84 65.2 212.672 64.8 213.168 64.16C213.264 64.032 213.424 63.936 213.616 63.936C213.92 63.936 214.128 64.144 214.128 64.448C214.128 64.576 214.096 64.672 214.016 64.784C213.328 65.664 212.176 66.192 210.816 66.192C208.336 66.192 206.688 64.576 206.688 62.192C206.688 59.808 208.336 58.192 210.72 58.192C212.992 58.192 214.64 59.776 214.64 61.904ZM210.72 59.184C209.184 59.184 208.08 60.16 207.856 61.616H213.6C213.376 60.16 212.272 59.184 210.72 59.184ZM230.346 58.288C230.65 58.288 230.89 58.496 230.89 58.816C230.89 58.928 230.874 59.024 230.826 59.152L228.282 65.664C228.186 65.92 227.977 66.096 227.706 66.096C227.418 66.096 227.226 65.92 227.13 65.664L225.018 60.256H224.986L222.874 65.664C222.778 65.92 222.57 66.096 222.298 66.096C222.01 66.096 221.818 65.92 221.722 65.664L219.194 59.2C219.146 59.072 219.114 58.96 219.114 58.832C219.114 58.496 219.354 58.288 219.674 58.288C219.914 58.288 220.09 58.4 220.186 58.656L222.282 64.24H222.314L224.474 58.72C224.57 58.464 224.714 58.288 225.018 58.288C225.322 58.288 225.466 58.464 225.562 58.72L227.722 64.24H227.753L229.85 58.656C229.946 58.416 230.122 58.288 230.346 58.288ZM239.609 61.904C239.609 62.336 239.353 62.576 238.905 62.576H232.793C232.969 64.144 234.105 65.2 235.785 65.2C236.809 65.2 237.641 64.8 238.137 64.16C238.233 64.032 238.393 63.936 238.585 63.936C238.889 63.936 239.097 64.144 239.097 64.448C239.097 64.576 239.065 64.672 238.985 64.784C238.297 65.664 237.145 66.192 235.785 66.192C233.305 66.192 231.657 64.576 231.657 62.192C231.657 59.808 233.305 58.192 235.689 58.192C237.961 58.192 239.609 59.776 239.609 61.904ZM235.689 59.184C234.153 59.184 233.049 60.16 232.825 61.616H238.569C238.345 60.16 237.241 59.184 235.689 59.184ZM245.197 58.192C247.357 58.192 248.509 59.44 248.509 61.744V65.504C248.509 65.872 248.317 66.096 247.965 66.096C247.613 66.096 247.405 65.872 247.405 65.504V61.84C247.405 60.096 246.557 59.184 244.957 59.184C243.325 59.184 242.285 60.336 242.285 62.16V65.504C242.285 65.872 242.077 66.096 241.741 66.096C241.389 66.096 241.181 65.872 241.181 65.504V58.88C241.181 58.512 241.389 58.288 241.741 58.288C242.077 58.288 242.285 58.512 242.285 58.88V59.568H242.317C242.893 58.704 243.885 58.192 245.197 58.192ZM255.615 64.528C255.615 64.64 255.583 64.752 255.551 64.816C255.103 65.696 254.223 66.192 253.023 66.192C251.295 66.192 250.223 65.072 250.223 63.216V56.384C250.223 56.016 250.431 55.792 250.767 55.792C251.119 55.792 251.327 56.016 251.327 56.384V58.384H254.655C254.991 58.384 255.199 58.56 255.199 58.88C255.199 59.184 254.991 59.376 254.655 59.376H251.327V63.232C251.327 64.496 251.983 65.2 253.087 65.2C253.855 65.2 254.367 64.864 254.671 64.272C254.751 64.112 254.911 64 255.119 64C255.407 64 255.615 64.224 255.615 64.528ZM20.24 90.528C20.24 90.64 20.208 90.752 20.176 90.816C19.728 91.696 18.848 92.192 17.648 92.192C15.92 92.192 14.848 91.072 14.848 89.216V82.384C14.848 82.016 15.056 81.792 15.392 81.792C15.744 81.792 15.952 82.016 15.952 82.384V84.384H19.28C19.616 84.384 19.824 84.56 19.824 84.88C19.824 85.184 19.616 85.376 19.28 85.376H15.952V89.232C15.952 90.496 16.608 91.2 17.712 91.2C18.48 91.2 18.992 90.864 19.296 90.272C19.376 90.112 19.536 90 19.744 90C20.032 90 20.24 90.224 20.24 90.528ZM21.0474 88.192C21.0474 85.808 22.6954 84.192 25.0794 84.192C27.4794 84.192 29.1274 85.808 29.1274 88.192C29.1274 90.56 27.4794 92.192 25.0794 92.192C22.6954 92.192 21.0474 90.56 21.0474 88.192ZM22.1674 88.192C22.1674 89.984 23.3514 91.2 25.0794 91.2C26.8234 91.2 28.0074 89.984 28.0074 88.192C28.0074 86.4 26.8234 85.184 25.0794 85.184C23.3514 85.184 22.1674 86.4 22.1674 88.192ZM41.7701 84.288C42.1221 84.288 42.3141 84.496 42.3141 84.88V91.504C42.3141 91.872 42.1221 92.096 41.7701 92.096C41.4181 92.096 41.2101 91.872 41.2101 91.504V90.752H41.1781C40.5701 91.664 39.4981 92.192 38.1221 92.192C35.8181 92.192 34.2661 90.592 34.2661 88.192C34.2661 85.792 35.8181 84.192 38.1221 84.192C39.4981 84.192 40.5701 84.72 41.1781 85.632H41.2101V84.88C41.2101 84.496 41.4181 84.288 41.7701 84.288ZM38.2981 91.2C40.0101 91.2 41.2101 89.984 41.2101 88.192C41.2101 86.416 40.0101 85.184 38.2981 85.184C36.5701 85.184 35.3861 86.4 35.3861 88.192C35.3861 89.984 36.5701 91.2 38.2981 91.2ZM55.109 90.448C55.109 90.56 55.077 90.656 55.013 90.752C54.309 91.68 53.189 92.192 51.845 92.192C49.461 92.192 47.813 90.56 47.813 88.192C47.813 85.808 49.461 84.192 51.845 84.192C53.045 84.192 54.069 84.592 54.853 85.408C54.949 85.52 54.981 85.632 54.981 85.76C54.981 86.08 54.773 86.288 54.469 86.288C54.293 86.288 54.165 86.208 54.037 86.08C53.509 85.52 52.741 85.184 51.845 85.184C50.117 85.184 48.933 86.4 48.933 88.192C48.933 89.984 50.117 91.2 51.845 91.2C52.853 91.2 53.653 90.816 54.213 90.096C54.293 90 54.437 89.936 54.597 89.936C54.901 89.936 55.109 90.144 55.109 90.448ZM63.8326 84.288C64.1846 84.288 64.3766 84.496 64.3766 84.88V91.504C64.3766 91.872 64.1846 92.096 63.8326 92.096C63.4806 92.096 63.2726 91.872 63.2726 91.504V90.752H63.2406C62.6326 91.664 61.5606 92.192 60.1846 92.192C57.8806 92.192 56.3286 90.592 56.3286 88.192C56.3286 85.792 57.8806 84.192 60.1846 84.192C61.5606 84.192 62.6326 84.72 63.2406 85.632H63.2726V84.88C63.2726 84.496 63.4806 84.288 63.8326 84.288ZM60.3606 91.2C62.0726 91.2 63.2726 89.984 63.2726 88.192C63.2726 86.416 62.0726 85.184 60.3606 85.184C58.6326 85.184 57.4486 86.4 57.4486 88.192C57.4486 89.984 58.6326 91.2 60.3606 91.2ZM69.3579 81.6C68.2219 81.6 67.5659 82.304 67.5659 83.568V84.384H70.8939C71.2299 84.384 71.4379 84.56 71.4379 84.88C71.4379 85.184 71.2299 85.376 70.8939 85.376H67.5659V91.504C67.5659 91.872 67.3579 92.096 67.0219 92.096C66.6699 92.096 66.4619 91.872 66.4619 91.504V83.584C66.4619 81.728 67.5339 80.608 69.3099 80.608C70.4939 80.608 71.4059 81.12 71.8539 81.984C71.9019 82.08 71.9339 82.176 71.9339 82.272C71.9339 82.576 71.7259 82.784 71.4219 82.784C71.2139 82.784 71.0379 82.64 70.9419 82.464C70.6379 81.904 70.0779 81.6 69.3579 81.6ZM79.6869 87.904C79.6869 88.336 79.4309 88.576 78.9829 88.576H72.8709C73.0469 90.144 74.1829 91.2 75.8629 91.2C76.8869 91.2 77.7189 90.8 78.2149 90.16C78.3109 90.032 78.4709 89.936 78.6629 89.936C78.9669 89.936 79.1749 90.144 79.1749 90.448C79.1749 90.576 79.1429 90.672 79.0629 90.784C78.3749 91.664 77.2229 92.192 75.8629 92.192C73.3829 92.192 71.7349 90.576 71.7349 88.192C71.7349 85.808 73.3829 84.192 75.7669 84.192C78.0389 84.192 79.6869 85.776 79.6869 87.904ZM75.7669 85.184C74.2309 85.184 73.1269 86.16 72.9029 87.616H78.6469C78.4229 86.16 77.3189 85.184 75.7669 85.184ZM82.4134 91.568L81.0214 94C80.9094 94.192 80.7974 94.256 80.6214 94.256C80.3814 94.256 80.2054 94.08 80.2054 93.84C80.2054 93.744 80.2374 93.664 80.2854 93.552L81.4214 91.024C81.5334 90.768 81.7094 90.64 81.9654 90.64C82.3014 90.64 82.5254 90.864 82.5254 91.2C82.5254 91.328 82.4934 91.424 82.4134 91.568ZM92.7476 84.192C95.0516 84.192 96.6196 85.792 96.6196 88.192C96.6196 90.592 95.0516 92.192 92.7476 92.192C91.3716 92.192 90.2996 91.664 89.6916 90.752H89.6596V94.48C89.6596 94.848 89.4516 95.072 89.0996 95.072C88.7476 95.072 88.5556 94.848 88.5556 94.48V84.88C88.5556 84.496 88.7476 84.288 89.0996 84.288C89.4516 84.288 89.6596 84.496 89.6596 84.88V85.632H89.6916C90.2996 84.72 91.3716 84.192 92.7476 84.192ZM92.5716 91.2C94.2996 91.2 95.4996 89.984 95.4996 88.192C95.4996 86.4 94.2996 85.184 92.5716 85.184C90.8596 85.184 89.6596 86.416 89.6596 88.192C89.6596 89.984 90.8596 91.2 92.5716 91.2ZM98.9125 80.704C99.2485 80.704 99.4565 80.928 99.4565 81.296V91.504C99.4565 91.872 99.2485 92.096 98.9125 92.096C98.5605 92.096 98.3525 91.872 98.3525 91.504V81.296C98.3525 80.928 98.5605 80.704 98.9125 80.704ZM108.692 84.288C109.044 84.288 109.236 84.496 109.236 84.88V91.504C109.236 91.872 109.044 92.096 108.692 92.096C108.34 92.096 108.132 91.872 108.132 91.504V90.752H108.1C107.492 91.664 106.42 92.192 105.044 92.192C102.74 92.192 101.188 90.592 101.188 88.192C101.188 85.792 102.74 84.192 105.044 84.192C106.42 84.192 107.492 84.72 108.1 85.632H108.132V84.88C108.132 84.496 108.34 84.288 108.692 84.288ZM105.22 91.2C106.932 91.2 108.132 89.984 108.132 88.192C108.132 86.416 106.932 85.184 105.22 85.184C103.492 85.184 102.308 86.4 102.308 88.192C102.308 89.984 103.492 91.2 105.22 91.2ZM117.881 84.288C118.217 84.288 118.425 84.496 118.425 84.88V91.408C118.425 93.744 116.985 95.168 114.633 95.168C113.225 95.168 112.041 94.752 111.417 93.904C111.337 93.792 111.305 93.696 111.305 93.568C111.305 93.264 111.513 93.04 111.833 93.04C111.961 93.04 112.073 93.088 112.169 93.184C112.793 93.872 113.577 94.176 114.617 94.176C116.297 94.176 117.321 93.136 117.321 91.44V90.672H117.289C116.713 91.536 115.737 92.048 114.441 92.048C112.313 92.048 111.145 90.8 111.145 88.496V84.88C111.145 84.496 111.353 84.288 111.689 84.288C112.041 84.288 112.249 84.496 112.249 84.88V88.4C112.249 90.128 113.097 91.056 114.681 91.056C116.281 91.056 117.321 89.904 117.321 88.08V84.88C117.321 84.496 117.529 84.288 117.881 84.288ZM128.109 87.904C128.109 88.336 127.853 88.576 127.405 88.576H121.293C121.469 90.144 122.605 91.2 124.285 91.2C125.309 91.2 126.141 90.8 126.637 90.16C126.733 90.032 126.893 89.936 127.085 89.936C127.389 89.936 127.597 90.144 127.597 90.448C127.597 90.576 127.565 90.672 127.485 90.784C126.797 91.664 125.645 92.192 124.285 92.192C121.805 92.192 120.157 90.576 120.157 88.192C120.157 85.808 121.805 84.192 124.189 84.192C126.461 84.192 128.109 85.776 128.109 87.904ZM124.189 85.184C122.653 85.184 121.549 86.16 121.325 87.616H127.069C126.845 86.16 125.741 85.184 124.189 85.184ZM136.833 80.704C137.185 80.704 137.377 80.912 137.377 81.296V91.504C137.377 91.872 137.185 92.096 136.833 92.096C136.481 92.096 136.273 91.872 136.273 91.504V90.752H136.241C135.633 91.664 134.561 92.192 133.185 92.192C130.881 92.192 129.329 90.592 129.329 88.192C129.329 85.792 130.881 84.192 133.185 84.192C134.561 84.192 135.633 84.72 136.241 85.632H136.273V81.296C136.273 80.912 136.481 80.704 136.833 80.704ZM133.361 91.2C135.073 91.2 136.273 89.984 136.273 88.192C136.273 86.416 135.073 85.184 133.361 85.184C131.633 85.184 130.449 86.4 130.449 88.192C130.449 89.984 131.633 91.2 133.361 91.2ZM150.38 84.288C150.732 84.288 150.924 84.496 150.924 84.88V91.424C150.924 93.744 149.42 95.168 146.956 95.168C145.42 95.168 144.124 94.688 143.548 93.904C143.468 93.792 143.436 93.696 143.436 93.568C143.436 93.264 143.644 93.04 143.964 93.04C144.092 93.04 144.204 93.088 144.299 93.184C144.86 93.824 145.74 94.176 146.924 94.176C148.716 94.176 149.82 93.152 149.82 91.472V90.656H149.788C149.164 91.568 148.092 92.048 146.7 92.048C144.428 92.048 142.876 90.48 142.876 88.112C142.876 85.76 144.428 84.192 146.7 84.192C148.076 84.192 149.164 84.688 149.788 85.584H149.82V84.88C149.82 84.496 150.028 84.288 150.38 84.288ZM146.891 91.056C148.636 91.056 149.82 89.872 149.82 88.112C149.82 86.368 148.636 85.184 146.891 85.184C145.164 85.184 143.996 86.368 143.996 88.112C143.996 89.872 145.164 91.056 146.891 91.056ZM160.161 84.288C160.513 84.288 160.705 84.496 160.705 84.88V91.504C160.705 91.872 160.513 92.096 160.161 92.096C159.809 92.096 159.601 91.872 159.601 91.504V90.752H159.569C158.961 91.664 157.889 92.192 156.513 92.192C154.209 92.192 152.657 90.592 152.657 88.192C152.657 85.792 154.209 84.192 156.513 84.192C157.889 84.192 158.961 84.72 159.569 85.632H159.601V84.88C159.601 84.496 159.809 84.288 160.161 84.288ZM156.689 91.2C158.401 91.2 159.601 89.984 159.601 88.192C159.601 86.416 158.401 85.184 156.689 85.184C154.961 85.184 153.777 86.4 153.777 88.192C153.777 89.984 154.961 91.2 156.689 91.2ZM171.606 84.192C173.558 84.192 174.55 85.376 174.55 87.6V91.504C174.55 91.872 174.342 92.096 173.99 92.096C173.654 92.096 173.446 91.872 173.446 91.504V87.696C173.446 86.064 172.758 85.184 171.43 85.184C170.07 85.184 169.222 86.272 169.222 87.984V91.504C169.222 91.872 169.014 92.096 168.662 92.096C168.326 92.096 168.118 91.872 168.118 91.504V87.696C168.118 86.064 167.43 85.184 166.086 85.184C164.742 85.184 163.894 86.272 163.894 87.984V91.504C163.894 91.872 163.686 92.096 163.35 92.096C162.998 92.096 162.79 91.872 162.79 91.504V84.88C162.79 84.496 162.998 84.288 163.35 84.288C163.686 84.288 163.894 84.496 163.894 84.88V85.392H163.926C164.438 84.624 165.27 84.192 166.326 84.192C167.526 84.192 168.406 84.704 168.838 85.648H168.87C169.382 84.72 170.294 84.192 171.606 84.192ZM184.046 87.904C184.046 88.336 183.79 88.576 183.342 88.576H177.23C177.406 90.144 178.542 91.2 180.222 91.2C181.246 91.2 182.078 90.8 182.574 90.16C182.67 90.032 182.83 89.936 183.022 89.936C183.326 89.936 183.534 90.144 183.534 90.448C183.534 90.576 183.502 90.672 183.422 90.784C182.734 91.664 181.582 92.192 180.222 92.192C177.742 92.192 176.094 90.576 176.094 88.192C176.094 85.808 177.742 84.192 180.126 84.192C182.398 84.192 184.046 85.776 184.046 87.904ZM180.126 85.184C178.59 85.184 177.486 86.16 177.262 87.616H183.006C182.782 86.16 181.678 85.184 180.126 85.184ZM186.354 86.576C186.354 87.28 186.898 87.568 188.626 87.584C191.17 87.6 192.066 88.288 192.066 89.824C192.066 91.296 190.802 92.192 188.706 92.192C187.154 92.192 186.034 91.84 185.282 91.104C185.17 90.992 185.122 90.848 185.122 90.704C185.122 90.384 185.346 90.176 185.618 90.176C185.826 90.176 185.954 90.272 186.082 90.384C186.658 90.896 187.57 91.184 188.642 91.184C190.082 91.184 190.962 90.656 190.962 89.808C190.962 89.024 190.386 88.704 188.562 88.672C186.082 88.624 185.234 88.016 185.234 86.576C185.234 85.136 186.546 84.192 188.562 84.192C189.858 84.192 190.818 84.48 191.522 85.088C191.65 85.2 191.714 85.328 191.714 85.536C191.714 85.84 191.506 86.064 191.218 86.064C191.058 86.064 190.914 86 190.802 85.904C190.258 85.456 189.442 85.184 188.626 85.184C187.218 85.184 186.354 85.712 186.354 86.576ZM194.851 91.568L193.459 94C193.347 94.192 193.235 94.256 193.059 94.256C192.819 94.256 192.643 94.08 192.643 93.84C192.643 93.744 192.675 93.664 192.723 93.552L193.859 91.024C193.971 90.768 194.147 90.64 194.403 90.64C194.739 90.64 194.963 90.864 194.963 91.2C194.963 91.328 194.931 91.424 194.851 91.568ZM208.145 84.288C208.497 84.288 208.689 84.496 208.689 84.88V91.504C208.689 91.872 208.497 92.096 208.145 92.096C207.793 92.096 207.585 91.872 207.585 91.504V90.752H207.553C206.945 91.664 205.873 92.192 204.497 92.192C202.193 92.192 200.641 90.592 200.641 88.192C200.641 85.792 202.193 84.192 204.497 84.192C205.873 84.192 206.945 84.72 207.553 85.632H207.585V84.88C207.585 84.496 207.793 84.288 208.145 84.288ZM204.673 91.2C206.385 91.2 207.585 89.984 207.585 88.192C207.585 86.416 206.385 85.184 204.673 85.184C202.945 85.184 201.761 86.4 201.761 88.192C201.761 89.984 202.945 91.2 204.673 91.2ZM214.79 84.192C216.95 84.192 218.102 85.44 218.102 87.744V91.504C218.102 91.872 217.91 92.096 217.558 92.096C217.206 92.096 216.998 91.872 216.998 91.504V87.84C216.998 86.096 216.15 85.184 214.55 85.184C212.918 85.184 211.878 86.336 211.878 88.16V91.504C211.878 91.872 211.67 92.096 211.334 92.096C210.982 92.096 210.774 91.872 210.774 91.504V84.88C210.774 84.512 210.982 84.288 211.334 84.288C211.67 84.288 211.878 84.512 211.878 84.88V85.568H211.91C212.486 84.704 213.478 84.192 214.79 84.192ZM227.161 80.704C227.513 80.704 227.705 80.912 227.705 81.296V91.504C227.705 91.872 227.513 92.096 227.161 92.096C226.809 92.096 226.601 91.872 226.601 91.504V90.752H226.569C225.961 91.664 224.889 92.192 223.513 92.192C221.209 92.192 219.657 90.592 219.657 88.192C219.657 85.792 221.209 84.192 223.513 84.192C224.889 84.192 225.961 84.72 226.569 85.632H226.601V81.296C226.601 80.912 226.809 80.704 227.161 80.704ZM223.689 91.2C225.401 91.2 226.601 89.984 226.601 88.192C226.601 86.416 225.401 85.184 223.689 85.184C221.961 85.184 220.777 86.4 220.777 88.192C220.777 89.984 221.961 91.2 223.689 91.2ZM237.572 84.192C239.732 84.192 240.884 85.44 240.884 87.744V91.504C240.884 91.872 240.692 92.096 240.34 92.096C239.988 92.096 239.78 91.872 239.78 91.504V87.84C239.78 86.096 238.932 85.184 237.332 85.184C235.7 85.184 234.66 86.336 234.66 88.16V91.504C234.66 91.872 234.452 92.096 234.116 92.096C233.764 92.096 233.556 91.872 233.556 91.504V81.296C233.556 80.928 233.764 80.704 234.116 80.704C234.452 80.704 234.66 80.928 234.66 81.296V85.568H234.692C235.268 84.704 236.26 84.192 237.572 84.192ZM249.942 84.288C250.294 84.288 250.486 84.496 250.486 84.88V91.504C250.486 91.872 250.294 92.096 249.942 92.096C249.59 92.096 249.382 91.872 249.382 91.504V90.752H249.35C248.742 91.664 247.67 92.192 246.294 92.192C243.99 92.192 242.438 90.592 242.438 88.192C242.438 85.792 243.99 84.192 246.294 84.192C247.67 84.192 248.742 84.72 249.35 85.632H249.382V84.88C249.382 84.496 249.59 84.288 249.942 84.288ZM246.47 91.2C248.182 91.2 249.382 89.984 249.382 88.192C249.382 86.416 248.182 85.184 246.47 85.184C244.742 85.184 243.558 86.4 243.558 88.192C243.558 89.984 244.742 91.2 246.47 91.2ZM259.723 80.704C260.075 80.704 260.267 80.912 260.267 81.296V91.504C260.267 91.872 260.075 92.096 259.723 92.096C259.371 92.096 259.163 91.872 259.163 91.504V90.752H259.131C258.523 91.664 257.451 92.192 256.075 92.192C253.771 92.192 252.219 90.592 252.219 88.192C252.219 85.792 253.771 84.192 256.075 84.192C257.451 84.192 258.523 84.72 259.131 85.632H259.163V81.296C259.163 80.912 259.371 80.704 259.723 80.704ZM256.251 91.2C257.963 91.2 259.163 89.984 259.163 88.192C259.163 86.416 257.963 85.184 256.251 85.184C254.523 85.184 253.339 86.4 253.339 88.192C253.339 89.984 254.523 91.2 256.251 91.2ZM17.936 107.6C16.8 107.6 16.144 108.304 16.144 109.568V110.384H19.472C19.808 110.384 20.016 110.56 20.016 110.88C20.016 111.184 19.808 111.376 19.472 111.376H16.144V117.504C16.144 117.872 15.936 118.096 15.6 118.096C15.248 118.096 15.04 117.872 15.04 117.504V109.584C15.04 107.728 16.112 106.608 17.888 106.608C19.072 106.608 19.984 107.12 20.432 107.984C20.48 108.08 20.512 108.176 20.512 108.272C20.512 108.576 20.304 108.784 20 108.784C19.792 108.784 19.616 108.64 19.52 108.464C19.216 107.904 18.656 107.6 17.936 107.6ZM27.85 110.288C28.186 110.288 28.394 110.496 28.394 110.88V117.536C28.394 117.872 28.17 118.096 27.834 118.096C27.498 118.096 27.29 117.872 27.29 117.536V116.816H27.258C26.682 117.68 25.706 118.192 24.41 118.192C22.282 118.192 21.114 116.944 21.114 114.624V110.88C21.114 110.496 21.322 110.288 21.658 110.288C22.01 110.288 22.218 110.496 22.218 110.88V114.528C22.218 116.288 23.066 117.2 24.65 117.2C26.25 117.2 27.29 116.064 27.29 114.224V110.88C27.29 110.496 27.482 110.288 27.85 110.288ZM34.4935 110.192C36.6535 110.192 37.8055 111.44 37.8055 113.744V117.504C37.8055 117.872 37.6135 118.096 37.2615 118.096C36.9095 118.096 36.7015 117.872 36.7015 117.504V113.84C36.7015 112.096 35.8535 111.184 34.2535 111.184C32.6215 111.184 31.5815 112.336 31.5815 114.16V117.504C31.5815 117.872 31.3735 118.096 31.0375 118.096C30.6855 118.096 30.4775 117.872 30.4775 117.504V110.88C30.4775 110.512 30.6855 110.288 31.0375 110.288C31.3735 110.288 31.5815 110.512 31.5815 110.88V111.568H31.6135C32.1895 110.704 33.1815 110.192 34.4935 110.192ZM48.6775 116.528C48.6775 116.64 48.6455 116.752 48.6135 116.816C48.1655 117.696 47.2855 118.192 46.0855 118.192C44.3575 118.192 43.2855 117.072 43.2855 115.216V108.384C43.2855 108.016 43.4935 107.792 43.8295 107.792C44.1815 107.792 44.3895 108.016 44.3895 108.384V110.384H47.7175C48.0535 110.384 48.2615 110.56 48.2615 110.88C48.2615 111.184 48.0535 111.376 47.7175 111.376H44.3895V115.232C44.3895 116.496 45.0455 117.2 46.1495 117.2C46.9175 117.2 47.4295 116.864 47.7335 116.272C47.8135 116.112 47.9735 116 48.1815 116C48.4695 116 48.6775 116.224 48.6775 116.528ZM49.4849 114.192C49.4849 111.808 51.1329 110.192 53.5169 110.192C55.9169 110.192 57.5649 111.808 57.5649 114.192C57.5649 116.56 55.9169 118.192 53.5169 118.192C51.1329 118.192 49.4849 116.56 49.4849 114.192ZM50.6049 114.192C50.6049 115.984 51.7889 117.2 53.5169 117.2C55.2609 117.2 56.4449 115.984 56.4449 114.192C56.4449 112.4 55.2609 111.184 53.5169 111.184C51.7889 111.184 50.6049 112.4 50.6049 114.192ZM66.442 110.288C66.794 110.288 66.986 110.496 66.986 110.88V117.424C66.986 119.744 65.482 121.168 63.018 121.168C61.482 121.168 60.186 120.688 59.61 119.904C59.53 119.792 59.498 119.696 59.498 119.568C59.498 119.264 59.706 119.04 60.026 119.04C60.154 119.04 60.266 119.088 60.362 119.184C60.922 119.824 61.802 120.176 62.986 120.176C64.778 120.176 65.882 119.152 65.882 117.472V116.656H65.85C65.226 117.568 64.154 118.048 62.762 118.048C60.49 118.048 58.938 116.48 58.938 114.112C58.938 111.76 60.49 110.192 62.762 110.192C64.138 110.192 65.226 110.688 65.85 111.584H65.882V110.88C65.882 110.496 66.09 110.288 66.442 110.288ZM62.954 117.056C64.698 117.056 65.882 115.872 65.882 114.112C65.882 112.368 64.698 111.184 62.954 111.184C61.226 111.184 60.058 112.368 60.058 114.112C60.058 115.872 61.226 117.056 62.954 117.056ZM76.6713 113.904C76.6713 114.336 76.4153 114.576 75.9673 114.576H69.8553C70.0312 116.144 71.1673 117.2 72.8473 117.2C73.8713 117.2 74.7033 116.8 75.1993 116.16C75.2953 116.032 75.4553 115.936 75.6473 115.936C75.9513 115.936 76.1593 116.144 76.1593 116.448C76.1593 116.576 76.1273 116.672 76.0473 116.784C75.3593 117.664 74.2073 118.192 72.8473 118.192C70.3673 118.192 68.7193 116.576 68.7193 114.192C68.7193 111.808 70.3673 110.192 72.7513 110.192C75.0233 110.192 76.6713 111.776 76.6713 113.904ZM72.7513 111.184C71.2153 111.184 70.1113 112.16 69.8873 113.616H75.6313C75.4073 112.16 74.3033 111.184 72.7513 111.184ZM83.4431 116.528C83.4431 116.64 83.4111 116.752 83.3791 116.816C82.9311 117.696 82.0511 118.192 80.8511 118.192C79.1231 118.192 78.0511 117.072 78.0511 115.216V108.384C78.0511 108.016 78.2591 107.792 78.5951 107.792C78.9471 107.792 79.1551 108.016 79.1551 108.384V110.384H82.4831C82.8191 110.384 83.0271 110.56 83.0271 110.88C83.0271 111.184 82.8191 111.376 82.4831 111.376H79.1551V115.232C79.1551 116.496 79.8111 117.2 80.9151 117.2C81.6831 117.2 82.1951 116.864 82.4991 116.272C82.5791 116.112 82.7391 116 82.9471 116C83.2351 116 83.4431 116.224 83.4431 116.528ZM88.7435 110.192C90.9035 110.192 92.0555 111.44 92.0555 113.744V117.504C92.0555 117.872 91.8635 118.096 91.5115 118.096C91.1595 118.096 90.9515 117.872 90.9515 117.504V113.84C90.9515 112.096 90.1035 111.184 88.5035 111.184C86.8715 111.184 85.8315 112.336 85.8315 114.16V117.504C85.8315 117.872 85.6235 118.096 85.2875 118.096C84.9355 118.096 84.7275 117.872 84.7275 117.504V107.296C84.7275 106.928 84.9355 106.704 85.2875 106.704C85.6235 106.704 85.8315 106.928 85.8315 107.296V111.568H85.8635C86.4395 110.704 87.4315 110.192 88.7435 110.192ZM101.562 113.904C101.562 114.336 101.306 114.576 100.858 114.576H94.7459C94.9219 116.144 96.0579 117.2 97.7379 117.2C98.7619 117.2 99.5939 116.8 100.09 116.16C100.186 116.032 100.346 115.936 100.538 115.936C100.842 115.936 101.05 116.144 101.05 116.448C101.05 116.576 101.018 116.672 100.938 116.784C100.25 117.664 99.0979 118.192 97.7379 118.192C95.2579 118.192 93.6099 116.576 93.6099 114.192C93.6099 111.808 95.2579 110.192 97.6419 110.192C99.9139 110.192 101.562 111.776 101.562 113.904ZM97.6419 111.184C96.1059 111.184 95.0019 112.16 94.7779 113.616H100.522C100.298 112.16 99.1939 111.184 97.6419 111.184ZM107.054 110.24C107.374 110.24 107.598 110.416 107.598 110.768C107.598 111.12 107.374 111.312 107.054 111.312C105.246 111.312 104.238 112.416 104.238 114.656V117.504C104.238 117.872 104.03 118.096 103.694 118.096C103.342 118.096 103.134 117.872 103.134 117.504V110.88C103.134 110.496 103.342 110.288 103.694 110.288C104.03 110.288 104.238 110.496 104.238 110.88V111.744H104.27C104.798 110.768 105.742 110.24 107.054 110.24Z" fill="#232323"/>
</svg>
