<svg width="288" height="146" viewBox="0 0 288 146" fill="none" xmlns="http://www.w3.org/2000/svg">
<rect x="0.5" y="0.5" width="287" height="145" rx="9.5" fill="#FEFBF5"/>
<rect x="0.5" y="0.5" width="287" height="145" rx="9.5" stroke="#74512D"/>
<path d="M14.832 40V38.32H16.912V30.48H14.832V28.8H20.912V30.48H18.832V38.32H20.912V40H14.832ZM27.6004 40V33.408H26.1764V31.84H27.6004V30.64C27.6004 29.9147 27.803 29.3493 28.2084 28.944C28.6244 28.528 29.195 28.32 29.9204 28.32H32.0964V29.888H30.2564C30.011 29.888 29.8137 29.9627 29.6644 30.112C29.515 30.2613 29.4404 30.464 29.4404 30.72V31.84H31.7604V33.408H29.4404V40H27.6004ZM36.9976 40C36.0803 40 35.275 39.8293 34.5816 39.488C33.899 39.136 33.3656 38.656 32.9816 38.048C32.5976 37.4293 32.4056 36.72 32.4056 35.92C32.4056 35.0773 32.5763 34.336 32.9176 33.696C33.259 33.056 33.7283 32.5547 34.3256 32.192C34.923 31.8293 35.611 31.648 36.3896 31.648C37.2643 31.648 37.9843 31.8347 38.5496 32.208C39.115 32.5813 39.531 33.0827 39.7976 33.712C40.075 34.3413 40.2136 35.0453 40.2136 35.824C40.2136 35.9307 40.2083 36.0533 40.1976 36.192C40.187 36.3307 40.171 36.4373 40.1496 36.512H34.3576C34.4216 36.9387 34.5763 37.296 34.8216 37.584C35.067 37.8613 35.3763 38.0747 35.7496 38.224C36.123 38.3627 36.539 38.432 36.9976 38.432H39.1896V40H36.9976ZM34.3416 35.264H38.3736C38.363 35.0613 38.331 34.8587 38.2776 34.656C38.235 34.4533 38.1603 34.2613 38.0536 34.08C37.9576 33.8987 37.8296 33.744 37.6696 33.616C37.5203 33.4773 37.339 33.3707 37.1256 33.296C36.9123 33.2107 36.667 33.168 36.3896 33.168C36.0696 33.168 35.787 33.232 35.5416 33.36C35.2963 33.4773 35.0883 33.6373 34.9176 33.84C34.747 34.032 34.6136 34.256 34.5176 34.512C34.4323 34.7573 34.3736 35.008 34.3416 35.264ZM41.9321 40V28.32H43.7721V40H41.9321ZM48.795 40C48.0697 40 47.499 39.792 47.083 39.376C46.6777 38.96 46.475 38.3947 46.475 37.68V29.792H48.299V37.6C48.299 37.8453 48.3737 38.048 48.523 38.208C48.6723 38.3573 48.8697 38.432 49.115 38.432H50.827V40H48.795ZM45.067 33.408V31.84H50.843V33.408H45.067ZM58.0391 43.248V41.68H62.1351C62.4125 41.68 62.6258 41.5947 62.7751 41.424C62.9351 41.2533 63.0151 41.04 63.0151 40.784V38.672H62.9991C62.7645 38.96 62.5138 39.2107 62.2471 39.424C61.9805 39.6267 61.6765 39.7867 61.3351 39.904C61.0045 40.0107 60.6365 40.064 60.2311 40.064C59.4845 40.064 58.8178 39.888 58.2311 39.536C57.6445 39.184 57.1805 38.6933 56.8391 38.064C56.5085 37.424 56.3431 36.6933 56.3431 35.872C56.3431 35.072 56.5085 34.3573 56.8391 33.728C57.1805 33.088 57.6658 32.5813 58.2951 32.208C58.9245 31.8347 59.6925 31.648 60.5991 31.648C61.4631 31.648 62.2098 31.8293 62.8391 32.192C63.4791 32.5547 63.9751 33.0667 64.3271 33.728C64.6791 34.3787 64.8551 35.1413 64.8551 36.016V40.864C64.8551 41.6 64.6418 42.1813 64.2151 42.608C63.7885 43.0347 63.2071 43.248 62.4711 43.248H58.0391ZM60.5831 38.496C61.0738 38.496 61.4951 38.384 61.8471 38.16C62.2098 37.9253 62.4871 37.616 62.6791 37.232C62.8818 36.8373 62.9831 36.4 62.9831 35.92C62.9831 35.408 62.8871 34.9493 62.6951 34.544C62.5031 34.1387 62.2258 33.8187 61.8631 33.584C61.5111 33.3387 61.0845 33.216 60.5831 33.216C60.0925 33.216 59.6658 33.3387 59.3031 33.584C58.9511 33.8187 58.6791 34.1387 58.4871 34.544C58.2951 34.9387 58.1991 35.3867 58.1991 35.888C58.1991 36.368 58.2951 36.8053 58.4871 37.2C58.6791 37.5947 58.9511 37.9093 59.3031 38.144C59.6658 38.3787 60.0925 38.496 60.5831 38.496ZM70.8826 40.192C70.04 40.192 69.2933 40.0053 68.6426 39.632C67.992 39.248 67.4746 38.736 67.0906 38.096C66.7173 37.4453 66.5306 36.72 66.5306 35.92C66.5306 35.12 66.7173 34.4 67.0906 33.76C67.4746 33.1093 67.992 32.5973 68.6426 32.224C69.2933 31.84 70.04 31.648 70.8826 31.648C71.7146 31.648 72.456 31.84 73.1066 32.224C73.7573 32.5973 74.2693 33.104 74.6426 33.744C75.0266 34.384 75.2186 35.1093 75.2186 35.92C75.2186 36.72 75.0266 37.4453 74.6426 38.096C74.2693 38.736 73.7573 39.248 73.1066 39.632C72.456 40.0053 71.7146 40.192 70.8826 40.192ZM70.8826 38.624C71.384 38.624 71.8213 38.5067 72.1946 38.272C72.568 38.0267 72.856 37.7013 73.0586 37.296C73.2613 36.8907 73.3626 36.432 73.3626 35.92C73.3626 35.4187 73.2613 34.9653 73.0586 34.56C72.856 34.144 72.568 33.8187 72.1946 33.584C71.8213 33.3387 71.384 33.216 70.8826 33.216C70.3706 33.216 69.928 33.3387 69.5546 33.584C69.192 33.8187 68.904 34.1387 68.6906 34.544C68.488 34.9493 68.3866 35.408 68.3866 35.92C68.3866 36.4213 68.488 36.88 68.6906 37.296C68.904 37.7013 69.192 38.0267 69.5546 38.272C69.928 38.5067 70.3706 38.624 70.8826 38.624ZM80.8514 40.192C80.0087 40.192 79.262 40.0053 78.6114 39.632C77.9607 39.248 77.4434 38.736 77.0594 38.096C76.686 37.4453 76.4994 36.72 76.4994 35.92C76.4994 35.12 76.686 34.4 77.0594 33.76C77.4434 33.1093 77.9607 32.5973 78.6114 32.224C79.262 31.84 80.0087 31.648 80.8514 31.648C81.6834 31.648 82.4247 31.84 83.0754 32.224C83.726 32.5973 84.238 33.104 84.6114 33.744C84.9954 34.384 85.1874 35.1093 85.1874 35.92C85.1874 36.72 84.9954 37.4453 84.6114 38.096C84.238 38.736 83.726 39.248 83.0754 39.632C82.4247 40.0053 81.6834 40.192 80.8514 40.192ZM80.8514 38.624C81.3527 38.624 81.79 38.5067 82.1634 38.272C82.5367 38.0267 82.8247 37.7013 83.0274 37.296C83.23 36.8907 83.3314 36.432 83.3314 35.92C83.3314 35.4187 83.23 34.9653 83.0274 34.56C82.8247 34.144 82.5367 33.8187 82.1634 33.584C81.79 33.3387 81.3527 33.216 80.8514 33.216C80.3394 33.216 79.8967 33.3387 79.5234 33.584C79.1607 33.8187 78.8727 34.1387 78.6594 34.544C78.4567 34.9493 78.3554 35.408 78.3554 35.92C78.3554 36.4213 78.4567 36.88 78.6594 37.296C78.8727 37.7013 79.1607 38.0267 79.5234 38.272C79.8967 38.5067 80.3394 38.624 80.8514 38.624ZM90.7241 40.192C90.0735 40.192 89.4815 40.0907 88.9481 39.888C88.4255 39.6747 87.9775 39.3707 87.6041 38.976C87.2415 38.5813 86.9588 38.1173 86.7561 37.584C86.5641 37.04 86.4681 36.4427 86.4681 35.792C86.4681 34.96 86.6335 34.2347 86.9641 33.616C87.3055 32.9973 87.7748 32.5173 88.3721 32.176C88.9695 31.824 89.6521 31.648 90.4201 31.648C90.8041 31.648 91.1668 31.7067 91.5081 31.824C91.8495 31.9413 92.1588 32.1067 92.4361 32.32C92.7135 32.5333 92.9375 32.784 93.1081 33.072H93.1241V28.32H94.9641V35.824C94.9641 36.72 94.7828 37.4987 94.4201 38.16C94.0681 38.8107 93.5721 39.312 92.9321 39.664C92.3028 40.016 91.5668 40.192 90.7241 40.192ZM90.7241 38.624C91.1935 38.624 91.6041 38.512 91.9561 38.288C92.3188 38.0533 92.6015 37.7333 92.8041 37.328C93.0068 36.9227 93.1081 36.4533 93.1081 35.92C93.1081 35.3867 93.0068 34.9173 92.8041 34.512C92.6015 34.1067 92.3188 33.792 91.9561 33.568C91.6041 33.3333 91.1881 33.216 90.7081 33.216C90.2495 33.216 89.8388 33.3333 89.4761 33.568C89.1135 33.8027 88.8308 34.1227 88.6281 34.528C88.4255 34.9333 88.3241 35.3973 88.3241 35.92C88.3241 36.4533 88.4255 36.9227 88.6281 37.328C88.8308 37.7333 89.1135 38.0533 89.4761 38.288C89.8495 38.512 90.2655 38.624 90.7241 38.624ZM104.154 40C103.429 40 102.858 39.792 102.442 39.376C102.037 38.96 101.834 38.3947 101.834 37.68V29.792H103.658V37.6C103.658 37.8453 103.733 38.048 103.882 38.208C104.032 38.3573 104.229 38.432 104.474 38.432H106.186V40H104.154ZM100.426 33.408V31.84H106.202V33.408H100.426ZM111.539 40.192C110.696 40.192 109.95 40.0053 109.299 39.632C108.648 39.248 108.131 38.736 107.747 38.096C107.374 37.4453 107.187 36.72 107.187 35.92C107.187 35.12 107.374 34.4 107.747 33.76C108.131 33.1093 108.648 32.5973 109.299 32.224C109.95 31.84 110.696 31.648 111.539 31.648C112.371 31.648 113.112 31.84 113.763 32.224C114.414 32.5973 114.926 33.104 115.299 33.744C115.683 34.384 115.875 35.1093 115.875 35.92C115.875 36.72 115.683 37.4453 115.299 38.096C114.926 38.736 114.414 39.248 113.763 39.632C113.112 40.0053 112.371 40.192 111.539 40.192ZM111.539 38.624C112.04 38.624 112.478 38.5067 112.851 38.272C113.224 38.0267 113.512 37.7013 113.715 37.296C113.918 36.8907 114.019 36.432 114.019 35.92C114.019 35.4187 113.918 34.9653 113.715 34.56C113.512 34.144 113.224 33.8187 112.851 33.584C112.478 33.3387 112.04 33.216 111.539 33.216C111.027 33.216 110.584 33.3387 110.211 33.584C109.848 33.8187 109.56 34.1387 109.347 34.544C109.144 34.9493 109.043 35.408 109.043 35.92C109.043 36.4213 109.144 36.88 109.347 37.296C109.56 37.7013 109.848 38.0267 110.211 38.272C110.584 38.5067 111.027 38.624 111.539 38.624ZM121.854 40V35.12C121.854 34.4907 122.003 33.9147 122.302 33.392C122.601 32.8587 123.033 32.4373 123.598 32.128C124.163 31.808 124.841 31.648 125.63 31.648C126.014 31.648 126.382 31.696 126.734 31.792C127.086 31.888 127.411 32.0427 127.71 32.256C128.019 32.4587 128.281 32.7147 128.494 33.024H128.51C128.723 32.7147 128.979 32.4587 129.278 32.256C129.587 32.0427 129.918 31.888 130.27 31.792C130.633 31.696 131.006 31.648 131.39 31.648C132.19 31.648 132.867 31.808 133.422 32.128C133.987 32.4373 134.419 32.8587 134.718 33.392C135.017 33.9147 135.166 34.4907 135.166 35.12V40H133.342V35.12C133.342 34.768 133.251 34.448 133.07 34.16C132.899 33.872 132.67 33.6427 132.382 33.472C132.094 33.3013 131.763 33.216 131.39 33.216C131.027 33.216 130.697 33.3013 130.398 33.472C130.099 33.6427 129.859 33.872 129.678 34.16C129.507 34.448 129.422 34.768 129.422 35.12V40H127.598V35.12C127.598 34.768 127.507 34.448 127.326 34.16C127.145 33.872 126.905 33.6427 126.606 33.472C126.318 33.3013 125.993 33.216 125.63 33.216C125.267 33.216 124.937 33.3013 124.638 33.472C124.35 33.6427 124.115 33.872 123.934 34.16C123.763 34.448 123.678 34.768 123.678 35.12V40H121.854ZM141.498 40C140.58 40 139.775 39.8293 139.082 39.488C138.399 39.136 137.866 38.656 137.482 38.048C137.098 37.4293 136.906 36.72 136.906 35.92C136.906 35.0773 137.076 34.336 137.418 33.696C137.759 33.056 138.228 32.5547 138.826 32.192C139.423 31.8293 140.111 31.648 140.89 31.648C141.764 31.648 142.484 31.8347 143.05 32.208C143.615 32.5813 144.031 33.0827 144.298 33.712C144.575 34.3413 144.714 35.0453 144.714 35.824C144.714 35.9307 144.708 36.0533 144.698 36.192C144.687 36.3307 144.671 36.4373 144.65 36.512H138.858C138.922 36.9387 139.076 37.296 139.322 37.584C139.567 37.8613 139.876 38.0747 140.25 38.224C140.623 38.3627 141.039 38.432 141.498 38.432H143.69V40H141.498ZM138.842 35.264H142.874C142.863 35.0613 142.831 34.8587 142.778 34.656C142.735 34.4533 142.66 34.2613 142.554 34.08C142.458 33.8987 142.33 33.744 142.17 33.616C142.02 33.4773 141.839 33.3707 141.626 33.296C141.412 33.2107 141.167 33.168 140.89 33.168C140.57 33.168 140.287 33.232 140.042 33.36C139.796 33.4773 139.588 33.6373 139.418 33.84C139.247 34.032 139.114 34.256 139.018 34.512C138.932 34.7573 138.874 35.008 138.842 35.264ZM150.56 40C149.643 40 148.837 39.8293 148.144 39.488C147.461 39.136 146.928 38.656 146.544 38.048C146.16 37.4293 145.968 36.72 145.968 35.92C145.968 35.0773 146.139 34.336 146.48 33.696C146.821 33.056 147.291 32.5547 147.888 32.192C148.485 31.8293 149.173 31.648 149.952 31.648C150.827 31.648 151.547 31.8347 152.112 32.208C152.677 32.5813 153.093 33.0827 153.36 33.712C153.637 34.3413 153.776 35.0453 153.776 35.824C153.776 35.9307 153.771 36.0533 153.76 36.192C153.749 36.3307 153.733 36.4373 153.712 36.512H147.92C147.984 36.9387 148.139 37.296 148.384 37.584C148.629 37.8613 148.939 38.0747 149.312 38.224C149.685 38.3627 150.101 38.432 150.56 38.432H152.752V40H150.56ZM147.904 35.264H151.936C151.925 35.0613 151.893 34.8587 151.84 34.656C151.797 34.4533 151.723 34.2613 151.616 34.08C151.52 33.8987 151.392 33.744 151.232 33.616C151.083 33.4773 150.901 33.3707 150.688 33.296C150.475 33.2107 150.229 33.168 149.952 33.168C149.632 33.168 149.349 33.232 149.104 33.36C148.859 33.4773 148.651 33.6373 148.48 33.84C148.309 34.032 148.176 34.256 148.08 34.512C147.995 34.7573 147.936 35.008 147.904 35.264ZM158.311 40C157.585 40 157.015 39.792 156.599 39.376C156.193 38.96 155.991 38.3947 155.991 37.68V29.792H157.815V37.6C157.815 37.8453 157.889 38.048 158.039 38.208C158.188 38.3573 158.385 38.432 158.631 38.432H160.343V40H158.311ZM154.583 33.408V31.84H160.359V33.408H154.583ZM166.323 40V35.12C166.323 34.4907 166.472 33.9147 166.771 33.392C167.069 32.8587 167.501 32.4373 168.067 32.128C168.632 31.808 169.309 31.648 170.099 31.648C170.483 31.648 170.851 31.696 171.203 31.792C171.555 31.888 171.88 32.0427 172.179 32.256C172.488 32.4587 172.749 32.7147 172.963 33.024H172.979C173.192 32.7147 173.448 32.4587 173.747 32.256C174.056 32.0427 174.387 31.888 174.739 31.792C175.101 31.696 175.475 31.648 175.859 31.648C176.659 31.648 177.336 31.808 177.891 32.128C178.456 32.4373 178.888 32.8587 179.187 33.392C179.485 33.9147 179.635 34.4907 179.635 35.12V40H177.811V35.12C177.811 34.768 177.72 34.448 177.539 34.16C177.368 33.872 177.139 33.6427 176.851 33.472C176.563 33.3013 176.232 33.216 175.859 33.216C175.496 33.216 175.165 33.3013 174.867 33.472C174.568 33.6427 174.328 33.872 174.147 34.16C173.976 34.448 173.891 34.768 173.891 35.12V40H172.067V35.12C172.067 34.768 171.976 34.448 171.795 34.16C171.613 33.872 171.373 33.6427 171.075 33.472C170.787 33.3013 170.461 33.216 170.099 33.216C169.736 33.216 169.405 33.3013 169.107 33.472C168.819 33.6427 168.584 33.872 168.403 34.16C168.232 34.448 168.147 34.768 168.147 35.12V40H166.323ZM184.846 43.248V40.112C184.228 39.9947 183.694 39.776 183.246 39.456C182.798 39.1253 182.452 38.7093 182.206 38.208C181.961 37.7067 181.838 37.152 181.838 36.544V31.84H183.678V36.528C183.678 36.944 183.769 37.312 183.95 37.632C184.142 37.9413 184.393 38.1867 184.702 38.368C185.022 38.5387 185.369 38.624 185.742 38.624C186.116 38.624 186.457 38.5387 186.766 38.368C187.086 38.1867 187.337 37.9413 187.518 37.632C187.71 37.312 187.806 36.944 187.806 36.528V31.84H189.646V36.544C189.646 37.152 189.524 37.7013 189.278 38.192C189.033 38.6827 188.686 39.0987 188.238 39.44C187.801 39.7707 187.278 39.9893 186.67 40.096V43.248H184.846ZM196.088 40V28.32H197.928V32.656C198.259 32.304 198.643 32.048 199.08 31.888C199.518 31.728 199.96 31.648 200.408 31.648C201.155 31.648 201.79 31.808 202.312 32.128C202.846 32.4373 203.251 32.8693 203.528 33.424C203.806 33.968 203.944 34.592 203.944 35.296V40H202.12V35.312C202.12 34.896 202.019 34.5333 201.816 34.224C201.624 33.904 201.368 33.6587 201.048 33.488C200.739 33.3067 200.392 33.216 200.008 33.216C199.646 33.216 199.304 33.3013 198.984 33.472C198.664 33.6427 198.408 33.8827 198.216 34.192C198.024 34.5013 197.928 34.8533 197.928 35.248V40H196.088ZM206.151 40V31.84H207.991V40H206.151ZM207.063 30.704C206.743 30.704 206.466 30.5867 206.231 30.352C205.996 30.1173 205.879 29.84 205.879 29.52C205.879 29.2 205.996 28.9227 206.231 28.688C206.466 28.4533 206.743 28.336 207.063 28.336C207.394 28.336 207.671 28.4533 207.895 28.688C208.13 28.9227 208.247 29.2 208.247 29.52C208.247 29.84 208.13 30.1173 207.895 30.352C207.671 30.5867 207.394 30.704 207.063 30.704ZM211.43 43.248V41.68H215.526C215.803 41.68 216.016 41.5947 216.166 41.424C216.326 41.2533 216.406 41.04 216.406 40.784V38.672H216.39C216.155 38.96 215.904 39.2107 215.638 39.424C215.371 39.6267 215.067 39.7867 214.726 39.904C214.395 40.0107 214.027 40.064 213.622 40.064C212.875 40.064 212.208 39.888 211.622 39.536C211.035 39.184 210.571 38.6933 210.23 38.064C209.899 37.424 209.734 36.6933 209.734 35.872C209.734 35.072 209.899 34.3573 210.23 33.728C210.571 33.088 211.056 32.5813 211.686 32.208C212.315 31.8347 213.083 31.648 213.99 31.648C214.854 31.648 215.6 31.8293 216.23 32.192C216.87 32.5547 217.366 33.0667 217.718 33.728C218.07 34.3787 218.246 35.1413 218.246 36.016V40.864C218.246 41.6 218.032 42.1813 217.606 42.608C217.179 43.0347 216.598 43.248 215.862 43.248H211.43ZM213.974 38.496C214.464 38.496 214.886 38.384 215.238 38.16C215.6 37.9253 215.878 37.616 216.07 37.232C216.272 36.8373 216.374 36.4 216.374 35.92C216.374 35.408 216.278 34.9493 216.086 34.544C215.894 34.1387 215.616 33.8187 215.254 33.584C214.902 33.3387 214.475 33.216 213.974 33.216C213.483 33.216 213.056 33.3387 212.694 33.584C212.342 33.8187 212.07 34.1387 211.878 34.544C211.686 34.9387 211.59 35.3867 211.59 35.888C211.59 36.368 211.686 36.8053 211.878 37.2C212.07 37.5947 212.342 37.9093 212.694 38.144C213.056 38.3787 213.483 38.496 213.974 38.496ZM220.385 40V28.32H222.225V32.656C222.556 32.304 222.94 32.048 223.377 31.888C223.815 31.728 224.257 31.648 224.705 31.648C225.452 31.648 226.087 31.808 226.609 32.128C227.143 32.4373 227.548 32.8693 227.825 33.424C228.103 33.968 228.241 34.592 228.241 35.296V40H226.417V35.312C226.417 34.896 226.316 34.5333 226.113 34.224C225.921 33.904 225.665 33.6587 225.345 33.488C225.036 33.3067 224.689 33.216 224.305 33.216C223.943 33.216 223.601 33.3013 223.281 33.472C222.961 33.6427 222.705 33.8827 222.513 34.192C222.321 34.5013 222.225 34.8533 222.225 35.248V40H220.385ZM15.072 66V64.432H19.008C19.2 64.432 19.3653 64.3893 19.504 64.304C19.6533 64.2187 19.7653 64.1067 19.84 63.968C19.9253 63.8293 19.968 63.6853 19.968 63.536C19.968 63.3653 19.9307 63.216 19.856 63.088C19.7813 62.96 19.6747 62.8587 19.536 62.784C19.3973 62.6987 19.2373 62.656 19.056 62.656H17.456C16.9333 62.656 16.4693 62.5707 16.064 62.4C15.6587 62.2293 15.3387 61.968 15.104 61.616C14.8693 61.2533 14.752 60.8 14.752 60.256C14.752 59.8187 14.8587 59.4187 15.072 59.056C15.296 58.6933 15.5947 58.4 15.968 58.176C16.3413 57.952 16.7627 57.84 17.232 57.84H21.024V59.408H17.408C17.1627 59.408 16.96 59.488 16.8 59.648C16.64 59.7973 16.56 59.984 16.56 60.208C16.56 60.4213 16.64 60.608 16.8 60.768C16.96 60.928 17.1733 61.008 17.44 61.008H18.992C19.5787 61.008 20.08 61.0987 20.496 61.28C20.912 61.4613 21.2267 61.7333 21.44 62.096C21.664 62.4587 21.776 62.9173 21.776 63.472C21.776 63.92 21.664 64.3413 21.44 64.736C21.216 65.12 20.9067 65.4293 20.512 65.664C20.128 65.888 19.6907 66 19.2 66H15.072ZM27.54 66C26.6973 66 25.9453 65.8187 25.284 65.456C24.6227 65.0933 24.1 64.608 23.716 64C23.332 63.3813 23.14 62.688 23.14 61.92C23.14 61.152 23.332 60.464 23.716 59.856C24.1 59.2373 24.6227 58.7467 25.284 58.384C25.9453 58.0213 26.6973 57.84 27.54 57.84H28.532V59.408H27.508C27.0173 59.408 26.58 59.52 26.196 59.744C25.8227 59.9573 25.5293 60.256 25.316 60.64C25.1027 61.024 24.996 61.4507 24.996 61.92C24.996 62.3893 25.1027 62.816 25.316 63.2C25.5293 63.584 25.8227 63.888 26.196 64.112C26.58 64.3253 27.0173 64.432 27.508 64.432H28.532V66H27.54ZM30.1353 66V54.32H31.9753V58.656C32.3059 58.304 32.6899 58.048 33.1273 57.888C33.5646 57.728 34.0073 57.648 34.4553 57.648C35.2019 57.648 35.8366 57.808 36.3593 58.128C36.8926 58.4373 37.2979 58.8693 37.5753 59.424C37.8526 59.968 37.9913 60.592 37.9913 61.296V66H36.1673V61.312C36.1673 60.896 36.0659 60.5333 35.8633 60.224C35.6713 59.904 35.4153 59.6587 35.0953 59.488C34.7859 59.3067 34.4393 59.216 34.0553 59.216C33.6926 59.216 33.3513 59.3013 33.0312 59.472C32.7113 59.6427 32.4553 59.8827 32.2633 60.192C32.0713 60.5013 31.9753 60.8533 31.9753 61.248V66H30.1353ZM44.0858 66.192C43.2431 66.192 42.4964 66.0053 41.8458 65.632C41.1951 65.248 40.6778 64.736 40.2938 64.096C39.9204 63.4453 39.7338 62.72 39.7338 61.92C39.7338 61.12 39.9204 60.4 40.2938 59.76C40.6778 59.1093 41.1951 58.5973 41.8458 58.224C42.4964 57.84 43.2431 57.648 44.0858 57.648C44.9178 57.648 45.6591 57.84 46.3098 58.224C46.9604 58.5973 47.4724 59.104 47.8458 59.744C48.2298 60.384 48.4218 61.1093 48.4218 61.92C48.4218 62.72 48.2298 63.4453 47.8458 64.096C47.4724 64.736 46.9604 65.248 46.3098 65.632C45.6591 66.0053 44.9178 66.192 44.0858 66.192ZM44.0858 64.624C44.5871 64.624 45.0244 64.5067 45.3978 64.272C45.7711 64.0267 46.0591 63.7013 46.2618 63.296C46.4644 62.8907 46.5658 62.432 46.5658 61.92C46.5658 61.4187 46.4644 60.9653 46.2618 60.56C46.0591 60.144 45.7711 59.8187 45.3978 59.584C45.0244 59.3387 44.5871 59.216 44.0858 59.216C43.5738 59.216 43.1311 59.3387 42.7578 59.584C42.3951 59.8187 42.1071 60.1387 41.8938 60.544C41.6911 60.9493 41.5898 61.408 41.5898 61.92C41.5898 62.4213 41.6911 62.88 41.8938 63.296C42.1071 63.7013 42.3951 64.0267 42.7578 64.272C43.1311 64.5067 43.5738 64.624 44.0858 64.624ZM54.0545 66.192C53.2118 66.192 52.4652 66.0053 51.8145 65.632C51.1638 65.248 50.6465 64.736 50.2625 64.096C49.8892 63.4453 49.7025 62.72 49.7025 61.92C49.7025 61.12 49.8892 60.4 50.2625 59.76C50.6465 59.1093 51.1638 58.5973 51.8145 58.224C52.4652 57.84 53.2118 57.648 54.0545 57.648C54.8865 57.648 55.6278 57.84 56.2785 58.224C56.9292 58.5973 57.4412 59.104 57.8145 59.744C58.1985 60.384 58.3905 61.1093 58.3905 61.92C58.3905 62.72 58.1985 63.4453 57.8145 64.096C57.4412 64.736 56.9292 65.248 56.2785 65.632C55.6278 66.0053 54.8865 66.192 54.0545 66.192ZM54.0545 64.624C54.5558 64.624 54.9932 64.5067 55.3665 64.272C55.7398 64.0267 56.0278 63.7013 56.2305 63.296C56.4332 62.8907 56.5345 62.432 56.5345 61.92C56.5345 61.4187 56.4332 60.9653 56.2305 60.56C56.0278 60.144 55.7398 59.8187 55.3665 59.584C54.9932 59.3387 54.5558 59.216 54.0545 59.216C53.5425 59.216 53.0998 59.3387 52.7265 59.584C52.3638 59.8187 52.0758 60.1387 51.8625 60.544C51.6598 60.9493 51.5585 61.408 51.5585 61.92C51.5585 62.4213 51.6598 62.88 51.8625 63.296C52.0758 63.7013 52.3638 64.0267 52.7265 64.272C53.0998 64.5067 53.5425 64.624 54.0545 64.624ZM60.1353 66V54.32H61.9753V66H60.1353ZM68.9285 66V59.408H67.5045V57.84H68.9285V56.64C68.9285 55.9147 69.1312 55.3493 69.5365 54.944C69.9525 54.528 70.5232 54.32 71.2485 54.32H73.4245V55.888H71.5845C71.3392 55.888 71.1418 55.9627 70.9925 56.112C70.8432 56.2613 70.7685 56.464 70.7685 56.72V57.84H73.0885V59.408H70.7685V66H68.9285ZM74.3056 66V60.16C74.3056 59.4347 74.5083 58.8693 74.9136 58.464C75.3296 58.048 75.9003 57.84 76.6256 57.84H78.5936V59.408H76.9616C76.7056 59.408 76.503 59.4827 76.3536 59.632C76.215 59.7813 76.1456 59.984 76.1456 60.24V66H74.3056ZM79.8696 66V57.84H81.7096V66H79.8696ZM80.7816 56.704C80.4616 56.704 80.1843 56.5867 79.9496 56.352C79.715 56.1173 79.5976 55.84 79.5976 55.52C79.5976 55.2 79.715 54.9227 79.9496 54.688C80.1843 54.4533 80.4616 54.336 80.7816 54.336C81.1123 54.336 81.3896 54.4533 81.6136 54.688C81.8483 54.9227 81.9656 55.2 81.9656 55.52C81.9656 55.84 81.8483 56.1173 81.6136 56.352C81.3896 56.5867 81.1123 56.704 80.7816 56.704ZM88.0445 66C87.1272 66 86.3218 65.8293 85.6285 65.488C84.9458 65.136 84.4125 64.656 84.0285 64.048C83.6445 63.4293 83.4525 62.72 83.4525 61.92C83.4525 61.0773 83.6232 60.336 83.9645 59.696C84.3058 59.056 84.7752 58.5547 85.3725 58.192C85.9698 57.8293 86.6578 57.648 87.4365 57.648C88.3112 57.648 89.0312 57.8347 89.5965 58.208C90.1618 58.5813 90.5778 59.0827 90.8445 59.712C91.1218 60.3413 91.2605 61.0453 91.2605 61.824C91.2605 61.9307 91.2552 62.0533 91.2445 62.192C91.2338 62.3307 91.2178 62.4373 91.1965 62.512H85.4045C85.4685 62.9387 85.6232 63.296 85.8685 63.584C86.1138 63.8613 86.4232 64.0747 86.7965 64.224C87.1698 64.3627 87.5858 64.432 88.0445 64.432H90.2365V66H88.0445ZM85.3885 61.264H89.4205C89.4098 61.0613 89.3778 60.8587 89.3245 60.656C89.2818 60.4533 89.2072 60.2613 89.1005 60.08C89.0045 59.8987 88.8765 59.744 88.7165 59.616C88.5672 59.4773 88.3858 59.3707 88.1725 59.296C87.9592 59.2107 87.7138 59.168 87.4365 59.168C87.1165 59.168 86.8338 59.232 86.5885 59.36C86.3432 59.4773 86.1352 59.6373 85.9645 59.84C85.7938 60.032 85.6605 60.256 85.5645 60.512C85.4792 60.7573 85.4205 61.008 85.3885 61.264ZM92.979 66V61.296C92.979 60.592 93.139 59.968 93.459 59.424C93.779 58.8693 94.2323 58.4373 94.819 58.128C95.4057 57.808 96.0937 57.648 96.883 57.648C97.6723 57.648 98.355 57.808 98.931 58.128C99.5177 58.4373 99.971 58.8693 100.291 59.424C100.611 59.968 100.771 60.592 100.771 61.296V66H98.947V61.312C98.947 60.896 98.851 60.5333 98.659 60.224C98.467 59.904 98.211 59.6587 97.891 59.488C97.5817 59.3067 97.2403 59.216 96.867 59.216C96.5043 59.216 96.163 59.3067 95.843 59.488C95.5337 59.6587 95.283 59.904 95.091 60.224C94.9097 60.5333 94.819 60.896 94.819 61.312V66H92.979ZM106.771 66.192C106.12 66.192 105.528 66.0907 104.995 65.888C104.472 65.6747 104.024 65.3707 103.651 64.976C103.288 64.5813 103.006 64.1173 102.803 63.584C102.611 63.04 102.515 62.4427 102.515 61.792C102.515 60.96 102.68 60.2347 103.011 59.616C103.352 58.9973 103.822 58.5173 104.419 58.176C105.016 57.824 105.699 57.648 106.467 57.648C106.851 57.648 107.214 57.7067 107.555 57.824C107.896 57.9413 108.206 58.1067 108.483 58.32C108.76 58.5333 108.984 58.784 109.155 59.072H109.171V54.32H111.011V61.824C111.011 62.72 110.83 63.4987 110.467 64.16C110.115 64.8107 109.619 65.312 108.979 65.664C108.35 66.016 107.614 66.192 106.771 66.192ZM106.771 64.624C107.24 64.624 107.651 64.512 108.003 64.288C108.366 64.0533 108.648 63.7333 108.851 63.328C109.054 62.9227 109.155 62.4533 109.155 61.92C109.155 61.3867 109.054 60.9173 108.851 60.512C108.648 60.1067 108.366 59.792 108.003 59.568C107.651 59.3333 107.235 59.216 106.755 59.216C106.296 59.216 105.886 59.3333 105.523 59.568C105.16 59.8027 104.878 60.1227 104.675 60.528C104.472 60.9333 104.371 61.3973 104.371 61.92C104.371 62.4533 104.472 62.9227 104.675 63.328C104.878 63.7333 105.16 64.0533 105.523 64.288C105.896 64.512 106.312 64.624 106.771 64.624ZM120.697 66.192C119.919 66.192 119.247 66 118.681 65.616C118.116 65.232 117.679 64.72 117.369 64.08C117.071 63.4293 116.921 62.7147 116.921 61.936C116.921 61.1253 117.092 60.4 117.433 59.76C117.785 59.1093 118.281 58.5973 118.921 58.224C119.572 57.84 120.345 57.648 121.241 57.648C122.127 57.648 122.879 57.84 123.497 58.224C124.127 58.5973 124.607 59.1093 124.937 59.76C125.279 60.4 125.449 61.1147 125.449 61.904V66H123.609V64.48H123.577C123.417 64.7787 123.209 65.0613 122.953 65.328C122.697 65.584 122.383 65.792 122.009 65.952C121.636 66.112 121.199 66.192 120.697 66.192ZM121.193 64.624C121.673 64.624 122.089 64.5067 122.441 64.272C122.804 64.0267 123.081 63.7013 123.273 63.296C123.476 62.88 123.577 62.416 123.577 61.904C123.577 61.392 123.481 60.9387 123.289 60.544C123.097 60.1387 122.825 59.8187 122.473 59.584C122.121 59.3387 121.7 59.216 121.209 59.216C120.697 59.216 120.26 59.3387 119.897 59.584C119.535 59.8187 119.257 60.1387 119.065 60.544C118.873 60.9493 118.777 61.408 118.777 61.92C118.777 62.4213 118.873 62.88 119.065 63.296C119.257 63.7013 119.529 64.0267 119.881 64.272C120.244 64.5067 120.681 64.624 121.193 64.624ZM128.163 66V59.408H126.739V57.84H128.163V56.64C128.163 55.9147 128.366 55.3493 128.771 54.944C129.187 54.528 129.758 54.32 130.483 54.32H132.659V55.888H130.819C130.574 55.888 130.376 55.9627 130.227 56.112C130.078 56.2613 130.003 56.464 130.003 56.72V57.84H132.323V59.408H130.003V66H128.163ZM136.42 66C135.695 66 135.124 65.792 134.708 65.376C134.303 64.96 134.1 64.3947 134.1 63.68V55.792H135.924V63.6C135.924 63.8453 135.999 64.048 136.148 64.208C136.297 64.3573 136.495 64.432 136.74 64.432H138.452V66H136.42ZM132.692 59.408V57.84H138.468V59.408H132.692ZM144.045 66C143.127 66 142.322 65.8293 141.629 65.488C140.946 65.136 140.413 64.656 140.029 64.048C139.645 63.4293 139.453 62.72 139.453 61.92C139.453 61.0773 139.623 60.336 139.965 59.696C140.306 59.056 140.775 58.5547 141.373 58.192C141.97 57.8293 142.658 57.648 143.437 57.648C144.311 57.648 145.031 57.8347 145.597 58.208C146.162 58.5813 146.578 59.0827 146.845 59.712C147.122 60.3413 147.26 61.0453 147.26 61.824C147.26 61.9307 147.255 62.0533 147.245 62.192C147.234 62.3307 147.218 62.4373 147.197 62.512H141.405C141.469 62.9387 141.623 63.296 141.869 63.584C142.114 63.8613 142.423 64.0747 142.797 64.224C143.17 64.3627 143.586 64.432 144.045 64.432H146.237V66H144.045ZM141.389 61.264H145.421C145.41 61.0613 145.378 60.8587 145.325 60.656C145.282 60.4533 145.207 60.2613 145.101 60.08C145.005 59.8987 144.877 59.744 144.717 59.616C144.567 59.4773 144.386 59.3707 144.173 59.296C143.959 59.2107 143.714 59.168 143.437 59.168C143.117 59.168 142.834 59.232 142.589 59.36C142.343 59.4773 142.135 59.6373 141.965 59.84C141.794 60.032 141.661 60.256 141.565 60.512C141.479 60.7573 141.421 61.008 141.389 61.264ZM148.915 66V60.16C148.915 59.4347 149.118 58.8693 149.523 58.464C149.939 58.048 150.51 57.84 151.235 57.84H153.203V59.408H151.571C151.315 59.408 151.112 59.4827 150.963 59.632C150.824 59.7813 150.755 59.984 150.755 60.24V66H148.915ZM162.025 66.192C161.247 66.192 160.575 66 160.009 65.616C159.444 65.232 159.007 64.72 158.697 64.08C158.399 63.4293 158.249 62.7147 158.249 61.936C158.249 61.1253 158.42 60.4 158.761 59.76C159.113 59.1093 159.609 58.5973 160.249 58.224C160.9 57.84 161.673 57.648 162.569 57.648C163.455 57.648 164.207 57.84 164.825 58.224C165.455 58.5973 165.935 59.1093 166.265 59.76C166.607 60.4 166.777 61.1147 166.777 61.904V66H164.937V64.48H164.905C164.745 64.7787 164.537 65.0613 164.281 65.328C164.025 65.584 163.711 65.792 163.337 65.952C162.964 66.112 162.527 66.192 162.025 66.192ZM162.521 64.624C163.001 64.624 163.417 64.5067 163.769 64.272C164.132 64.0267 164.409 63.7013 164.601 63.296C164.804 62.88 164.905 62.416 164.905 61.904C164.905 61.392 164.809 60.9387 164.617 60.544C164.425 60.1387 164.153 59.8187 163.801 59.584C163.449 59.3387 163.028 59.216 162.537 59.216C162.025 59.216 161.588 59.3387 161.225 59.584C160.863 59.8187 160.585 60.1387 160.393 60.544C160.201 60.9493 160.105 61.408 160.105 61.92C160.105 62.4213 160.201 62.88 160.393 63.296C160.585 63.7013 160.857 64.0267 161.209 64.272C161.572 64.5067 162.009 64.624 162.521 64.624ZM173.213 66V54.32H175.053V66H173.213ZM181.148 66.192C180.306 66.192 179.559 66.0053 178.908 65.632C178.258 65.248 177.74 64.736 177.356 64.096C176.983 63.4453 176.796 62.72 176.796 61.92C176.796 61.12 176.983 60.4 177.356 59.76C177.74 59.1093 178.258 58.5973 178.908 58.224C179.559 57.84 180.306 57.648 181.148 57.648C181.98 57.648 182.722 57.84 183.372 58.224C184.023 58.5973 184.535 59.104 184.908 59.744C185.292 60.384 185.484 61.1093 185.484 61.92C185.484 62.72 185.292 63.4453 184.908 64.096C184.535 64.736 184.023 65.248 183.372 65.632C182.722 66.0053 181.98 66.192 181.148 66.192ZM181.148 64.624C181.65 64.624 182.087 64.5067 182.46 64.272C182.834 64.0267 183.122 63.7013 183.324 63.296C183.527 62.8907 183.628 62.432 183.628 61.92C183.628 61.4187 183.527 60.9653 183.324 60.56C183.122 60.144 182.834 59.8187 182.46 59.584C182.087 59.3387 181.65 59.216 181.148 59.216C180.636 59.216 180.194 59.3387 179.82 59.584C179.458 59.8187 179.17 60.1387 178.956 60.544C178.754 60.9493 178.652 61.408 178.652 61.92C178.652 62.4213 178.754 62.88 178.956 63.296C179.17 63.7013 179.458 64.0267 179.82 64.272C180.194 64.5067 180.636 64.624 181.148 64.624ZM187.229 66V61.296C187.229 60.592 187.389 59.968 187.709 59.424C188.029 58.8693 188.482 58.4373 189.069 58.128C189.656 57.808 190.344 57.648 191.133 57.648C191.922 57.648 192.605 57.808 193.181 58.128C193.768 58.4373 194.221 58.8693 194.541 59.424C194.861 59.968 195.021 60.592 195.021 61.296V66H193.197V61.312C193.197 60.896 193.101 60.5333 192.909 60.224C192.717 59.904 192.461 59.6587 192.141 59.488C191.832 59.3067 191.49 59.216 191.117 59.216C190.754 59.216 190.413 59.3067 190.093 59.488C189.784 59.6587 189.533 59.904 189.341 60.224C189.16 60.5333 189.069 60.896 189.069 61.312V66H187.229ZM198.461 69.248V67.68H202.557C202.834 67.68 203.048 67.5947 203.197 67.424C203.357 67.2533 203.437 67.04 203.437 66.784V64.672H203.421C203.186 64.96 202.936 65.2107 202.669 65.424C202.402 65.6267 202.098 65.7867 201.757 65.904C201.426 66.0107 201.058 66.064 200.653 66.064C199.906 66.064 199.24 65.888 198.653 65.536C198.066 65.184 197.602 64.6933 197.261 64.064C196.93 63.424 196.765 62.6933 196.765 61.872C196.765 61.072 196.93 60.3573 197.261 59.728C197.602 59.088 198.088 58.5813 198.717 58.208C199.346 57.8347 200.114 57.648 201.021 57.648C201.885 57.648 202.632 57.8293 203.261 58.192C203.901 58.5547 204.397 59.0667 204.749 59.728C205.101 60.3787 205.277 61.1413 205.277 62.016V66.864C205.277 67.6 205.064 68.1813 204.637 68.608C204.21 69.0347 203.629 69.248 202.893 69.248H198.461ZM201.005 64.496C201.496 64.496 201.917 64.384 202.269 64.16C202.632 63.9253 202.909 63.616 203.101 63.232C203.304 62.8373 203.405 62.4 203.405 61.92C203.405 61.408 203.309 60.9493 203.117 60.544C202.925 60.1387 202.648 59.8187 202.285 59.584C201.933 59.3387 201.506 59.216 201.005 59.216C200.514 59.216 200.088 59.3387 199.725 59.584C199.373 59.8187 199.101 60.1387 198.909 60.544C198.717 60.9387 198.621 61.3867 198.621 61.888C198.621 62.368 198.717 62.8053 198.909 63.2C199.101 63.5947 199.373 63.9093 199.725 64.144C200.088 64.3787 200.514 64.496 201.005 64.496ZM214.467 66C213.742 66 213.171 65.792 212.755 65.376C212.35 64.96 212.147 64.3947 212.147 63.68V55.792H213.971V63.6C213.971 63.8453 214.046 64.048 214.195 64.208C214.344 64.3573 214.542 64.432 214.787 64.432H216.499V66H214.467ZM210.739 59.408V57.84H216.515V59.408H210.739ZM218.245 66V57.84H220.085V66H218.245ZM219.157 56.704C218.837 56.704 218.559 56.5867 218.325 56.352C218.09 56.1173 217.973 55.84 217.973 55.52C217.973 55.2 218.09 54.9227 218.325 54.688C218.559 54.4533 218.837 54.336 219.157 54.336C219.487 54.336 219.765 54.4533 219.989 54.688C220.223 54.9227 220.341 55.2 220.341 55.52C220.341 55.84 220.223 56.1173 219.989 56.352C219.765 56.5867 219.487 56.704 219.157 56.704ZM222.292 66V61.12C222.292 60.4907 222.441 59.9147 222.74 59.392C223.038 58.8587 223.47 58.4373 224.036 58.128C224.601 57.808 225.278 57.648 226.068 57.648C226.452 57.648 226.82 57.696 227.172 57.792C227.524 57.888 227.849 58.0427 228.148 58.256C228.457 58.4587 228.718 58.7147 228.932 59.024H228.948C229.161 58.7147 229.417 58.4587 229.716 58.256C230.025 58.0427 230.356 57.888 230.708 57.792C231.07 57.696 231.444 57.648 231.828 57.648C232.628 57.648 233.305 57.808 233.86 58.128C234.425 58.4373 234.857 58.8587 235.156 59.392C235.454 59.9147 235.604 60.4907 235.604 61.12V66H233.78V61.12C233.78 60.768 233.689 60.448 233.508 60.16C233.337 59.872 233.108 59.6427 232.82 59.472C232.532 59.3013 232.201 59.216 231.828 59.216C231.465 59.216 231.134 59.3013 230.836 59.472C230.537 59.6427 230.297 59.872 230.116 60.16C229.945 60.448 229.86 60.768 229.86 61.12V66H228.036V61.12C228.036 60.768 227.945 60.448 227.764 60.16C227.582 59.872 227.342 59.6427 227.044 59.472C226.756 59.3013 226.43 59.216 226.068 59.216C225.705 59.216 225.374 59.3013 225.076 59.472C224.788 59.6427 224.553 59.872 224.372 60.16C224.201 60.448 224.116 60.768 224.116 61.12V66H222.292ZM241.935 66C241.018 66 240.212 65.8293 239.519 65.488C238.836 65.136 238.303 64.656 237.919 64.048C237.535 63.4293 237.343 62.72 237.343 61.92C237.343 61.0773 237.514 60.336 237.855 59.696C238.196 59.056 238.666 58.5547 239.263 58.192C239.86 57.8293 240.548 57.648 241.327 57.648C242.202 57.648 242.922 57.8347 243.487 58.208C244.052 58.5813 244.468 59.0827 244.735 59.712C245.012 60.3413 245.151 61.0453 245.151 61.824C245.151 61.9307 245.146 62.0533 245.135 62.192C245.124 62.3307 245.108 62.4373 245.087 62.512H239.295C239.359 62.9387 239.514 63.296 239.759 63.584C240.004 63.8613 240.314 64.0747 240.687 64.224C241.06 64.3627 241.476 64.432 241.935 64.432H244.127V66H241.935ZM239.279 61.264H243.311C243.3 61.0613 243.268 60.8587 243.215 60.656C243.172 60.4533 243.098 60.2613 242.991 60.08C242.895 59.8987 242.767 59.744 242.607 59.616C242.458 59.4773 242.276 59.3707 242.063 59.296C241.85 59.2107 241.604 59.168 241.327 59.168C241.007 59.168 240.724 59.232 240.479 59.36C240.234 59.4773 240.026 59.6373 239.855 59.84C239.684 60.032 239.551 60.256 239.455 60.512C239.37 60.7573 239.311 61.008 239.279 61.264ZM247.67 66.176C247.318 66.176 247.014 66.0533 246.758 65.808C246.512 65.552 246.39 65.248 246.39 64.896C246.39 64.5547 246.512 64.2613 246.758 64.016C247.014 63.76 247.318 63.632 247.67 63.632C248.011 63.632 248.304 63.76 248.55 64.016C248.806 64.2613 248.934 64.5547 248.934 64.896C248.934 65.1307 248.875 65.3493 248.758 65.552C248.651 65.744 248.502 65.8933 248.31 66C248.118 66.1173 247.904 66.176 247.67 66.176ZM19.376 92.192C18.5333 92.192 17.7867 92.016 17.136 91.664C16.4853 91.312 15.9733 90.8107 15.6 90.16C15.2267 89.4987 15.04 88.7147 15.04 87.808V80.8H16.944V87.936C16.944 88.4053 17.04 88.8373 17.232 89.232C17.4347 89.616 17.7173 89.9253 18.08 90.16C18.4533 90.3947 18.8907 90.512 19.392 90.512C19.8827 90.512 20.3093 90.3947 20.672 90.16C21.0453 89.9253 21.328 89.616 21.52 89.232C21.712 88.8373 21.808 88.4053 21.808 87.936V80.8H23.728V87.936C23.728 88.4053 23.824 88.8373 24.016 89.232C24.2187 89.616 24.5013 89.9253 24.864 90.16C25.2267 90.3947 25.6587 90.512 26.16 90.512C26.6613 90.512 27.0933 90.3947 27.456 90.16C27.8187 89.9253 28.096 89.616 28.288 89.232C28.4907 88.8373 28.592 88.4053 28.592 87.936V80.8H30.496V87.808C30.496 88.7147 30.3093 89.4987 29.936 90.16C29.5627 90.8107 29.0507 91.312 28.4 91.664C27.7493 92.016 27.0027 92.192 26.16 92.192C25.6907 92.192 25.2373 92.128 24.8 92C24.3733 91.872 23.9893 91.6747 23.648 91.408C23.3067 91.1413 23.0133 90.8213 22.768 90.448C22.5333 90.8213 22.24 91.1413 21.888 91.408C21.536 91.664 21.1467 91.8613 20.72 92C20.304 92.128 19.856 92.192 19.376 92.192ZM36.7633 92C35.8459 92 35.0406 91.8293 34.3473 91.488C33.6646 91.136 33.1313 90.656 32.7473 90.048C32.3633 89.4293 32.1713 88.72 32.1713 87.92C32.1713 87.0773 32.3419 86.336 32.6833 85.696C33.0246 85.056 33.4939 84.5547 34.0913 84.192C34.6886 83.8293 35.3766 83.648 36.1553 83.648C37.0299 83.648 37.7499 83.8347 38.3153 84.208C38.8806 84.5813 39.2966 85.0827 39.5633 85.712C39.8406 86.3413 39.9792 87.0453 39.9792 87.824C39.9792 87.9307 39.9739 88.0533 39.9633 88.192C39.9526 88.3307 39.9366 88.4373 39.9153 88.512H34.1233C34.1873 88.9387 34.3419 89.296 34.5873 89.584C34.8326 89.8613 35.1419 90.0747 35.5153 90.224C35.8886 90.3627 36.3046 90.432 36.7633 90.432H38.9553V92H36.7633ZM34.1073 87.264H38.1393C38.1286 87.0613 38.0966 86.8587 38.0433 86.656C38.0006 86.4533 37.9259 86.2613 37.8193 86.08C37.7233 85.8987 37.5953 85.744 37.4353 85.616C37.2859 85.4773 37.1046 85.3707 36.8913 85.296C36.6779 85.2107 36.4326 85.168 36.1553 85.168C35.8353 85.168 35.5526 85.232 35.3073 85.36C35.0619 85.4773 34.8539 85.6373 34.6833 85.84C34.5126 86.032 34.3793 86.256 34.2833 86.512C34.1979 86.7573 34.1393 87.008 34.1073 87.264ZM48.8121 92.192C48.2788 92.192 47.7935 92.0907 47.3561 91.888C46.9188 91.6747 46.5721 91.3547 46.3161 90.928C46.0601 90.4907 45.9321 89.936 45.9321 89.264V83.84H47.7721V89.552C47.7721 89.7653 47.8201 89.9573 47.9161 90.128C48.0121 90.288 48.1348 90.4107 48.2841 90.496C48.4441 90.5813 48.6201 90.624 48.8121 90.624C48.9935 90.624 49.1641 90.5813 49.3241 90.496C49.4841 90.4107 49.6121 90.288 49.7081 90.128C49.8041 89.9573 49.8521 89.7653 49.8521 89.552V86.544C49.8521 85.9147 49.9695 85.3867 50.2041 84.96C50.4495 84.5227 50.7855 84.1973 51.2121 83.984C51.6495 83.76 52.1455 83.648 52.7001 83.648C53.2655 83.648 53.7615 83.76 54.1881 83.984C54.6148 84.1973 54.9508 84.5227 55.1961 84.96C55.4415 85.3867 55.5641 85.9147 55.5641 86.544V89.552C55.5641 89.7653 55.6121 89.9573 55.7081 90.128C55.8041 90.288 55.9321 90.4107 56.0921 90.496C56.2521 90.5813 56.4281 90.624 56.6201 90.624C56.8015 90.624 56.9668 90.5813 57.1161 90.496C57.2761 90.4107 57.4041 90.288 57.5001 90.128C57.5961 89.9573 57.6441 89.7653 57.6441 89.552V83.84H59.4841V89.264C59.4841 89.936 59.3561 90.4907 59.1001 90.928C58.8441 91.3547 58.4975 91.6747 58.0601 91.888C57.6228 92.0907 57.1428 92.192 56.6201 92.192C56.0975 92.192 55.6175 92.0907 55.1801 91.888C54.7428 91.6747 54.3908 91.3547 54.1241 90.928C53.8575 90.4907 53.7241 89.936 53.7241 89.264V86.288C53.7241 86.0533 53.6761 85.8613 53.5801 85.712C53.4948 85.552 53.3721 85.4293 53.2121 85.344C53.0628 85.2587 52.8921 85.216 52.7001 85.216C52.5295 85.216 52.3641 85.2587 52.2041 85.344C52.0441 85.4293 51.9161 85.552 51.8201 85.712C51.7241 85.8613 51.6761 86.0533 51.6761 86.288V89.264C51.6761 89.936 51.5428 90.4907 51.2761 90.928C51.0201 91.3547 50.6735 91.6747 50.2361 91.888C49.8095 92.0907 49.3348 92.192 48.8121 92.192ZM65.8258 92C64.9084 92 64.1031 91.8293 63.4098 91.488C62.7271 91.136 62.1938 90.656 61.8098 90.048C61.4258 89.4293 61.2338 88.72 61.2338 87.92C61.2338 87.0773 61.4044 86.336 61.7458 85.696C62.0871 85.056 62.5564 84.5547 63.1538 84.192C63.7511 83.8293 64.4391 83.648 65.2178 83.648C66.0924 83.648 66.8124 83.8347 67.3778 84.208C67.9431 84.5813 68.3591 85.0827 68.6258 85.712C68.9031 86.3413 69.0417 87.0453 69.0417 87.824C69.0417 87.9307 69.0364 88.0533 69.0258 88.192C69.0151 88.3307 68.9991 88.4373 68.9778 88.512H63.1858C63.2498 88.9387 63.4044 89.296 63.6498 89.584C63.8951 89.8613 64.2044 90.0747 64.5778 90.224C64.9511 90.3627 65.3671 90.432 65.8258 90.432H68.0178V92H65.8258ZM63.1698 87.264H67.2018C67.1911 87.0613 67.1591 86.8587 67.1058 86.656C67.0631 86.4533 66.9884 86.2613 66.8818 86.08C66.7858 85.8987 66.6578 85.744 66.4978 85.616C66.3484 85.4773 66.1671 85.3707 65.9538 85.296C65.7404 85.2107 65.4951 85.168 65.2178 85.168C64.8978 85.168 64.6151 85.232 64.3698 85.36C64.1244 85.4773 63.9164 85.6373 63.7458 85.84C63.5751 86.032 63.4418 86.256 63.3458 86.512C63.2604 86.7573 63.2018 87.008 63.1698 87.264ZM70.7603 92V87.296C70.7603 86.592 70.9203 85.968 71.2403 85.424C71.5603 84.8693 72.0136 84.4373 72.6003 84.128C73.1869 83.808 73.8749 83.648 74.6643 83.648C75.4536 83.648 76.1363 83.808 76.7123 84.128C77.2989 84.4373 77.7523 84.8693 78.0723 85.424C78.3923 85.968 78.5523 86.592 78.5523 87.296V92H76.7283V87.312C76.7283 86.896 76.6323 86.5333 76.4403 86.224C76.2483 85.904 75.9923 85.6587 75.6723 85.488C75.3629 85.3067 75.0216 85.216 74.6483 85.216C74.2856 85.216 73.9443 85.3067 73.6243 85.488C73.3149 85.6587 73.0643 85.904 72.8723 86.224C72.6909 86.5333 72.6003 86.896 72.6003 87.312V92H70.7603ZM83.5763 92C82.8509 92 82.2803 91.792 81.8643 91.376C81.4589 90.96 81.2563 90.3947 81.2563 89.68V81.792H83.0803V89.6C83.0803 89.8453 83.1549 90.048 83.3043 90.208C83.4536 90.3573 83.6509 90.432 83.8963 90.432H85.6083V92H83.5763ZM79.8483 85.408V83.84H85.6243V85.408H79.8483ZM94.4044 92C93.679 92 93.1084 91.792 92.6924 91.376C92.287 90.96 92.0844 90.3947 92.0844 89.68V81.792H93.9084V89.6C93.9084 89.8453 93.983 90.048 94.1324 90.208C94.2817 90.3573 94.479 90.432 94.7244 90.432H96.4364V92H94.4044ZM90.6764 85.408V83.84H96.4524V85.408H90.6764ZM101.789 92.192C100.946 92.192 100.2 92.0053 99.5489 91.632C98.8982 91.248 98.3809 90.736 97.9969 90.096C97.6235 89.4453 97.4369 88.72 97.4369 87.92C97.4369 87.12 97.6235 86.4 97.9969 85.76C98.3809 85.1093 98.8982 84.5973 99.5489 84.224C100.2 83.84 100.946 83.648 101.789 83.648C102.621 83.648 103.362 83.84 104.013 84.224C104.664 84.5973 105.176 85.104 105.549 85.744C105.933 86.384 106.125 87.1093 106.125 87.92C106.125 88.72 105.933 89.4453 105.549 90.096C105.176 90.736 104.664 91.248 104.013 91.632C103.362 92.0053 102.621 92.192 101.789 92.192ZM101.789 90.624C102.29 90.624 102.728 90.5067 103.101 90.272C103.474 90.0267 103.762 89.7013 103.965 89.296C104.168 88.8907 104.269 88.432 104.269 87.92C104.269 87.4187 104.168 86.9653 103.965 86.56C103.762 86.144 103.474 85.8187 103.101 85.584C102.728 85.3387 102.29 85.216 101.789 85.216C101.277 85.216 100.834 85.3387 100.461 85.584C100.098 85.8187 99.8102 86.1387 99.5969 86.544C99.3942 86.9493 99.2929 87.408 99.2929 87.92C99.2929 88.4213 99.3942 88.88 99.5969 89.296C99.8102 89.7013 100.098 90.0267 100.461 90.272C100.834 90.5067 101.277 90.624 101.789 90.624ZM115.416 92.192C114.637 92.192 113.965 92 113.4 91.616C112.835 91.232 112.397 90.72 112.088 90.08C111.789 89.4293 111.64 88.7147 111.64 87.936C111.64 87.1253 111.811 86.4 112.152 85.76C112.504 85.1093 113 84.5973 113.64 84.224C114.291 83.84 115.064 83.648 115.96 83.648C116.845 83.648 117.597 83.84 118.216 84.224C118.845 84.5973 119.325 85.1093 119.656 85.76C119.997 86.4 120.168 87.1147 120.168 87.904V92H118.328V90.48H118.296C118.136 90.7787 117.928 91.0613 117.672 91.328C117.416 91.584 117.101 91.792 116.728 91.952C116.355 92.112 115.917 92.192 115.416 92.192ZM115.912 90.624C116.392 90.624 116.808 90.5067 117.16 90.272C117.523 90.0267 117.8 89.7013 117.992 89.296C118.195 88.88 118.296 88.416 118.296 87.904C118.296 87.392 118.2 86.9387 118.008 86.544C117.816 86.1387 117.544 85.8187 117.192 85.584C116.84 85.3387 116.419 85.216 115.928 85.216C115.416 85.216 114.979 85.3387 114.616 85.584C114.253 85.8187 113.976 86.1387 113.784 86.544C113.592 86.9493 113.496 87.408 113.496 87.92C113.496 88.4213 113.592 88.88 113.784 89.296C113.976 89.7013 114.248 90.0267 114.6 90.272C114.963 90.5067 115.4 90.624 115.912 90.624ZM130.54 92C129.697 92 128.945 91.8187 128.284 91.456C127.623 91.0933 127.1 90.608 126.716 90C126.332 89.3813 126.14 88.688 126.14 87.92C126.14 87.152 126.332 86.464 126.716 85.856C127.1 85.2373 127.623 84.7467 128.284 84.384C128.945 84.0213 129.697 83.84 130.54 83.84H131.532V85.408H130.508C130.017 85.408 129.58 85.52 129.196 85.744C128.823 85.9573 128.529 86.256 128.316 86.64C128.103 87.024 127.996 87.4507 127.996 87.92C127.996 88.3893 128.103 88.816 128.316 89.2C128.529 89.584 128.823 89.888 129.196 90.112C129.58 90.3253 130.017 90.432 130.508 90.432H131.532V92H130.54ZM136.447 92.192C135.669 92.192 134.997 92 134.431 91.616C133.866 91.232 133.429 90.72 133.119 90.08C132.821 89.4293 132.671 88.7147 132.671 87.936C132.671 87.1253 132.842 86.4 133.183 85.76C133.535 85.1093 134.031 84.5973 134.671 84.224C135.322 83.84 136.095 83.648 136.991 83.648C137.877 83.648 138.629 83.84 139.247 84.224C139.877 84.5973 140.357 85.1093 140.687 85.76C141.029 86.4 141.199 87.1147 141.199 87.904V92H139.359V90.48H139.327C139.167 90.7787 138.959 91.0613 138.703 91.328C138.447 91.584 138.133 91.792 137.759 91.952C137.386 92.112 136.949 92.192 136.447 92.192ZM136.943 90.624C137.423 90.624 137.839 90.5067 138.191 90.272C138.554 90.0267 138.831 89.7013 139.023 89.296C139.226 88.88 139.327 88.416 139.327 87.904C139.327 87.392 139.231 86.9387 139.039 86.544C138.847 86.1387 138.575 85.8187 138.223 85.584C137.871 85.3387 137.45 85.216 136.959 85.216C136.447 85.216 136.01 85.3387 135.647 85.584C135.285 85.8187 135.007 86.1387 134.815 86.544C134.623 86.9493 134.527 87.408 134.527 87.92C134.527 88.4213 134.623 88.88 134.815 89.296C135.007 89.7013 135.279 90.0267 135.631 90.272C135.994 90.5067 136.431 90.624 136.943 90.624ZM143.913 92V85.408H142.489V83.84H143.913V82.64C143.913 81.9147 144.116 81.3493 144.521 80.944C144.937 80.528 145.508 80.32 146.233 80.32H148.409V81.888H146.569C146.324 81.888 146.126 81.9627 145.977 82.112C145.828 82.2613 145.753 82.464 145.753 82.72V83.84H148.073V85.408H145.753V92H143.913ZM153.31 92C152.393 92 151.587 91.8293 150.894 91.488C150.211 91.136 149.678 90.656 149.294 90.048C148.91 89.4293 148.718 88.72 148.718 87.92C148.718 87.0773 148.889 86.336 149.23 85.696C149.571 85.056 150.041 84.5547 150.638 84.192C151.235 83.8293 151.923 83.648 152.702 83.648C153.577 83.648 154.297 83.8347 154.862 84.208C155.427 84.5813 155.843 85.0827 156.11 85.712C156.387 86.3413 156.526 87.0453 156.526 87.824C156.526 87.9307 156.521 88.0533 156.51 88.192C156.499 88.3307 156.483 88.4373 156.462 88.512H150.67C150.734 88.9387 150.889 89.296 151.134 89.584C151.379 89.8613 151.689 90.0747 152.062 90.224C152.435 90.3627 152.851 90.432 153.31 90.432H155.502V92H153.31ZM150.654 87.264H154.686C154.675 87.0613 154.643 86.8587 154.59 86.656C154.547 86.4533 154.473 86.2613 154.366 86.08C154.27 85.8987 154.142 85.744 153.982 85.616C153.833 85.4773 153.651 85.3707 153.438 85.296C153.225 85.2107 152.979 85.168 152.702 85.168C152.382 85.168 152.099 85.232 151.854 85.36C151.609 85.4773 151.401 85.6373 151.23 85.84C151.059 86.032 150.926 86.256 150.83 86.512C150.745 86.7573 150.686 87.008 150.654 87.264ZM157.829 94.448L158.597 92.08C158.319 91.984 158.111 91.824 157.973 91.6C157.834 91.3653 157.765 91.1253 157.765 90.88C157.765 90.528 157.887 90.2347 158.133 90C158.389 89.7547 158.693 89.632 159.045 89.632C159.429 89.632 159.733 89.7653 159.957 90.032C160.191 90.288 160.309 90.5973 160.309 90.96C160.309 91.2053 160.287 91.4347 160.245 91.648C160.202 91.8507 160.133 92.0853 160.037 92.352L159.365 94.448H157.829ZM170.452 83.648C171.113 83.648 171.705 83.7547 172.228 83.968C172.751 84.1707 173.193 84.4693 173.556 84.864C173.929 85.2587 174.212 85.728 174.404 86.272C174.607 86.8053 174.708 87.3973 174.708 88.048C174.708 88.8693 174.537 89.5947 174.196 90.224C173.865 90.8427 173.401 91.328 172.804 91.68C172.217 92.0213 171.535 92.192 170.756 92.192C170.372 92.192 170.009 92.1333 169.668 92.016C169.327 91.8987 169.017 91.7333 168.74 91.52C168.463 91.3067 168.239 91.056 168.068 90.768H168.052V95.52H166.212V88.016C166.212 87.1093 166.388 86.3307 166.74 85.68C167.103 85.0293 167.604 84.528 168.244 84.176C168.884 83.824 169.62 83.648 170.452 83.648ZM170.452 85.216C169.993 85.216 169.583 85.3333 169.22 85.568C168.857 85.792 168.575 86.1067 168.372 86.512C168.169 86.9173 168.068 87.3867 168.068 87.92C168.068 88.4427 168.169 88.912 168.372 89.328C168.575 89.7333 168.857 90.0533 169.22 90.288C169.583 90.512 169.999 90.624 170.468 90.624C170.937 90.624 171.348 90.5067 171.7 90.272C172.063 90.0373 172.345 89.7173 172.548 89.312C172.751 88.9067 172.852 88.4427 172.852 87.92C172.852 87.3867 172.751 86.9173 172.548 86.512C172.345 86.1067 172.063 85.792 171.7 85.568C171.337 85.3333 170.921 85.216 170.452 85.216ZM176.448 92V80.32H178.288V92H176.448ZM183.807 92.192C183.028 92.192 182.356 92 181.791 91.616C181.225 91.232 180.788 90.72 180.479 90.08C180.18 89.4293 180.031 88.7147 180.031 87.936C180.031 87.1253 180.201 86.4 180.543 85.76C180.895 85.1093 181.391 84.5973 182.031 84.224C182.681 83.84 183.455 83.648 184.351 83.648C185.236 83.648 185.988 83.84 186.607 84.224C187.236 84.5973 187.716 85.1093 188.047 85.76C188.388 86.4 188.559 87.1147 188.559 87.904V92H186.719V90.48H186.687C186.527 90.7787 186.319 91.0613 186.063 91.328C185.807 91.584 185.492 91.792 185.119 91.952C184.745 92.112 184.308 92.192 183.807 92.192ZM184.303 90.624C184.783 90.624 185.199 90.5067 185.551 90.272C185.913 90.0267 186.191 89.7013 186.383 89.296C186.585 88.88 186.687 88.416 186.687 87.904C186.687 87.392 186.591 86.9387 186.399 86.544C186.207 86.1387 185.935 85.8187 185.583 85.584C185.231 85.3387 184.809 85.216 184.319 85.216C183.807 85.216 183.369 85.3387 183.007 85.584C182.644 85.8187 182.367 86.1387 182.175 86.544C181.983 86.9493 181.887 87.408 181.887 87.92C181.887 88.4213 181.983 88.88 182.175 89.296C182.367 89.7013 182.639 90.0267 182.991 90.272C183.353 90.5067 183.791 90.624 184.303 90.624ZM193.768 95.248V92.112C193.15 91.9947 192.616 91.776 192.168 91.456C191.72 91.1253 191.374 90.7093 191.128 90.208C190.883 89.7067 190.76 89.152 190.76 88.544V83.84H192.6V88.528C192.6 88.944 192.691 89.312 192.872 89.632C193.064 89.9413 193.315 90.1867 193.624 90.368C193.944 90.5387 194.291 90.624 194.664 90.624C195.038 90.624 195.379 90.5387 195.688 90.368C196.008 90.1867 196.259 89.9413 196.44 89.632C196.632 89.312 196.728 88.944 196.728 88.528V83.84H198.568V88.544C198.568 89.152 198.446 89.7013 198.2 90.192C197.955 90.6827 197.608 91.0987 197.16 91.44C196.723 91.7707 196.2 91.9893 195.592 92.096V95.248H193.768ZM204.904 92C203.987 92 203.181 91.8293 202.488 91.488C201.805 91.136 201.272 90.656 200.888 90.048C200.504 89.4293 200.312 88.72 200.312 87.92C200.312 87.0773 200.483 86.336 200.824 85.696C201.165 85.056 201.635 84.5547 202.232 84.192C202.829 83.8293 203.517 83.648 204.296 83.648C205.171 83.648 205.891 83.8347 206.456 84.208C207.021 84.5813 207.437 85.0827 207.704 85.712C207.981 86.3413 208.12 87.0453 208.12 87.824C208.12 87.9307 208.115 88.0533 208.104 88.192C208.093 88.3307 208.077 88.4373 208.056 88.512H202.264C202.328 88.9387 202.483 89.296 202.728 89.584C202.973 89.8613 203.283 90.0747 203.656 90.224C204.029 90.3627 204.445 90.432 204.904 90.432H207.096V92H204.904ZM202.248 87.264H206.28C206.269 87.0613 206.237 86.8587 206.184 86.656C206.141 86.4533 206.067 86.2613 205.96 86.08C205.864 85.8987 205.736 85.744 205.576 85.616C205.427 85.4773 205.245 85.3707 205.032 85.296C204.819 85.2107 204.573 85.168 204.296 85.168C203.976 85.168 203.693 85.232 203.448 85.36C203.203 85.4773 202.995 85.6373 202.824 85.84C202.653 86.032 202.52 86.256 202.424 86.512C202.339 86.7573 202.28 87.008 202.248 87.264ZM213.63 92.192C212.98 92.192 212.388 92.0907 211.854 91.888C211.332 91.6747 210.884 91.3707 210.51 90.976C210.148 90.5813 209.865 90.1173 209.662 89.584C209.47 89.04 209.374 88.4427 209.374 87.792C209.374 86.96 209.54 86.2347 209.87 85.616C210.212 84.9973 210.681 84.5173 211.278 84.176C211.876 83.824 212.558 83.648 213.326 83.648C213.71 83.648 214.073 83.7067 214.414 83.824C214.756 83.9413 215.065 84.1067 215.342 84.32C215.62 84.5333 215.844 84.784 216.014 85.072H216.03V80.32H217.87V87.824C217.87 88.72 217.689 89.4987 217.326 90.16C216.974 90.8107 216.478 91.312 215.838 91.664C215.209 92.016 214.473 92.192 213.63 92.192ZM213.63 90.624C214.1 90.624 214.51 90.512 214.862 90.288C215.225 90.0533 215.508 89.7333 215.71 89.328C215.913 88.9227 216.014 88.4533 216.014 87.92C216.014 87.3867 215.913 86.9173 215.71 86.512C215.508 86.1067 215.225 85.792 214.862 85.568C214.51 85.3333 214.094 85.216 213.614 85.216C213.156 85.216 212.745 85.3333 212.382 85.568C212.02 85.8027 211.737 86.1227 211.534 86.528C211.332 86.9333 211.23 87.3973 211.23 87.92C211.23 88.4533 211.332 88.9227 211.534 89.328C211.737 89.7333 212.02 90.0533 212.382 90.288C212.756 90.512 213.172 90.624 213.63 90.624ZM16.336 121.248V119.68H20.432C20.7093 119.68 20.9227 119.595 21.072 119.424C21.232 119.253 21.312 119.04 21.312 118.784V116.672H21.296C21.0613 116.96 20.8107 117.211 20.544 117.424C20.2773 117.627 19.9733 117.787 19.632 117.904C19.3013 118.011 18.9333 118.064 18.528 118.064C17.7813 118.064 17.1147 117.888 16.528 117.536C15.9413 117.184 15.4773 116.693 15.136 116.064C14.8053 115.424 14.64 114.693 14.64 113.872C14.64 113.072 14.8053 112.357 15.136 111.728C15.4773 111.088 15.9627 110.581 16.592 110.208C17.2213 109.835 17.9893 109.648 18.896 109.648C19.76 109.648 20.5067 109.829 21.136 110.192C21.776 110.555 22.272 111.067 22.624 111.728C22.976 112.379 23.152 113.141 23.152 114.016V118.864C23.152 119.6 22.9387 120.181 22.512 120.608C22.0853 121.035 21.504 121.248 20.768 121.248H16.336ZM18.88 116.496C19.3707 116.496 19.792 116.384 20.144 116.16C20.5067 115.925 20.784 115.616 20.976 115.232C21.1787 114.837 21.28 114.4 21.28 113.92C21.28 113.408 21.184 112.949 20.992 112.544C20.8 112.139 20.5227 111.819 20.16 111.584C19.808 111.339 19.3813 111.216 18.88 111.216C18.3893 111.216 17.9627 111.339 17.6 111.584C17.248 111.819 16.976 112.139 16.784 112.544C16.592 112.939 16.496 113.387 16.496 113.888C16.496 114.368 16.592 114.805 16.784 115.2C16.976 115.595 17.248 115.909 17.6 116.144C17.9627 116.379 18.3893 116.496 18.88 116.496ZM28.6035 118.192C27.8248 118.192 27.1528 118 26.5875 117.616C26.0222 117.232 25.5848 116.72 25.2755 116.08C24.9768 115.429 24.8275 114.715 24.8275 113.936C24.8275 113.125 24.9982 112.4 25.3395 111.76C25.6915 111.109 26.1875 110.597 26.8275 110.224C27.4782 109.84 28.2515 109.648 29.1475 109.648C30.0328 109.648 30.7848 109.84 31.4035 110.224C32.0328 110.597 32.5128 111.109 32.8435 111.76C33.1848 112.4 33.3555 113.115 33.3555 113.904V118H31.5155V116.48H31.4835C31.3235 116.779 31.1155 117.061 30.8595 117.328C30.6035 117.584 30.2888 117.792 29.9155 117.952C29.5422 118.112 29.1048 118.192 28.6035 118.192ZM29.0995 116.624C29.5795 116.624 29.9955 116.507 30.3475 116.272C30.7102 116.027 30.9875 115.701 31.1795 115.296C31.3822 114.88 31.4835 114.416 31.4835 113.904C31.4835 113.392 31.3875 112.939 31.1955 112.544C31.0035 112.139 30.7315 111.819 30.3795 111.584C30.0275 111.339 29.6062 111.216 29.1155 111.216C28.6035 111.216 28.1662 111.339 27.8035 111.584C27.4408 111.819 27.1635 112.139 26.9715 112.544C26.7795 112.949 26.6835 113.408 26.6835 113.92C26.6835 114.421 26.7795 114.88 26.9715 115.296C27.1635 115.701 27.4355 116.027 27.7875 116.272C28.1502 116.507 28.5875 116.624 29.0995 116.624ZM35.5571 118V113.12C35.5571 112.491 35.7065 111.915 36.0051 111.392C36.3038 110.859 36.7358 110.437 37.3011 110.128C37.8665 109.808 38.5438 109.648 39.3331 109.648C39.7171 109.648 40.0851 109.696 40.4371 109.792C40.7891 109.888 41.1145 110.043 41.4131 110.256C41.7225 110.459 41.9838 110.715 42.1971 111.024H42.2131C42.4265 110.715 42.6825 110.459 42.9811 110.256C43.2905 110.043 43.6211 109.888 43.9731 109.792C44.3358 109.696 44.7091 109.648 45.0931 109.648C45.8931 109.648 46.5705 109.808 47.1251 110.128C47.6905 110.437 48.1225 110.859 48.4211 111.392C48.7198 111.915 48.8691 112.491 48.8691 113.12V118H47.0451V113.12C47.0451 112.768 46.9545 112.448 46.7731 112.16C46.6025 111.872 46.3731 111.643 46.0851 111.472C45.7971 111.301 45.4665 111.216 45.0931 111.216C44.7305 111.216 44.3998 111.301 44.1011 111.472C43.8025 111.643 43.5625 111.872 43.3811 112.16C43.2105 112.448 43.1251 112.768 43.1251 113.12V118H41.3011V113.12C41.3011 112.768 41.2105 112.448 41.0291 112.16C40.8478 111.872 40.6078 111.643 40.3091 111.472C40.0211 111.301 39.6958 111.216 39.3331 111.216C38.9705 111.216 38.6398 111.301 38.3411 111.472C38.0531 111.643 37.8185 111.872 37.6371 112.16C37.4665 112.448 37.3811 112.768 37.3811 113.12V118H35.5571ZM55.2008 118C54.2834 118 53.4781 117.829 52.7848 117.488C52.1021 117.136 51.5688 116.656 51.1848 116.048C50.8008 115.429 50.6088 114.72 50.6088 113.92C50.6088 113.077 50.7794 112.336 51.1208 111.696C51.4621 111.056 51.9314 110.555 52.5288 110.192C53.1261 109.829 53.8141 109.648 54.5928 109.648C55.4674 109.648 56.1874 109.835 56.7528 110.208C57.3181 110.581 57.7341 111.083 58.0008 111.712C58.2781 112.341 58.4167 113.045 58.4167 113.824C58.4167 113.931 58.4114 114.053 58.4008 114.192C58.3901 114.331 58.3741 114.437 58.3528 114.512H52.5608C52.6248 114.939 52.7794 115.296 53.0248 115.584C53.2701 115.861 53.5794 116.075 53.9528 116.224C54.3261 116.363 54.7421 116.432 55.2008 116.432H57.3928V118H55.2008ZM52.5448 113.264H56.5768C56.5661 113.061 56.5341 112.859 56.4808 112.656C56.4381 112.453 56.3634 112.261 56.2568 112.08C56.1608 111.899 56.0328 111.744 55.8728 111.616C55.7234 111.477 55.5421 111.371 55.3288 111.296C55.1154 111.211 54.8701 111.168 54.5928 111.168C54.2728 111.168 53.9901 111.232 53.7448 111.36C53.4994 111.477 53.2914 111.637 53.1208 111.84C52.9501 112.032 52.8168 112.256 52.7208 112.512C52.6354 112.757 52.5768 113.008 52.5448 113.264ZM60.1033 118V116.432H64.0393C64.2313 116.432 64.3966 116.389 64.5353 116.304C64.6846 116.219 64.7966 116.107 64.8713 115.968C64.9566 115.829 64.9993 115.685 64.9993 115.536C64.9993 115.365 64.9619 115.216 64.8873 115.088C64.8126 114.96 64.7059 114.859 64.5673 114.784C64.4286 114.699 64.2686 114.656 64.0873 114.656H62.4873C61.9646 114.656 61.5006 114.571 61.0953 114.4C60.6899 114.229 60.3699 113.968 60.1353 113.616C59.9006 113.253 59.7833 112.8 59.7833 112.256C59.7833 111.819 59.8899 111.419 60.1033 111.056C60.3273 110.693 60.6259 110.4 60.9993 110.176C61.3726 109.952 61.7939 109.84 62.2633 109.84H66.0553V111.408H62.4393C62.1939 111.408 61.9913 111.488 61.8313 111.648C61.6713 111.797 61.5913 111.984 61.5913 112.208C61.5913 112.421 61.6713 112.608 61.8313 112.768C61.9913 112.928 62.2046 113.008 62.4713 113.008H64.0233C64.6099 113.008 65.1113 113.099 65.5273 113.28C65.9433 113.461 66.2579 113.733 66.4713 114.096C66.6953 114.459 66.8073 114.917 66.8073 115.472C66.8073 115.92 66.6953 116.341 66.4713 116.736C66.2473 117.12 65.9379 117.429 65.5433 117.664C65.1593 117.888 64.7219 118 64.2313 118H60.1033ZM68.2193 120.448L68.9873 118.08C68.7099 117.984 68.5019 117.824 68.3633 117.6C68.2246 117.365 68.1553 117.125 68.1553 116.88C68.1553 116.528 68.2779 116.235 68.5233 116C68.7793 115.755 69.0833 115.632 69.4353 115.632C69.8193 115.632 70.1233 115.765 70.3473 116.032C70.5819 116.288 70.6993 116.597 70.6993 116.96C70.6993 117.205 70.6779 117.435 70.6353 117.648C70.5926 117.851 70.5233 118.085 70.4273 118.352L69.7553 120.448H68.2193ZM79.9785 118.192C79.1998 118.192 78.5278 118 77.9625 117.616C77.3972 117.232 76.9598 116.72 76.6505 116.08C76.3518 115.429 76.2025 114.715 76.2025 113.936C76.2025 113.125 76.3732 112.4 76.7145 111.76C77.0665 111.109 77.5625 110.597 78.2025 110.224C78.8532 109.84 79.6265 109.648 80.5225 109.648C81.4078 109.648 82.1598 109.84 82.7785 110.224C83.4078 110.597 83.8878 111.109 84.2185 111.76C84.5598 112.4 84.7305 113.115 84.7305 113.904V118H82.8905V116.48H82.8585C82.6985 116.779 82.4905 117.061 82.2345 117.328C81.9785 117.584 81.6638 117.792 81.2905 117.952C80.9172 118.112 80.4798 118.192 79.9785 118.192ZM80.4745 116.624C80.9545 116.624 81.3705 116.507 81.7225 116.272C82.0852 116.027 82.3625 115.701 82.5545 115.296C82.7572 114.88 82.8585 114.416 82.8585 113.904C82.8585 113.392 82.7625 112.939 82.5705 112.544C82.3785 112.139 82.1065 111.819 81.7545 111.584C81.4025 111.339 80.9812 111.216 80.4905 111.216C79.9785 111.216 79.5412 111.339 79.1785 111.584C78.8158 111.819 78.5385 112.139 78.3465 112.544C78.1545 112.949 78.0585 113.408 78.0585 113.92C78.0585 114.421 78.1545 114.88 78.3465 115.296C78.5385 115.701 78.8105 116.027 79.1625 116.272C79.5252 116.507 79.9625 116.624 80.4745 116.624ZM86.9321 118V113.296C86.9321 112.592 87.0921 111.968 87.4121 111.424C87.7321 110.869 88.1855 110.437 88.7721 110.128C89.3588 109.808 90.0468 109.648 90.8361 109.648C91.6255 109.648 92.3081 109.808 92.8841 110.128C93.4708 110.437 93.9241 110.869 94.2441 111.424C94.5641 111.968 94.7241 112.592 94.7241 113.296V118H92.9001V113.312C92.9001 112.896 92.8041 112.533 92.6121 112.224C92.4201 111.904 92.1641 111.659 91.8441 111.488C91.5348 111.307 91.1935 111.216 90.8201 111.216C90.4575 111.216 90.1161 111.307 89.7961 111.488C89.4868 111.659 89.2361 111.904 89.0441 112.224C88.8628 112.533 88.7721 112.896 88.7721 113.312V118H86.9321ZM100.724 118.192C100.073 118.192 99.4815 118.091 98.9481 117.888C98.4255 117.675 97.9775 117.371 97.6041 116.976C97.2415 116.581 96.9588 116.117 96.7561 115.584C96.5641 115.04 96.4681 114.443 96.4681 113.792C96.4681 112.96 96.6335 112.235 96.9641 111.616C97.3055 110.997 97.7748 110.517 98.3721 110.176C98.9695 109.824 99.6521 109.648 100.42 109.648C100.804 109.648 101.167 109.707 101.508 109.824C101.849 109.941 102.159 110.107 102.436 110.32C102.713 110.533 102.937 110.784 103.108 111.072H103.124V106.32H104.964V113.824C104.964 114.72 104.783 115.499 104.42 116.16C104.068 116.811 103.572 117.312 102.932 117.664C102.303 118.016 101.567 118.192 100.724 118.192ZM100.724 116.624C101.193 116.624 101.604 116.512 101.956 116.288C102.319 116.053 102.601 115.733 102.804 115.328C103.007 114.923 103.108 114.453 103.108 113.92C103.108 113.387 103.007 112.917 102.804 112.512C102.601 112.107 102.319 111.792 101.956 111.568C101.604 111.333 101.188 111.216 100.708 111.216C100.249 111.216 99.8388 111.333 99.4761 111.568C99.1135 111.803 98.8308 112.123 98.6281 112.528C98.4255 112.933 98.3241 113.397 98.3241 113.92C98.3241 114.453 98.4255 114.923 98.6281 115.328C98.8308 115.733 99.1135 116.053 99.4761 116.288C99.8495 116.512 100.265 116.624 100.724 116.624ZM111.338 118V106.32H113.178V110.656C113.509 110.304 113.893 110.048 114.33 109.888C114.768 109.728 115.21 109.648 115.658 109.648C116.405 109.648 117.04 109.808 117.562 110.128C118.096 110.437 118.501 110.869 118.778 111.424C119.056 111.968 119.194 112.592 119.194 113.296V118H117.37V113.312C117.37 112.896 117.269 112.533 117.066 112.224C116.874 111.904 116.618 111.659 116.298 111.488C115.989 111.307 115.642 111.216 115.258 111.216C114.896 111.216 114.554 111.301 114.234 111.472C113.914 111.643 113.658 111.883 113.466 112.192C113.274 112.501 113.178 112.853 113.178 113.248V118H111.338ZM124.713 118.192C123.934 118.192 123.262 118 122.697 117.616C122.132 117.232 121.694 116.72 121.385 116.08C121.086 115.429 120.937 114.715 120.937 113.936C120.937 113.125 121.108 112.4 121.449 111.76C121.801 111.109 122.297 110.597 122.937 110.224C123.588 109.84 124.361 109.648 125.257 109.648C126.142 109.648 126.894 109.84 127.513 110.224C128.142 110.597 128.622 111.109 128.953 111.76C129.294 112.4 129.465 113.115 129.465 113.904V118H127.625V116.48H127.593C127.433 116.779 127.225 117.061 126.969 117.328C126.713 117.584 126.398 117.792 126.025 117.952C125.652 118.112 125.214 118.192 124.713 118.192ZM125.209 116.624C125.689 116.624 126.105 116.507 126.457 116.272C126.82 116.027 127.097 115.701 127.289 115.296C127.492 114.88 127.593 114.416 127.593 113.904C127.593 113.392 127.497 112.939 127.305 112.544C127.113 112.139 126.841 111.819 126.489 111.584C126.137 111.339 125.716 111.216 125.225 111.216C124.713 111.216 124.276 111.339 123.913 111.584C123.55 111.819 123.273 112.139 123.081 112.544C122.889 112.949 122.793 113.408 122.793 113.92C122.793 114.421 122.889 114.88 123.081 115.296C123.273 115.701 123.545 116.027 123.897 116.272C124.26 116.507 124.697 116.624 125.209 116.624ZM135.459 118.192C134.808 118.192 134.216 118.091 133.683 117.888C133.16 117.675 132.712 117.371 132.339 116.976C131.976 116.581 131.693 116.117 131.491 115.584C131.299 115.04 131.203 114.443 131.203 113.792C131.203 112.96 131.368 112.235 131.699 111.616C132.04 110.997 132.509 110.517 133.107 110.176C133.704 109.824 134.387 109.648 135.155 109.648C135.539 109.648 135.901 109.707 136.243 109.824C136.584 109.941 136.893 110.107 137.171 110.32C137.448 110.533 137.672 110.784 137.843 111.072H137.859V106.32H139.699V113.824C139.699 114.72 139.517 115.499 139.155 116.16C138.803 116.811 138.307 117.312 137.667 117.664C137.037 118.016 136.301 118.192 135.459 118.192ZM135.459 116.624C135.928 116.624 136.339 116.512 136.691 116.288C137.053 116.053 137.336 115.733 137.539 115.328C137.741 114.923 137.843 114.453 137.843 113.92C137.843 113.387 137.741 112.917 137.539 112.512C137.336 112.107 137.053 111.792 136.691 111.568C136.339 111.333 135.923 111.216 135.443 111.216C134.984 111.216 134.573 111.333 134.211 111.568C133.848 111.803 133.565 112.123 133.363 112.528C133.16 112.933 133.059 113.397 133.059 113.92C133.059 114.453 133.16 114.923 133.363 115.328C133.565 115.733 133.848 116.053 134.211 116.288C134.584 116.512 135 116.624 135.459 116.624ZM146.585 118V111.408H145.161V109.84H146.585V108.64C146.585 107.915 146.787 107.349 147.193 106.944C147.609 106.528 148.179 106.32 148.905 106.32H151.081V107.888H149.241C148.995 107.888 148.798 107.963 148.649 108.112C148.499 108.261 148.425 108.464 148.425 108.72V109.84H150.745V111.408H148.425V118H146.585ZM155.93 118.192C155.141 118.192 154.453 118.037 153.866 117.728C153.279 117.408 152.826 116.971 152.506 116.416C152.186 115.861 152.026 115.237 152.026 114.544V109.84H153.866V114.528C153.866 114.944 153.957 115.312 154.138 115.632C154.33 115.941 154.581 116.187 154.89 116.368C155.21 116.539 155.557 116.624 155.93 116.624C156.303 116.624 156.645 116.539 156.954 116.368C157.274 116.187 157.525 115.941 157.706 115.632C157.898 115.312 157.994 114.944 157.994 114.528V109.84H159.834V114.544C159.834 115.237 159.674 115.861 159.354 116.416C159.034 116.971 158.581 117.408 157.994 117.728C157.407 118.037 156.719 118.192 155.93 118.192ZM162.042 118V113.296C162.042 112.592 162.202 111.968 162.522 111.424C162.842 110.869 163.295 110.437 163.882 110.128C164.468 109.808 165.156 109.648 165.946 109.648C166.735 109.648 167.418 109.808 167.994 110.128C168.58 110.437 169.034 110.869 169.354 111.424C169.674 111.968 169.834 112.592 169.834 113.296V118H168.01V113.312C168.01 112.896 167.914 112.533 167.722 112.224C167.53 111.904 167.274 111.659 166.954 111.488C166.644 111.307 166.303 111.216 165.93 111.216C165.567 111.216 165.226 111.307 164.906 111.488C164.596 111.659 164.346 111.904 164.154 112.224C163.972 112.533 163.882 112.896 163.882 113.312V118H162.042ZM179.092 118C178.367 118 177.796 117.792 177.38 117.376C176.975 116.96 176.772 116.395 176.772 115.68V107.792H178.596V115.6C178.596 115.845 178.671 116.048 178.82 116.208C178.969 116.357 179.167 116.432 179.412 116.432H181.124V118H179.092ZM175.364 111.408V109.84H181.14V111.408H175.364ZM186.476 118.192C185.634 118.192 184.887 118.005 184.236 117.632C183.586 117.248 183.068 116.736 182.684 116.096C182.311 115.445 182.124 114.72 182.124 113.92C182.124 113.12 182.311 112.4 182.684 111.76C183.068 111.109 183.586 110.597 184.236 110.224C184.887 109.84 185.634 109.648 186.476 109.648C187.308 109.648 188.05 109.84 188.7 110.224C189.351 110.597 189.863 111.104 190.236 111.744C190.62 112.384 190.812 113.109 190.812 113.92C190.812 114.72 190.62 115.445 190.236 116.096C189.863 116.736 189.351 117.248 188.7 117.632C188.05 118.005 187.308 118.192 186.476 118.192ZM186.476 116.624C186.978 116.624 187.415 116.507 187.788 116.272C188.162 116.027 188.45 115.701 188.652 115.296C188.855 114.891 188.956 114.432 188.956 113.92C188.956 113.419 188.855 112.965 188.652 112.56C188.45 112.144 188.162 111.819 187.788 111.584C187.415 111.339 186.978 111.216 186.476 111.216C185.964 111.216 185.522 111.339 185.148 111.584C184.786 111.819 184.498 112.139 184.284 112.544C184.082 112.949 183.98 113.408 183.98 113.92C183.98 114.421 184.082 114.88 184.284 115.296C184.498 115.701 184.786 116.027 185.148 116.272C185.522 116.507 185.964 116.624 186.476 116.624ZM193.789 121.248V119.68H197.885C198.162 119.68 198.376 119.595 198.525 119.424C198.685 119.253 198.765 119.04 198.765 118.784V116.672H198.749C198.514 116.96 198.264 117.211 197.997 117.424C197.73 117.627 197.426 117.787 197.085 117.904C196.754 118.011 196.386 118.064 195.981 118.064C195.234 118.064 194.568 117.888 193.981 117.536C193.394 117.184 192.93 116.693 192.589 116.064C192.258 115.424 192.093 114.693 192.093 113.872C192.093 113.072 192.258 112.357 192.589 111.728C192.93 111.088 193.416 110.581 194.045 110.208C194.674 109.835 195.442 109.648 196.349 109.648C197.213 109.648 197.96 109.829 198.589 110.192C199.229 110.555 199.725 111.067 200.077 111.728C200.429 112.379 200.605 113.141 200.605 114.016V118.864C200.605 119.6 200.392 120.181 199.965 120.608C199.538 121.035 198.957 121.248 198.221 121.248H193.789ZM196.333 116.496C196.824 116.496 197.245 116.384 197.597 116.16C197.96 115.925 198.237 115.616 198.429 115.232C198.632 114.837 198.733 114.4 198.733 113.92C198.733 113.408 198.637 112.949 198.445 112.544C198.253 112.139 197.976 111.819 197.613 111.584C197.261 111.339 196.834 111.216 196.333 111.216C195.842 111.216 195.416 111.339 195.053 111.584C194.701 111.819 194.429 112.139 194.237 112.544C194.045 112.939 193.949 113.387 193.949 113.888C193.949 114.368 194.045 114.805 194.237 115.2C194.429 115.595 194.701 115.909 195.053 116.144C195.416 116.379 195.842 116.496 196.333 116.496ZM206.873 118C205.955 118 205.15 117.829 204.457 117.488C203.774 117.136 203.241 116.656 202.857 116.048C202.473 115.429 202.281 114.72 202.281 113.92C202.281 113.077 202.451 112.336 202.793 111.696C203.134 111.056 203.603 110.555 204.201 110.192C204.798 109.829 205.486 109.648 206.265 109.648C207.139 109.648 207.859 109.835 208.425 110.208C208.99 110.581 209.406 111.083 209.673 111.712C209.95 112.341 210.089 113.045 210.089 113.824C210.089 113.931 210.083 114.053 210.073 114.192C210.062 114.331 210.046 114.437 210.025 114.512H204.233C204.297 114.939 204.451 115.296 204.697 115.584C204.942 115.861 205.251 116.075 205.625 116.224C205.998 116.363 206.414 116.432 206.873 116.432H209.065V118H206.873ZM204.217 113.264H208.249C208.238 113.061 208.206 112.859 208.153 112.656C208.11 112.453 208.035 112.261 207.929 112.08C207.833 111.899 207.705 111.744 207.545 111.616C207.395 111.477 207.214 111.371 207.001 111.296C206.787 111.211 206.542 111.168 206.265 111.168C205.945 111.168 205.662 111.232 205.417 111.36C205.171 111.477 204.963 111.637 204.793 111.84C204.622 112.032 204.489 112.256 204.393 112.512C204.307 112.757 204.249 113.008 204.217 113.264ZM214.623 118C213.898 118 213.327 117.792 212.911 117.376C212.506 116.96 212.303 116.395 212.303 115.68V107.792H214.127V115.6C214.127 115.845 214.202 116.048 214.351 116.208C214.5 116.357 214.698 116.432 214.943 116.432H216.655V118H214.623ZM210.895 111.408V109.84H216.671V111.408H210.895ZM218.401 118V106.32H220.241V110.656C220.572 110.304 220.956 110.048 221.393 109.888C221.83 109.728 222.273 109.648 222.721 109.648C223.468 109.648 224.102 109.808 224.625 110.128C225.158 110.437 225.564 110.869 225.841 111.424C226.118 111.968 226.257 112.592 226.257 113.296V118H224.433V113.312C224.433 112.896 224.332 112.533 224.129 112.224C223.937 111.904 223.681 111.659 223.361 111.488C223.052 111.307 222.705 111.216 222.321 111.216C221.958 111.216 221.617 111.301 221.297 111.472C220.977 111.643 220.721 111.883 220.529 112.192C220.337 112.501 220.241 112.853 220.241 113.248V118H218.401ZM232.591 118C231.674 118 230.869 117.829 230.175 117.488C229.493 117.136 228.959 116.656 228.575 116.048C228.191 115.429 227.999 114.72 227.999 113.92C227.999 113.077 228.17 112.336 228.511 111.696C228.853 111.056 229.322 110.555 229.919 110.192C230.517 109.829 231.205 109.648 231.983 109.648C232.858 109.648 233.578 109.835 234.143 110.208C234.709 110.581 235.125 111.083 235.391 111.712C235.669 112.341 235.807 113.045 235.807 113.824C235.807 113.931 235.802 114.053 235.791 114.192C235.781 114.331 235.765 114.437 235.743 114.512H229.951C230.015 114.939 230.17 115.296 230.415 115.584C230.661 115.861 230.97 116.075 231.343 116.224C231.717 116.363 232.133 116.432 232.591 116.432H234.783V118H232.591ZM229.935 113.264H233.967C233.957 113.061 233.925 112.859 233.871 112.656C233.829 112.453 233.754 112.261 233.647 112.08C233.551 111.899 233.423 111.744 233.263 111.616C233.114 111.477 232.933 111.371 232.719 111.296C232.506 111.211 232.261 111.168 231.983 111.168C231.663 111.168 231.381 111.232 231.135 111.36C230.89 111.477 230.682 111.637 230.511 111.84C230.341 112.032 230.207 112.256 230.111 112.512C230.026 112.757 229.967 113.008 229.935 113.264ZM237.462 118V112.16C237.462 111.435 237.665 110.869 238.07 110.464C238.486 110.048 239.057 109.84 239.782 109.84H241.75V111.408H240.118C239.862 111.408 239.659 111.483 239.51 111.632C239.371 111.781 239.302 111.984 239.302 112.24V118H237.462Z" fill="#232323"/>
</svg>
