<svg width="155" height="76" viewBox="0 0 155 76" fill="none" xmlns="http://www.w3.org/2000/svg">
<rect width="155" height="76" rx="12" fill="#543310"/>
<path d="M61.248 43.52C61.248 43.712 61.2 43.904 61.104 44.048C59.76 45.992 57.36 47.288 54.312 47.288C49.392 47.288 46.032 43.904 46.032 38.96C46.032 34.016 49.392 30.632 54.312 30.632C57.12 30.632 59.352 31.688 60.816 33.512C60.96 33.68 61.056 33.896 61.056 34.16C61.056 34.64 60.72 35 60.216 35C59.904 35 59.664 34.88 59.472 34.616C58.344 33.128 56.544 32.24 54.312 32.24C50.448 32.24 47.808 34.976 47.808 38.96C47.808 42.944 50.448 45.68 54.312 45.68C56.64 45.68 58.44 44.744 59.664 43.064C59.832 42.824 60.072 42.68 60.408 42.68C60.888 42.68 61.248 43.04 61.248 43.52ZM63.1414 41.288C63.1414 37.712 65.6134 35.288 69.1894 35.288C72.7894 35.288 75.2614 37.712 75.2614 41.288C75.2614 44.84 72.7894 47.288 69.1894 47.288C65.6134 47.288 63.1414 44.84 63.1414 41.288ZM64.8214 41.288C64.8214 43.976 66.5974 45.8 69.1894 45.8C71.8054 45.8 73.5814 43.976 73.5814 41.288C73.5814 38.6 71.8054 36.776 69.1894 36.776C66.5974 36.776 64.8214 38.6 64.8214 41.288ZM91.0731 35.288C94.0011 35.288 95.4891 37.064 95.4891 40.4V46.256C95.4891 46.808 95.1771 47.144 94.6491 47.144C94.1451 47.144 93.8331 46.808 93.8331 46.256V40.544C93.8331 38.096 92.8011 36.776 90.8091 36.776C88.7691 36.776 87.4971 38.408 87.4971 40.976V46.256C87.4971 46.808 87.1851 47.144 86.6571 47.144C86.1531 47.144 85.8411 46.808 85.8411 46.256V40.544C85.8411 38.096 84.8091 36.776 82.7931 36.776C80.7771 36.776 79.5051 38.408 79.5051 40.976V46.256C79.5051 46.808 79.1931 47.144 78.6891 47.144C78.1611 47.144 77.8491 46.808 77.8491 46.256V36.32C77.8491 35.744 78.1611 35.432 78.6891 35.432C79.1931 35.432 79.5051 35.744 79.5051 36.32V37.088H79.5531C80.3211 35.936 81.5691 35.288 83.1531 35.288C84.9531 35.288 86.2731 36.056 86.9211 37.472H86.9691C87.7371 36.08 89.1051 35.288 91.0731 35.288ZM97.8054 41.288C97.8054 37.712 100.277 35.288 103.853 35.288C107.453 35.288 109.925 37.712 109.925 41.288C109.925 44.84 107.453 47.288 103.853 47.288C100.277 47.288 97.8054 44.84 97.8054 41.288ZM99.4854 41.288C99.4854 43.976 101.261 45.8 103.853 45.8C106.469 45.8 108.245 43.976 108.245 41.288C108.245 38.6 106.469 36.776 103.853 36.776C101.261 36.776 99.4854 38.6 99.4854 41.288Z" fill="white"/>
</svg>
