<svg width="288" height="146" viewBox="0 0 288 146" fill="none" xmlns="http://www.w3.org/2000/svg">
<rect x="0.5" y="0.5" width="287" height="145" rx="9.5" fill="#FEFBF5"/>
<rect x="0.5" y="0.5" width="287" height="145" rx="9.5" stroke="#74512D"/>
<path d="M14.816 40.592C15.936 40.592 17.232 39.84 18.256 38.432C19.312 36.896 20.32 34.944 21.04 33.808C22.24 31.92 23.36 30.72 25.056 30.08C23.52 30.16 22.24 29.664 21.04 29.664C19.888 29.664 18.848 30.224 18.864 31.424C18.88 31.936 19.216 32.32 19.68 32.384C19.808 32.4 19.968 32.4 20.096 32.368C19.92 32.608 19.6 32.736 19.264 32.736C18.688 32.736 18.288 32.304 18.288 31.728C18.288 31.152 18.704 30.528 19.424 29.952C20.032 29.456 20.864 29.136 21.792 29.136C23.04 29.136 24.416 29.936 25.344 29.936C25.632 29.76 26.016 29.584 26.288 29.568C26.464 29.552 26.56 29.632 26.56 29.712C26.56 29.92 26.016 30.048 25.44 30.064C24.752 30.24 24.112 30.896 23.664 31.488C23.216 32.112 22.608 33.232 22.128 34.16C21.552 35.264 20.512 37.024 19.616 38.096C18.208 39.68 16.56 40.72 14.784 40.72C13.872 40.72 12.64 40.512 12.64 39.536C12.64 38.896 13.248 38.48 13.936 38.48C14.192 38.48 14.448 38.56 14.56 38.656C13.92 38.672 13.552 39.136 13.552 39.648C13.552 40.336 14.128 40.592 14.816 40.592ZM27.1875 34.72C27.4915 34.208 27.9715 33.472 28.4035 32.928C29.2675 31.872 30.3235 31.12 31.4595 31.12C32.0835 31.12 32.5955 31.36 32.5635 31.888C32.5475 32.464 32.0035 32.864 31.4595 32.864C31.3315 32.864 31.1715 32.848 31.0595 32.768C31.4755 32.624 31.7635 32.048 31.7795 31.696C31.7795 31.472 31.6515 31.264 31.3475 31.264C30.8035 31.264 30.1955 31.872 29.4115 33.008C29.0595 33.504 28.7235 34.096 28.3715 34.72H29.2515C29.4275 34.72 29.5075 34.752 29.4915 34.816C29.4755 34.912 29.3475 34.912 29.0435 34.912H28.2915C27.6195 36.128 26.4835 38.192 25.8435 39.264C24.7875 41.024 23.0275 43.536 21.0115 43.536C20.2595 43.536 19.6035 43.312 19.6515 42.688C19.6835 42.16 20.1795 41.824 20.7235 41.824C20.9155 41.824 21.0915 41.872 21.1715 41.92C20.7875 42.016 20.5155 42.368 20.5155 42.736C20.4995 43.168 20.7555 43.376 21.2035 43.376C22.5795 43.376 23.7795 41.088 24.7235 39.28C25.4595 37.856 26.6915 35.616 27.0915 34.912H26.3235C26.0355 34.912 25.8915 34.912 25.9075 34.8C25.9235 34.736 26.0035 34.72 26.2755 34.72H27.1875ZM33.0608 34.544C33.0608 34.336 32.9488 34.176 32.7088 34.176C32.1488 34.176 31.5408 34.72 31.0608 35.2C30.7408 35.504 30.4208 35.936 30.1968 36.24C30.2608 36.352 30.6128 36.544 30.9808 36.56C32.1008 36.576 33.0608 35.232 33.0608 34.544ZM29.4128 40.16C28.5328 40.16 27.9087 39.744 27.9087 38.784C27.9087 37.968 28.3567 36.704 29.3328 35.664C30.4368 34.48 31.7168 34.016 32.6128 34.016C33.2368 34.016 33.6368 34.336 33.6368 34.832C33.6368 35.888 32.5488 36.72 31.1408 36.72C30.5807 36.72 30.2448 36.496 30.1328 36.32C29.3168 37.488 28.8848 38.56 28.8848 39.216C28.8848 39.68 29.1568 39.952 29.6368 39.952C30.2928 39.952 31.1248 39.568 31.8768 38.928C32.5807 38.32 33.1568 37.584 33.6048 36.816C33.4288 37.456 32.6288 38.512 31.9248 39.104C31.1728 39.728 30.3408 40.16 29.4128 40.16ZM33.9924 39.888C34.3444 39.888 34.8724 39.648 35.4804 38.928C35.9444 38.384 36.2484 37.936 36.5364 37.392C36.3924 37.92 36.0404 38.48 35.5924 39.024C34.9684 39.76 34.3604 40.16 33.6564 40.16C32.9684 40.16 32.6324 39.728 32.6324 39.184C32.6324 38.048 33.8324 36.128 34.6804 34.816C35.0644 34.208 35.8964 32.96 36.3924 32.272C36.8724 31.616 37.1124 31.36 37.4484 31.36C37.5284 31.36 37.7364 31.36 37.8484 31.36C38.2324 31.36 38.5684 30.672 38.7764 30.672C38.1524 31.472 36.3284 34.064 35.2564 35.84C34.6804 36.784 34.0884 37.824 33.8164 38.464C33.6564 38.8 33.5444 39.152 33.5444 39.424C33.5444 39.696 33.6724 39.888 33.9924 39.888ZM37.0329 40.16C36.3449 40.16 35.9769 39.824 35.9289 39.264C35.8969 38.8 36.0569 38.24 36.4089 37.536C36.7289 36.912 37.3369 35.936 38.0409 34.912H37.1129C36.9529 34.912 36.9209 34.864 36.9529 34.8C36.9849 34.704 37.1449 34.72 37.3529 34.72H38.1849C38.4249 34.352 38.8729 33.696 39.0969 33.392C39.6089 32.672 39.7529 32.56 40.0089 32.56C40.0889 32.56 40.2809 32.56 40.3929 32.56C40.9209 32.56 41.1129 31.872 41.3689 31.872C40.8089 32.576 39.6729 34.272 39.4009 34.72H40.0409C40.2169 34.72 40.2969 34.752 40.2809 34.816C40.2649 34.896 40.2009 34.912 39.8969 34.912H39.2729C38.3769 36.176 37.6089 37.488 37.1769 38.336C37.0009 38.688 36.8729 39.056 36.8729 39.376C36.8729 39.664 37.0169 39.888 37.3689 39.888C37.8009 39.888 38.3609 39.52 38.8889 38.912C39.3689 38.352 39.6409 37.952 39.9449 37.392C39.8009 37.92 39.4649 38.48 39.0009 39.024C38.4249 39.696 37.7689 40.16 37.0329 40.16ZM48.0415 34.736C48.1695 34.8 48.4575 34.816 48.7775 34.8C49.1935 34.784 49.4975 34.176 49.6575 34.24C49.3375 34.64 48.4895 35.952 47.9455 36.896C47.2575 38.08 46.6495 39.248 45.9935 40.304C45.2575 41.52 44.5695 42.24 43.9455 42.72C43.2735 43.264 42.4735 43.52 41.8175 43.52C41.0655 43.52 40.3615 43.328 40.3615 42.704C40.3775 42.176 40.8895 41.824 41.4815 41.824C41.6735 41.824 41.8335 41.872 41.9295 41.92C41.5135 42 41.2415 42.432 41.2415 42.784C41.2415 43.2 41.4815 43.376 41.9295 43.376C42.3135 43.376 43.0655 43.248 44.2495 41.344C44.7295 40.56 45.5455 39.152 46.0415 38.256C46.0735 38.208 46.0415 38.16 45.9935 38.224C45.7855 38.512 45.4495 38.944 45.1615 39.248C44.6975 39.712 44.1695 40.128 43.5455 40.128C42.9055 40.128 42.4575 39.744 42.4575 38.928C42.4575 38.112 42.8415 37.056 43.6415 36.096C44.7295 34.8 46.0735 34.016 47.2415 34.032C47.6735 34.032 48.0735 34.24 48.0415 34.736ZM47.8815 34.96C47.9615 34.464 47.7055 34.208 47.4015 34.208C46.4255 34.208 45.1135 35.872 44.5375 36.736C44.0415 37.488 43.3695 38.608 43.3695 39.408C43.3695 39.712 43.5295 39.888 43.7855 39.888C44.1695 39.888 44.6655 39.52 45.0815 39.072C45.8335 38.304 46.3935 37.408 47.1295 36.224C47.3695 35.84 47.7855 35.136 47.8815 34.96ZM53.9451 35.168C53.9451 35.76 53.7691 36.608 53.0651 37.744C52.0411 39.376 50.7451 40.144 49.8491 40.144C49.1291 40.144 48.4731 39.76 48.4731 38.656C48.4731 37.952 48.7931 36.88 49.5611 35.92C50.4571 34.816 51.7051 34.016 52.8411 34.016C53.5611 34.016 53.9451 34.464 53.9451 35.168ZM53.4651 34.832C53.4651 34.4 53.2891 34.176 52.9691 34.176C52.1531 34.176 51.2091 35.424 50.5371 36.48C50.0571 37.232 49.3691 38.464 49.3691 39.296C49.3691 39.84 49.6571 39.984 49.9451 39.984C50.5211 39.984 51.4971 38.944 52.3451 37.568C53.0171 36.432 53.4651 35.328 53.4651 34.832ZM59.0545 35.168C59.0545 35.76 58.8785 36.608 58.1745 37.744C57.1505 39.376 55.8545 40.144 54.9585 40.144C54.2385 40.144 53.5825 39.76 53.5825 38.656C53.5825 37.952 53.9025 36.88 54.6705 35.92C55.5665 34.816 56.8145 34.016 57.9505 34.016C58.6705 34.016 59.0545 34.464 59.0545 35.168ZM58.5745 34.832C58.5745 34.4 58.3985 34.176 58.0785 34.176C57.2625 34.176 56.3185 35.424 55.6465 36.48C55.1665 37.232 54.4785 38.464 54.4785 39.296C54.4785 39.84 54.7665 39.984 55.0545 39.984C55.6305 39.984 56.6065 38.944 57.4545 37.568C58.1265 36.432 58.5745 35.328 58.5745 34.832ZM64.2599 34.784C64.7879 33.952 65.5079 32.88 65.9879 32.192C66.4999 31.472 66.6439 31.36 66.8839 31.36C66.9639 31.36 67.2199 31.36 67.3319 31.36C67.7959 31.36 68.0679 30.672 68.2919 30.672C66.9319 32.464 65.7159 34.416 64.8839 35.712C64.1479 36.88 63.6359 37.792 63.2679 38.464C63.0119 38.944 62.8999 39.248 62.8999 39.504C62.8999 39.712 63.0279 39.872 63.2679 39.872C63.6519 39.872 64.1639 39.536 64.6439 38.992C65.1239 38.448 65.4279 38.032 65.7639 37.392C65.5879 38.032 65.1879 38.608 64.7879 39.072C64.2439 39.68 63.6519 40.16 62.9799 40.16C62.3559 40.16 62.0199 39.808 62.0199 39.232C62.0199 38.8 62.2119 38.384 62.2759 38.256C62.3079 38.208 62.2759 38.16 62.2279 38.224C62.0199 38.512 61.6839 38.944 61.3959 39.248C60.9319 39.712 60.4039 40.128 59.7799 40.128C59.1399 40.128 58.6919 39.744 58.6919 38.928C58.6919 38.112 59.0759 37.056 59.8759 36.096C60.9639 34.8 62.2759 34.032 63.4599 34.032C63.9079 34.032 64.3239 34.224 64.2599 34.784ZM64.1159 34.96C64.1959 34.448 63.9399 34.208 63.6359 34.208C62.6439 34.208 61.3479 35.856 60.7719 36.736C60.2759 37.488 59.6039 38.624 59.6039 39.408C59.6039 39.712 59.7639 39.888 60.0199 39.888C60.4039 39.888 60.8999 39.52 61.3159 39.072C62.0679 38.304 62.6279 37.408 63.3639 36.224C63.6039 35.84 64.0199 35.136 64.1159 34.96ZM69.486 40.16C68.798 40.16 68.43 39.824 68.382 39.264C68.35 38.8 68.51 38.24 68.862 37.536C69.182 36.912 69.79 35.936 70.494 34.912H69.566C69.406 34.912 69.374 34.864 69.406 34.8C69.438 34.704 69.598 34.72 69.806 34.72H70.638C70.878 34.352 71.326 33.696 71.55 33.392C72.062 32.672 72.206 32.56 72.462 32.56C72.542 32.56 72.734 32.56 72.846 32.56C73.374 32.56 73.566 31.872 73.822 31.872C73.262 32.576 72.126 34.272 71.854 34.72H72.494C72.67 34.72 72.75 34.752 72.734 34.816C72.718 34.896 72.654 34.912 72.35 34.912H71.726C70.83 36.176 70.062 37.488 69.63 38.336C69.454 38.688 69.326 39.056 69.326 39.376C69.326 39.664 69.47 39.888 69.822 39.888C70.254 39.888 70.814 39.52 71.342 38.912C71.822 38.352 72.094 37.952 72.398 37.392C72.254 37.92 71.918 38.48 71.454 39.024C70.878 39.696 70.222 40.16 69.486 40.16ZM77.1326 35.168C77.1326 35.76 76.9566 36.608 76.2526 37.744C75.2286 39.376 73.9326 40.144 73.0366 40.144C72.3166 40.144 71.6606 39.76 71.6606 38.656C71.6606 37.952 71.9806 36.88 72.7486 35.92C73.6446 34.816 74.8926 34.016 76.0286 34.016C76.7486 34.016 77.1326 34.464 77.1326 35.168ZM76.6526 34.832C76.6526 34.4 76.4766 34.176 76.1566 34.176C75.3406 34.176 74.3966 35.424 73.7246 36.48C73.2446 37.232 72.5566 38.464 72.5566 39.296C72.5566 39.84 72.8446 39.984 73.1326 39.984C73.7086 39.984 74.6846 38.944 75.5326 37.568C76.2046 36.432 76.6526 35.328 76.6526 34.832ZM80.8051 37.152C81.5731 35.952 82.0371 35.152 82.0371 34.8C82.0371 34.64 81.9411 34.544 81.7811 34.544C81.3811 34.544 80.9491 34.992 80.4851 35.616C80.7571 34.896 81.5251 34.112 82.3731 34.112C82.8531 34.112 83.0931 34.4 83.0931 34.768C83.0931 35.248 82.7891 35.824 82.5171 36.192C82.4691 36.256 82.5171 36.288 82.5651 36.24C83.3011 35.296 84.3411 34.128 85.3011 34.128C85.8611 34.128 86.1651 34.4 86.1651 34.896C86.1651 35.296 85.9091 35.776 85.6051 36.192C85.5571 36.272 85.6051 36.304 85.6531 36.24C86.5651 35.072 87.5251 34.128 88.3731 34.128C88.9331 34.128 89.2691 34.464 89.2691 34.976C89.2691 35.568 88.9331 36.176 88.1331 37.296C87.3491 38.368 86.9651 39.072 86.9651 39.504C86.9651 39.728 87.0931 39.872 87.3331 39.872C87.6531 39.872 88.2131 39.52 88.7411 38.912C89.2211 38.352 89.4931 37.952 89.7971 37.392C89.6531 37.92 89.3171 38.48 88.8531 39.024C88.2931 39.664 87.6371 40.16 86.9491 40.16C86.3731 40.16 86.0371 39.824 86.0371 39.264C86.0371 38.608 86.4531 37.824 87.2531 36.704C87.8611 35.856 88.3411 35.232 88.3411 34.784C88.3411 34.608 88.2611 34.464 88.0371 34.464C87.6211 34.464 86.7411 35.104 85.6691 36.432C84.8691 37.424 84.3731 38.288 84.0691 38.88C83.7811 39.456 83.6051 39.968 83.6851 40.144C83.3331 40.112 83.0291 39.808 83.0291 39.296C83.0291 38.8 83.2531 38.112 83.9091 37.136C84.5171 36.24 85.2531 35.248 85.2531 34.768C85.2531 34.592 85.1731 34.464 84.9651 34.464C84.4371 34.464 83.5411 35.216 82.5811 36.432C81.7811 37.424 81.2691 38.288 80.9651 38.88C80.6611 39.456 80.4691 39.968 80.5331 40.144C80.1651 40.096 79.8931 39.808 79.8931 39.36C79.8931 38.848 80.1651 38.144 80.8051 37.152ZM94.1545 34.544C94.1545 34.336 94.0425 34.176 93.8025 34.176C93.2425 34.176 92.6345 34.72 92.1545 35.2C91.8345 35.504 91.5145 35.936 91.2905 36.24C91.3545 36.352 91.7065 36.544 92.0745 36.56C93.1945 36.576 94.1545 35.232 94.1545 34.544ZM90.5065 40.16C89.6265 40.16 89.0025 39.744 89.0025 38.784C89.0025 37.968 89.4505 36.704 90.4265 35.664C91.5305 34.48 92.8105 34.016 93.7065 34.016C94.3305 34.016 94.7305 34.336 94.7305 34.832C94.7305 35.888 93.6425 36.72 92.2345 36.72C91.6745 36.72 91.3385 36.496 91.2265 36.32C90.4105 37.488 89.9785 38.56 89.9785 39.216C89.9785 39.68 90.2505 39.952 90.7305 39.952C91.3865 39.952 92.2185 39.568 92.9705 38.928C93.6745 38.32 94.2505 37.584 94.6985 36.816C94.5225 37.456 93.7225 38.512 93.0185 39.104C92.2665 39.728 91.4345 40.16 90.5065 40.16ZM98.8108 34.544C98.8108 34.336 98.6988 34.176 98.4588 34.176C97.8988 34.176 97.2908 34.72 96.8108 35.2C96.4908 35.504 96.1708 35.936 95.9468 36.24C96.0108 36.352 96.3628 36.544 96.7308 36.56C97.8508 36.576 98.8108 35.232 98.8108 34.544ZM95.1628 40.16C94.2828 40.16 93.6587 39.744 93.6587 38.784C93.6587 37.968 94.1067 36.704 95.0828 35.664C96.1868 34.48 97.4668 34.016 98.3628 34.016C98.9868 34.016 99.3868 34.336 99.3868 34.832C99.3868 35.888 98.2988 36.72 96.8908 36.72C96.3307 36.72 95.9948 36.496 95.8828 36.32C95.0668 37.488 94.6348 38.56 94.6348 39.216C94.6348 39.68 94.9068 39.952 95.3868 39.952C96.0428 39.952 96.8748 39.568 97.6268 38.928C98.3307 38.32 98.9068 37.584 99.3548 36.816C99.1788 37.456 98.3788 38.512 97.6748 39.104C96.9228 39.728 96.0908 40.16 95.1628 40.16ZM99.5173 40.16C98.8293 40.16 98.4612 39.824 98.4132 39.264C98.3812 38.8 98.5412 38.24 98.8933 37.536C99.2133 36.912 99.8213 35.936 100.525 34.912H99.5973C99.4373 34.912 99.4053 34.864 99.4373 34.8C99.4693 34.704 99.6293 34.72 99.8372 34.72H100.669C100.909 34.352 101.357 33.696 101.581 33.392C102.093 32.672 102.237 32.56 102.493 32.56C102.573 32.56 102.765 32.56 102.877 32.56C103.405 32.56 103.597 31.872 103.853 31.872C103.293 32.576 102.157 34.272 101.885 34.72H102.525C102.701 34.72 102.781 34.752 102.765 34.816C102.749 34.896 102.685 34.912 102.381 34.912H101.757C100.861 36.176 100.093 37.488 99.6613 38.336C99.4853 38.688 99.3573 39.056 99.3573 39.376C99.3573 39.664 99.5013 39.888 99.8533 39.888C100.285 39.888 100.845 39.52 101.373 38.912C101.853 38.352 102.125 37.952 102.429 37.392C102.285 37.92 101.949 38.48 101.485 39.024C100.909 39.696 100.253 40.16 99.5173 40.16ZM105.774 37.152C106.542 35.952 107.006 35.152 107.006 34.8C107.006 34.64 106.91 34.544 106.75 34.544C106.35 34.544 105.918 34.992 105.454 35.616C105.726 34.896 106.494 34.112 107.342 34.112C107.822 34.112 108.062 34.4 108.062 34.768C108.062 35.248 107.758 35.824 107.486 36.192C107.438 36.256 107.486 36.288 107.534 36.24C108.27 35.296 109.31 34.128 110.27 34.128C110.83 34.128 111.134 34.4 111.134 34.896C111.134 35.296 110.878 35.776 110.574 36.192C110.526 36.272 110.574 36.304 110.622 36.24C111.534 35.072 112.494 34.128 113.342 34.128C113.902 34.128 114.238 34.464 114.238 34.976C114.238 35.568 113.902 36.176 113.102 37.296C112.318 38.368 111.934 39.072 111.934 39.504C111.934 39.728 112.062 39.872 112.302 39.872C112.622 39.872 113.182 39.52 113.71 38.912C114.19 38.352 114.462 37.952 114.766 37.392C114.622 37.92 114.286 38.48 113.822 39.024C113.262 39.664 112.606 40.16 111.918 40.16C111.342 40.16 111.006 39.824 111.006 39.264C111.006 38.608 111.422 37.824 112.222 36.704C112.83 35.856 113.31 35.232 113.31 34.784C113.31 34.608 113.23 34.464 113.006 34.464C112.59 34.464 111.71 35.104 110.638 36.432C109.838 37.424 109.342 38.288 109.038 38.88C108.75 39.456 108.574 39.968 108.654 40.144C108.302 40.112 107.998 39.808 107.998 39.296C107.998 38.8 108.222 38.112 108.878 37.136C109.486 36.24 110.222 35.248 110.222 34.768C110.222 34.592 110.142 34.464 109.934 34.464C109.406 34.464 108.51 35.216 107.55 36.432C106.75 37.424 106.238 38.288 105.934 38.88C105.63 39.456 105.438 39.968 105.502 40.144C105.134 40.096 104.862 39.808 104.862 39.36C104.862 38.848 105.134 38.144 105.774 37.152ZM113.619 43.376C113.907 43.376 114.707 43.328 115.923 41.344C116.547 40.336 117.331 38.96 117.827 38.08C117.859 38.032 117.827 38 117.795 38.048C117.043 39.024 115.827 40.128 114.819 40.128C114.355 40.128 113.907 39.888 113.907 39.296C113.907 38.768 114.227 38.112 114.867 37.168C115.795 35.792 116.211 35.12 116.211 34.768C116.211 34.64 116.131 34.528 116.003 34.528C115.699 34.528 115.203 34.864 114.707 35.68C114.979 34.816 115.779 34.112 116.515 34.112C116.963 34.112 117.283 34.352 117.283 34.752C117.267 35.408 116.867 36.096 115.891 37.52C115.251 38.432 114.851 39.168 114.851 39.504C114.851 39.744 114.995 39.84 115.187 39.84C115.747 39.84 116.995 38.944 117.907 37.648C118.275 37.136 118.787 36.384 119.235 35.6C119.443 35.216 119.571 34.912 119.571 34.704C119.571 34.592 119.491 34.528 119.395 34.528C119.267 34.528 119.139 34.592 119.027 34.704C119.235 34.368 119.523 34.144 119.891 34.144C120.307 34.144 120.547 34.368 120.547 34.752C120.547 35.216 120.131 36 119.555 37.024C118.803 38.368 118.179 39.472 117.555 40.432C116.675 41.808 115.315 43.488 113.507 43.52C112.739 43.536 112.035 43.328 112.035 42.704C112.051 42.176 112.579 41.824 113.155 41.824C113.347 41.824 113.507 41.872 113.603 41.92C113.187 42 112.915 42.416 112.915 42.784C112.915 43.2 113.155 43.392 113.619 43.376ZM123.942 37.152C124.87 35.488 125.974 33.84 127.158 32.192C127.686 31.456 127.862 31.36 128.134 31.36C128.198 31.36 128.422 31.36 128.534 31.36C128.918 31.36 129.254 30.672 129.462 30.672C128.118 32.384 126.342 34.992 125.67 36.208C125.622 36.288 125.654 36.32 125.718 36.24C126.454 35.296 127.558 34.128 128.614 34.128C129.19 34.128 129.574 34.48 129.574 34.992C129.574 35.584 129.238 36.176 128.438 37.296C127.654 38.368 127.27 39.072 127.27 39.504C127.27 39.728 127.398 39.872 127.638 39.872C127.958 39.872 128.518 39.52 129.046 38.912C129.526 38.352 129.814 37.952 130.118 37.392C129.974 37.92 129.622 38.48 129.158 39.024C128.598 39.664 127.942 40.16 127.27 40.16C126.678 40.16 126.342 39.824 126.342 39.264C126.342 38.608 126.758 37.824 127.558 36.704C128.166 35.856 128.646 35.248 128.646 34.8C128.646 34.624 128.534 34.464 128.278 34.464C127.654 34.464 126.694 35.216 125.734 36.432C125.03 37.312 124.55 38.144 124.246 38.72C123.862 39.456 123.718 40.064 123.798 40.144C123.43 40.112 123.126 39.808 123.126 39.296C123.126 38.8 123.382 38.144 123.942 37.152ZM130.435 40.16C129.843 40.16 129.459 39.84 129.459 39.168C129.459 38.48 129.859 37.616 130.627 36.592C131.235 35.76 131.651 35.152 131.651 34.72C131.651 34.592 131.587 34.496 131.459 34.496C131.059 34.496 130.563 34.976 130.163 35.664C130.371 34.928 131.139 34.096 131.923 34.096C132.323 34.096 132.675 34.304 132.675 34.8C132.675 35.472 132.195 36.16 131.459 37.248C130.643 38.448 130.323 39.024 130.323 39.52C130.323 39.712 130.435 39.888 130.707 39.888C131.027 39.888 131.555 39.6 132.083 38.976C132.563 38.416 132.835 38 133.155 37.392C133.011 37.92 132.643 38.544 132.179 39.088C131.619 39.76 131.027 40.16 130.435 40.16ZM132.131 32.528C132.195 32.096 132.563 31.792 132.931 31.792C133.299 31.792 133.571 32.128 133.523 32.496C133.491 32.896 133.139 33.232 132.723 33.232C132.339 33.232 132.083 32.912 132.131 32.528ZM138.073 34.736C138.201 34.8 138.489 34.816 138.809 34.8C139.225 34.784 139.529 34.176 139.689 34.24C139.369 34.64 138.521 35.952 137.977 36.896C137.289 38.08 136.681 39.248 136.025 40.304C135.289 41.52 134.601 42.24 133.977 42.72C133.305 43.264 132.505 43.52 131.849 43.52C131.097 43.52 130.393 43.328 130.393 42.704C130.409 42.176 130.921 41.824 131.513 41.824C131.705 41.824 131.865 41.872 131.961 41.92C131.545 42 131.273 42.432 131.273 42.784C131.273 43.2 131.513 43.376 131.961 43.376C132.345 43.376 133.097 43.248 134.281 41.344C134.761 40.56 135.577 39.152 136.073 38.256C136.105 38.208 136.073 38.16 136.025 38.224C135.817 38.512 135.481 38.944 135.193 39.248C134.729 39.712 134.201 40.128 133.577 40.128C132.937 40.128 132.489 39.744 132.489 38.928C132.489 38.112 132.873 37.056 133.673 36.096C134.761 34.8 136.105 34.016 137.273 34.032C137.705 34.032 138.105 34.24 138.073 34.736ZM137.913 34.96C137.993 34.464 137.737 34.208 137.433 34.208C136.457 34.208 135.145 35.872 134.569 36.736C134.073 37.488 133.401 38.608 133.401 39.408C133.401 39.712 133.561 39.888 133.817 39.888C134.201 39.888 134.697 39.52 135.113 39.072C135.865 38.304 136.425 37.408 137.161 36.224C137.401 35.84 137.817 35.136 137.913 34.96ZM139.13 37.152C140.058 35.488 141.162 33.84 142.346 32.192C142.874 31.456 143.049 31.36 143.322 31.36C143.386 31.36 143.61 31.36 143.722 31.36C144.106 31.36 144.442 30.672 144.65 30.672C143.306 32.384 141.53 34.992 140.858 36.208C140.81 36.288 140.842 36.32 140.906 36.24C141.642 35.296 142.746 34.128 143.802 34.128C144.378 34.128 144.762 34.48 144.762 34.992C144.762 35.584 144.426 36.176 143.626 37.296C142.842 38.368 142.458 39.072 142.458 39.504C142.458 39.728 142.586 39.872 142.826 39.872C143.146 39.872 143.706 39.52 144.234 38.912C144.714 38.352 145.002 37.952 145.306 37.392C145.162 37.92 144.81 38.48 144.346 39.024C143.786 39.664 143.13 40.16 142.458 40.16C141.866 40.16 141.53 39.824 141.53 39.264C141.53 38.608 141.946 37.824 142.746 36.704C143.354 35.856 143.834 35.248 143.834 34.8C143.834 34.624 143.722 34.464 143.466 34.464C142.842 34.464 141.882 35.216 140.922 36.432C140.218 37.312 139.738 38.144 139.434 38.72C139.05 39.456 138.905 40.064 138.986 40.144C138.617 40.112 138.313 39.808 138.313 39.296C138.313 38.8 138.569 38.144 139.13 37.152ZM153.194 34C153.642 34 153.994 34.304 153.994 34.752C153.994 35.264 153.61 35.584 153.162 35.664C153.242 35.456 153.258 35.264 153.258 35.072C153.258 34.64 153.098 34.256 152.762 34.256C152.394 34.256 152.106 34.752 152.106 35.296C152.09 35.84 152.17 36.624 152.138 37.216C152.074 38.064 151.77 38.672 151.306 39.168C151.034 39.456 150.698 39.68 150.442 39.792C150.362 39.84 150.378 39.856 150.458 39.84C151.146 39.68 151.818 39.312 152.314 38.96C152.858 38.576 153.434 38.016 153.722 37.392C153.562 38.048 153.05 38.624 152.362 39.12C151.898 39.456 151.258 39.76 150.698 39.936C150.298 40.064 149.722 40.176 149.002 40.176C148.234 40.176 147.61 39.872 147.466 39.2C147.258 39.44 146.97 39.68 146.666 39.872C146.106 40.192 145.53 40.336 145.258 40.208C145.61 40.192 146.09 40 146.554 39.712C146.874 39.52 147.194 39.28 147.434 39.024C147.386 38.08 148.17 37.344 148.858 37.328C149.306 36.864 150.01 36.128 150.634 35.52C151.418 34.736 152.426 34 153.194 34ZM149.05 37.344C149.178 37.36 149.386 37.472 149.45 37.632C148.89 37.664 148.138 38.368 148.138 39.248C148.138 39.664 148.394 40.032 148.954 40.032C149.514 40.032 149.882 39.792 150.17 39.392C150.554 38.864 150.858 37.936 151.066 36.912C151.29 35.744 151.61 34.992 152.17 34.528C152.218 34.48 152.202 34.464 152.154 34.48C151.77 34.656 151.066 35.296 150.73 35.632C150.138 36.208 149.578 36.816 149.05 37.344ZM154.491 40.16C153.659 40.16 152.987 39.76 152.987 38.768C152.987 38 153.371 37.008 154.043 36.144C155.163 34.688 156.651 34.016 157.659 34.016C158.155 34.016 158.507 34.272 158.507 34.848C158.507 35.648 158.075 36.384 157.579 36.384C157.323 36.384 157.195 36.24 157.195 36.048C157.195 35.456 158.107 34.992 158.107 34.448C158.107 34.288 157.979 34.176 157.787 34.176C157.163 34.176 156.027 34.976 154.875 36.848C154.219 37.904 153.947 38.752 153.963 39.264C153.995 39.696 154.235 39.936 154.699 39.936C155.371 39.936 156.203 39.568 156.955 38.928C157.659 38.32 158.235 37.584 158.683 36.816C158.507 37.456 157.707 38.512 157.003 39.104C156.251 39.728 155.419 40.16 154.491 40.16ZM158.27 37.152C159.198 35.488 160.302 33.84 161.486 32.192C162.014 31.456 162.19 31.36 162.462 31.36C162.526 31.36 162.75 31.36 162.862 31.36C163.246 31.36 163.582 30.672 163.79 30.672C162.446 32.384 160.67 34.992 159.998 36.208C159.95 36.288 159.982 36.32 160.046 36.24C160.782 35.296 161.886 34.128 162.942 34.128C163.518 34.128 163.902 34.48 163.902 34.992C163.902 35.584 163.566 36.176 162.766 37.296C161.982 38.368 161.598 39.072 161.598 39.504C161.598 39.728 161.726 39.872 161.966 39.872C162.286 39.872 162.846 39.52 163.374 38.912C163.854 38.352 164.142 37.952 164.446 37.392C164.302 37.92 163.95 38.48 163.486 39.024C162.926 39.664 162.27 40.16 161.598 40.16C161.006 40.16 160.67 39.824 160.67 39.264C160.67 38.608 161.086 37.824 161.886 36.704C162.494 35.856 162.974 35.248 162.974 34.8C162.974 34.624 162.862 34.464 162.606 34.464C161.982 34.464 161.022 35.216 160.062 36.432C159.358 37.312 158.878 38.144 158.574 38.72C158.19 39.456 158.046 40.064 158.126 40.144C157.758 40.112 157.454 39.808 157.454 39.296C157.454 38.8 157.71 38.144 158.27 37.152ZM169.195 35.168C169.195 35.76 169.019 36.608 168.315 37.744C167.291 39.376 165.995 40.144 165.099 40.144C164.379 40.144 163.723 39.76 163.723 38.656C163.723 37.952 164.043 36.88 164.811 35.92C165.707 34.816 166.955 34.016 168.091 34.016C168.811 34.016 169.195 34.464 169.195 35.168ZM168.715 34.832C168.715 34.4 168.539 34.176 168.219 34.176C167.403 34.176 166.459 35.424 165.787 36.48C165.307 37.232 164.619 38.464 164.619 39.296C164.619 39.84 164.907 39.984 165.195 39.984C165.771 39.984 166.747 38.944 167.595 37.568C168.267 36.432 168.715 35.328 168.715 34.832ZM174.305 35.168C174.305 35.76 174.129 36.608 173.424 37.744C172.401 39.376 171.105 40.144 170.209 40.144C169.489 40.144 168.832 39.76 168.832 38.656C168.832 37.952 169.152 36.88 169.921 35.92C170.817 34.816 172.065 34.016 173.201 34.016C173.921 34.016 174.305 34.464 174.305 35.168ZM173.825 34.832C173.825 34.4 173.649 34.176 173.329 34.176C172.513 34.176 171.569 35.424 170.897 36.48C170.417 37.232 169.729 38.464 169.729 39.296C169.729 39.84 170.017 39.984 170.305 39.984C170.881 39.984 171.857 38.944 172.705 37.568C173.377 36.432 173.825 35.328 173.825 34.832ZM175.43 39.888C175.782 39.888 176.31 39.648 176.918 38.928C177.382 38.384 177.686 37.936 177.974 37.392C177.83 37.92 177.478 38.48 177.03 39.024C176.406 39.76 175.798 40.16 175.094 40.16C174.406 40.16 174.07 39.728 174.07 39.184C174.07 38.048 175.27 36.128 176.118 34.816C176.502 34.208 177.334 32.96 177.83 32.272C178.31 31.616 178.55 31.36 178.886 31.36C178.966 31.36 179.174 31.36 179.286 31.36C179.67 31.36 180.006 30.672 180.214 30.672C179.59 31.472 177.766 34.064 176.694 35.84C176.118 36.784 175.526 37.824 175.254 38.464C175.094 38.8 174.982 39.152 174.982 39.424C174.982 39.696 175.11 39.888 175.43 39.888ZM182.938 34.72C183.242 34.208 183.722 33.472 184.154 32.928C185.018 31.872 186.074 31.12 187.21 31.12C187.834 31.12 188.346 31.36 188.314 31.888C188.298 32.464 187.754 32.864 187.21 32.864C187.082 32.864 186.922 32.848 186.81 32.768C187.226 32.624 187.514 32.048 187.53 31.696C187.53 31.472 187.402 31.264 187.098 31.264C186.554 31.264 185.946 31.872 185.161 33.008C184.81 33.504 184.474 34.096 184.122 34.72H185.002C185.178 34.72 185.258 34.752 185.242 34.816C185.226 34.912 185.098 34.912 184.794 34.912H184.042C183.37 36.128 182.234 38.192 181.594 39.264C180.537 41.024 178.777 43.536 176.761 43.536C176.009 43.536 175.353 43.312 175.401 42.688C175.433 42.16 175.929 41.824 176.473 41.824C176.665 41.824 176.841 41.872 176.921 41.92C176.537 42.016 176.265 42.368 176.265 42.736C176.249 43.168 176.505 43.376 176.953 43.376C178.329 43.376 179.529 41.088 180.473 39.28C181.21 37.856 182.442 35.616 182.842 34.912H182.074C181.786 34.912 181.642 34.912 181.658 34.8C181.674 34.736 181.754 34.72 182.026 34.72H182.938ZM186.581 36.464C185.701 37.616 185.093 38.672 184.885 39.232C184.757 39.568 184.677 39.968 184.773 40.144C184.245 40.16 183.941 39.808 183.941 39.296C183.941 38.8 184.181 38.144 184.821 37.152C185.589 35.952 186.053 35.152 186.053 34.8C186.053 34.64 185.957 34.544 185.797 34.544C185.397 34.544 184.965 34.992 184.501 35.616C184.773 34.896 185.541 34.112 186.389 34.112C186.869 34.112 187.109 34.4 187.109 34.768C187.109 35.248 186.773 35.856 186.501 36.224C186.453 36.304 186.485 36.352 186.549 36.272C187.525 35.008 188.405 34.048 189.205 34.048C189.653 34.048 189.973 34.336 189.973 34.736C189.973 35.648 189.141 36.224 188.565 36.224C188.325 36.224 188.165 36.176 188.053 36.096C188.373 36.048 189.077 35.248 189.077 34.656C189.077 34.48 188.981 34.416 188.821 34.416C188.437 34.416 187.653 35.056 186.581 36.464ZM189.998 40.16C189.405 40.16 189.021 39.84 189.021 39.168C189.021 38.48 189.421 37.616 190.19 36.592C190.798 35.76 191.214 35.152 191.214 34.72C191.214 34.592 191.15 34.496 191.022 34.496C190.622 34.496 190.126 34.976 189.726 35.664C189.934 34.928 190.702 34.096 191.486 34.096C191.886 34.096 192.238 34.304 192.238 34.8C192.238 35.472 191.758 36.16 191.022 37.248C190.206 38.448 189.886 39.024 189.886 39.52C189.886 39.712 189.998 39.888 190.27 39.888C190.59 39.888 191.118 39.6 191.646 38.976C192.126 38.416 192.398 38 192.718 37.392C192.574 37.92 192.206 38.544 191.742 39.088C191.182 39.76 190.59 40.16 189.998 40.16ZM191.694 32.528C191.758 32.096 192.126 31.792 192.494 31.792C192.862 31.792 193.134 32.128 193.086 32.496C193.054 32.896 192.702 33.232 192.286 33.232C191.902 33.232 191.646 32.912 191.694 32.528ZM197.123 34.544C197.123 34.336 197.011 34.176 196.771 34.176C196.211 34.176 195.603 34.72 195.123 35.2C194.803 35.504 194.483 35.936 194.259 36.24C194.323 36.352 194.675 36.544 195.043 36.56C196.163 36.576 197.123 35.232 197.123 34.544ZM193.651 39.968C194.147 39.968 194.771 39.632 195.331 39.072C195.667 38.72 196.307 37.84 196.211 37.296C196.259 37.392 196.307 37.472 196.307 37.632C196.307 38.08 196.035 38.72 195.475 39.264C194.851 39.84 194.163 40.144 193.443 40.144C192.595 40.144 191.971 39.744 191.971 38.784C191.971 37.968 192.419 36.704 193.395 35.664C194.499 34.48 195.779 34.016 196.675 34.016C197.299 34.016 197.699 34.336 197.699 34.832C197.699 35.888 196.611 36.72 195.203 36.72C194.643 36.72 194.307 36.496 194.195 36.32C193.379 37.488 192.947 38.592 192.947 39.232C192.947 39.664 193.155 39.968 193.651 39.968ZM201.202 36.704C201.81 35.856 202.29 35.248 202.29 34.8C202.29 34.624 202.178 34.464 201.922 34.464C201.298 34.464 200.338 35.216 199.378 36.432C198.578 37.424 198.066 38.288 197.762 38.88C197.458 39.456 197.266 39.968 197.33 40.144C196.962 40.096 196.69 39.808 196.69 39.36C196.69 38.848 196.962 38.144 197.602 37.152C198.37 35.952 198.834 35.152 198.834 34.8C198.834 34.64 198.738 34.544 198.578 34.544C198.178 34.544 197.746 34.992 197.282 35.616C197.554 34.896 198.322 34.112 199.17 34.112C199.65 34.112 199.89 34.4 199.89 34.768C199.89 35.248 199.586 35.824 199.314 36.192C199.266 36.272 199.314 36.288 199.362 36.24C200.098 35.296 201.202 34.128 202.258 34.128C202.834 34.128 203.218 34.48 203.218 34.992C203.218 35.584 202.882 36.176 202.082 37.296C201.314 38.368 200.914 39.072 200.914 39.504C200.914 39.728 201.042 39.872 201.282 39.872C201.602 39.872 202.178 39.52 202.706 38.912C203.186 38.352 203.458 37.952 203.762 37.392C203.618 37.92 203.282 38.48 202.818 39.024C202.258 39.664 201.586 40.16 200.914 40.16C200.322 40.16 199.986 39.824 199.986 39.264C199.986 38.608 200.402 37.824 201.202 36.704ZM208.604 34.784C209.132 33.952 209.852 32.88 210.332 32.192C210.844 31.472 210.988 31.36 211.228 31.36C211.308 31.36 211.564 31.36 211.676 31.36C212.14 31.36 212.412 30.672 212.636 30.672C211.276 32.464 210.06 34.416 209.228 35.712C208.492 36.88 207.98 37.792 207.612 38.464C207.356 38.944 207.244 39.248 207.244 39.504C207.244 39.712 207.372 39.872 207.612 39.872C207.996 39.872 208.508 39.536 208.988 38.992C209.468 38.448 209.772 38.032 210.108 37.392C209.932 38.032 209.532 38.608 209.132 39.072C208.588 39.68 207.996 40.16 207.324 40.16C206.7 40.16 206.364 39.808 206.364 39.232C206.364 38.8 206.556 38.384 206.62 38.256C206.652 38.208 206.62 38.16 206.572 38.224C206.364 38.512 206.028 38.944 205.74 39.248C205.276 39.712 204.748 40.128 204.124 40.128C203.484 40.128 203.036 39.744 203.036 38.928C203.036 38.112 203.42 37.056 204.22 36.096C205.308 34.8 206.62 34.032 207.804 34.032C208.252 34.032 208.668 34.224 208.604 34.784ZM208.46 34.96C208.54 34.448 208.284 34.208 207.98 34.208C206.988 34.208 205.692 35.856 205.116 36.736C204.62 37.488 203.948 38.624 203.948 39.408C203.948 39.712 204.108 39.888 204.364 39.888C204.748 39.888 205.244 39.52 205.66 39.072C206.412 38.304 206.972 37.408 207.708 36.224C207.948 35.84 208.364 35.136 208.46 34.96ZM216.902 40.16C216.278 40.16 215.942 39.808 215.942 39.232C215.942 38.8 216.134 38.384 216.198 38.256C216.23 38.208 216.198 38.16 216.15 38.224C215.942 38.512 215.606 38.944 215.318 39.248C214.854 39.712 214.326 40.128 213.702 40.128C213.062 40.128 212.614 39.744 212.614 38.928C212.614 38.112 212.998 37.056 213.798 36.096C214.886 34.8 216.198 34.032 217.382 34.032C217.814 34.032 218.23 34.224 218.198 34.736C218.31 34.784 218.614 34.816 218.966 34.8C219.414 34.784 219.67 34.192 219.846 34.24C218.902 35.568 217.75 37.424 217.19 38.464C216.934 38.96 216.822 39.248 216.822 39.504C216.822 39.712 216.95 39.872 217.19 39.872C217.574 39.872 218.086 39.536 218.566 38.992C219.046 38.448 219.35 38.032 219.686 37.392C219.51 38.032 219.11 38.608 218.71 39.072C218.166 39.68 217.574 40.16 216.902 40.16ZM218.038 34.96C218.118 34.448 217.862 34.208 217.558 34.208C216.582 34.208 215.27 35.856 214.694 36.736C214.198 37.488 213.526 38.608 213.526 39.408C213.526 39.712 213.686 39.888 213.942 39.888C214.326 39.888 214.822 39.52 215.238 39.072C215.99 38.304 216.55 37.392 217.286 36.224C217.51 35.856 217.958 35.12 218.038 34.96ZM221.172 34.72C221.476 34.208 221.956 33.472 222.388 32.928C223.252 31.872 224.308 31.12 225.444 31.12C226.068 31.12 226.58 31.36 226.548 31.888C226.532 32.464 225.988 32.864 225.444 32.864C225.316 32.864 225.156 32.848 225.044 32.768C225.46 32.624 225.748 32.048 225.764 31.696C225.764 31.472 225.636 31.264 225.332 31.264C224.788 31.264 224.18 31.872 223.396 33.008C223.044 33.504 222.708 34.096 222.356 34.72H223.236C223.412 34.72 223.492 34.752 223.476 34.816C223.46 34.912 223.332 34.912 223.028 34.912H222.276C221.604 36.128 220.468 38.192 219.828 39.264C218.772 41.024 217.012 43.536 214.996 43.536C214.244 43.536 213.588 43.312 213.636 42.688C213.668 42.16 214.164 41.824 214.708 41.824C214.9 41.824 215.076 41.872 215.156 41.92C214.772 42.016 214.5 42.368 214.5 42.736C214.484 43.168 214.74 43.376 215.188 43.376C216.564 43.376 217.764 41.088 218.708 39.28C219.444 37.856 220.676 35.616 221.076 34.912H220.308C220.02 34.912 219.876 34.912 219.892 34.8C219.908 34.736 219.988 34.72 220.26 34.72H221.172ZM223.283 40.16C222.595 40.16 222.227 39.824 222.179 39.264C222.147 38.8 222.307 38.24 222.659 37.536C222.979 36.912 223.587 35.936 224.291 34.912H223.363C223.203 34.912 223.171 34.864 223.203 34.8C223.235 34.704 223.395 34.72 223.603 34.72H224.435C224.675 34.352 225.123 33.696 225.347 33.392C225.859 32.672 226.003 32.56 226.259 32.56C226.339 32.56 226.531 32.56 226.643 32.56C227.171 32.56 227.363 31.872 227.619 31.872C227.059 32.576 225.923 34.272 225.651 34.72H226.291C226.467 34.72 226.547 34.752 226.531 34.816C226.515 34.896 226.451 34.912 226.147 34.912H225.523C224.627 36.176 223.859 37.488 223.427 38.336C223.251 38.688 223.123 39.056 223.123 39.376C223.123 39.664 223.267 39.888 223.619 39.888C224.051 39.888 224.611 39.52 225.139 38.912C225.619 38.352 225.891 37.952 226.195 37.392C226.051 37.92 225.715 38.48 225.251 39.024C224.675 39.696 224.019 40.16 223.283 40.16ZM230.53 34.544C230.53 34.336 230.418 34.176 230.178 34.176C229.618 34.176 229.01 34.72 228.53 35.2C228.21 35.504 227.89 35.936 227.666 36.24C227.73 36.352 228.082 36.544 228.45 36.56C229.57 36.576 230.53 35.232 230.53 34.544ZM227.058 39.968C227.554 39.968 228.178 39.632 228.738 39.072C229.074 38.72 229.714 37.84 229.618 37.296C229.666 37.392 229.714 37.472 229.714 37.632C229.714 38.08 229.442 38.72 228.882 39.264C228.258 39.84 227.57 40.144 226.85 40.144C226.002 40.144 225.377 39.744 225.377 38.784C225.377 37.968 225.825 36.704 226.802 35.664C227.906 34.48 229.186 34.016 230.082 34.016C230.706 34.016 231.106 34.336 231.106 34.832C231.106 35.888 230.018 36.72 228.61 36.72C228.049 36.72 227.714 36.496 227.602 36.32C226.786 37.488 226.354 38.592 226.354 39.232C226.354 39.664 226.562 39.968 227.058 39.968ZM232.768 36.464C231.888 37.616 231.28 38.672 231.072 39.232C230.944 39.568 230.864 39.968 230.96 40.144C230.432 40.16 230.128 39.808 230.128 39.296C230.128 38.8 230.368 38.144 231.008 37.152C231.776 35.952 232.24 35.152 232.24 34.8C232.24 34.64 232.144 34.544 231.984 34.544C231.584 34.544 231.152 34.992 230.688 35.616C230.96 34.896 231.728 34.112 232.576 34.112C233.056 34.112 233.296 34.4 233.296 34.768C233.296 35.248 232.96 35.856 232.688 36.224C232.64 36.304 232.672 36.352 232.736 36.272C233.712 35.008 234.592 34.048 235.392 34.048C235.84 34.048 236.16 34.336 236.16 34.736C236.16 35.648 235.328 36.224 234.752 36.224C234.512 36.224 234.352 36.176 234.24 36.096C234.56 36.048 235.264 35.248 235.264 34.656C235.264 34.48 235.168 34.416 235.008 34.416C234.624 34.416 233.84 35.056 232.768 36.464ZM242.636 40.16C242.012 40.16 241.676 39.808 241.676 39.232C241.676 38.8 241.868 38.384 241.932 38.256C241.964 38.208 241.932 38.16 241.884 38.224C241.676 38.512 241.34 38.944 241.052 39.248C240.588 39.712 240.06 40.128 239.436 40.128C238.796 40.128 238.348 39.744 238.348 38.928C238.348 38.112 238.732 37.056 239.532 36.096C240.62 34.8 241.932 34.032 243.116 34.032C243.548 34.032 243.964 34.224 243.932 34.736C244.044 34.784 244.348 34.816 244.7 34.8C245.148 34.784 245.404 34.192 245.58 34.24C244.636 35.568 243.484 37.424 242.924 38.464C242.668 38.96 242.556 39.248 242.556 39.504C242.556 39.712 242.684 39.872 242.924 39.872C243.308 39.872 243.82 39.536 244.3 38.992C244.78 38.448 245.084 38.032 245.42 37.392C245.244 38.032 244.844 38.608 244.444 39.072C243.9 39.68 243.308 40.16 242.636 40.16ZM243.772 34.96C243.852 34.448 243.596 34.208 243.292 34.208C242.316 34.208 241.004 35.856 240.428 36.736C239.932 37.488 239.26 38.608 239.26 39.408C239.26 39.712 239.42 39.888 239.676 39.888C240.06 39.888 240.556 39.52 240.972 39.072C241.724 38.304 242.284 37.392 243.02 36.224C243.244 35.856 243.692 35.12 243.772 34.96ZM249.414 39.888C249.766 39.888 250.294 39.648 250.902 38.928C251.366 38.384 251.67 37.936 251.958 37.392C251.814 37.92 251.462 38.48 251.014 39.024C250.39 39.76 249.782 40.16 249.078 40.16C248.39 40.16 248.054 39.728 248.054 39.184C248.054 38.048 249.254 36.128 250.102 34.816C250.486 34.208 251.318 32.96 251.814 32.272C252.294 31.616 252.534 31.36 252.87 31.36C252.95 31.36 253.158 31.36 253.27 31.36C253.654 31.36 253.99 30.672 254.198 30.672C253.574 31.472 251.75 34.064 250.678 35.84C250.102 36.784 249.51 37.824 249.238 38.464C249.078 38.8 248.966 39.152 248.966 39.424C248.966 39.696 249.094 39.888 249.414 39.888ZM256.711 35.168C256.711 35.76 256.535 36.608 255.831 37.744C254.807 39.376 253.511 40.144 252.615 40.144C251.895 40.144 251.239 39.76 251.239 38.656C251.239 37.952 251.559 36.88 252.327 35.92C253.223 34.816 254.471 34.016 255.607 34.016C256.327 34.016 256.711 34.464 256.711 35.168ZM256.231 34.832C256.231 34.4 256.055 34.176 255.735 34.176C254.919 34.176 253.975 35.424 253.303 36.48C252.823 37.232 252.135 38.464 252.135 39.296C252.135 39.84 252.423 39.984 252.711 39.984C253.287 39.984 254.263 38.944 255.111 37.568C255.783 36.432 256.231 35.328 256.231 34.832ZM260.78 36.704C261.388 35.856 261.868 35.248 261.868 34.8C261.868 34.624 261.756 34.464 261.5 34.464C260.876 34.464 259.916 35.216 258.956 36.432C258.156 37.424 257.644 38.288 257.34 38.88C257.036 39.456 256.844 39.968 256.908 40.144C256.54 40.096 256.268 39.808 256.268 39.36C256.268 38.848 256.54 38.144 257.18 37.152C257.948 35.952 258.412 35.152 258.412 34.8C258.412 34.64 258.316 34.544 258.156 34.544C257.756 34.544 257.324 34.992 256.86 35.616C257.132 34.896 257.9 34.112 258.748 34.112C259.228 34.112 259.468 34.4 259.468 34.768C259.468 35.248 259.164 35.824 258.892 36.192C258.844 36.272 258.892 36.288 258.94 36.24C259.676 35.296 260.78 34.128 261.836 34.128C262.412 34.128 262.796 34.48 262.796 34.992C262.796 35.584 262.46 36.176 261.66 37.296C260.892 38.368 260.492 39.072 260.492 39.504C260.492 39.728 260.62 39.872 260.86 39.872C261.18 39.872 261.756 39.52 262.284 38.912C262.764 38.352 263.036 37.952 263.34 37.392C263.196 37.92 262.86 38.48 262.396 39.024C261.836 39.664 261.164 40.16 260.492 40.16C259.9 40.16 259.564 39.824 259.564 39.264C259.564 38.608 259.98 37.824 260.78 36.704ZM268.198 34.736C268.326 34.8 268.614 34.816 268.934 34.8C269.35 34.784 269.654 34.176 269.814 34.24C269.494 34.64 268.646 35.952 268.102 36.896C267.414 38.08 266.806 39.248 266.15 40.304C265.414 41.52 264.726 42.24 264.102 42.72C263.43 43.264 262.63 43.52 261.974 43.52C261.222 43.52 260.518 43.328 260.518 42.704C260.534 42.176 261.046 41.824 261.638 41.824C261.83 41.824 261.99 41.872 262.086 41.92C261.67 42 261.398 42.432 261.398 42.784C261.398 43.2 261.638 43.376 262.086 43.376C262.47 43.376 263.222 43.248 264.406 41.344C264.886 40.56 265.702 39.152 266.198 38.256C266.23 38.208 266.198 38.16 266.15 38.224C265.942 38.512 265.606 38.944 265.318 39.248C264.854 39.712 264.326 40.128 263.702 40.128C263.062 40.128 262.614 39.744 262.614 38.928C262.614 38.112 262.998 37.056 263.798 36.096C264.886 34.8 266.23 34.016 267.398 34.032C267.83 34.032 268.23 34.24 268.198 34.736ZM268.038 34.96C268.118 34.464 267.862 34.208 267.558 34.208C266.582 34.208 265.27 35.872 264.694 36.736C264.198 37.488 263.526 38.608 263.526 39.408C263.526 39.712 263.686 39.888 263.942 39.888C264.326 39.888 264.822 39.52 265.238 39.072C265.99 38.304 266.55 37.408 267.286 36.224C267.526 35.84 267.942 35.136 268.038 34.96ZM14.736 66.16C14.048 66.16 13.68 65.824 13.632 65.264C13.6 64.8 13.76 64.24 14.112 63.536C14.432 62.912 15.04 61.936 15.744 60.912H14.816C14.656 60.912 14.624 60.864 14.656 60.8C14.688 60.704 14.848 60.72 15.056 60.72H15.888C16.128 60.352 16.576 59.696 16.8 59.392C17.312 58.672 17.456 58.56 17.712 58.56C17.792 58.56 17.984 58.56 18.096 58.56C18.624 58.56 18.816 57.872 19.072 57.872C18.512 58.576 17.376 60.272 17.104 60.72H17.744C17.92 60.72 18 60.752 17.984 60.816C17.968 60.896 17.904 60.912 17.6 60.912H16.976C16.08 62.176 15.312 63.488 14.88 64.336C14.704 64.688 14.576 65.056 14.576 65.376C14.576 65.664 14.72 65.888 15.072 65.888C15.504 65.888 16.064 65.52 16.592 64.912C17.072 64.352 17.344 63.952 17.648 63.392C17.504 63.92 17.168 64.48 16.704 65.024C16.128 65.696 15.472 66.16 14.736 66.16ZM17.9819 66.16C17.3899 66.16 17.0059 65.84 17.0059 65.168C17.0059 64.48 17.4059 63.616 18.1739 62.592C18.7819 61.76 19.1979 61.152 19.1979 60.72C19.1979 60.592 19.1339 60.496 19.0059 60.496C18.6059 60.496 18.1099 60.976 17.7099 61.664C17.9179 60.928 18.6859 60.096 19.4699 60.096C19.8699 60.096 20.2219 60.304 20.2219 60.8C20.2219 61.472 19.7419 62.16 19.0059 63.248C18.1899 64.448 17.8699 65.024 17.8699 65.52C17.8699 65.712 17.9819 65.888 18.2539 65.888C18.5739 65.888 19.1019 65.6 19.6299 64.976C20.1099 64.416 20.3819 64 20.7019 63.392C20.5579 63.92 20.1899 64.544 19.7259 65.088C19.1659 65.76 18.5739 66.16 17.9819 66.16ZM19.6779 58.528C19.7419 58.096 20.1099 57.792 20.4779 57.792C20.8459 57.792 21.1179 58.128 21.0699 58.496C21.0379 58.896 20.6859 59.232 20.2699 59.232C19.8859 59.232 19.6299 58.912 19.6779 58.528ZM20.8676 63.152C21.6356 61.952 22.0996 61.152 22.0996 60.8C22.0996 60.64 22.0036 60.544 21.8436 60.544C21.4436 60.544 21.0116 60.992 20.5476 61.616C20.8196 60.896 21.5876 60.112 22.4356 60.112C22.9156 60.112 23.1556 60.4 23.1556 60.768C23.1556 61.248 22.8516 61.824 22.5796 62.192C22.5316 62.256 22.5796 62.288 22.6276 62.24C23.3636 61.296 24.4036 60.128 25.3636 60.128C25.9236 60.128 26.2276 60.4 26.2276 60.896C26.2276 61.296 25.9716 61.776 25.6676 62.192C25.6196 62.272 25.6676 62.304 25.7156 62.24C26.6276 61.072 27.5876 60.128 28.4356 60.128C28.9956 60.128 29.3316 60.464 29.3316 60.976C29.3316 61.568 28.9956 62.176 28.1956 63.296C27.4116 64.368 27.0276 65.072 27.0276 65.504C27.0276 65.728 27.1556 65.872 27.3956 65.872C27.7156 65.872 28.2756 65.52 28.8036 64.912C29.2836 64.352 29.5556 63.952 29.8596 63.392C29.7156 63.92 29.3796 64.48 28.9156 65.024C28.3556 65.664 27.6996 66.16 27.0116 66.16C26.4356 66.16 26.0996 65.824 26.0996 65.264C26.0996 64.608 26.5156 63.824 27.3156 62.704C27.9236 61.856 28.4036 61.232 28.4036 60.784C28.4036 60.608 28.3236 60.464 28.0996 60.464C27.6836 60.464 26.8036 61.104 25.7316 62.432C24.9316 63.424 24.4356 64.288 24.1316 64.88C23.8436 65.456 23.6676 65.968 23.7476 66.144C23.3956 66.112 23.0916 65.808 23.0916 65.296C23.0916 64.8 23.3156 64.112 23.9716 63.136C24.5796 62.24 25.3156 61.248 25.3156 60.768C25.3156 60.592 25.2356 60.464 25.0276 60.464C24.4996 60.464 23.6036 61.216 22.6436 62.432C21.8436 63.424 21.3316 64.288 21.0276 64.88C20.7236 65.456 20.5316 65.968 20.5956 66.144C20.2276 66.096 19.9556 65.808 19.9556 65.36C19.9556 64.848 20.2276 64.144 20.8676 63.152ZM34.217 60.544C34.217 60.336 34.105 60.176 33.865 60.176C33.305 60.176 32.697 60.72 32.217 61.2C31.897 61.504 31.577 61.936 31.353 62.24C31.417 62.352 31.769 62.544 32.137 62.56C33.257 62.576 34.217 61.232 34.217 60.544ZM30.745 65.968C31.241 65.968 31.865 65.632 32.425 65.072C32.761 64.72 33.401 63.84 33.305 63.296C33.353 63.392 33.401 63.472 33.401 63.632C33.401 64.08 33.129 64.72 32.569 65.264C31.945 65.84 31.257 66.144 30.537 66.144C29.689 66.144 29.065 65.744 29.065 64.784C29.065 63.968 29.513 62.704 30.489 61.664C31.593 60.48 32.873 60.016 33.769 60.016C34.393 60.016 34.793 60.336 34.793 60.832C34.793 61.888 33.705 62.72 32.297 62.72C31.737 62.72 31.401 62.496 31.289 62.32C30.473 63.488 30.041 64.592 30.041 65.232C30.041 65.664 30.249 65.968 30.745 65.968ZM35.3615 65.424C35.2975 65.856 34.8975 66.16 34.5135 66.16C34.1295 66.16 33.8415 65.856 33.8895 65.44C33.9535 65.024 34.3055 64.688 34.7375 64.688C35.1375 64.688 35.4095 65.056 35.3615 65.424ZM44.1403 66.448C43.0203 66.448 42.4603 65.856 42.4603 64.8C42.4603 63.696 42.9723 62.272 43.9803 60.784C45.9963 57.808 47.9483 56.64 49.6123 56.272C47.6443 56.288 46.3963 55.536 44.5243 55.536C43.9963 55.536 43.1483 55.712 42.6363 56.096C42.0123 56.56 41.7083 57.136 41.7083 57.728C41.7083 58.352 42.0123 58.704 42.4603 58.752C42.5723 58.768 42.7323 58.752 42.8443 58.704C42.6683 58.992 42.3323 59.088 42.0763 59.088C41.5483 59.088 41.0843 58.768 41.0843 58.08C41.0843 57.344 41.7243 56.624 42.4923 56.032C43.1803 55.488 44.2843 55.104 45.3083 55.104C46.9563 55.104 48.7963 56.016 50.2043 56.016C50.4443 56.016 50.6843 55.968 50.8603 55.856C50.8763 56.032 50.6363 56.24 50.0603 56.256C48.6203 56.352 46.1563 59.376 44.8763 61.472C44.1562 62.704 43.5963 64.032 43.5643 64.992C43.5483 65.664 43.8203 66.16 44.5403 66.16C45.3883 66.16 46.6523 65.2 47.6923 63.44C47.8363 62.944 48.2683 61.888 48.7483 60.992C49.9963 58.704 51.8363 56.816 53.5803 56.816C54.1083 56.816 54.3323 57.008 54.3323 57.248C54.3483 57.408 54.2203 57.52 54.1083 57.552C54.1403 57.152 53.8523 56.976 53.5963 56.976C52.3963 56.976 50.6843 59.616 49.7083 61.568C49.1803 62.608 48.5723 63.952 48.6042 65.056C48.6203 65.696 48.8763 66.176 49.6283 66.176C50.9883 66.176 52.5563 64.528 53.9163 62.432C54.9563 60.832 56.0283 58.4 56.0283 56.928C56.0283 56.192 55.7243 55.76 55.0203 55.76C54.8443 55.76 54.5563 55.856 54.4763 55.952C54.5403 55.744 54.9083 55.456 55.4523 55.456C56.1403 55.456 56.7003 55.968 56.7003 56.976C56.7003 58.48 55.8203 60.336 54.6043 62.144C53.2283 64.24 51.1483 66.432 49.3403 66.432C47.8203 66.432 47.3243 65.488 47.6123 63.904C46.8123 65.232 45.4203 66.448 44.1403 66.448ZM60.0608 60.544C60.0608 60.336 59.9488 60.176 59.7088 60.176C59.1488 60.176 58.5408 60.72 58.0608 61.2C57.7408 61.504 57.4208 61.936 57.1968 62.24C57.2608 62.352 57.6128 62.544 57.9808 62.56C59.1008 62.576 60.0608 61.232 60.0608 60.544ZM56.5888 65.968C57.0848 65.968 57.7088 65.632 58.2688 65.072C58.6048 64.72 59.2448 63.84 59.1488 63.296C59.1968 63.392 59.2448 63.472 59.2448 63.632C59.2448 64.08 58.9728 64.72 58.4128 65.264C57.7888 65.84 57.1008 66.144 56.3808 66.144C55.5328 66.144 54.9087 65.744 54.9087 64.784C54.9087 63.968 55.3567 62.704 56.3328 61.664C57.4368 60.48 58.7168 60.016 59.6128 60.016C60.2368 60.016 60.6368 60.336 60.6368 60.832C60.6368 61.888 59.5488 62.72 58.1408 62.72C57.5807 62.72 57.2448 62.496 57.1328 62.32C56.3168 63.488 55.8848 64.592 55.8848 65.232C55.8848 65.664 56.0928 65.968 56.5888 65.968ZM67.1049 66.144C66.5449 66.144 66.0969 65.904 66.0489 65.312C66.0329 65.104 66.0489 64.848 66.1289 64.592C65.4249 65.44 64.6729 66.144 63.8569 66.144C63.2329 66.144 62.8009 65.84 62.8009 65.184C62.8009 64.384 63.3769 63.488 64.0009 62.608C64.4169 62.032 65.0569 61.184 65.0569 60.768C65.0569 60.64 65.0089 60.48 64.7689 60.48C64.2889 60.48 63.7929 61.104 63.7929 61.888C63.7929 61.984 63.8089 62.112 63.8249 62.224C63.7449 62.016 63.7129 61.824 63.7129 61.648C63.7289 60.736 64.3849 60.096 65.2169 60.096C65.7449 60.096 66.0809 60.416 66.0649 60.896C66.0489 61.456 65.6969 62.032 64.9129 63.184C64.0969 64.368 63.7289 65.008 63.7129 65.424C63.7129 65.744 63.8409 65.904 64.1289 65.904C64.7369 65.904 65.5849 65.104 66.3049 64.096C66.5289 63.632 66.8009 63.168 67.1529 62.656C67.5529 62.064 67.9849 61.392 67.9849 61.008C67.9849 60.848 67.9209 60.72 67.7609 60.72C67.7129 60.72 67.6489 60.736 67.6169 60.752C67.6809 60.608 67.9369 60.4 68.3529 60.4C68.8169 60.4 69.0409 60.688 69.0409 61.088C69.0249 61.632 68.7369 62.192 68.0329 63.248C67.3129 64.304 66.9129 65.008 66.8969 65.424C66.8809 65.76 67.0729 65.936 67.3449 65.936C68.0009 65.936 68.9289 65.12 69.7769 63.92C70.3689 63.072 70.8649 62.064 70.9449 61.312C70.9769 60.944 70.8489 60.704 70.5769 60.72C70.5289 60.72 70.4489 60.736 70.3849 60.768C70.5609 60.4 70.8329 60.144 71.2489 60.144C71.5689 60.144 71.7609 60.416 71.7609 60.752C71.7609 61.568 71.1849 62.752 70.1129 64.064C69.2169 65.152 68.0969 66.144 67.1049 66.144ZM76.2326 60.544C76.2326 60.336 76.1206 60.176 75.8806 60.176C75.3206 60.176 74.7126 60.72 74.2326 61.2C73.9126 61.504 73.5926 61.936 73.3686 62.24C73.4326 62.352 73.7846 62.544 74.1526 62.56C75.2726 62.576 76.2326 61.232 76.2326 60.544ZM72.7606 65.968C73.2566 65.968 73.8806 65.632 74.4406 65.072C74.7766 64.72 75.4166 63.84 75.3206 63.296C75.3686 63.392 75.4166 63.472 75.4166 63.632C75.4166 64.08 75.1446 64.72 74.5846 65.264C73.9606 65.84 73.2726 66.144 72.5526 66.144C71.7046 66.144 71.0806 65.744 71.0806 64.784C71.0806 63.968 71.5286 62.704 72.5046 61.664C73.6086 60.48 74.8886 60.016 75.7846 60.016C76.4086 60.016 76.8086 60.336 76.8086 60.832C76.8086 61.888 75.7206 62.72 74.3126 62.72C73.7526 62.72 73.4166 62.496 73.3046 62.32C72.4886 63.488 72.0566 64.592 72.0566 65.232C72.0566 65.664 72.2646 65.968 72.7606 65.968ZM80.3114 62.704C80.9194 61.856 81.3994 61.248 81.3994 60.8C81.3994 60.624 81.2874 60.464 81.0314 60.464C80.4074 60.464 79.4474 61.216 78.4874 62.432C77.6874 63.424 77.1754 64.288 76.8714 64.88C76.5674 65.456 76.3754 65.968 76.4394 66.144C76.0714 66.096 75.7994 65.808 75.7994 65.36C75.7994 64.848 76.0714 64.144 76.7114 63.152C77.4794 61.952 77.9434 61.152 77.9434 60.8C77.9434 60.64 77.8474 60.544 77.6874 60.544C77.2874 60.544 76.8554 60.992 76.3914 61.616C76.6634 60.896 77.4314 60.112 78.2794 60.112C78.7594 60.112 78.9994 60.4 78.9994 60.768C78.9994 61.248 78.6954 61.824 78.4234 62.192C78.3754 62.272 78.4234 62.288 78.4714 62.24C79.2074 61.296 80.3114 60.128 81.3674 60.128C81.9434 60.128 82.3274 60.48 82.3274 60.992C82.3274 61.584 81.9914 62.176 81.1914 63.296C80.4234 64.368 80.0234 65.072 80.0234 65.504C80.0234 65.728 80.1514 65.872 80.3914 65.872C80.7114 65.872 81.2874 65.52 81.8154 64.912C82.2954 64.352 82.5674 63.952 82.8714 63.392C82.7274 63.92 82.3914 64.48 81.9274 65.024C81.3674 65.664 80.6954 66.16 80.0234 66.16C79.4314 66.16 79.0954 65.824 79.0954 65.264C79.0954 64.608 79.5114 63.824 80.3114 62.704ZM83.361 66.16C82.673 66.16 82.305 65.824 82.257 65.264C82.225 64.8 82.385 64.24 82.737 63.536C83.057 62.912 83.665 61.936 84.369 60.912H83.441C83.281 60.912 83.249 60.864 83.281 60.8C83.313 60.704 83.473 60.72 83.681 60.72H84.513C84.753 60.352 85.201 59.696 85.425 59.392C85.937 58.672 86.081 58.56 86.337 58.56C86.417 58.56 86.609 58.56 86.721 58.56C87.249 58.56 87.441 57.872 87.697 57.872C87.137 58.576 86.001 60.272 85.729 60.72H86.369C86.545 60.72 86.625 60.752 86.609 60.816C86.593 60.896 86.529 60.912 86.225 60.912H85.601C84.705 62.176 83.937 63.488 83.505 64.336C83.329 64.688 83.201 65.056 83.201 65.376C83.201 65.664 83.345 65.888 83.697 65.888C84.129 65.888 84.689 65.52 85.217 64.912C85.697 64.352 85.969 63.952 86.273 63.392C86.129 63.92 85.793 64.48 85.329 65.024C84.753 65.696 84.097 66.16 83.361 66.16ZM90.0016 66.16C89.3136 66.16 88.9456 65.824 88.8976 65.264C88.8656 64.8 89.0256 64.24 89.3776 63.536C89.6976 62.912 90.3056 61.936 91.0096 60.912H90.0816C89.9216 60.912 89.8896 60.864 89.9216 60.8C89.9536 60.704 90.1136 60.72 90.3216 60.72H91.1536C91.3936 60.352 91.8416 59.696 92.0656 59.392C92.5776 58.672 92.7216 58.56 92.9776 58.56C93.0576 58.56 93.2496 58.56 93.3616 58.56C93.8896 58.56 94.0816 57.872 94.3376 57.872C93.7776 58.576 92.6416 60.272 92.3696 60.72H93.0096C93.1856 60.72 93.2656 60.752 93.2496 60.816C93.2336 60.896 93.1696 60.912 92.8656 60.912H92.2416C91.3456 62.176 90.5776 63.488 90.1456 64.336C89.9696 64.688 89.8416 65.056 89.8416 65.376C89.8416 65.664 89.9856 65.888 90.3376 65.888C90.7696 65.888 91.3296 65.52 91.8576 64.912C92.3376 64.352 92.6096 63.952 92.9136 63.392C92.7696 63.92 92.4336 64.48 91.9696 65.024C91.3936 65.696 90.7376 66.16 90.0016 66.16ZM97.6483 61.168C97.6483 61.76 97.4723 62.608 96.7682 63.744C95.7443 65.376 94.4483 66.144 93.5523 66.144C92.8323 66.144 92.1762 65.76 92.1762 64.656C92.1762 63.952 92.4962 62.88 93.2643 61.92C94.1603 60.816 95.4083 60.016 96.5443 60.016C97.2643 60.016 97.6483 60.464 97.6483 61.168ZM97.1683 60.832C97.1683 60.4 96.9923 60.176 96.6723 60.176C95.8563 60.176 94.9123 61.424 94.2403 62.48C93.7603 63.232 93.0723 64.464 93.0723 65.296C93.0723 65.84 93.3603 65.984 93.6483 65.984C94.2243 65.984 95.2003 64.944 96.0483 63.568C96.7203 62.432 97.1683 61.328 97.1683 60.832ZM104.777 66.16C104.153 66.16 103.817 65.808 103.817 65.232C103.817 64.8 104.009 64.384 104.073 64.256C104.105 64.208 104.073 64.16 104.025 64.224C103.817 64.512 103.481 64.944 103.193 65.248C102.729 65.712 102.201 66.128 101.577 66.128C100.937 66.128 100.489 65.744 100.489 64.928C100.489 64.112 100.873 63.056 101.673 62.096C102.761 60.8 104.073 60.032 105.257 60.032C105.689 60.032 106.105 60.224 106.073 60.736C106.185 60.784 106.489 60.816 106.841 60.8C107.289 60.784 107.545 60.192 107.721 60.24C106.777 61.568 105.625 63.424 105.065 64.464C104.809 64.96 104.697 65.248 104.697 65.504C104.697 65.712 104.825 65.872 105.065 65.872C105.449 65.872 105.961 65.536 106.441 64.992C106.921 64.448 107.225 64.032 107.561 63.392C107.385 64.032 106.985 64.608 106.585 65.072C106.041 65.68 105.449 66.16 104.777 66.16ZM105.913 60.96C105.993 60.448 105.737 60.208 105.433 60.208C104.457 60.208 103.145 61.856 102.569 62.736C102.073 63.488 101.401 64.608 101.401 65.408C101.401 65.712 101.561 65.888 101.817 65.888C102.201 65.888 102.697 65.52 103.113 65.072C103.865 64.304 104.425 63.392 105.161 62.224C105.385 61.856 105.833 61.12 105.913 60.96ZM111.491 66.16C110.659 66.16 109.987 65.76 109.987 64.768C109.987 64 110.371 63.008 111.043 62.144C112.163 60.688 113.651 60.016 114.659 60.016C115.155 60.016 115.507 60.272 115.507 60.848C115.507 61.648 115.075 62.384 114.579 62.384C114.323 62.384 114.195 62.24 114.195 62.048C114.195 61.456 115.107 60.992 115.107 60.448C115.107 60.288 114.979 60.176 114.787 60.176C114.163 60.176 113.027 60.976 111.875 62.848C111.219 63.904 110.947 64.752 110.963 65.264C110.995 65.696 111.235 65.936 111.699 65.936C112.371 65.936 113.203 65.568 113.955 64.928C114.659 64.32 115.235 63.584 115.683 62.816C115.507 63.456 114.707 64.512 114.003 65.104C113.251 65.728 112.419 66.16 111.491 66.16ZM118.933 66.16C118.309 66.16 117.973 65.808 117.973 65.232C117.973 64.8 118.165 64.384 118.229 64.256C118.261 64.208 118.229 64.16 118.181 64.224C117.973 64.512 117.637 64.944 117.349 65.248C116.885 65.712 116.357 66.128 115.733 66.128C115.093 66.128 114.645 65.744 114.645 64.928C114.645 64.112 115.029 63.056 115.829 62.096C116.917 60.8 118.229 60.032 119.413 60.032C119.845 60.032 120.261 60.224 120.229 60.736C120.341 60.784 120.645 60.816 120.997 60.8C121.445 60.784 121.701 60.192 121.877 60.24C120.933 61.568 119.781 63.424 119.221 64.464C118.965 64.96 118.853 65.248 118.853 65.504C118.853 65.712 118.981 65.872 119.221 65.872C119.605 65.872 120.117 65.536 120.597 64.992C121.077 64.448 121.381 64.032 121.717 63.392C121.541 64.032 121.141 64.608 120.741 65.072C120.197 65.68 119.605 66.16 118.933 66.16ZM120.069 60.96C120.149 60.448 119.893 60.208 119.589 60.208C118.613 60.208 117.301 61.856 116.725 62.736C116.229 63.488 115.557 64.608 115.557 65.408C115.557 65.712 115.717 65.888 115.973 65.888C116.357 65.888 116.853 65.52 117.269 65.072C118.021 64.304 118.581 63.392 119.317 62.224C119.541 61.856 119.989 61.12 120.069 60.96ZM123.203 60.72C123.507 60.208 123.987 59.472 124.419 58.928C125.283 57.872 126.339 57.12 127.475 57.12C128.099 57.12 128.611 57.36 128.579 57.888C128.563 58.464 128.019 58.864 127.475 58.864C127.347 58.864 127.187 58.848 127.075 58.768C127.491 58.624 127.779 58.048 127.795 57.696C127.795 57.472 127.667 57.264 127.363 57.264C126.819 57.264 126.211 57.872 125.427 59.008C125.075 59.504 124.739 60.096 124.387 60.72H125.267C125.443 60.72 125.523 60.752 125.507 60.816C125.491 60.912 125.363 60.912 125.059 60.912H124.307C123.635 62.128 122.499 64.192 121.859 65.264C120.803 67.024 119.043 69.536 117.027 69.536C116.275 69.536 115.619 69.312 115.667 68.688C115.699 68.16 116.195 67.824 116.739 67.824C116.931 67.824 117.107 67.872 117.187 67.92C116.803 68.016 116.531 68.368 116.531 68.736C116.515 69.168 116.771 69.376 117.219 69.376C118.595 69.376 119.795 67.088 120.739 65.28C121.475 63.856 122.707 61.616 123.107 60.912H122.339C122.051 60.912 121.907 60.912 121.923 60.8C121.939 60.736 122.019 60.72 122.291 60.72H123.203ZM129.076 60.544C129.076 60.336 128.964 60.176 128.724 60.176C128.164 60.176 127.556 60.72 127.076 61.2C126.756 61.504 126.436 61.936 126.212 62.24C126.276 62.352 126.628 62.544 126.996 62.56C128.116 62.576 129.076 61.232 129.076 60.544ZM125.604 65.968C126.1 65.968 126.724 65.632 127.284 65.072C127.62 64.72 128.26 63.84 128.164 63.296C128.212 63.392 128.26 63.472 128.26 63.632C128.26 64.08 127.988 64.72 127.428 65.264C126.804 65.84 126.116 66.144 125.396 66.144C124.548 66.144 123.924 65.744 123.924 64.784C123.924 63.968 124.372 62.704 125.348 61.664C126.452 60.48 127.732 60.016 128.628 60.016C129.252 60.016 129.652 60.336 129.652 60.832C129.652 61.888 128.564 62.72 127.156 62.72C126.596 62.72 126.26 62.496 126.148 62.32C125.332 63.488 124.9 64.592 124.9 65.232C124.9 65.664 125.108 65.968 125.604 65.968ZM129.325 66.096C128.941 66.096 128.701 65.776 128.781 65.36C128.861 64.944 129.197 64.72 129.565 64.72C130.013 64.736 130.253 65.072 130.189 65.568C130.109 66.096 129.661 66.624 129.181 66.976C128.797 67.248 128.205 67.536 127.757 67.568C128.173 67.408 128.573 67.12 128.861 66.832C129.069 66.624 129.261 66.336 129.325 66.096ZM137.688 60.768C137.688 61.088 137.48 61.568 137.272 61.952C137.224 62.032 137.272 62.048 137.32 61.984C138.024 61.024 139 60.08 139.96 60.08C140.568 60.08 140.872 60.496 140.872 61.04C140.872 61.808 140.52 62.8 139.944 63.68C139 65.072 137.56 66.144 136.376 66.144C135.592 66.144 135.384 65.632 135.48 65.104C135.496 65.056 135.48 65.04 135.448 65.088L133.88 67.84C133.464 68.592 133.176 68.992 132.728 68.992C132.488 68.992 132.296 69.024 132.152 69.104C131.8 69.376 131.64 69.792 131.416 69.792C131.64 69.552 132.248 68.688 132.856 67.632C133.192 67.088 135.4 63.2 135.72 62.672C136.424 61.456 136.616 61.008 136.616 60.8C136.616 60.64 136.536 60.544 136.376 60.544C135.976 60.544 135.528 60.992 135.08 61.616C135.352 60.896 136.12 60.112 136.968 60.112C137.448 60.112 137.688 60.4 137.688 60.768ZM139.944 60.784C139.944 60.512 139.8 60.416 139.576 60.416C139.048 60.416 138.168 61.056 136.824 62.784C136.456 63.328 135.992 64.224 135.736 64.672C135.432 65.456 135.656 65.904 136.216 65.904C136.904 65.904 137.672 65.248 138.872 63.328C139.544 62.24 139.944 61.344 139.944 60.784ZM142.039 65.888C142.391 65.888 142.919 65.648 143.527 64.928C143.991 64.384 144.295 63.936 144.583 63.392C144.439 63.92 144.087 64.48 143.639 65.024C143.015 65.76 142.407 66.16 141.703 66.16C141.015 66.16 140.679 65.728 140.679 65.184C140.679 64.048 141.879 62.128 142.727 60.816C143.111 60.208 143.943 58.96 144.439 58.272C144.919 57.616 145.159 57.36 145.495 57.36C145.575 57.36 145.783 57.36 145.895 57.36C146.279 57.36 146.615 56.672 146.823 56.672C146.199 57.472 144.375 60.064 143.303 61.84C142.727 62.784 142.135 63.824 141.863 64.464C141.703 64.8 141.591 65.152 141.591 65.424C141.591 65.696 141.719 65.888 142.039 65.888ZM148.074 66.16C147.45 66.16 147.114 65.808 147.114 65.232C147.114 64.8 147.306 64.384 147.37 64.256C147.402 64.208 147.37 64.16 147.322 64.224C147.114 64.512 146.778 64.944 146.49 65.248C146.026 65.712 145.498 66.128 144.874 66.128C144.234 66.128 143.786 65.744 143.786 64.928C143.786 64.112 144.17 63.056 144.97 62.096C146.058 60.8 147.37 60.032 148.554 60.032C148.986 60.032 149.402 60.224 149.37 60.736C149.482 60.784 149.786 60.816 150.138 60.8C150.586 60.784 150.842 60.192 151.018 60.24C150.074 61.568 148.922 63.424 148.362 64.464C148.106 64.96 147.994 65.248 147.994 65.504C147.994 65.712 148.122 65.872 148.362 65.872C148.746 65.872 149.258 65.536 149.738 64.992C150.218 64.448 150.522 64.032 150.858 63.392C150.682 64.032 150.282 64.608 149.882 65.072C149.338 65.68 148.746 66.16 148.074 66.16ZM149.21 60.96C149.29 60.448 149.034 60.208 148.73 60.208C147.754 60.208 146.442 61.856 145.866 62.736C145.37 63.488 144.698 64.608 144.698 65.408C144.698 65.712 144.858 65.888 145.114 65.888C145.498 65.888 145.994 65.52 146.41 65.072C147.162 64.304 147.722 63.392 148.458 62.224C148.682 61.856 149.13 61.12 149.21 60.96ZM149.729 69.376C150.017 69.376 150.817 69.328 152.033 67.344C152.657 66.336 153.441 64.96 153.937 64.08C153.969 64.032 153.937 64 153.905 64.048C153.153 65.024 151.937 66.128 150.929 66.128C150.465 66.128 150.017 65.888 150.017 65.296C150.017 64.768 150.337 64.112 150.977 63.168C151.905 61.792 152.321 61.12 152.321 60.768C152.321 60.64 152.241 60.528 152.113 60.528C151.809 60.528 151.313 60.864 150.817 61.68C151.089 60.816 151.889 60.112 152.625 60.112C153.073 60.112 153.393 60.352 153.393 60.752C153.377 61.408 152.977 62.096 152.001 63.52C151.361 64.432 150.961 65.168 150.961 65.504C150.961 65.744 151.105 65.84 151.297 65.84C151.857 65.84 153.105 64.944 154.017 63.648C154.385 63.136 154.897 62.384 155.345 61.6C155.553 61.216 155.681 60.912 155.681 60.704C155.681 60.592 155.601 60.528 155.505 60.528C155.377 60.528 155.249 60.592 155.137 60.704C155.345 60.368 155.633 60.144 156.001 60.144C156.417 60.144 156.657 60.368 156.657 60.752C156.657 61.216 156.241 62 155.665 63.024C154.913 64.368 154.289 65.472 153.665 66.432C152.785 67.808 151.425 69.488 149.617 69.52C148.849 69.536 148.145 69.328 148.145 68.704C148.161 68.176 148.689 67.824 149.265 67.824C149.457 67.824 149.617 67.872 149.713 67.92C149.297 68 149.025 68.416 149.025 68.784C149.025 69.2 149.265 69.392 149.729 69.376ZM161.248 60.544C161.248 60.336 161.136 60.176 160.896 60.176C160.336 60.176 159.728 60.72 159.248 61.2C158.928 61.504 158.608 61.936 158.384 62.24C158.448 62.352 158.8 62.544 159.168 62.56C160.288 62.576 161.248 61.232 161.248 60.544ZM157.6 66.16C156.72 66.16 156.096 65.744 156.096 64.784C156.096 63.968 156.544 62.704 157.52 61.664C158.624 60.48 159.904 60.016 160.8 60.016C161.424 60.016 161.824 60.336 161.824 60.832C161.824 61.888 160.736 62.72 159.328 62.72C158.768 62.72 158.432 62.496 158.32 62.32C157.504 63.488 157.072 64.56 157.072 65.216C157.072 65.68 157.344 65.952 157.824 65.952C158.48 65.952 159.312 65.568 160.064 64.928C160.768 64.32 161.344 63.584 161.792 62.816C161.616 63.456 160.816 64.512 160.112 65.104C159.36 65.728 158.528 66.16 157.6 66.16ZM166.291 60.784C166.819 59.952 167.539 58.88 168.019 58.192C168.531 57.472 168.675 57.36 168.915 57.36C168.995 57.36 169.251 57.36 169.363 57.36C169.827 57.36 170.099 56.672 170.323 56.672C168.963 58.464 167.747 60.416 166.915 61.712C166.179 62.88 165.667 63.792 165.299 64.464C165.043 64.944 164.931 65.248 164.931 65.504C164.931 65.712 165.059 65.872 165.299 65.872C165.683 65.872 166.195 65.536 166.675 64.992C167.155 64.448 167.459 64.032 167.795 63.392C167.619 64.032 167.219 64.608 166.819 65.072C166.275 65.68 165.683 66.16 165.011 66.16C164.387 66.16 164.051 65.808 164.051 65.232C164.051 64.8 164.243 64.384 164.307 64.256C164.339 64.208 164.307 64.16 164.259 64.224C164.051 64.512 163.715 64.944 163.427 65.248C162.963 65.712 162.435 66.128 161.811 66.128C161.171 66.128 160.723 65.744 160.723 64.928C160.723 64.112 161.107 63.056 161.907 62.096C162.995 60.8 164.307 60.032 165.491 60.032C165.939 60.032 166.355 60.224 166.291 60.784ZM166.147 60.96C166.227 60.448 165.971 60.208 165.667 60.208C164.675 60.208 163.379 61.856 162.803 62.736C162.307 63.488 161.635 64.624 161.635 65.408C161.635 65.712 161.795 65.888 162.051 65.888C162.435 65.888 162.931 65.52 163.347 65.072C164.099 64.304 164.659 63.408 165.395 62.224C165.635 61.84 166.051 61.136 166.147 60.96ZM175.885 60.736C176.013 60.8 176.301 60.816 176.621 60.8C177.037 60.784 177.341 60.176 177.501 60.24C177.181 60.64 176.333 61.952 175.789 62.896C175.101 64.08 174.493 65.248 173.837 66.304C173.101 67.52 172.413 68.24 171.789 68.72C171.117 69.264 170.317 69.52 169.661 69.52C168.909 69.52 168.205 69.328 168.205 68.704C168.221 68.176 168.733 67.824 169.325 67.824C169.517 67.824 169.677 67.872 169.773 67.92C169.357 68 169.085 68.432 169.085 68.784C169.085 69.2 169.325 69.376 169.773 69.376C170.157 69.376 170.909 69.248 172.093 67.344C172.573 66.56 173.389 65.152 173.885 64.256C173.917 64.208 173.885 64.16 173.837 64.224C173.629 64.512 173.293 64.944 173.005 65.248C172.541 65.712 172.013 66.128 171.389 66.128C170.749 66.128 170.301 65.744 170.301 64.928C170.301 64.112 170.685 63.056 171.485 62.096C172.573 60.8 173.917 60.016 175.085 60.032C175.517 60.032 175.917 60.24 175.885 60.736ZM175.725 60.96C175.805 60.464 175.549 60.208 175.245 60.208C174.269 60.208 172.957 61.872 172.381 62.736C171.885 63.488 171.213 64.608 171.213 65.408C171.213 65.712 171.373 65.888 171.629 65.888C172.013 65.888 172.509 65.52 172.925 65.072C173.677 64.304 174.237 63.408 174.973 62.224C175.213 61.84 175.629 61.136 175.725 60.96ZM180.589 66.16C179.965 66.16 179.629 65.808 179.629 65.232C179.629 64.8 179.821 64.384 179.885 64.256C179.917 64.208 179.885 64.16 179.837 64.224C179.629 64.512 179.293 64.944 179.005 65.248C178.541 65.712 178.013 66.128 177.389 66.128C176.749 66.128 176.301 65.744 176.301 64.928C176.301 64.112 176.685 63.056 177.485 62.096C178.573 60.8 179.885 60.032 181.069 60.032C181.501 60.032 181.917 60.224 181.885 60.736C181.997 60.784 182.301 60.816 182.653 60.8C183.101 60.784 183.357 60.192 183.533 60.24C182.589 61.568 181.437 63.424 180.877 64.464C180.621 64.96 180.509 65.248 180.509 65.504C180.509 65.712 180.637 65.872 180.877 65.872C181.261 65.872 181.773 65.536 182.253 64.992C182.733 64.448 183.037 64.032 183.373 63.392C183.197 64.032 182.797 64.608 182.397 65.072C181.853 65.68 181.261 66.16 180.589 66.16ZM181.725 60.96C181.805 60.448 181.549 60.208 181.245 60.208C180.269 60.208 178.957 61.856 178.381 62.736C177.885 63.488 177.213 64.608 177.213 65.408C177.213 65.712 177.373 65.888 177.629 65.888C178.013 65.888 178.509 65.52 178.925 65.072C179.677 64.304 180.237 63.392 180.973 62.224C181.197 61.856 181.645 61.12 181.725 60.96ZM183.508 63.152C184.276 61.952 184.74 61.152 184.74 60.8C184.74 60.64 184.644 60.544 184.484 60.544C184.084 60.544 183.652 60.992 183.188 61.616C183.46 60.896 184.228 60.112 185.076 60.112C185.556 60.112 185.796 60.4 185.796 60.768C185.796 61.248 185.492 61.824 185.22 62.192C185.172 62.256 185.22 62.288 185.268 62.24C186.004 61.296 187.044 60.128 188.004 60.128C188.564 60.128 188.868 60.4 188.868 60.896C188.868 61.296 188.612 61.776 188.308 62.192C188.26 62.272 188.308 62.304 188.356 62.24C189.268 61.072 190.228 60.128 191.076 60.128C191.636 60.128 191.972 60.464 191.972 60.976C191.972 61.568 191.636 62.176 190.836 63.296C190.052 64.368 189.668 65.072 189.668 65.504C189.668 65.728 189.796 65.872 190.036 65.872C190.356 65.872 190.916 65.52 191.444 64.912C191.924 64.352 192.196 63.952 192.5 63.392C192.356 63.92 192.02 64.48 191.556 65.024C190.996 65.664 190.34 66.16 189.652 66.16C189.076 66.16 188.74 65.824 188.74 65.264C188.74 64.608 189.156 63.824 189.956 62.704C190.564 61.856 191.044 61.232 191.044 60.784C191.044 60.608 190.964 60.464 190.74 60.464C190.324 60.464 189.444 61.104 188.372 62.432C187.572 63.424 187.076 64.288 186.772 64.88C186.484 65.456 186.308 65.968 186.388 66.144C186.036 66.112 185.732 65.808 185.732 65.296C185.732 64.8 185.956 64.112 186.612 63.136C187.22 62.24 187.956 61.248 187.956 60.768C187.956 60.592 187.876 60.464 187.668 60.464C187.14 60.464 186.244 61.216 185.284 62.432C184.484 63.424 183.972 64.288 183.668 64.88C183.364 65.456 183.172 65.968 183.236 66.144C182.868 66.096 182.596 65.808 182.596 65.36C182.596 64.848 182.868 64.144 183.508 63.152ZM201.002 60C201.45 60 201.802 60.304 201.802 60.752C201.802 61.264 201.418 61.584 200.97 61.664C201.05 61.44 201.082 61.2 201.066 60.976C201.05 60.608 200.89 60.256 200.586 60.256C200.218 60.256 199.93 60.752 199.914 61.296C199.898 61.84 199.994 62.608 199.946 63.216C199.882 63.984 199.61 64.656 199.162 65.168C198.602 65.84 197.818 66.176 196.81 66.176C196.01 66.176 195.338 65.824 195.258 65.104C194.602 65.776 193.882 66.144 193.178 66.144C192.33 66.144 191.706 65.744 191.706 64.784C191.706 63.968 192.154 62.704 193.13 61.664C194.234 60.48 195.514 60.016 196.41 60.016C197.034 60.016 197.434 60.336 197.434 60.832C197.434 61.888 196.346 62.72 194.938 62.72C194.378 62.72 194.042 62.496 193.93 62.32C193.114 63.488 192.682 64.576 192.682 65.232C192.682 65.664 192.89 65.952 193.354 65.952C193.898 65.952 194.618 65.568 195.258 64.864C195.274 63.92 196.106 63.328 196.682 63.328C197.114 62.864 197.818 62.128 198.442 61.52C199.226 60.736 200.25 60 201.002 60ZM196.874 63.344C197.002 63.36 197.194 63.472 197.274 63.632C196.714 63.664 195.946 64.368 195.946 65.248C195.946 65.664 196.218 66.048 196.81 66.048C197.338 66.048 197.69 65.792 197.978 65.392C198.41 64.8 198.666 63.936 198.874 62.912C199.114 61.744 199.418 60.992 199.994 60.528C200.042 60.48 200.01 60.464 199.962 60.48C199.578 60.656 198.874 61.296 198.538 61.632C197.946 62.208 197.402 62.816 196.874 63.344ZM196.858 60.544C196.858 60.336 196.746 60.176 196.506 60.176C195.946 60.176 195.338 60.72 194.858 61.2C194.538 61.504 194.218 61.936 193.994 62.24C194.058 62.352 194.41 62.544 194.778 62.56C195.898 62.576 196.858 61.232 196.858 60.544ZM201.403 66.096C201.019 66.096 200.779 65.776 200.859 65.36C200.939 64.944 201.275 64.72 201.643 64.72C202.091 64.736 202.331 65.072 202.267 65.568C202.187 66.096 201.739 66.624 201.259 66.976C200.875 67.248 200.283 67.536 199.835 67.568C200.251 67.408 200.651 67.12 200.939 66.832C201.147 66.624 201.339 66.336 201.403 66.096ZM210.902 66.16C210.278 66.16 209.942 65.808 209.942 65.232C209.942 64.8 210.134 64.384 210.198 64.256C210.23 64.208 210.198 64.16 210.15 64.224C209.942 64.512 209.606 64.944 209.318 65.248C208.854 65.712 208.326 66.128 207.702 66.128C207.062 66.128 206.614 65.744 206.614 64.928C206.614 64.112 206.998 63.056 207.798 62.096C208.886 60.8 210.198 60.032 211.382 60.032C211.814 60.032 212.23 60.224 212.198 60.736C212.31 60.784 212.614 60.816 212.966 60.8C213.414 60.784 213.67 60.192 213.846 60.24C212.902 61.568 211.75 63.424 211.19 64.464C210.934 64.96 210.822 65.248 210.822 65.504C210.822 65.712 210.95 65.872 211.19 65.872C211.574 65.872 212.086 65.536 212.566 64.992C213.046 64.448 213.35 64.032 213.686 63.392C213.51 64.032 213.11 64.608 212.71 65.072C212.166 65.68 211.574 66.16 210.902 66.16ZM212.038 60.96C212.118 60.448 211.862 60.208 211.558 60.208C210.582 60.208 209.27 61.856 208.694 62.736C208.198 63.488 207.526 64.608 207.526 65.408C207.526 65.712 207.686 65.888 207.942 65.888C208.326 65.888 208.822 65.52 209.238 65.072C209.99 64.304 210.55 63.392 211.286 62.224C211.51 61.856 211.958 61.12 212.038 60.96ZM217.421 62.704C218.029 61.856 218.509 61.248 218.509 60.8C218.509 60.624 218.397 60.464 218.141 60.464C217.517 60.464 216.557 61.216 215.597 62.432C214.797 63.424 214.285 64.288 213.981 64.88C213.677 65.456 213.485 65.968 213.549 66.144C213.181 66.096 212.909 65.808 212.909 65.36C212.909 64.848 213.181 64.144 213.821 63.152C214.589 61.952 215.053 61.152 215.053 60.8C215.053 60.64 214.957 60.544 214.797 60.544C214.397 60.544 213.965 60.992 213.501 61.616C213.773 60.896 214.541 60.112 215.389 60.112C215.869 60.112 216.109 60.4 216.109 60.768C216.109 61.248 215.805 61.824 215.533 62.192C215.485 62.272 215.533 62.288 215.581 62.24C216.317 61.296 217.421 60.128 218.477 60.128C219.053 60.128 219.437 60.48 219.437 60.992C219.437 61.584 219.101 62.176 218.301 63.296C217.533 64.368 217.133 65.072 217.133 65.504C217.133 65.728 217.261 65.872 217.501 65.872C217.821 65.872 218.397 65.52 218.925 64.912C219.405 64.352 219.677 63.952 219.981 63.392C219.837 63.92 219.501 64.48 219.037 65.024C218.477 65.664 217.805 66.16 217.133 66.16C216.541 66.16 216.205 65.824 216.205 65.264C216.205 64.608 216.621 63.824 217.421 62.704ZM224.822 60.784C225.35 59.952 226.07 58.88 226.55 58.192C227.062 57.472 227.206 57.36 227.446 57.36C227.526 57.36 227.782 57.36 227.894 57.36C228.358 57.36 228.63 56.672 228.854 56.672C227.494 58.464 226.278 60.416 225.446 61.712C224.71 62.88 224.198 63.792 223.83 64.464C223.574 64.944 223.462 65.248 223.462 65.504C223.462 65.712 223.59 65.872 223.83 65.872C224.214 65.872 224.726 65.536 225.206 64.992C225.686 64.448 225.99 64.032 226.326 63.392C226.15 64.032 225.75 64.608 225.35 65.072C224.806 65.68 224.214 66.16 223.542 66.16C222.918 66.16 222.582 65.808 222.582 65.232C222.582 64.8 222.774 64.384 222.838 64.256C222.87 64.208 222.838 64.16 222.79 64.224C222.582 64.512 222.246 64.944 221.958 65.248C221.494 65.712 220.966 66.128 220.342 66.128C219.702 66.128 219.254 65.744 219.254 64.928C219.254 64.112 219.638 63.056 220.438 62.096C221.526 60.8 222.838 60.032 224.022 60.032C224.47 60.032 224.886 60.224 224.822 60.784ZM224.678 60.96C224.758 60.448 224.502 60.208 224.198 60.208C223.206 60.208 221.91 61.856 221.334 62.736C220.838 63.488 220.166 64.624 220.166 65.408C220.166 65.712 220.326 65.888 220.582 65.888C220.966 65.888 221.462 65.52 221.878 65.072C222.63 64.304 223.19 63.408 223.926 62.224C224.166 61.84 224.582 61.136 224.678 60.96ZM229.505 63.152C230.433 61.488 231.537 59.84 232.721 58.192C233.249 57.456 233.424 57.36 233.697 57.36C233.761 57.36 233.985 57.36 234.097 57.36C234.481 57.36 234.817 56.672 235.025 56.672C233.681 58.384 231.905 60.992 231.233 62.208C231.185 62.288 231.217 62.32 231.281 62.24C232.017 61.296 233.121 60.128 234.177 60.128C234.753 60.128 235.137 60.48 235.137 60.992C235.137 61.584 234.801 62.176 234.001 63.296C233.217 64.368 232.833 65.072 232.833 65.504C232.833 65.728 232.961 65.872 233.201 65.872C233.521 65.872 234.081 65.52 234.609 64.912C235.089 64.352 235.377 63.952 235.681 63.392C235.537 63.92 235.185 64.48 234.721 65.024C234.161 65.664 233.505 66.16 232.833 66.16C232.241 66.16 231.905 65.824 231.905 65.264C231.905 64.608 232.321 63.824 233.121 62.704C233.729 61.856 234.209 61.248 234.209 60.8C234.209 60.624 234.097 60.464 233.841 60.464C233.217 60.464 232.257 61.216 231.297 62.432C230.593 63.312 230.113 64.144 229.809 64.72C229.425 65.456 229.28 66.064 229.361 66.144C228.992 66.112 228.688 65.808 228.688 65.296C228.688 64.8 228.944 64.144 229.505 63.152ZM239.246 66.16C238.622 66.16 238.286 65.808 238.286 65.232C238.286 64.8 238.478 64.384 238.542 64.256C238.574 64.208 238.542 64.16 238.494 64.224C238.286 64.512 237.95 64.944 237.662 65.248C237.198 65.712 236.67 66.128 236.046 66.128C235.405 66.128 234.957 65.744 234.957 64.928C234.957 64.112 235.341 63.056 236.142 62.096C237.23 60.8 238.542 60.032 239.726 60.032C240.158 60.032 240.574 60.224 240.542 60.736C240.654 60.784 240.958 60.816 241.31 60.8C241.758 60.784 242.014 60.192 242.19 60.24C241.246 61.568 240.094 63.424 239.534 64.464C239.278 64.96 239.166 65.248 239.166 65.504C239.166 65.712 239.294 65.872 239.534 65.872C239.918 65.872 240.43 65.536 240.91 64.992C241.39 64.448 241.694 64.032 242.03 63.392C241.854 64.032 241.454 64.608 241.054 65.072C240.51 65.68 239.918 66.16 239.246 66.16ZM240.382 60.96C240.462 60.448 240.206 60.208 239.902 60.208C238.926 60.208 237.614 61.856 237.038 62.736C236.542 63.488 235.87 64.608 235.87 65.408C235.87 65.712 236.03 65.888 236.286 65.888C236.67 65.888 237.166 65.52 237.582 65.072C238.334 64.304 238.894 63.392 239.63 62.224C239.854 61.856 240.302 61.12 240.382 60.96ZM246.901 60.784C247.429 59.952 248.149 58.88 248.629 58.192C249.141 57.472 249.285 57.36 249.525 57.36C249.605 57.36 249.861 57.36 249.973 57.36C250.437 57.36 250.709 56.672 250.933 56.672C249.573 58.464 248.357 60.416 247.525 61.712C246.789 62.88 246.277 63.792 245.909 64.464C245.653 64.944 245.541 65.248 245.541 65.504C245.541 65.712 245.669 65.872 245.909 65.872C246.293 65.872 246.805 65.536 247.285 64.992C247.765 64.448 248.069 64.032 248.405 63.392C248.229 64.032 247.829 64.608 247.429 65.072C246.885 65.68 246.293 66.16 245.621 66.16C244.997 66.16 244.661 65.808 244.661 65.232C244.661 64.8 244.853 64.384 244.917 64.256C244.949 64.208 244.917 64.16 244.869 64.224C244.661 64.512 244.325 64.944 244.037 65.248C243.573 65.712 243.045 66.128 242.421 66.128C241.78 66.128 241.332 65.744 241.332 64.928C241.332 64.112 241.716 63.056 242.517 62.096C243.605 60.8 244.917 60.032 246.101 60.032C246.549 60.032 246.965 60.224 246.901 60.784ZM246.757 60.96C246.837 60.448 246.581 60.208 246.277 60.208C245.285 60.208 243.989 61.856 243.413 62.736C242.917 63.488 242.245 64.624 242.245 65.408C242.245 65.712 242.405 65.888 242.661 65.888C243.045 65.888 243.541 65.52 243.957 65.072C244.709 64.304 245.269 63.408 246.005 62.224C246.245 61.84 246.661 61.136 246.757 60.96ZM253.391 60.72C253.695 60.208 254.175 59.472 254.607 58.928C255.471 57.872 256.527 57.12 257.663 57.12C258.287 57.12 258.799 57.36 258.767 57.888C258.751 58.464 258.207 58.864 257.663 58.864C257.535 58.864 257.375 58.848 257.263 58.768C257.679 58.624 257.967 58.048 257.983 57.696C257.983 57.472 257.855 57.264 257.551 57.264C257.007 57.264 256.399 57.872 255.615 59.008C255.263 59.504 254.927 60.096 254.575 60.72H255.455C255.631 60.72 255.711 60.752 255.695 60.816C255.679 60.912 255.551 60.912 255.247 60.912H254.495C253.823 62.128 252.687 64.192 252.047 65.264C250.991 67.024 249.231 69.536 247.215 69.536C246.463 69.536 245.807 69.312 245.855 68.688C245.887 68.16 246.383 67.824 246.927 67.824C247.119 67.824 247.295 67.872 247.375 67.92C246.991 68.016 246.719 68.368 246.719 68.736C246.703 69.168 246.959 69.376 247.407 69.376C248.783 69.376 249.983 67.088 250.927 65.28C251.663 63.856 252.895 61.616 253.295 60.912H252.527C252.239 60.912 252.095 60.912 252.111 60.8C252.127 60.736 252.207 60.72 252.479 60.72H253.391ZM258.54 66.16C257.948 66.16 257.66 65.824 257.66 65.312C257.66 64.896 257.9 64.384 258.076 64.08C258.108 64.016 258.076 64.016 258.044 64.048C257.244 65.12 256.124 66.128 255.1 66.128C254.684 66.128 254.204 65.888 254.204 65.296C254.204 64.768 254.524 64.112 255.164 63.168C256.092 61.792 256.508 61.12 256.508 60.768C256.508 60.64 256.428 60.528 256.3 60.528C255.996 60.528 255.5 60.864 255.004 61.68C255.276 60.816 256.076 60.112 256.812 60.112C257.26 60.112 257.58 60.352 257.58 60.752C257.564 61.408 257.132 62.16 256.188 63.52C255.548 64.432 255.148 65.168 255.148 65.504C255.148 65.744 255.292 65.84 255.484 65.84C256.012 65.84 257.196 65.024 258.156 63.648C258.524 63.136 259.084 62.384 259.516 61.6C259.724 61.216 259.852 60.912 259.852 60.704C259.852 60.592 259.788 60.528 259.692 60.528C259.564 60.528 259.42 60.592 259.244 60.752C259.42 60.448 259.788 60.144 260.172 60.144C260.588 60.144 260.844 60.368 260.844 60.768C260.844 61.312 260.524 62.016 259.852 63.024C259.164 64.064 258.572 65.024 258.572 65.504C258.572 65.696 258.668 65.872 258.94 65.872C259.26 65.872 259.804 65.52 260.332 64.912C260.812 64.352 261.084 63.952 261.388 63.392C261.244 63.92 260.924 64.48 260.444 65.024C259.868 65.68 259.244 66.16 258.54 66.16ZM265.093 62.704C265.701 61.856 266.181 61.248 266.181 60.8C266.181 60.624 266.069 60.464 265.813 60.464C265.189 60.464 264.229 61.216 263.269 62.432C262.469 63.424 261.957 64.288 261.653 64.88C261.349 65.456 261.157 65.968 261.221 66.144C260.853 66.096 260.581 65.808 260.581 65.36C260.581 64.848 260.853 64.144 261.493 63.152C262.261 61.952 262.725 61.152 262.725 60.8C262.725 60.64 262.629 60.544 262.469 60.544C262.069 60.544 261.637 60.992 261.173 61.616C261.445 60.896 262.213 60.112 263.061 60.112C263.541 60.112 263.781 60.4 263.781 60.768C263.781 61.248 263.477 61.824 263.205 62.192C263.157 62.272 263.205 62.288 263.253 62.24C263.989 61.296 265.093 60.128 266.149 60.128C266.725 60.128 267.109 60.48 267.109 60.992C267.109 61.584 266.773 62.176 265.973 63.296C265.205 64.368 264.805 65.072 264.805 65.504C264.805 65.728 264.933 65.872 265.173 65.872C265.493 65.872 266.069 65.52 266.597 64.912C267.077 64.352 267.349 63.952 267.653 63.392C267.509 63.92 267.173 64.48 266.709 65.024C266.149 65.664 265.477 66.16 264.805 66.16C264.213 66.16 263.877 65.824 263.877 65.264C263.877 64.608 264.293 63.824 265.093 62.704ZM14.736 92.16C14.048 92.16 13.68 91.824 13.632 91.264C13.6 90.8 13.76 90.24 14.112 89.536C14.432 88.912 15.04 87.936 15.744 86.912H14.816C14.656 86.912 14.624 86.864 14.656 86.8C14.688 86.704 14.848 86.72 15.056 86.72H15.888C16.128 86.352 16.576 85.696 16.8 85.392C17.312 84.672 17.456 84.56 17.712 84.56C17.792 84.56 17.984 84.56 18.096 84.56C18.624 84.56 18.816 83.872 19.072 83.872C18.512 84.576 17.376 86.272 17.104 86.72H17.744C17.92 86.72 18 86.752 17.984 86.816C17.968 86.896 17.904 86.912 17.6 86.912H16.976C16.08 88.176 15.312 89.488 14.88 90.336C14.704 90.688 14.576 91.056 14.576 91.376C14.576 91.664 14.72 91.888 15.072 91.888C15.504 91.888 16.064 91.52 16.592 90.912C17.072 90.352 17.344 89.952 17.648 89.392C17.504 89.92 17.168 90.48 16.704 91.024C16.128 91.696 15.472 92.16 14.736 92.16ZM22.3826 87.168C22.3826 87.76 22.2066 88.608 21.5026 89.744C20.4786 91.376 19.1826 92.144 18.2866 92.144C17.5666 92.144 16.9106 91.76 16.9106 90.656C16.9106 89.952 17.2306 88.88 17.9986 87.92C18.8946 86.816 20.1426 86.016 21.2786 86.016C21.9986 86.016 22.3826 86.464 22.3826 87.168ZM21.9026 86.832C21.9026 86.4 21.7266 86.176 21.4066 86.176C20.5906 86.176 19.6466 87.424 18.9746 88.48C18.4946 89.232 17.8066 90.464 17.8066 91.296C17.8066 91.84 18.0946 91.984 18.3826 91.984C18.9586 91.984 19.9346 90.944 20.7826 89.568C21.4546 88.432 21.9026 87.328 21.9026 86.832ZM27.604 86.736C27.732 86.8 28.02 86.816 28.34 86.8C28.756 86.784 29.06 86.176 29.22 86.24C28.9 86.64 28.052 87.952 27.508 88.896C26.82 90.08 26.212 91.248 25.556 92.304C24.82 93.52 24.132 94.24 23.508 94.72C22.836 95.264 22.036 95.52 21.38 95.52C20.628 95.52 19.924 95.328 19.924 94.704C19.94 94.176 20.452 93.824 21.044 93.824C21.236 93.824 21.396 93.872 21.492 93.92C21.076 94 20.804 94.432 20.804 94.784C20.804 95.2 21.044 95.376 21.492 95.376C21.876 95.376 22.628 95.248 23.812 93.344C24.292 92.56 25.108 91.152 25.604 90.256C25.636 90.208 25.604 90.16 25.556 90.224C25.348 90.512 25.012 90.944 24.724 91.248C24.26 91.712 23.732 92.128 23.108 92.128C22.468 92.128 22.02 91.744 22.02 90.928C22.02 90.112 22.404 89.056 23.204 88.096C24.292 86.8 25.636 86.016 26.804 86.032C27.236 86.032 27.636 86.24 27.604 86.736ZM27.444 86.96C27.524 86.464 27.268 86.208 26.964 86.208C25.988 86.208 24.676 87.872 24.1 88.736C23.604 89.488 22.932 90.608 22.932 91.408C22.932 91.712 23.092 91.888 23.348 91.888C23.732 91.888 24.228 91.52 24.644 91.072C25.396 90.304 25.956 89.408 26.692 88.224C26.932 87.84 27.348 87.136 27.444 86.96ZM33.1076 86.544C33.1076 86.336 32.9956 86.176 32.7556 86.176C32.1956 86.176 31.5876 86.72 31.1076 87.2C30.7876 87.504 30.4676 87.936 30.2436 88.24C30.3076 88.352 30.6596 88.544 31.0276 88.56C32.1476 88.576 33.1076 87.232 33.1076 86.544ZM29.4596 92.16C28.5796 92.16 27.9556 91.744 27.9556 90.784C27.9556 89.968 28.4036 88.704 29.3796 87.664C30.4836 86.48 31.7636 86.016 32.6596 86.016C33.2836 86.016 33.6836 86.336 33.6836 86.832C33.6836 87.888 32.5956 88.72 31.1876 88.72C30.6276 88.72 30.2916 88.496 30.1796 88.32C29.3636 89.488 28.9316 90.56 28.9316 91.216C28.9316 91.68 29.2036 91.952 29.6836 91.952C30.3396 91.952 31.1716 91.568 31.9236 90.928C32.6276 90.32 33.2036 89.584 33.6516 88.816C33.4756 89.456 32.6756 90.512 31.9716 91.104C31.2196 91.728 30.3876 92.16 29.4596 92.16ZM33.8141 92.16C33.1261 92.16 32.7581 91.824 32.7101 91.264C32.6781 90.8 32.8381 90.24 33.1901 89.536C33.5101 88.912 34.1181 87.936 34.8221 86.912H33.8941C33.7341 86.912 33.7021 86.864 33.7341 86.8C33.7661 86.704 33.9261 86.72 34.1341 86.72H34.9661C35.2061 86.352 35.6541 85.696 35.8781 85.392C36.3901 84.672 36.5341 84.56 36.7901 84.56C36.8701 84.56 37.0621 84.56 37.1741 84.56C37.7021 84.56 37.8941 83.872 38.1501 83.872C37.5901 84.576 36.4541 86.272 36.1821 86.72H36.8221C36.9981 86.72 37.0781 86.752 37.0621 86.816C37.0461 86.896 36.9821 86.912 36.6781 86.912H36.0541C35.1581 88.176 34.3901 89.488 33.9581 90.336C33.7821 90.688 33.6541 91.056 33.6541 91.376C33.6541 91.664 33.7981 91.888 34.1501 91.888C34.5821 91.888 35.1421 91.52 35.6701 90.912C36.1501 90.352 36.4221 89.952 36.7261 89.392C36.5821 89.92 36.2461 90.48 35.7821 91.024C35.2061 91.696 34.5501 92.16 33.8141 92.16ZM36.7076 89.152C37.6356 87.488 38.7396 85.84 39.9236 84.192C40.4516 83.456 40.6276 83.36 40.8996 83.36C40.9636 83.36 41.1876 83.36 41.2996 83.36C41.6836 83.36 42.0196 82.672 42.2276 82.672C40.8836 84.384 39.1076 86.992 38.4356 88.208C38.3876 88.288 38.4196 88.32 38.4836 88.24C39.2196 87.296 40.3236 86.128 41.3796 86.128C41.9556 86.128 42.3396 86.48 42.3396 86.992C42.3396 87.584 42.0036 88.176 41.2036 89.296C40.4196 90.368 40.0356 91.072 40.0356 91.504C40.0356 91.728 40.1636 91.872 40.4036 91.872C40.7236 91.872 41.2836 91.52 41.8116 90.912C42.2916 90.352 42.5796 89.952 42.8836 89.392C42.7396 89.92 42.3876 90.48 41.9236 91.024C41.3636 91.664 40.7076 92.16 40.0356 92.16C39.4436 92.16 39.1076 91.824 39.1076 91.264C39.1076 90.608 39.5236 89.824 40.3236 88.704C40.9316 87.856 41.4116 87.248 41.4116 86.8C41.4116 86.624 41.2996 86.464 41.0436 86.464C40.4196 86.464 39.4596 87.216 38.4996 88.432C37.7956 89.312 37.3156 90.144 37.0116 90.72C36.6276 91.456 36.4836 92.064 36.5636 92.144C36.1956 92.112 35.8916 91.808 35.8916 91.296C35.8916 90.8 36.1476 90.144 36.7076 89.152ZM47.2326 86.544C47.2326 86.336 47.1206 86.176 46.8806 86.176C46.3206 86.176 45.7126 86.72 45.2326 87.2C44.9126 87.504 44.5926 87.936 44.3686 88.24C44.4326 88.352 44.7846 88.544 45.1526 88.56C46.2726 88.576 47.2326 87.232 47.2326 86.544ZM43.7606 91.968C44.2566 91.968 44.8806 91.632 45.4406 91.072C45.7766 90.72 46.4166 89.84 46.3206 89.296C46.3686 89.392 46.4166 89.472 46.4166 89.632C46.4166 90.08 46.1446 90.72 45.5846 91.264C44.9606 91.84 44.2726 92.144 43.5526 92.144C42.7046 92.144 42.0806 91.744 42.0806 90.784C42.0806 89.968 42.5286 88.704 43.5046 87.664C44.6086 86.48 45.8886 86.016 46.7846 86.016C47.4086 86.016 47.8086 86.336 47.8086 86.832C47.8086 87.888 46.7206 88.72 45.3126 88.72C44.7526 88.72 44.4166 88.496 44.3046 88.32C43.4886 89.488 43.0566 90.592 43.0566 91.232C43.0566 91.664 43.2646 91.968 43.7606 91.968ZM49.4714 88.464C48.5914 89.616 47.9834 90.672 47.7754 91.232C47.6474 91.568 47.5674 91.968 47.6634 92.144C47.1354 92.16 46.8314 91.808 46.8314 91.296C46.8314 90.8 47.0714 90.144 47.7114 89.152C48.4794 87.952 48.9434 87.152 48.9434 86.8C48.9434 86.64 48.8474 86.544 48.6874 86.544C48.2874 86.544 47.8554 86.992 47.3914 87.616C47.6634 86.896 48.4314 86.112 49.2794 86.112C49.7594 86.112 49.9994 86.4 49.9994 86.768C49.9994 87.248 49.6634 87.856 49.3914 88.224C49.3434 88.304 49.3754 88.352 49.4394 88.272C50.4154 87.008 51.2954 86.048 52.0954 86.048C52.5434 86.048 52.8634 86.336 52.8634 86.736C52.8634 87.648 52.0314 88.224 51.4554 88.224C51.2154 88.224 51.0554 88.176 50.9434 88.096C51.2634 88.048 51.9674 87.248 51.9674 86.656C51.9674 86.48 51.8714 86.416 51.7114 86.416C51.3274 86.416 50.5434 87.056 49.4714 88.464Z" fill="#232323"/>
</svg>
