<svg width="155" height="76" viewBox="0 0 155 76" fill="none" xmlns="http://www.w3.org/2000/svg">
<rect width="155" height="76" rx="12" fill="#543310"/>
<path d="M22.688 44.176C22.0907 44.176 21.5467 44.0427 21.056 43.776C20.576 43.4987 20.1973 43.12 19.92 42.64C19.6533 42.1493 19.52 41.5893 19.52 40.96V35.6C19.52 35.3547 19.4613 35.136 19.344 34.944C19.2267 34.7413 19.0667 34.5813 18.864 34.464C18.672 34.3467 18.4587 34.288 18.224 34.288C17.9893 34.288 17.776 34.3467 17.584 34.464C17.392 34.5813 17.2373 34.7413 17.12 34.944C17.0027 35.136 16.944 35.3547 16.944 35.6V44H15.04V35.84C15.04 35.232 15.1733 34.688 15.44 34.208C15.7067 33.7173 16.08 33.328 16.56 33.04C17.04 32.752 17.5947 32.608 18.224 32.608C18.864 32.608 19.424 32.752 19.904 33.04C20.384 33.328 20.7573 33.7173 21.024 34.208C21.2907 34.688 21.424 35.232 21.424 35.84V41.2C21.424 41.4347 21.4827 41.6533 21.6 41.856C21.7173 42.048 21.872 42.2027 22.064 42.32C22.256 42.4373 22.464 42.496 22.688 42.496C22.9227 42.496 23.136 42.4373 23.328 42.32C23.52 42.2027 23.6747 42.048 23.792 41.856C23.9093 41.6533 23.968 41.4347 23.968 41.2V35.84C23.968 35.232 24.1013 34.688 24.368 34.208C24.6347 33.7173 25.008 33.328 25.488 33.04C25.9787 32.752 26.5387 32.608 27.168 32.608C27.808 32.608 28.3627 32.752 28.832 33.04C29.312 33.328 29.6853 33.7173 29.952 34.208C30.2187 34.688 30.352 35.232 30.352 35.84V44H28.432V35.6C28.432 35.3547 28.3733 35.136 28.256 34.944C28.1493 34.7413 28 34.5813 27.808 34.464C27.616 34.3467 27.4027 34.288 27.168 34.288C26.9333 34.288 26.7147 34.3467 26.512 34.464C26.32 34.5813 26.1653 34.7413 26.048 34.944C25.9307 35.136 25.872 35.3547 25.872 35.6V40.96C25.872 41.5893 25.7333 42.1493 25.456 42.64C25.1787 43.12 24.8 43.4987 24.32 43.776C23.8507 44.0427 23.3067 44.176 22.688 44.176ZM36.3986 44.192C35.6093 44.192 34.9213 44.0373 34.3346 43.728C33.748 43.408 33.2946 42.9707 32.9746 42.416C32.6546 41.8613 32.4946 41.2373 32.4946 40.544V35.84H34.3346V40.528C34.3346 40.944 34.4253 41.312 34.6066 41.632C34.7986 41.9413 35.0493 42.1867 35.3586 42.368C35.6786 42.5387 36.0253 42.624 36.3986 42.624C36.772 42.624 37.1133 42.5387 37.4226 42.368C37.7426 42.1867 37.9933 41.9413 38.1746 41.632C38.3666 41.312 38.4626 40.944 38.4626 40.528V35.84H40.3026V40.544C40.3026 41.2373 40.1426 41.8613 39.8226 42.416C39.5026 42.9707 39.0493 43.408 38.4626 43.728C37.876 44.0373 37.188 44.192 36.3986 44.192ZM42.4783 44V42.432H46.4143C46.6063 42.432 46.7716 42.3893 46.9103 42.304C47.0596 42.2187 47.1716 42.1067 47.2463 41.968C47.3316 41.8293 47.3743 41.6853 47.3743 41.536C47.3743 41.3653 47.3369 41.216 47.2623 41.088C47.1876 40.96 47.0809 40.8587 46.9423 40.784C46.8036 40.6987 46.6436 40.656 46.4623 40.656H44.8623C44.3396 40.656 43.8756 40.5707 43.4703 40.4C43.0649 40.2293 42.7449 39.968 42.5103 39.616C42.2756 39.2533 42.1583 38.8 42.1583 38.256C42.1583 37.8187 42.2649 37.4187 42.4783 37.056C42.7023 36.6933 43.0009 36.4 43.3743 36.176C43.7476 35.952 44.1689 35.84 44.6383 35.84H48.4303V37.408H44.8143C44.5689 37.408 44.3663 37.488 44.2063 37.648C44.0463 37.7973 43.9663 37.984 43.9663 38.208C43.9663 38.4213 44.0463 38.608 44.2063 38.768C44.3663 38.928 44.5796 39.008 44.8463 39.008H46.3983C46.9849 39.008 47.4863 39.0987 47.9023 39.28C48.3183 39.4613 48.6329 39.7333 48.8463 40.096C49.0703 40.4587 49.1823 40.9173 49.1823 41.472C49.1823 41.92 49.0703 42.3413 48.8463 42.736C48.6223 43.12 48.3129 43.4293 47.9183 43.664C47.5343 43.888 47.0969 44 46.6063 44H42.4783ZM55.1383 44C54.2209 44 53.4156 43.8293 52.7223 43.488C52.0396 43.136 51.5063 42.656 51.1223 42.048C50.7383 41.4293 50.5463 40.72 50.5463 39.92C50.5463 39.0773 50.7169 38.336 51.0583 37.696C51.3996 37.056 51.8689 36.5547 52.4663 36.192C53.0636 35.8293 53.7516 35.648 54.5303 35.648C55.4049 35.648 56.1249 35.8347 56.6903 36.208C57.2556 36.5813 57.6716 37.0827 57.9383 37.712C58.2156 38.3413 58.3542 39.0453 58.3542 39.824C58.3542 39.9307 58.3489 40.0533 58.3383 40.192C58.3276 40.3307 58.3116 40.4373 58.2903 40.512H52.4983C52.5623 40.9387 52.7169 41.296 52.9623 41.584C53.2076 41.8613 53.5169 42.0747 53.8903 42.224C54.2636 42.3627 54.6796 42.432 55.1383 42.432H57.3303V44H55.1383ZM52.4823 39.264H56.5143C56.5036 39.0613 56.4716 38.8587 56.4183 38.656C56.3756 38.4533 56.3009 38.2613 56.1943 38.08C56.0983 37.8987 55.9703 37.744 55.8103 37.616C55.6609 37.4773 55.4796 37.3707 55.2663 37.296C55.0529 37.2107 54.8076 37.168 54.5303 37.168C54.2103 37.168 53.9276 37.232 53.6823 37.36C53.4369 37.4773 53.2289 37.6373 53.0583 37.84C52.8876 38.032 52.7543 38.256 52.6583 38.512C52.5729 38.7573 52.5143 39.008 52.4823 39.264ZM63.9608 44.192C63.1181 44.192 62.3714 44.0053 61.7208 43.632C61.0701 43.248 60.5528 42.736 60.1688 42.096C59.7954 41.4453 59.6088 40.72 59.6088 39.92C59.6088 39.12 59.7954 38.4 60.1688 37.76C60.5528 37.1093 61.0701 36.5973 61.7208 36.224C62.3714 35.84 63.1181 35.648 63.9608 35.648C64.7928 35.648 65.5341 35.84 66.1848 36.224C66.8354 36.5973 67.3474 37.104 67.7208 37.744C68.1048 38.384 68.2968 39.1093 68.2968 39.92C68.2968 40.72 68.1048 41.4453 67.7208 42.096C67.3474 42.736 66.8354 43.248 66.1848 43.632C65.5341 44.0053 64.7928 44.192 63.9608 44.192ZM63.9608 42.624C64.4621 42.624 64.8994 42.5067 65.2728 42.272C65.6461 42.0267 65.9341 41.7013 66.1368 41.296C66.3394 40.8907 66.4408 40.432 66.4408 39.92C66.4408 39.4187 66.3394 38.9653 66.1368 38.56C65.9341 38.144 65.6461 37.8187 65.2728 37.584C64.8994 37.3387 64.4621 37.216 63.9608 37.216C63.4488 37.216 63.0061 37.3387 62.6328 37.584C62.2701 37.8187 61.9821 38.1387 61.7688 38.544C61.5661 38.9493 61.4648 39.408 61.4648 39.92C61.4648 40.4213 61.5661 40.88 61.7688 41.296C61.9821 41.7013 62.2701 42.0267 62.6328 42.272C63.0061 42.5067 63.4488 42.624 63.9608 42.624ZM77.6255 44.176C77.0282 44.176 76.4842 44.0427 75.9935 43.776C75.5135 43.4987 75.1348 43.12 74.8575 42.64C74.5908 42.1493 74.4575 41.5893 74.4575 40.96V35.6C74.4575 35.3547 74.3988 35.136 74.2815 34.944C74.1642 34.7413 74.0042 34.5813 73.8015 34.464C73.6095 34.3467 73.3962 34.288 73.1615 34.288C72.9268 34.288 72.7135 34.3467 72.5215 34.464C72.3295 34.5813 72.1748 34.7413 72.0575 34.944C71.9402 35.136 71.8815 35.3547 71.8815 35.6V44H69.9775V35.84C69.9775 35.232 70.1108 34.688 70.3775 34.208C70.6442 33.7173 71.0175 33.328 71.4975 33.04C71.9775 32.752 72.5322 32.608 73.1615 32.608C73.8015 32.608 74.3615 32.752 74.8415 33.04C75.3215 33.328 75.6948 33.7173 75.9615 34.208C76.2282 34.688 76.3615 35.232 76.3615 35.84V41.2C76.3615 41.4347 76.4202 41.6533 76.5375 41.856C76.6548 42.048 76.8095 42.2027 77.0015 42.32C77.1935 42.4373 77.4015 42.496 77.6255 42.496C77.8602 42.496 78.0735 42.4373 78.2655 42.32C78.4575 42.2027 78.6122 42.048 78.7295 41.856C78.8468 41.6533 78.9055 41.4347 78.9055 41.2V35.84C78.9055 35.232 79.0388 34.688 79.3055 34.208C79.5722 33.7173 79.9455 33.328 80.4255 33.04C80.9162 32.752 81.4762 32.608 82.1055 32.608C82.7455 32.608 83.3002 32.752 83.7695 33.04C84.2495 33.328 84.6228 33.7173 84.8895 34.208C85.1562 34.688 85.2895 35.232 85.2895 35.84V44H83.3695V35.6C83.3695 35.3547 83.3108 35.136 83.1935 34.944C83.0868 34.7413 82.9375 34.5813 82.7455 34.464C82.5535 34.3467 82.3402 34.288 82.1055 34.288C81.8708 34.288 81.6522 34.3467 81.4495 34.464C81.2575 34.5813 81.1028 34.7413 80.9855 34.944C80.8682 35.136 80.8095 35.3547 80.8095 35.6V40.96C80.8095 41.5893 80.6708 42.1493 80.3935 42.64C80.1162 43.12 79.7375 43.4987 79.2575 43.776C78.7882 44.0427 78.2442 44.176 77.6255 44.176ZM91.3201 44.192C90.4775 44.192 89.7308 44.0053 89.0801 43.632C88.4295 43.248 87.9121 42.736 87.5281 42.096C87.1548 41.4453 86.9681 40.72 86.9681 39.92C86.9681 39.12 87.1548 38.4 87.5281 37.76C87.9121 37.1093 88.4295 36.5973 89.0801 36.224C89.7308 35.84 90.4775 35.648 91.3201 35.648C92.1521 35.648 92.8935 35.84 93.5441 36.224C94.1948 36.5973 94.7068 37.104 95.0801 37.744C95.4641 38.384 95.6561 39.1093 95.6561 39.92C95.6561 40.72 95.4641 41.4453 95.0801 42.096C94.7068 42.736 94.1948 43.248 93.5441 43.632C92.8935 44.0053 92.1521 44.192 91.3201 44.192ZM91.3201 42.624C91.8215 42.624 92.2588 42.5067 92.6321 42.272C93.0055 42.0267 93.2935 41.7013 93.4961 41.296C93.6988 40.8907 93.8001 40.432 93.8001 39.92C93.8001 39.4187 93.6988 38.9653 93.4961 38.56C93.2935 38.144 93.0055 37.8187 92.6321 37.584C92.2588 37.3387 91.8215 37.216 91.3201 37.216C90.8081 37.216 90.3655 37.3387 89.9921 37.584C89.6295 37.8187 89.3415 38.1387 89.1281 38.544C88.9255 38.9493 88.8241 39.408 88.8241 39.92C88.8241 40.4213 88.9255 40.88 89.1281 41.296C89.3415 41.7013 89.6295 42.0267 89.9921 42.272C90.3655 42.5067 90.8081 42.624 91.3201 42.624ZM101.193 44.192C100.542 44.192 99.9502 44.0907 99.4169 43.888C98.8942 43.6747 98.4462 43.3707 98.0729 42.976C97.7102 42.5813 97.4275 42.1173 97.2249 41.584C97.0329 41.04 96.9369 40.4427 96.9369 39.792C96.9369 38.96 97.1022 38.2347 97.4329 37.616C97.7742 36.9973 98.2435 36.5173 98.8409 36.176C99.4382 35.824 100.121 35.648 100.889 35.648C101.273 35.648 101.636 35.7067 101.977 35.824C102.318 35.9413 102.628 36.1067 102.905 36.32C103.182 36.5333 103.406 36.784 103.577 37.072H103.593V32.32H105.433V39.824C105.433 40.72 105.252 41.4987 104.889 42.16C104.537 42.8107 104.041 43.312 103.401 43.664C102.772 44.016 102.036 44.192 101.193 44.192ZM101.193 42.624C101.662 42.624 102.073 42.512 102.425 42.288C102.788 42.0533 103.07 41.7333 103.273 41.328C103.476 40.9227 103.577 40.4533 103.577 39.92C103.577 39.3867 103.476 38.9173 103.273 38.512C103.07 38.1067 102.788 37.792 102.425 37.568C102.073 37.3333 101.657 37.216 101.177 37.216C100.718 37.216 100.308 37.3333 99.9449 37.568C99.5822 37.8027 99.2995 38.1227 99.0969 38.528C98.8942 38.9333 98.7929 39.3973 98.7929 39.92C98.7929 40.4533 98.8942 40.9227 99.0969 41.328C99.2995 41.7333 99.5822 42.0533 99.9449 42.288C100.318 42.512 100.734 42.624 101.193 42.624ZM111.701 44C110.783 44 109.978 43.8293 109.285 43.488C108.602 43.136 108.069 42.656 107.685 42.048C107.301 41.4293 107.109 40.72 107.109 39.92C107.109 39.0773 107.279 38.336 107.621 37.696C107.962 37.056 108.431 36.5547 109.029 36.192C109.626 35.8293 110.314 35.648 111.093 35.648C111.967 35.648 112.687 35.8347 113.253 36.208C113.818 36.5813 114.234 37.0827 114.501 37.712C114.778 38.3413 114.917 39.0453 114.917 39.824C114.917 39.9307 114.911 40.0533 114.901 40.192C114.89 40.3307 114.874 40.4373 114.853 40.512H109.061C109.125 40.9387 109.279 41.296 109.525 41.584C109.77 41.8613 110.079 42.0747 110.453 42.224C110.826 42.3627 111.242 42.432 111.701 42.432H113.893V44H111.701ZM109.045 39.264H113.077C113.066 39.0613 113.034 38.8587 112.981 38.656C112.938 38.4533 112.863 38.2613 112.757 38.08C112.661 37.8987 112.533 37.744 112.373 37.616C112.223 37.4773 112.042 37.3707 111.829 37.296C111.615 37.2107 111.37 37.168 111.093 37.168C110.773 37.168 110.49 37.232 110.245 37.36C109.999 37.4773 109.791 37.6373 109.621 37.84C109.45 38.032 109.317 38.256 109.221 38.512C109.135 38.7573 109.077 39.008 109.045 39.264ZM116.571 44V38.16C116.571 37.4347 116.774 36.8693 117.179 36.464C117.595 36.048 118.166 35.84 118.891 35.84H120.859V37.408H119.227C118.971 37.408 118.769 37.4827 118.619 37.632C118.481 37.7813 118.411 37.984 118.411 38.24V44H116.571ZM122.135 44V39.296C122.135 38.592 122.295 37.968 122.615 37.424C122.935 36.8693 123.389 36.4373 123.975 36.128C124.562 35.808 125.25 35.648 126.039 35.648C126.829 35.648 127.511 35.808 128.087 36.128C128.674 36.4373 129.127 36.8693 129.447 37.424C129.767 37.968 129.927 38.592 129.927 39.296V44H128.103V39.312C128.103 38.896 128.007 38.5333 127.815 38.224C127.623 37.904 127.367 37.6587 127.047 37.488C126.738 37.3067 126.397 37.216 126.023 37.216C125.661 37.216 125.319 37.3067 124.999 37.488C124.69 37.6587 124.439 37.904 124.247 38.224C124.066 38.5333 123.975 38.896 123.975 39.312V44H122.135ZM136.023 44.192C135.181 44.192 134.434 44.0053 133.783 43.632C133.133 43.248 132.615 42.736 132.231 42.096C131.858 41.4453 131.671 40.72 131.671 39.92C131.671 39.12 131.858 38.4 132.231 37.76C132.615 37.1093 133.133 36.5973 133.783 36.224C134.434 35.84 135.181 35.648 136.023 35.648C136.855 35.648 137.597 35.84 138.247 36.224C138.898 36.5973 139.41 37.104 139.783 37.744C140.167 38.384 140.359 39.1093 140.359 39.92C140.359 40.72 140.167 41.4453 139.783 42.096C139.41 42.736 138.898 43.248 138.247 43.632C137.597 44.0053 136.855 44.192 136.023 44.192ZM136.023 42.624C136.525 42.624 136.962 42.5067 137.335 42.272C137.709 42.0267 137.997 41.7013 138.199 41.296C138.402 40.8907 138.503 40.432 138.503 39.92C138.503 39.4187 138.402 38.9653 138.199 38.56C137.997 38.144 137.709 37.8187 137.335 37.584C136.962 37.3387 136.525 37.216 136.023 37.216C135.511 37.216 135.069 37.3387 134.695 37.584C134.333 37.8187 134.045 38.1387 133.831 38.544C133.629 38.9493 133.527 39.408 133.527 39.92C133.527 40.4213 133.629 40.88 133.831 41.296C134.045 41.7013 134.333 42.0267 134.695 42.272C135.069 42.5067 135.511 42.624 136.023 42.624Z" fill="white"/>
</svg>
