<svg width="155" height="76" viewBox="0 0 155 76" fill="none" xmlns="http://www.w3.org/2000/svg">
<rect width="155" height="76" rx="12" fill="#543310"/>
<path d="M25.98 45V44.74C26.6 44.56 26.78 44.1 26.78 42.46V31.32H25.8C24 31.32 23.22 31.8 22.54 33.24L22.32 33.2L22.44 31H32.74L32.86 33.2L32.64 33.24C31.96 31.8 31.18 31.32 29.38 31.32H28.44V42.46C28.44 44.1 28.62 44.56 29.24 44.74V45H25.98ZM33.7314 45V44.74C34.3514 44.56 34.5314 44.1 34.5314 42.46V31.86C34.5314 30.46 34.2714 30.26 33.7314 30.02V29.8L35.9114 28.84L36.0914 28.98V36.7C37.2514 35.76 38.7914 34.86 40.3314 34.86C42.2914 34.86 43.4914 36 43.4914 38.34V42.46C43.4914 44.1 43.6914 44.56 44.2914 44.74V45H41.1314V44.74C41.7514 44.56 41.9314 44.1 41.9314 42.46V38.74C41.9314 36.66 41.0514 35.52 39.2914 35.52C38.1914 35.52 37.1114 36.18 36.0914 37.02V42.46C36.0914 44.1 36.2914 44.56 36.8914 44.74V45H33.7314ZM50.2334 45.2C48.0334 45.2 45.4934 43.6 45.4934 40.3C45.4934 37.04 47.9534 34.86 50.7534 34.86C53.2734 34.86 54.7334 36.5 54.7934 38.4H46.9734C46.9334 38.7 46.9134 39 46.9134 39.32C46.9134 42.06 48.6134 43.94 51.2134 43.94C52.7534 43.94 53.8534 43.24 54.7734 42.2L54.9534 42.38C53.9334 43.78 52.3734 45.2 50.2334 45.2ZM47.0334 38.14H53.1934C52.9934 36.8 51.9134 35.22 50.0934 35.22C48.3934 35.2 47.3534 36.46 47.0334 38.14ZM65.4148 45.2C63.3148 45.2 61.5548 44.46 60.6148 43.78L60.5148 41L60.7348 40.96C61.5148 43.06 63.0348 44.84 65.8148 44.84C67.4148 44.84 68.7948 43.8 68.7948 42.18C68.7948 40.18 66.3348 39.26 64.6548 38.58C62.2948 37.64 60.7948 36.8 60.7948 34.68C60.7948 32.34 62.7348 30.86 65.6748 30.86C67.4948 30.86 68.7948 31.36 69.5748 31.78L69.6548 34.1L69.4548 34.16C68.7148 32.42 67.3148 31.18 65.0348 31.18C63.4148 31.18 62.0348 32.12 62.0348 33.82C62.0348 35.7 64.0948 36.46 65.7948 37.16C68.0148 38.04 70.0948 38.92 70.0948 41.18C70.0948 43.68 67.7748 45.2 65.4148 45.2ZM76.1905 45.2C73.9905 45.2 71.4505 43.6 71.4505 40.3C71.4505 37.04 73.9105 34.86 76.7105 34.86C79.2305 34.86 80.6905 36.5 80.7505 38.4H72.9305C72.8905 38.7 72.8705 39 72.8705 39.32C72.8705 42.06 74.5705 43.94 77.1705 43.94C78.7105 43.94 79.8105 43.24 80.7305 42.2L80.9105 42.38C79.8905 43.78 78.3305 45.2 76.1905 45.2ZM72.9905 38.14H79.1505C78.9505 36.8 77.8705 35.22 76.0505 35.22C74.3505 35.2 73.3105 36.46 72.9905 38.14ZM89.6573 45C89.2573 45 89.0573 44.78 89.0573 44.4V40.8C88.4373 43.26 86.7573 45.2 84.7773 45.2C83.2973 45.2 81.9773 44.3 81.9773 42.58C81.9773 40.5 84.0773 39.72 86.4573 39.06L89.0573 38.36C88.9573 36.42 87.9573 35.52 86.2573 35.52C85.0573 35.52 83.8973 36.08 82.8973 37.3L82.7173 37.14C83.8573 35.72 85.3173 34.86 87.0573 34.86C89.4773 34.86 90.5973 36.2 90.5973 38.46V42.46C90.5973 44.1 90.7773 44.56 91.3973 44.74V45H89.6573ZM83.4773 42.02C83.4773 43.32 84.3773 44.02 85.5173 44.02C87.6573 44.02 89.0373 41.32 89.0573 39.22V38.66V38.62L86.5373 39.3C85.0573 39.72 83.4573 40.38 83.4773 42.02ZM96.5786 45.18C94.9786 45.18 93.5986 44.7 92.9386 44.26L92.7586 41.84L92.9386 41.8C93.7786 43.7 95.1986 44.84 97.0186 44.86C98.2586 44.86 99.1786 44.12 99.1786 43C99.1786 41.56 97.7786 41.1 96.2386 40.6C94.3386 40 92.9786 39.48 92.9786 37.66C92.9786 36.08 94.2986 34.86 96.6186 34.86C97.9186 34.86 99.0986 35.14 99.7186 35.4L99.7986 37.44L99.5986 37.48C98.9586 36.04 97.6786 35.12 96.2586 35.12C94.8986 35.12 94.0186 35.78 94.0186 36.8C94.0186 38.06 95.2986 38.58 96.8786 39.1C98.3986 39.6 100.239 40.06 100.239 42.06C100.239 43.74 98.9786 45.16 96.5786 45.18ZM106.925 45.2C104.385 45.2 101.685 43.62 101.685 40.14C101.685 37.02 104.185 34.86 106.925 34.86C109.405 34.86 112.145 36.38 112.145 39.94C112.145 43.36 109.285 45.2 106.925 45.2ZM107.525 44.78C109.665 44.78 110.625 43.06 110.625 41.12C110.625 38.54 108.805 35.1 106.185 35.24C104.145 35.32 103.225 37 103.225 39C103.225 41.54 104.865 44.78 107.525 44.78ZM113.636 45V44.74C114.256 44.56 114.436 44.1 114.436 42.46V37.86C114.436 36.46 114.196 36.26 113.636 36.02V35.8L115.836 34.84L115.996 34.98V36.7C117.156 35.76 118.696 34.86 120.236 34.86C122.196 34.86 123.396 36 123.396 38.34V42.46C123.396 44.1 123.596 44.56 124.196 44.74V45H121.036V44.74C121.656 44.56 121.836 44.1 121.836 42.46V38.74C121.836 36.66 120.956 35.52 119.196 35.52C118.096 35.52 117.016 36.18 115.996 37.02V42.46C115.996 44.1 116.196 44.56 116.796 44.74V45H113.636ZM129.196 45.18C127.596 45.18 126.216 44.7 125.556 44.26L125.376 41.84L125.556 41.8C126.396 43.7 127.816 44.84 129.636 44.86C130.876 44.86 131.796 44.12 131.796 43C131.796 41.56 130.396 41.1 128.856 40.6C126.956 40 125.596 39.48 125.596 37.66C125.596 36.08 126.916 34.86 129.236 34.86C130.536 34.86 131.716 35.14 132.336 35.4L132.416 37.44L132.216 37.48C131.576 36.04 130.296 35.12 128.876 35.12C127.516 35.12 126.636 35.78 126.636 36.8C126.636 38.06 127.916 38.58 129.496 39.1C131.016 39.6 132.856 40.06 132.856 42.06C132.856 43.74 131.596 45.16 129.196 45.18Z" fill="white"/>
</svg>
