<svg width="288" height="146" viewBox="0 0 288 146" fill="none" xmlns="http://www.w3.org/2000/svg">
<rect x="0.5" y="0.5" width="287" height="145" rx="9.5" fill="#FEFBF5"/>
<rect x="0.5" y="0.5" width="287" height="145" rx="9.5" stroke="#74512D"/>
<path d="M14.816 40V39.792C15.296 39.648 15.456 39.28 15.456 37.968V30.832C15.456 29.52 15.296 29.152 14.816 29.008V28.8H17.408V29.008C16.912 29.152 16.768 29.52 16.768 30.832V37.968C16.768 39.28 16.912 39.648 17.408 39.792V40H14.816ZM22.2021 40V39.792C22.6821 39.648 22.8421 39.28 22.8421 37.968V32.336H21.9141L21.9941 32.112H22.8421C22.9701 29.728 25.1621 27.52 27.7701 27.52C28.4901 27.52 28.8581 27.664 28.8581 27.936C28.8581 28.224 28.4581 28.864 27.8021 28.864C27.0821 28.864 26.3941 28.64 25.4821 28.32C24.9381 28.624 24.0901 29.136 24.0901 31.152V32.112H26.1861L26.0901 32.336H24.0901V37.968C24.0901 39.28 24.2341 39.648 24.7301 39.792V40H22.2021ZM30.243 40.16C28.483 40.16 26.451 38.88 26.451 36.24C26.451 33.632 28.419 31.888 30.659 31.888C32.675 31.888 33.843 33.2 33.891 34.72H27.635C27.603 34.96 27.587 35.2 27.587 35.456C27.587 37.648 28.947 39.152 31.027 39.152C32.259 39.152 33.139 38.592 33.875 37.76L34.019 37.904C33.203 39.024 31.955 40.16 30.243 40.16ZM27.683 34.512H32.611C32.451 33.44 31.587 32.176 30.131 32.176C28.771 32.16 27.939 33.168 27.683 34.512ZM34.9986 40V39.792C35.4786 39.648 35.6386 39.28 35.6386 37.968V29.488C35.6386 28.368 35.4306 28.208 34.9986 28.016V27.84L36.7426 27.072L36.8866 27.184V37.968C36.8866 39.28 37.0306 39.648 37.5266 39.792V40H34.9986ZM41.2115 40.16C40.2035 40.16 39.5955 39.536 39.5955 37.872V32.224H38.5715V32L40.6195 30.032H40.8435V32H43.2755L43.1955 32.224H40.8435V37.872C40.8435 38.96 41.2915 39.376 41.9795 39.376C42.4275 39.376 42.9875 39.168 43.5155 38.544L43.6595 38.688C42.9715 39.472 42.1555 40.16 41.2115 40.16ZM49.8949 44.432C48.6789 44.432 47.2869 43.904 47.2869 42.464C47.2869 41.456 48.1029 40.64 49.3989 39.856C48.6789 39.68 48.2309 39.344 48.2309 38.656C48.2309 38.064 48.7589 37.664 49.3989 37.248C48.5989 36.832 47.9909 36.096 47.9909 34.912C47.9909 33.232 49.5109 31.888 51.1589 31.888C51.5429 31.888 51.9589 31.936 52.3269 32.048C52.4869 31.84 52.6789 31.632 52.8869 31.472C53.3669 31.04 53.9429 30.752 54.7109 30.752C55.2069 30.752 55.5429 30.896 55.5429 31.136C55.5429 31.408 55.2069 31.952 54.6309 31.952C54.2309 31.952 53.7669 31.808 53.0469 31.584C52.8709 31.712 52.6949 31.904 52.5349 32.128C53.5109 32.48 54.3109 33.264 54.3109 34.64C54.3109 36.48 52.4709 37.648 51.1589 37.648C50.6629 37.648 50.1029 37.552 49.6069 37.344C49.2549 37.584 49.0309 37.744 49.0309 38.048C49.0469 38.48 49.5749 38.736 50.7909 38.8L52.8069 38.928C54.4229 39.024 55.3669 39.248 55.3669 40.496C55.3669 42.32 52.5349 44.432 49.8949 44.432ZM51.4629 37.392C52.6469 37.392 53.1589 36.448 53.1589 35.36C53.1589 33.92 52.2309 32.048 50.7749 32.128C49.6389 32.176 49.1589 33.088 49.1589 34.208C49.1589 35.6 49.9909 37.392 51.4629 37.392ZM48.3589 41.872C48.3589 43.024 49.3189 43.712 50.8069 43.712C52.8549 43.712 54.7429 42.432 54.7429 41.168C54.7429 40.416 54.1189 40.192 52.7909 40.112L50.5509 40C50.2309 39.984 49.9269 39.952 49.6389 39.904C48.7109 40.528 48.3589 41.184 48.3589 41.872ZM59.8774 40.16C57.8454 40.16 55.6854 38.896 55.6854 36.112C55.6854 33.616 57.6854 31.888 59.8774 31.888C61.8614 31.888 64.0534 33.104 64.0534 35.952C64.0534 38.688 61.7654 40.16 59.8774 40.16ZM60.3574 39.824C62.0694 39.824 62.8374 38.448 62.8374 36.896C62.8374 34.832 61.3814 32.08 59.2854 32.192C57.6534 32.256 56.9174 33.6 56.9174 35.2C56.9174 37.232 58.2294 39.824 60.3574 39.824ZM69.3461 40.16C67.3141 40.16 65.1541 38.896 65.1541 36.112C65.1541 33.616 67.1541 31.888 69.3461 31.888C71.3301 31.888 73.5221 33.104 73.5221 35.952C73.5221 38.688 71.2341 40.16 69.3461 40.16ZM69.8261 39.824C71.5381 39.824 72.3061 38.448 72.3061 36.896C72.3061 34.832 70.8501 32.08 68.7541 32.192C67.1221 32.256 66.3861 33.6 66.3861 35.2C66.3861 37.232 67.6981 39.824 69.8261 39.824ZM78.1589 40.176C76.1749 40.16 74.6229 38.448 74.6229 36.192C74.6229 33.968 76.1429 31.92 78.8949 31.904C79.7749 31.904 80.5109 32.176 81.0709 32.528V29.488C81.0709 28.368 80.8629 28.208 80.4309 28.016V27.84L82.1909 27.072L82.3189 27.184V37.968C82.3189 39.28 82.4629 39.648 82.9589 39.792V40H81.5509C81.2469 40 81.0709 39.824 81.0709 39.52V38.608C80.2869 39.424 79.2949 40.192 78.1589 40.176ZM75.8229 35.232C75.8229 37.104 76.7029 39.392 78.8789 39.392C79.7109 39.392 80.4469 38.96 81.0709 38.32V34.4C80.9269 33.36 79.7429 32.208 78.3989 32.208C76.7029 32.208 75.8229 33.536 75.8229 35.232ZM89.7115 40.16C88.7035 40.16 88.0955 39.536 88.0955 37.872V32.224H87.0715V32L89.1195 30.032H89.3435V32H91.7755L91.6955 32.224H89.3435V37.872C89.3435 38.96 89.7915 39.376 90.4795 39.376C90.9275 39.376 91.4875 39.168 92.0155 38.544L92.1595 38.688C91.4715 39.472 90.6555 40.16 89.7115 40.16ZM96.6899 40.16C94.6579 40.16 92.4979 38.896 92.4979 36.112C92.4979 33.616 94.4979 31.888 96.6899 31.888C98.6739 31.888 100.866 33.104 100.866 35.952C100.866 38.688 98.5779 40.16 96.6899 40.16ZM97.1699 39.824C98.8819 39.824 99.6499 38.448 99.6499 36.896C99.6499 34.832 98.1939 32.08 96.0979 32.192C94.4659 32.256 93.7299 33.6 93.7299 35.2C93.7299 37.232 95.0419 39.824 97.1699 39.824ZM105.418 40V39.792C105.914 39.648 106.058 39.28 106.058 37.968V34.288C106.058 33.168 105.85 33.008 105.418 32.816V32.64L107.162 31.872L107.306 31.984V33.344C108.266 32.576 109.466 31.888 110.618 31.888C111.802 31.888 112.554 32.368 112.842 33.392C113.802 32.624 115.034 31.888 116.234 31.888C117.786 31.888 118.586 32.736 118.586 34.544V37.968C118.586 39.28 118.746 39.648 119.226 39.792V40H116.698V39.792C117.194 39.648 117.338 39.28 117.338 37.968V34.832C117.338 33.248 116.762 32.416 115.514 32.416C114.602 32.416 113.77 32.912 112.89 33.6C112.954 33.872 112.986 34.192 112.986 34.544V37.968C112.986 39.28 113.13 39.648 113.626 39.792V40H111.098V39.792C111.578 39.648 111.738 39.28 111.738 37.968V34.832C111.738 33.248 111.146 32.416 109.914 32.416C109.002 32.416 108.17 32.912 107.306 33.568V37.968C107.306 39.28 107.466 39.648 107.946 39.792V40H105.418ZM123.931 40.16C122.171 40.16 120.139 38.88 120.139 36.24C120.139 33.632 122.107 31.888 124.347 31.888C126.363 31.888 127.531 33.2 127.579 34.72H121.323C121.291 34.96 121.275 35.2 121.275 35.456C121.275 37.648 122.635 39.152 124.715 39.152C125.947 39.152 126.827 38.592 127.562 37.76L127.707 37.904C126.891 39.024 125.643 40.16 123.931 40.16ZM121.371 34.512H126.299C126.139 33.44 125.275 32.176 123.819 32.176C122.459 32.16 121.627 33.168 121.371 34.512ZM132.524 40.16C130.764 40.16 128.732 38.88 128.732 36.24C128.732 33.632 130.7 31.888 132.94 31.888C134.956 31.888 136.124 33.2 136.172 34.72H129.916C129.884 34.96 129.868 35.2 129.868 35.456C129.868 37.648 131.228 39.152 133.308 39.152C134.54 39.152 135.42 38.592 136.156 37.76L136.3 37.904C135.484 39.024 134.236 40.16 132.524 40.16ZM129.964 34.512H134.892C134.732 33.44 133.868 32.176 132.412 32.176C131.052 32.16 130.22 33.168 129.964 34.512ZM139.774 40.16C138.766 40.16 138.158 39.536 138.158 37.872V32.224H137.134V32L139.182 30.032H139.406V32H141.838L141.758 32.224H139.406V37.872C139.406 38.96 139.854 39.376 140.542 39.376C140.99 39.376 141.55 39.168 142.078 38.544L142.222 38.688C141.534 39.472 140.718 40.16 139.774 40.16ZM146.121 40V39.792C146.617 39.648 146.761 39.28 146.761 37.968V34.288C146.761 33.168 146.553 33.008 146.121 32.816V32.64L147.865 31.872L148.009 31.984V33.344C148.969 32.576 150.169 31.888 151.321 31.888C152.505 31.888 153.257 32.368 153.545 33.392C154.505 32.624 155.737 31.888 156.937 31.888C158.489 31.888 159.289 32.736 159.289 34.544V37.968C159.289 39.28 159.449 39.648 159.929 39.792V40H157.401V39.792C157.897 39.648 158.041 39.28 158.041 37.968V34.832C158.041 33.248 157.465 32.416 156.217 32.416C155.305 32.416 154.473 32.912 153.593 33.6C153.657 33.872 153.689 34.192 153.689 34.544V37.968C153.689 39.28 153.833 39.648 154.329 39.792V40H151.801V39.792C152.281 39.648 152.441 39.28 152.441 37.968V34.832C152.441 33.248 151.849 32.416 150.617 32.416C149.705 32.416 148.873 32.912 148.009 33.568V37.968C148.009 39.28 148.169 39.648 148.649 39.792V40H146.121ZM160.746 43.088C160.122 43.104 159.658 42.896 159.658 42.64C159.658 42.336 160.058 41.76 160.65 41.76C161.066 41.76 161.93 42 162.666 42.128C163.226 41.648 163.722 40.864 164.122 40.032L161.498 33.872C161.002 32.672 160.602 32.352 160.266 32.208V32H162.682V32.208C162.202 32.352 162.33 32.672 162.842 33.872L164.81 38.448L166.778 33.872C167.226 32.832 167.194 32.32 166.634 32.208V32H168.41V32.208C167.962 32.352 167.546 32.672 167.018 33.872L164.538 39.6C163.178 42.736 161.77 43.072 160.746 43.088ZM172.12 40V39.792C172.616 39.648 172.76 39.28 172.76 37.968V29.488C172.76 28.368 172.552 28.208 172.12 28.016V27.84L173.864 27.072L174.008 27.184V33.36C174.936 32.608 176.168 31.888 177.4 31.888C178.968 31.888 179.928 32.8 179.928 34.672V37.968C179.928 39.28 180.088 39.648 180.568 39.792V40H178.04V39.792C178.536 39.648 178.68 39.28 178.68 37.968V34.992C178.68 33.328 177.976 32.416 176.568 32.416C175.688 32.416 174.824 32.944 174.008 33.616V37.968C174.008 39.28 174.168 39.648 174.648 39.792V40H172.12ZM181.465 40V39.792C181.961 39.648 182.105 39.28 182.105 37.968V34.288C182.105 33.168 181.913 33.008 181.465 32.816V32.64L183.225 31.872L183.353 31.984V37.968C183.353 39.28 183.513 39.648 183.993 39.792V40H181.465ZM182.633 30.896C182.137 30.896 181.753 30.496 181.753 30.016C181.753 29.504 182.137 29.12 182.633 29.12C183.145 29.12 183.513 29.504 183.513 30.016C183.513 30.496 183.129 30.896 182.633 30.896ZM187.395 44.432C186.179 44.432 184.787 43.904 184.787 42.464C184.787 41.456 185.603 40.64 186.899 39.856C186.179 39.68 185.731 39.344 185.731 38.656C185.731 38.064 186.259 37.664 186.899 37.248C186.099 36.832 185.491 36.096 185.491 34.912C185.491 33.232 187.011 31.888 188.659 31.888C189.043 31.888 189.459 31.936 189.827 32.048C189.987 31.84 190.179 31.632 190.387 31.472C190.867 31.04 191.443 30.752 192.211 30.752C192.707 30.752 193.043 30.896 193.043 31.136C193.043 31.408 192.707 31.952 192.131 31.952C191.731 31.952 191.267 31.808 190.547 31.584C190.371 31.712 190.195 31.904 190.035 32.128C191.011 32.48 191.811 33.264 191.811 34.64C191.811 36.48 189.971 37.648 188.659 37.648C188.163 37.648 187.603 37.552 187.107 37.344C186.755 37.584 186.531 37.744 186.531 38.048C186.547 38.48 187.075 38.736 188.291 38.8L190.307 38.928C191.923 39.024 192.867 39.248 192.867 40.496C192.867 42.32 190.035 44.432 187.395 44.432ZM188.963 37.392C190.147 37.392 190.659 36.448 190.659 35.36C190.659 33.92 189.731 32.048 188.275 32.128C187.139 32.176 186.659 33.088 186.659 34.208C186.659 35.6 187.491 37.392 188.963 37.392ZM185.859 41.872C185.859 43.024 186.819 43.712 188.307 43.712C190.355 43.712 192.243 42.432 192.243 41.168C192.243 40.416 191.619 40.192 190.291 40.112L188.051 40C187.731 39.984 187.427 39.952 187.139 39.904C186.211 40.528 185.859 41.184 185.859 41.872ZM193.354 40V39.792C193.85 39.648 193.994 39.28 193.994 37.968V29.488C193.994 28.368 193.786 28.208 193.354 28.016V27.84L195.098 27.072L195.242 27.184V33.36C196.17 32.608 197.402 31.888 198.634 31.888C200.202 31.888 201.162 32.8 201.162 34.672V37.968C201.162 39.28 201.322 39.648 201.802 39.792V40H199.274V39.792C199.77 39.648 199.914 39.28 199.914 37.968V34.992C199.914 33.328 199.21 32.416 197.802 32.416C196.922 32.416 196.058 32.944 195.242 33.616V37.968C195.242 39.28 195.402 39.648 195.882 39.792V40H193.354ZM209.163 40.144C207.883 40.144 206.779 39.76 206.251 39.408L206.107 37.472L206.251 37.44C206.923 38.96 208.059 39.872 209.515 39.888C210.507 39.888 211.243 39.296 211.243 38.4C211.243 37.248 210.123 36.88 208.891 36.48C207.371 36 206.283 35.584 206.283 34.128C206.283 32.864 207.339 31.888 209.195 31.888C210.235 31.888 211.179 32.112 211.675 32.32L211.739 33.952L211.579 33.984C211.067 32.832 210.043 32.096 208.907 32.096C207.819 32.096 207.115 32.624 207.115 33.44C207.115 34.448 208.139 34.864 209.403 35.28C210.619 35.68 212.091 36.048 212.091 37.648C212.091 38.992 211.083 40.128 209.163 40.144ZM217.04 40.16C215.184 40.16 213.248 38.816 213.248 36.24C213.248 33.712 215.264 31.888 217.6 31.888C219.136 31.888 220.32 32.32 220.32 32.752C220.32 33.12 219.824 33.616 219.312 33.616C218.912 33.616 218.16 33.152 216.88 32.144C215.392 32.4 214.384 33.728 214.384 35.456C214.384 37.648 215.744 39.152 217.824 39.152C219.056 39.152 219.936 38.592 220.672 37.76L220.816 37.904C220 39.024 218.752 40.16 217.04 40.16ZM221.26 40V39.792C221.756 39.648 221.9 39.28 221.9 37.968V29.488C221.9 28.368 221.692 28.208 221.26 28.016V27.84L223.004 27.072L223.148 27.184V33.36C224.076 32.608 225.308 31.888 226.54 31.888C228.108 31.888 229.068 32.8 229.068 34.672V37.968C229.068 39.28 229.228 39.648 229.708 39.792V40H227.18V39.792C227.676 39.648 227.82 39.28 227.82 37.968V34.992C227.82 33.328 227.116 32.416 225.708 32.416C224.828 32.416 223.964 32.944 223.148 33.616V37.968C223.148 39.28 223.308 39.648 223.788 39.792V40H221.26ZM234.862 40.16C232.83 40.16 230.67 38.896 230.67 36.112C230.67 33.616 232.67 31.888 234.862 31.888C236.846 31.888 239.038 33.104 239.038 35.952C239.038 38.688 236.75 40.16 234.862 40.16ZM235.342 39.824C237.054 39.824 237.822 38.448 237.822 36.896C237.822 34.832 236.366 32.08 234.27 32.192C232.638 32.256 231.902 33.6 231.902 35.2C231.902 37.232 233.214 39.824 235.342 39.824ZM244.331 40.16C242.299 40.16 240.139 38.896 240.139 36.112C240.139 33.616 242.139 31.888 244.331 31.888C246.315 31.888 248.507 33.104 248.507 35.952C248.507 38.688 246.219 40.16 244.331 40.16ZM244.811 39.824C246.523 39.824 247.291 38.448 247.291 36.896C247.291 34.832 245.835 32.08 243.739 32.192C242.107 32.256 241.371 33.6 241.371 35.2C241.371 37.232 242.683 39.824 244.811 39.824ZM249.639 40V39.792C250.119 39.648 250.279 39.28 250.279 37.968V29.488C250.279 28.368 250.071 28.208 249.639 28.016V27.84L251.383 27.072L251.527 27.184V37.968C251.527 39.28 251.671 39.648 252.167 39.792V40H249.639ZM14.624 66V65.792C15.104 65.648 15.264 65.28 15.264 63.968V58.336H14.336L14.416 58.112H15.264C15.392 55.728 17.584 53.52 20.192 53.52C20.912 53.52 21.28 53.664 21.28 53.936C21.28 54.224 20.88 54.864 20.224 54.864C19.504 54.864 18.816 54.64 17.904 54.32C17.36 54.624 16.512 55.136 16.512 57.152V58.112H18.608L18.512 58.336H16.512V63.968C16.512 65.28 16.656 65.648 17.152 65.792V66H14.624ZM19.3714 66V65.792C19.8674 65.648 20.0114 65.28 20.0114 63.968V60.288C20.0114 59.168 19.8034 59.008 19.3714 58.816V58.64L21.1154 57.872L21.2594 57.984V59.984C21.5154 59.36 21.9474 58.816 22.4274 58.464C22.9234 58.096 23.4834 57.888 24.2514 57.888C24.8914 57.888 25.2914 58.048 25.2914 58.32C25.2914 58.672 24.9394 59.232 24.3634 59.232C23.9314 59.232 23.3074 59.056 22.3634 58.784C21.8994 59.12 21.3234 60.016 21.2754 60.784H21.2594V63.968C21.2594 65.28 21.4194 65.648 21.8994 65.792V66H19.3714ZM26.0901 66V65.792C26.5861 65.648 26.7301 65.28 26.7301 63.968V60.288C26.7301 59.168 26.5381 59.008 26.0901 58.816V58.64L27.8501 57.872L27.9781 57.984V63.968C27.9781 65.28 28.1381 65.648 28.6181 65.792V66H26.0901ZM27.2581 56.896C26.7621 56.896 26.3781 56.496 26.3781 56.016C26.3781 55.504 26.7621 55.12 27.2581 55.12C27.7701 55.12 28.1381 55.504 28.1381 56.016C28.1381 56.496 27.7541 56.896 27.2581 56.896ZM33.5399 66.16C31.7799 66.16 29.7479 64.88 29.7479 62.24C29.7479 59.632 31.7159 57.888 33.9559 57.888C35.9719 57.888 37.1399 59.2 37.1879 60.72H30.9319C30.8999 60.96 30.8839 61.2 30.8839 61.456C30.8839 63.648 32.2439 65.152 34.3239 65.152C35.5559 65.152 36.4359 64.592 37.1719 63.76L37.3159 63.904C36.4999 65.024 35.2519 66.16 33.5399 66.16ZM30.9799 60.512H35.9079C35.7479 59.44 34.8839 58.176 33.4279 58.176C32.0679 58.16 31.2359 59.168 30.9799 60.512ZM38.2776 66V65.792C38.7736 65.648 38.9176 65.28 38.9176 63.968V60.288C38.9176 59.168 38.7256 59.008 38.2776 58.816V58.64L40.0376 57.872L40.1656 57.984V59.36C41.0936 58.608 42.3256 57.888 43.5576 57.888C45.1256 57.888 46.0856 58.8 46.0856 60.672V63.968C46.0856 65.28 46.2456 65.648 46.7256 65.792V66H44.1976V65.792C44.6936 65.648 44.8376 65.28 44.8376 63.968V60.992C44.8376 59.328 44.1336 58.416 42.7256 58.416C41.8456 58.416 40.9816 58.944 40.1656 59.616V63.968C40.1656 65.28 40.3256 65.648 40.8056 65.792V66H38.2776ZM51.2214 66.176C49.2374 66.16 47.6854 64.448 47.6854 62.192C47.6854 59.968 49.2054 57.92 51.9574 57.904C52.8374 57.904 53.5734 58.176 54.1334 58.528V55.488C54.1334 54.368 53.9254 54.208 53.4934 54.016V53.84L55.2534 53.072L55.3814 53.184V63.968C55.3814 65.28 55.5254 65.648 56.0214 65.792V66H54.6134C54.3094 66 54.1334 65.824 54.1334 65.52V64.608C53.3494 65.424 52.3574 66.192 51.2214 66.176ZM48.8854 61.232C48.8854 63.104 49.7654 65.392 51.9414 65.392C52.7734 65.392 53.5094 64.96 54.1334 64.32V60.4C53.9894 59.36 52.8054 58.208 51.4614 58.208C49.7654 58.208 48.8854 59.536 48.8854 61.232ZM66.454 66C66.134 66 65.974 65.824 65.974 65.52V62.64C65.478 64.608 64.134 66.16 62.55 66.16C61.366 66.16 60.31 65.44 60.31 64.064C60.31 62.4 61.99 61.776 63.894 61.248L65.974 60.688C65.894 59.136 65.094 58.416 63.734 58.416C62.774 58.416 61.846 58.864 61.046 59.84L60.902 59.712C61.814 58.576 62.982 57.888 64.374 57.888C66.31 57.888 67.206 58.96 67.206 60.768V63.968C67.206 65.28 67.35 65.648 67.846 65.792V66H66.454ZM61.51 63.616C61.51 64.656 62.23 65.216 63.142 65.216C64.854 65.216 65.958 63.056 65.974 61.376V60.928V60.896L63.958 61.44C62.774 61.776 61.494 62.304 61.51 63.616ZM68.8584 66V65.792C69.3384 65.648 69.4984 65.28 69.4984 63.968V58.336H68.5704L68.6504 58.112H69.4984C69.6264 55.728 71.8184 53.52 74.4264 53.52C75.1464 53.52 75.5144 53.664 75.5144 53.936C75.5144 54.224 75.1144 54.864 74.4584 54.864C73.7384 54.864 73.0504 54.64 72.1384 54.32C71.5944 54.624 70.7464 55.136 70.7464 57.152V58.112H72.8424L72.7464 58.336H70.7464V63.968C70.7464 65.28 70.8904 65.648 71.3864 65.792V66H68.8584ZM76.1178 66.16C75.1098 66.16 74.5018 65.536 74.5018 63.872V58.224H73.4778V58L75.5258 56.032H75.7498V58H78.1818L78.1018 58.224H75.7498V63.872C75.7498 64.96 76.1978 65.376 76.8858 65.376C77.3338 65.376 77.8938 65.168 78.4218 64.544L78.5658 64.688C77.8778 65.472 77.0618 66.16 76.1178 66.16ZM82.6961 66.16C80.9361 66.16 78.9041 64.88 78.9041 62.24C78.9041 59.632 80.8721 57.888 83.1121 57.888C85.1281 57.888 86.2961 59.2 86.3441 60.72H80.0881C80.0561 60.96 80.0401 61.2 80.0401 61.456C80.0401 63.648 81.4001 65.152 83.4801 65.152C84.7121 65.152 85.5921 64.592 86.3281 63.76L86.4721 63.904C85.6561 65.024 84.4081 66.16 82.6961 66.16ZM80.1361 60.512H85.0641C84.9041 59.44 84.0401 58.176 82.5841 58.176C81.2241 58.16 80.3921 59.168 80.1361 60.512ZM87.4339 66V65.792C87.9299 65.648 88.0739 65.28 88.0739 63.968V60.288C88.0739 59.168 87.8659 59.008 87.4339 58.816V58.64L89.1779 57.872L89.3219 57.984V59.984C89.5779 59.36 90.0099 58.816 90.4899 58.464C90.9859 58.096 91.5459 57.888 92.3139 57.888C92.9539 57.888 93.3539 58.048 93.3539 58.32C93.3539 58.672 93.0019 59.232 92.4259 59.232C91.9939 59.232 91.3699 59.056 90.4259 58.784C89.9619 59.12 89.3859 60.016 89.3379 60.784H89.3219V63.968C89.3219 65.28 89.4819 65.648 89.9619 65.792V66H87.4339ZM103.704 66C103.384 66 103.224 65.824 103.224 65.52V62.64C102.728 64.608 101.384 66.16 99.8 66.16C98.616 66.16 97.56 65.44 97.56 64.064C97.56 62.4 99.24 61.776 101.144 61.248L103.224 60.688C103.144 59.136 102.344 58.416 100.984 58.416C100.024 58.416 99.096 58.864 98.296 59.84L98.152 59.712C99.064 58.576 100.232 57.888 101.624 57.888C103.56 57.888 104.456 58.96 104.456 60.768V63.968C104.456 65.28 104.6 65.648 105.096 65.792V66H103.704ZM98.76 63.616C98.76 64.656 99.48 65.216 100.392 65.216C102.104 65.216 103.208 63.056 103.224 61.376V60.928V60.896L101.208 61.44C100.024 61.776 98.744 62.304 98.76 63.616ZM109.452 66V65.792C109.932 65.648 110.092 65.28 110.092 63.968V55.488C110.092 54.368 109.884 54.208 109.452 54.016V53.84L111.196 53.072L111.34 53.184V63.968C111.34 65.28 111.484 65.648 111.98 65.792V66H109.452ZM117.409 66.16C115.377 66.16 113.217 64.896 113.217 62.112C113.217 59.616 115.217 57.888 117.409 57.888C119.393 57.888 121.585 59.104 121.585 61.952C121.585 64.688 119.297 66.16 117.409 66.16ZM117.889 65.824C119.601 65.824 120.369 64.448 120.369 62.896C120.369 60.832 118.913 58.08 116.817 58.192C115.185 58.256 114.449 59.6 114.449 61.2C114.449 63.232 115.761 65.824 117.889 65.824ZM122.778 66V65.792C123.274 65.648 123.418 65.28 123.418 63.968V60.288C123.418 59.168 123.226 59.008 122.778 58.816V58.64L124.538 57.872L124.666 57.984V59.36C125.594 58.608 126.826 57.888 128.058 57.888C129.626 57.888 130.586 58.8 130.586 60.672V63.968C130.586 65.28 130.746 65.648 131.226 65.792V66H128.698V65.792C129.194 65.648 129.338 65.28 129.338 63.968V60.992C129.338 59.328 128.634 58.416 127.226 58.416C126.346 58.416 125.482 58.944 124.666 59.616V63.968C124.666 65.28 124.826 65.648 125.306 65.792V66H122.778ZM134.457 70.432C133.241 70.432 131.849 69.904 131.849 68.464C131.849 67.456 132.665 66.64 133.961 65.856C133.241 65.68 132.793 65.344 132.793 64.656C132.793 64.064 133.321 63.664 133.961 63.248C133.161 62.832 132.553 62.096 132.553 60.912C132.553 59.232 134.073 57.888 135.721 57.888C136.105 57.888 136.521 57.936 136.889 58.048C137.049 57.84 137.241 57.632 137.449 57.472C137.929 57.04 138.505 56.752 139.273 56.752C139.769 56.752 140.105 56.896 140.105 57.136C140.105 57.408 139.769 57.952 139.193 57.952C138.793 57.952 138.329 57.808 137.609 57.584C137.433 57.712 137.257 57.904 137.097 58.128C138.073 58.48 138.873 59.264 138.873 60.64C138.873 62.48 137.033 63.648 135.721 63.648C135.225 63.648 134.665 63.552 134.169 63.344C133.817 63.584 133.593 63.744 133.593 64.048C133.609 64.48 134.137 64.736 135.353 64.8L137.369 64.928C138.985 65.024 139.929 65.248 139.929 66.496C139.929 68.32 137.097 70.432 134.457 70.432ZM136.025 63.392C137.209 63.392 137.721 62.448 137.721 61.36C137.721 59.92 136.793 58.048 135.337 58.128C134.201 58.176 133.721 59.088 133.721 60.208C133.721 61.6 134.553 63.392 136.025 63.392ZM132.921 67.872C132.921 69.024 133.881 69.712 135.369 69.712C137.417 69.712 139.305 68.432 139.305 67.168C139.305 66.416 138.681 66.192 137.353 66.112L135.113 66C134.793 65.984 134.489 65.952 134.201 65.904C133.273 66.528 132.921 67.184 132.921 67.872ZM146.368 66.16C145.36 66.16 144.752 65.536 144.752 63.872V58.224H143.728V58L145.776 56.032H146V58H148.432L148.352 58.224H146V63.872C146 64.96 146.448 65.376 147.136 65.376C147.584 65.376 148.144 65.168 148.672 64.544L148.816 64.688C148.128 65.472 147.312 66.16 146.368 66.16ZM149.356 66V65.792C149.852 65.648 149.996 65.28 149.996 63.968V60.288C149.996 59.168 149.804 59.008 149.356 58.816V58.64L151.116 57.872L151.244 57.984V63.968C151.244 65.28 151.404 65.648 151.884 65.792V66H149.356ZM150.524 56.896C150.028 56.896 149.644 56.496 149.644 56.016C149.644 55.504 150.028 55.12 150.524 55.12C151.036 55.12 151.404 55.504 151.404 56.016C151.404 56.496 151.02 56.896 150.524 56.896ZM152.95 66V65.792C153.446 65.648 153.59 65.28 153.59 63.968V60.288C153.59 59.168 153.382 59.008 152.95 58.816V58.64L154.694 57.872L154.838 57.984V59.344C155.798 58.576 156.998 57.888 158.15 57.888C159.334 57.888 160.086 58.368 160.374 59.392C161.334 58.624 162.566 57.888 163.766 57.888C165.318 57.888 166.118 58.736 166.118 60.544V63.968C166.118 65.28 166.278 65.648 166.758 65.792V66H164.23V65.792C164.726 65.648 164.87 65.28 164.87 63.968V60.832C164.87 59.248 164.294 58.416 163.046 58.416C162.134 58.416 161.302 58.912 160.422 59.6C160.486 59.872 160.517 60.192 160.517 60.544V63.968C160.517 65.28 160.661 65.648 161.158 65.792V66H158.63V65.792C159.11 65.648 159.27 65.28 159.27 63.968V60.832C159.27 59.248 158.678 58.416 157.446 58.416C156.534 58.416 155.702 58.912 154.838 59.568V63.968C154.838 65.28 154.998 65.648 155.478 65.792V66H152.95ZM171.462 66.16C169.702 66.16 167.67 64.88 167.67 62.24C167.67 59.632 169.638 57.888 171.878 57.888C173.894 57.888 175.062 59.2 175.11 60.72H168.854C168.822 60.96 168.806 61.2 168.806 61.456C168.806 63.648 170.166 65.152 172.246 65.152C173.478 65.152 174.358 64.592 175.094 63.76L175.238 63.904C174.422 65.024 173.174 66.16 171.462 66.16ZM168.902 60.512H173.83C173.67 59.44 172.806 58.176 171.35 58.176C169.99 58.16 169.158 59.168 168.902 60.512ZM177.48 66.112C177.032 66.112 176.648 65.712 176.648 65.248C176.648 64.784 177.032 64.4 177.48 64.4C177.928 64.4 178.296 64.784 178.296 65.248C178.296 65.712 177.928 66.112 177.48 66.112ZM188.321 56.688C187.841 55.472 187.457 55.152 187.105 55.008V54.8H189.553V55.008C189.073 55.152 189.201 55.472 189.697 56.672L190.561 58.784L191.329 56.704C191.729 55.648 191.665 55.12 191.137 55.008V54.8H192.897V55.008C192.449 55.152 192.065 55.488 191.617 56.704L190.721 59.152L192.881 64.384L195.665 56.704C196.049 55.664 195.953 55.12 195.409 55.008V54.8H197.217V55.008C196.769 55.152 196.385 55.488 195.937 56.704L192.593 66H192.145L189.921 60.576L187.713 66H187.265L183.729 56.704C183.265 55.472 182.897 55.152 182.545 55.008V54.8H185.025V55.008C184.529 55.152 184.641 55.472 185.105 56.704L188.065 64.416L189.777 60.224L188.321 56.688ZM200.056 66.16C198.296 66.16 196.264 64.88 196.264 62.24C196.264 59.632 198.232 57.888 200.472 57.888C202.488 57.888 203.656 59.2 203.704 60.72H197.448C197.416 60.96 197.4 61.2 197.4 61.456C197.4 63.648 198.76 65.152 200.84 65.152C202.072 65.152 202.952 64.592 203.688 63.76L203.832 63.904C203.016 65.024 201.768 66.16 200.056 66.16ZM197.496 60.512H202.424C202.264 59.44 201.4 58.176 199.944 58.176C198.584 58.16 197.752 59.168 197.496 60.512ZM208.473 59.952C208.105 58.704 207.897 58.352 207.561 58.208V58H209.865V58.208C209.369 58.352 209.417 58.704 209.785 59.952L211.145 64.704L213.449 58H214.057L216.377 64.688L217.753 59.952C218.073 58.88 217.945 58.32 217.385 58.208V58H219.017V58.208C218.569 58.352 218.361 58.704 217.993 59.952L216.233 66H215.513L213.225 59.36L210.937 66H210.233L208.473 59.952ZM222.806 66.16C221.046 66.16 219.014 64.88 219.014 62.24C219.014 59.632 220.982 57.888 223.222 57.888C225.238 57.888 226.406 59.2 226.454 60.72H220.198C220.166 60.96 220.15 61.2 220.15 61.456C220.15 63.648 221.51 65.152 223.59 65.152C224.822 65.152 225.702 64.592 226.438 63.76L226.582 63.904C225.766 65.024 224.518 66.16 222.806 66.16ZM220.246 60.512H225.174C225.014 59.44 224.15 58.176 222.694 58.176C221.334 58.16 220.502 59.168 220.246 60.512ZM227.543 66V65.792C228.039 65.648 228.183 65.28 228.183 63.968V60.288C228.183 59.168 227.991 59.008 227.543 58.816V58.64L229.303 57.872L229.431 57.984V59.36C230.359 58.608 231.591 57.888 232.823 57.888C234.391 57.888 235.351 58.8 235.351 60.672V63.968C235.351 65.28 235.511 65.648 235.991 65.792V66H233.463V65.792C233.959 65.648 234.103 65.28 234.103 63.968V60.992C234.103 59.328 233.399 58.416 231.991 58.416C231.111 58.416 230.247 58.944 229.431 59.616V63.968C229.431 65.28 229.591 65.648 230.071 65.792V66H227.543ZM239.399 66.16C238.391 66.16 237.783 65.536 237.783 63.872V58.224H236.759V58L238.807 56.032H239.031V58H241.463L241.383 58.224H239.031V63.872C239.031 64.96 239.479 65.376 240.167 65.376C240.615 65.376 241.175 65.168 241.703 64.544L241.847 64.688C241.159 65.472 240.343 66.16 239.399 66.16ZM248.258 66.16C247.25 66.16 246.642 65.536 246.642 63.872V58.224H245.618V58L247.666 56.032H247.89V58H250.322L250.242 58.224H247.89V63.872C247.89 64.96 248.338 65.376 249.026 65.376C249.474 65.376 250.034 65.168 250.562 64.544L250.706 64.688C250.018 65.472 249.202 66.16 248.258 66.16ZM255.237 66.16C253.205 66.16 251.045 64.896 251.045 62.112C251.045 59.616 253.045 57.888 255.237 57.888C257.221 57.888 259.413 59.104 259.413 61.952C259.413 64.688 257.125 66.16 255.237 66.16ZM255.717 65.824C257.429 65.824 258.197 64.448 258.197 62.896C258.197 60.832 256.741 58.08 254.645 58.192C253.013 58.256 252.277 59.6 252.277 61.2C252.277 63.232 253.589 65.824 255.717 65.824ZM270.157 66C269.837 66 269.677 65.824 269.677 65.52V62.64C269.181 64.608 267.837 66.16 266.253 66.16C265.069 66.16 264.013 65.44 264.013 64.064C264.013 62.4 265.693 61.776 267.597 61.248L269.677 60.688C269.597 59.136 268.797 58.416 267.437 58.416C266.477 58.416 265.549 58.864 264.749 59.84L264.605 59.712C265.517 58.576 266.685 57.888 268.077 57.888C270.013 57.888 270.909 58.96 270.909 60.768V63.968C270.909 65.28 271.053 65.648 271.549 65.792V66H270.157ZM265.213 63.616C265.213 64.656 265.933 65.216 266.845 65.216C268.557 65.216 269.661 63.056 269.677 61.376V60.928V60.896L267.661 61.44C266.477 61.776 265.197 62.304 265.213 63.616ZM18.368 92.16C16.512 92.16 14.576 90.816 14.576 88.24C14.576 85.712 16.592 83.888 18.928 83.888C20.464 83.888 21.648 84.32 21.648 84.752C21.648 85.12 21.152 85.616 20.64 85.616C20.24 85.616 19.488 85.152 18.208 84.144C16.72 84.4 15.712 85.728 15.712 87.456C15.712 89.648 17.072 91.152 19.152 91.152C20.384 91.152 21.264 90.592 22 89.76L22.144 89.904C21.328 91.024 20.08 92.16 18.368 92.16ZM29.0165 92C28.6965 92 28.5365 91.824 28.5365 91.52V88.64C28.0405 90.608 26.6965 92.16 25.1125 92.16C23.9285 92.16 22.8725 91.44 22.8725 90.064C22.8725 88.4 24.5525 87.776 26.4565 87.248L28.5365 86.688C28.4565 85.136 27.6565 84.416 26.2965 84.416C25.3365 84.416 24.4085 84.864 23.6085 85.84L23.4645 85.712C24.3765 84.576 25.5445 83.888 26.9365 83.888C28.8725 83.888 29.7685 84.96 29.7685 86.768V89.968C29.7685 91.28 29.9125 91.648 30.4085 91.792V92H29.0165ZM24.0725 89.616C24.0725 90.656 24.7925 91.216 25.7045 91.216C27.4165 91.216 28.5205 89.056 28.5365 87.376V86.928V86.896L26.5205 87.44C25.3365 87.776 24.0565 88.304 24.0725 89.616ZM31.4209 92V91.792C31.9009 91.648 32.0609 91.28 32.0609 89.968V84.336H31.1329L31.2129 84.112H32.0609C32.1889 81.728 34.3809 79.52 36.9889 79.52C37.7089 79.52 38.0769 79.664 38.0769 79.936C38.0769 80.224 37.6769 80.864 37.0209 80.864C36.3009 80.864 35.6129 80.64 34.7009 80.32C34.1569 80.624 33.3089 81.136 33.3089 83.152V84.112H35.4049L35.3089 84.336H33.3089V89.968C33.3089 91.28 33.4529 91.648 33.9489 91.792V92H31.4209ZM39.4618 92.16C37.7018 92.16 35.6698 90.88 35.6698 88.24C35.6698 85.632 37.6378 83.888 39.8778 83.888C41.8938 83.888 43.0618 85.2 43.1098 86.72H36.8538C36.8218 86.96 36.8058 87.2 36.8058 87.456C36.8058 89.648 38.1658 91.152 40.2458 91.152C41.4778 91.152 42.3578 90.592 43.0938 89.76L43.2378 89.904C42.4218 91.024 41.1738 92.16 39.4618 92.16ZM36.9018 86.512H41.8298C41.6698 85.44 40.8058 84.176 39.3498 84.176C37.9898 84.16 37.1578 85.168 36.9018 86.512ZM44.5675 94.032C45.3995 93.616 45.7675 92.832 45.8155 92.016C45.6875 92.064 45.5755 92.096 45.4315 92.096C44.9995 92.096 44.6475 91.744 44.6475 91.312C44.6475 90.784 44.9995 90.4 45.5115 90.4C46.1355 90.4 46.5355 90.848 46.5195 91.632C46.5195 92.8 45.5755 93.84 44.6315 94.176L44.5675 94.032ZM55.6918 92.144C54.8118 92.144 53.9798 91.84 53.3718 91.44V94.288C53.3718 95.6 53.5158 95.968 54.0118 96.112V96.32H51.4838V96.112C51.9638 95.968 52.1238 95.6 52.1238 94.288V86.288C52.1238 85.168 51.9158 85.008 51.4838 84.816V84.64L53.2278 83.872L53.3718 83.984V85.152C54.2358 84.512 55.3398 83.888 56.5718 83.888C58.4278 83.888 59.8198 85.424 59.8198 87.792C59.8198 90.032 58.3478 92.128 55.6918 92.144ZM53.3718 89.36C53.3718 90.448 54.7638 91.84 56.2038 91.84C57.8838 91.84 58.6678 90.576 58.6678 88.72C58.6678 86.944 57.9638 84.432 55.7238 84.432C54.7958 84.432 54.0438 84.896 53.3718 85.408V89.36ZM60.9518 92V91.792C61.4318 91.648 61.5918 91.28 61.5918 89.968V81.488C61.5918 80.368 61.3838 80.208 60.9518 80.016V79.84L62.6957 79.072L62.8398 79.184V89.968C62.8398 91.28 62.9838 91.648 63.4798 91.792V92H60.9518ZM70.8446 92C70.5246 92 70.3646 91.824 70.3646 91.52V88.64C69.8686 90.608 68.5246 92.16 66.9406 92.16C65.7566 92.16 64.7006 91.44 64.7006 90.064C64.7006 88.4 66.3806 87.776 68.2846 87.248L70.3646 86.688C70.2846 85.136 69.4846 84.416 68.1246 84.416C67.1646 84.416 66.2366 84.864 65.4366 85.84L65.2926 85.712C66.2046 84.576 67.3726 83.888 68.7646 83.888C70.7006 83.888 71.5966 84.96 71.5966 86.768V89.968C71.5966 91.28 71.7406 91.648 72.2366 91.792V92H70.8446ZM65.9006 89.616C65.9006 90.656 66.6206 91.216 67.5326 91.216C69.2446 91.216 70.3486 89.056 70.3646 87.376V86.928V86.896L68.3486 87.44C67.1646 87.776 65.8846 88.304 65.9006 89.616ZM73.105 95.088C72.481 95.104 72.017 94.896 72.017 94.64C72.017 94.336 72.417 93.76 73.009 93.76C73.425 93.76 74.289 94 75.025 94.128C75.585 93.648 76.081 92.864 76.481 92.032L73.857 85.872C73.361 84.672 72.961 84.352 72.625 84.208V84H75.041V84.208C74.561 84.352 74.689 84.672 75.201 85.872L77.169 90.448L79.137 85.872C79.585 84.832 79.553 84.32 78.993 84.208V84H80.769V84.208C80.321 84.352 79.905 84.672 79.377 85.872L76.897 91.6C75.537 94.736 74.129 95.072 73.105 95.088ZM84.5555 92.16C82.7955 92.16 80.7635 90.88 80.7635 88.24C80.7635 85.632 82.7315 83.888 84.9715 83.888C86.9875 83.888 88.1555 85.2 88.2035 86.72H81.9475C81.9155 86.96 81.8995 87.2 81.8995 87.456C81.8995 89.648 83.2595 91.152 85.3395 91.152C86.5715 91.152 87.4515 90.592 88.1875 89.76L88.3315 89.904C87.5155 91.024 86.2675 92.16 84.5555 92.16ZM81.9955 86.512H86.9235C86.7635 85.44 85.8995 84.176 84.4435 84.176C83.0835 84.16 82.2515 85.168 81.9955 86.512ZM92.8932 92.176C90.9093 92.16 89.3573 90.448 89.3573 88.192C89.3573 85.968 90.8773 83.92 93.6293 83.904C94.5093 83.904 95.2453 84.176 95.8053 84.528V81.488C95.8053 80.368 95.5973 80.208 95.1653 80.016V79.84L96.9253 79.072L97.0533 79.184V89.968C97.0533 91.28 97.1973 91.648 97.6933 91.792V92H96.2853C95.9813 92 95.8053 91.824 95.8053 91.52V90.608C95.0213 91.424 94.0293 92.192 92.8932 92.176ZM90.5573 87.232C90.5573 89.104 91.4373 91.392 93.6133 91.392C94.4453 91.392 95.1813 90.96 95.8053 90.32V86.4C95.6613 85.36 94.4773 84.208 93.1333 84.208C91.4373 84.208 90.5573 85.536 90.5573 87.232ZM104.27 96.432C103.054 96.432 101.662 95.904 101.662 94.464C101.662 93.456 102.478 92.64 103.774 91.856C103.054 91.68 102.606 91.344 102.606 90.656C102.606 90.064 103.134 89.664 103.774 89.248C102.974 88.832 102.366 88.096 102.366 86.912C102.366 85.232 103.886 83.888 105.534 83.888C105.918 83.888 106.334 83.936 106.702 84.048C106.862 83.84 107.054 83.632 107.262 83.472C107.742 83.04 108.318 82.752 109.086 82.752C109.582 82.752 109.918 82.896 109.918 83.136C109.918 83.408 109.582 83.952 109.006 83.952C108.606 83.952 108.142 83.808 107.422 83.584C107.246 83.712 107.07 83.904 106.91 84.128C107.886 84.48 108.686 85.264 108.686 86.64C108.686 88.48 106.846 89.648 105.534 89.648C105.038 89.648 104.478 89.552 103.982 89.344C103.63 89.584 103.406 89.744 103.406 90.048C103.422 90.48 103.95 90.736 105.166 90.8L107.182 90.928C108.798 91.024 109.742 91.248 109.742 92.496C109.742 94.32 106.91 96.432 104.27 96.432ZM105.838 89.392C107.022 89.392 107.534 88.448 107.534 87.36C107.534 85.92 106.606 84.048 105.15 84.128C104.014 84.176 103.534 85.088 103.534 86.208C103.534 87.6 104.366 89.392 105.838 89.392ZM102.734 93.872C102.734 95.024 103.694 95.712 105.182 95.712C107.23 95.712 109.118 94.432 109.118 93.168C109.118 92.416 108.494 92.192 107.166 92.112L104.926 92C104.606 91.984 104.302 91.952 104.014 91.904C103.086 92.528 102.734 93.184 102.734 93.872ZM116.017 92C115.697 92 115.537 91.824 115.537 91.52V88.64C115.041 90.608 113.697 92.16 112.113 92.16C110.929 92.16 109.873 91.44 109.873 90.064C109.873 88.4 111.553 87.776 113.457 87.248L115.537 86.688C115.457 85.136 114.657 84.416 113.297 84.416C112.337 84.416 111.409 84.864 110.609 85.84L110.465 85.712C111.377 84.576 112.545 83.888 113.937 83.888C115.873 83.888 116.769 84.96 116.769 86.768V89.968C116.769 91.28 116.913 91.648 117.409 91.792V92H116.017ZM111.073 89.616C111.073 90.656 111.793 91.216 112.705 91.216C114.417 91.216 115.521 89.056 115.537 87.376V86.928V86.896L113.521 87.44C112.337 87.776 111.057 88.304 111.073 89.616ZM118.309 92V91.792C118.805 91.648 118.949 91.28 118.949 89.968V86.288C118.949 85.168 118.741 85.008 118.309 84.816V84.64L120.053 83.872L120.197 83.984V85.344C121.157 84.576 122.357 83.888 123.509 83.888C124.693 83.888 125.445 84.368 125.733 85.392C126.693 84.624 127.925 83.888 129.125 83.888C130.677 83.888 131.477 84.736 131.477 86.544V89.968C131.477 91.28 131.637 91.648 132.117 91.792V92H129.589V91.792C130.085 91.648 130.229 91.28 130.229 89.968V86.832C130.229 85.248 129.653 84.416 128.405 84.416C127.493 84.416 126.661 84.912 125.781 85.6C125.845 85.872 125.877 86.192 125.877 86.544V89.968C125.877 91.28 126.021 91.648 126.517 91.792V92H123.989V91.792C124.469 91.648 124.629 91.28 124.629 89.968V86.832C124.629 85.248 124.037 84.416 122.805 84.416C121.893 84.416 121.061 84.912 120.197 85.568V89.968C120.197 91.28 120.357 91.648 120.837 91.792V92H118.309ZM136.821 92.16C135.061 92.16 133.029 90.88 133.029 88.24C133.029 85.632 134.997 83.888 137.237 83.888C139.253 83.888 140.421 85.2 140.469 86.72H134.213C134.181 86.96 134.165 87.2 134.165 87.456C134.165 89.648 135.525 91.152 137.605 91.152C138.837 91.152 139.717 90.592 140.453 89.76L140.597 89.904C139.781 91.024 138.533 92.16 136.821 92.16ZM134.261 86.512H139.189C139.029 85.44 138.165 84.176 136.709 84.176C135.349 84.16 134.517 85.168 134.261 86.512ZM144.663 92.144C143.383 92.144 142.279 91.76 141.751 91.408L141.607 89.472L141.751 89.44C142.423 90.96 143.559 91.872 145.015 91.888C146.007 91.888 146.743 91.296 146.743 90.4C146.743 89.248 145.623 88.88 144.391 88.48C142.871 88 141.783 87.584 141.783 86.128C141.783 84.864 142.839 83.888 144.695 83.888C145.735 83.888 146.679 84.112 147.175 84.32L147.239 85.952L147.079 85.984C146.567 84.832 145.543 84.096 144.407 84.096C143.319 84.096 142.615 84.624 142.615 85.44C142.615 86.448 143.639 86.864 144.903 87.28C146.119 87.68 147.591 88.048 147.591 89.648C147.591 90.992 146.583 92.128 144.663 92.144ZM149.052 94.032C149.884 93.616 150.252 92.832 150.3 92.016C150.172 92.064 150.06 92.096 149.916 92.096C149.484 92.096 149.132 91.744 149.132 91.312C149.132 90.784 149.484 90.4 149.996 90.4C150.62 90.4 151.02 90.848 151.004 91.632C151.004 92.8 150.06 93.84 149.116 94.176L149.052 94.032ZM162.032 92C161.712 92 161.552 91.824 161.552 91.52V88.64C161.056 90.608 159.712 92.16 158.128 92.16C156.944 92.16 155.888 91.44 155.888 90.064C155.888 88.4 157.568 87.776 159.472 87.248L161.552 86.688C161.472 85.136 160.672 84.416 159.312 84.416C158.352 84.416 157.424 84.864 156.624 85.84L156.48 85.712C157.392 84.576 158.56 83.888 159.952 83.888C161.888 83.888 162.784 84.96 162.784 86.768V89.968C162.784 91.28 162.928 91.648 163.424 91.792V92H162.032ZM157.088 89.616C157.088 90.656 157.808 91.216 158.72 91.216C160.432 91.216 161.536 89.056 161.552 87.376V86.928V86.896L159.536 87.44C158.352 87.776 157.072 88.304 157.088 89.616ZM164.325 92V91.792C164.821 91.648 164.965 91.28 164.965 89.968V86.288C164.965 85.168 164.773 85.008 164.325 84.816V84.64L166.085 83.872L166.213 83.984V85.36C167.141 84.608 168.373 83.888 169.605 83.888C171.173 83.888 172.133 84.8 172.133 86.672V89.968C172.133 91.28 172.293 91.648 172.773 91.792V92H170.245V91.792C170.741 91.648 170.885 91.28 170.885 89.968V86.992C170.885 85.328 170.181 84.416 168.773 84.416C167.893 84.416 167.029 84.944 166.213 85.616V89.968C166.213 91.28 166.373 91.648 166.853 91.792V92H164.325ZM177.268 92.176C175.284 92.16 173.732 90.448 173.732 88.192C173.732 85.968 175.252 83.92 178.004 83.904C178.884 83.904 179.62 84.176 180.18 84.528V81.488C180.18 80.368 179.972 80.208 179.54 80.016V79.84L181.3 79.072L181.428 79.184V89.968C181.428 91.28 181.572 91.648 182.068 91.792V92H180.66C180.356 92 180.18 91.824 180.18 91.52V90.608C179.396 91.424 178.404 92.192 177.268 92.176ZM174.932 87.232C174.932 89.104 175.812 91.392 177.988 91.392C178.82 91.392 179.556 90.96 180.18 90.32V86.4C180.036 85.36 178.852 84.208 177.508 84.208C175.812 84.208 174.932 85.536 174.932 87.232ZM186.229 92V91.792C186.725 91.648 186.869 91.28 186.869 89.968V81.488C186.869 80.368 186.661 80.208 186.229 80.016V79.84L187.973 79.072L188.117 79.184V85.36C189.045 84.608 190.277 83.888 191.509 83.888C193.077 83.888 194.037 84.8 194.037 86.672V89.968C194.037 91.28 194.197 91.648 194.677 91.792V92H192.149V91.792C192.645 91.648 192.789 91.28 192.789 89.968V86.992C192.789 85.328 192.085 84.416 190.677 84.416C189.797 84.416 188.933 84.944 188.117 85.616V89.968C188.117 91.28 188.277 91.648 188.757 91.792V92H186.229ZM201.767 92C201.447 92 201.287 91.824 201.287 91.52V88.64C200.791 90.608 199.447 92.16 197.863 92.16C196.679 92.16 195.623 91.44 195.623 90.064C195.623 88.4 197.303 87.776 199.207 87.248L201.287 86.688C201.207 85.136 200.407 84.416 199.047 84.416C198.087 84.416 197.159 84.864 196.359 85.84L196.215 85.712C197.127 84.576 198.295 83.888 199.687 83.888C201.623 83.888 202.519 84.96 202.519 86.768V89.968C202.519 91.28 202.663 91.648 203.159 91.792V92H201.767ZM196.823 89.616C196.823 90.656 197.543 91.216 198.455 91.216C200.167 91.216 201.271 89.056 201.287 87.376V86.928V86.896L199.271 87.44C198.087 87.776 196.807 88.304 196.823 89.616ZM207.659 92.176C205.675 92.16 204.123 90.448 204.123 88.192C204.123 85.968 205.643 83.92 208.395 83.904C209.275 83.904 210.011 84.176 210.571 84.528V81.488C210.571 80.368 210.363 80.208 209.931 80.016V79.84L211.691 79.072L211.819 79.184V89.968C211.819 91.28 211.963 91.648 212.459 91.792V92H211.051C210.747 92 210.571 91.824 210.571 91.52V90.608C209.787 91.424 208.795 92.192 207.659 92.176ZM205.323 87.232C205.323 89.104 206.203 91.392 208.379 91.392C209.211 91.392 209.947 90.96 210.571 90.32V86.4C210.427 85.36 209.243 84.208 207.899 84.208C206.203 84.208 205.323 85.536 205.323 87.232ZM216.812 92V91.792C217.292 91.648 217.452 91.28 217.452 89.968V84.336H216.524L216.604 84.112H217.452C217.58 81.728 219.772 79.52 222.38 79.52C223.1 79.52 223.468 79.664 223.468 79.936C223.468 80.224 223.068 80.864 222.412 80.864C221.692 80.864 221.004 80.64 220.092 80.32C219.548 80.624 218.7 81.136 218.7 83.152V84.112H220.796L220.7 84.336H218.7V89.968C218.7 91.28 218.844 91.648 219.34 91.792V92H216.812ZM224.535 92.16C222.855 92.16 222.087 91.088 222.087 89.248V86.288C222.087 85.168 221.879 85.008 221.447 84.816V84.64L223.191 83.872L223.335 83.984V88.96C223.335 90.784 223.847 91.6 225.127 91.6C226.071 91.6 226.935 91.008 227.655 90.24V86.288C227.655 85.168 227.447 85.008 227.015 84.816V84.64L228.759 83.872L228.903 83.984V89.968C228.903 91.28 229.047 91.648 229.543 91.792V92H228.183C227.831 92 227.655 91.824 227.655 91.36V90.544C226.839 91.392 225.735 92.16 224.535 92.16ZM230.621 92V91.792C231.117 91.648 231.261 91.28 231.261 89.968V86.288C231.261 85.168 231.069 85.008 230.621 84.816V84.64L232.381 83.872L232.509 83.984V85.36C233.437 84.608 234.669 83.888 235.901 83.888C237.469 83.888 238.429 84.8 238.429 86.672V89.968C238.429 91.28 238.589 91.648 239.069 91.792V92H236.541V91.792C237.037 91.648 237.181 91.28 237.181 89.968V86.992C237.181 85.328 236.477 84.416 235.069 84.416C234.189 84.416 233.325 84.944 232.509 85.616V89.968C232.509 91.28 232.669 91.648 233.149 91.792V92H230.621ZM17.024 118.16C16.016 118.16 15.408 117.536 15.408 115.872V110.224H14.384V110L16.432 108.032H16.656V110H19.088L19.008 110.224H16.656V115.872C16.656 116.96 17.104 117.376 17.792 117.376C18.24 117.376 18.8 117.168 19.328 116.544L19.472 116.688C18.784 117.472 17.968 118.16 17.024 118.16ZM24.0024 118.16C21.9704 118.16 19.8104 116.896 19.8104 114.112C19.8104 111.616 21.8104 109.888 24.0024 109.888C25.9864 109.888 28.1784 111.104 28.1784 113.952C28.1784 116.688 25.8904 118.16 24.0024 118.16ZM24.4824 117.824C26.1944 117.824 26.9624 116.448 26.9624 114.896C26.9624 112.832 25.5064 110.08 23.4104 110.192C21.7784 110.256 21.0424 111.6 21.0424 113.2C21.0424 115.232 22.3544 117.824 24.4824 117.824ZM31.7074 122.432C30.4914 122.432 29.0994 121.904 29.0994 120.464C29.0994 119.456 29.9154 118.64 31.2114 117.856C30.4914 117.68 30.0434 117.344 30.0434 116.656C30.0434 116.064 30.5714 115.664 31.2114 115.248C30.4114 114.832 29.8034 114.096 29.8034 112.912C29.8034 111.232 31.3234 109.888 32.9714 109.888C33.3554 109.888 33.7714 109.936 34.1394 110.048C34.2994 109.84 34.4914 109.632 34.6994 109.472C35.1794 109.04 35.7554 108.752 36.5234 108.752C37.0194 108.752 37.3554 108.896 37.3554 109.136C37.3554 109.408 37.0194 109.952 36.4434 109.952C36.0434 109.952 35.5794 109.808 34.8594 109.584C34.6834 109.712 34.5074 109.904 34.3474 110.128C35.3234 110.48 36.1234 111.264 36.1234 112.64C36.1234 114.48 34.2834 115.648 32.9714 115.648C32.4754 115.648 31.9154 115.552 31.4194 115.344C31.0674 115.584 30.8434 115.744 30.8434 116.048C30.8594 116.48 31.3874 116.736 32.6034 116.8L34.6194 116.928C36.2354 117.024 37.1794 117.248 37.1794 118.496C37.1794 120.32 34.3474 122.432 31.7074 122.432ZM33.2754 115.392C34.4594 115.392 34.9714 114.448 34.9714 113.36C34.9714 111.92 34.0434 110.048 32.5874 110.128C31.4514 110.176 30.9714 111.088 30.9714 112.208C30.9714 113.6 31.8034 115.392 33.2754 115.392ZM30.1714 119.872C30.1714 121.024 31.1314 121.712 32.6194 121.712C34.6674 121.712 36.5554 120.432 36.5554 119.168C36.5554 118.416 35.9314 118.192 34.6034 118.112L32.3634 118C32.0434 117.984 31.7394 117.952 31.4514 117.904C30.5234 118.528 30.1714 119.184 30.1714 119.872ZM41.2899 118.16C39.5299 118.16 37.4979 116.88 37.4979 114.24C37.4979 111.632 39.4659 109.888 41.7059 109.888C43.7219 109.888 44.8899 111.2 44.9379 112.72H38.6819C38.6499 112.96 38.6339 113.2 38.6339 113.456C38.6339 115.648 39.9939 117.152 42.0739 117.152C43.3059 117.152 44.1859 116.592 44.9219 115.76L45.0659 115.904C44.2499 117.024 43.0019 118.16 41.2899 118.16ZM38.7299 112.512H43.6579C43.4979 111.44 42.6339 110.176 41.1779 110.176C39.8179 110.16 38.9859 111.168 38.7299 112.512ZM48.5396 118.16C47.5316 118.16 46.9236 117.536 46.9236 115.872V110.224H45.8996V110L47.9476 108.032H48.1716V110H50.6036L50.5236 110.224H48.1716V115.872C48.1716 116.96 48.6196 117.376 49.3076 117.376C49.7556 117.376 50.3156 117.168 50.8436 116.544L50.9876 116.688C50.2996 117.472 49.4836 118.16 48.5396 118.16ZM51.4476 118V117.792C51.9436 117.648 52.0876 117.28 52.0876 115.968V107.488C52.0876 106.368 51.8796 106.208 51.4476 106.016V105.84L53.1916 105.072L53.3356 105.184V111.36C54.2636 110.608 55.4956 109.888 56.7276 109.888C58.2956 109.888 59.2556 110.8 59.2556 112.672V115.968C59.2556 117.28 59.4156 117.648 59.8956 117.792V118H57.3676V117.792C57.8636 117.648 58.0076 117.28 58.0076 115.968V112.992C58.0076 111.328 57.3036 110.416 55.8956 110.416C55.0156 110.416 54.1516 110.944 53.3356 111.616V115.968C53.3356 117.28 53.4956 117.648 53.9756 117.792V118H51.4476ZM64.6493 118.16C62.8893 118.16 60.8573 116.88 60.8573 114.24C60.8573 111.632 62.8253 109.888 65.0653 109.888C67.0813 109.888 68.2493 111.2 68.2973 112.72H62.0413C62.0093 112.96 61.9933 113.2 61.9933 113.456C61.9933 115.648 63.3533 117.152 65.4333 117.152C66.6653 117.152 67.5453 116.592 68.2812 115.76L68.4253 115.904C67.6093 117.024 66.3613 118.16 64.6493 118.16ZM62.0893 112.512H67.0173C66.8573 111.44 65.9933 110.176 64.5373 110.176C63.1773 110.16 62.3453 111.168 62.0893 112.512ZM69.387 118V117.792C69.883 117.648 70.027 117.28 70.027 115.968V112.288C70.027 111.168 69.819 111.008 69.387 110.816V110.64L71.131 109.872L71.275 109.984V111.984C71.531 111.36 71.963 110.816 72.443 110.464C72.939 110.096 73.499 109.888 74.267 109.888C74.907 109.888 75.307 110.048 75.307 110.32C75.307 110.672 74.955 111.232 74.379 111.232C73.947 111.232 73.323 111.056 72.379 110.784C71.915 111.12 71.339 112.016 71.291 112.784H71.275V115.968C71.275 117.28 71.435 117.648 71.915 117.792V118H69.387Z" fill="#232323"/>
</svg>
