<svg width="155" height="76" viewBox="0 0 155 76" fill="none" xmlns="http://www.w3.org/2000/svg">
<rect width="155" height="76" rx="12" fill="#543310"/>
<path d="M49.4 48.632C51.512 48.632 53.744 47.36 56.072 43.976C57.224 42.32 58.64 39.776 59.456 38.456C61.136 35.72 63.368 33.224 66.752 32.84C63.56 32.504 61.112 31.472 57.464 31.448C56.24 31.448 54.872 31.616 53.888 32.144C52.976 32.672 52.256 33.44 52.256 34.472C52.256 35.36 52.856 36.008 53.768 36.104C53.96 36.128 54.176 36.104 54.392 36.056C54.152 36.344 53.672 36.584 53.072 36.584C52.208 36.584 51.344 36.104 51.32 35.072C51.296 33.8 52.328 32.768 53.768 31.928C55.256 31.04 57.008 30.608 59 30.656C62.96 30.752 66.416 32.576 69.896 32.576C71.264 32.576 71.984 32.096 71.96 31.52C71.96 31.352 71.864 31.16 71.696 31.064C71.816 30.92 72.008 30.872 72.176 30.872C72.44 30.872 72.656 31.064 72.68 31.328C72.752 32.384 70.76 32.984 68.456 32.936C68 32.936 67.568 32.912 67.16 32.888C65.792 33.056 64.496 34.064 63.536 35.336C62.72 36.392 61.688 38.12 60.848 39.56C59.864 41.264 58.448 43.376 57.08 44.912C54.92 47.36 52.04 48.848 49.352 48.848C47.936 48.848 45.872 48.584 45.872 46.976C45.872 45.608 47.216 44.768 48.824 44.768C49.304 44.768 49.688 44.84 49.88 44.96C47.84 44.912 47.216 46.136 47.216 47C47.216 48.176 48.224 48.632 49.4 48.632ZM67.2198 47.24C66.2838 47.24 65.7798 46.712 65.7798 45.848C65.7798 45.2 66.0678 44.576 66.1638 44.384C66.2118 44.312 66.1638 44.24 66.0918 44.336C65.7798 44.768 65.2758 45.416 64.8438 45.872C64.1478 46.568 63.3558 47.192 62.4198 47.192C61.4598 47.192 60.7878 46.616 60.7878 45.392C60.7878 44.168 61.3638 42.584 62.5638 41.144C64.1958 39.2 66.1638 38.048 67.9398 38.048C68.5878 38.048 69.2118 38.336 69.1638 39.104C69.3318 39.176 69.7878 39.224 70.3158 39.2C70.9878 39.176 71.3718 38.288 71.6358 38.36C70.2198 40.352 68.4918 43.136 67.6518 44.696C67.2678 45.44 67.0998 45.872 67.0998 46.256C67.0998 46.568 67.2918 46.808 67.6518 46.808C68.2278 46.808 68.9958 46.304 69.7158 45.488C70.4358 44.672 70.8918 44.048 71.3958 43.088C71.1318 44.048 70.5318 44.912 69.9318 45.608C69.1158 46.52 68.2278 47.24 67.2198 47.24ZM68.9238 39.44C69.0438 38.672 68.6598 38.312 68.2038 38.312C66.7398 38.312 64.7718 40.784 63.9078 42.104C63.1638 43.232 62.1558 44.912 62.1558 46.112C62.1558 46.568 62.3958 46.832 62.7798 46.832C63.3558 46.832 64.0998 46.28 64.7238 45.608C65.8518 44.456 66.6918 43.088 67.7958 41.336C68.1318 40.784 68.8038 39.68 68.9238 39.44ZM76.9983 42.056C77.9103 40.784 78.6303 39.872 78.6303 39.2C78.6303 38.936 78.4623 38.696 78.0783 38.696C77.1423 38.696 75.7023 39.824 74.2623 41.648C73.0623 43.136 72.2943 44.432 71.8383 45.32C71.3823 46.184 71.0943 46.952 71.1903 47.216C70.6383 47.144 70.2303 46.712 70.2303 46.04C70.2303 45.272 70.6383 44.216 71.5983 42.728C72.7503 40.928 73.4463 39.728 73.4463 39.2C73.4463 38.96 73.3023 38.816 73.0623 38.816C72.4623 38.816 71.8143 39.488 71.1183 40.424C71.5263 39.344 72.6783 38.168 73.9503 38.168C74.6703 38.168 75.0303 38.6 75.0303 39.152C75.0303 39.872 74.5743 40.736 74.1663 41.288C74.0943 41.408 74.1663 41.432 74.2383 41.36C75.3423 39.944 76.9983 38.192 78.5823 38.192C79.4463 38.192 80.0223 38.72 80.0223 39.488C80.0223 40.376 79.5183 41.264 78.3183 42.944C77.1663 44.552 76.5663 45.608 76.5663 46.256C76.5663 46.592 76.7583 46.808 77.1183 46.808C77.5983 46.808 78.4623 46.28 79.2543 45.368C79.9743 44.528 80.3823 43.928 80.8383 43.088C80.6223 43.88 80.1183 44.72 79.4223 45.536C78.5823 46.496 77.5743 47.24 76.5663 47.24C75.6783 47.24 75.1743 46.736 75.1743 45.896C75.1743 44.912 75.7983 43.736 76.9983 42.056ZM88.1248 39.104C88.3168 39.2 88.7488 39.224 89.2288 39.2C89.8528 39.176 90.3088 38.264 90.5488 38.36C90.0688 38.96 88.7968 40.928 87.9808 42.344C86.9488 44.12 86.0368 45.872 85.0528 47.456C83.9488 49.28 82.9168 50.36 81.9808 51.08C80.9728 51.896 79.7727 52.28 78.7887 52.28C77.6607 52.28 76.6047 51.992 76.6047 51.056C76.6287 50.264 77.3967 49.736 78.2847 49.736C78.5727 49.736 78.8127 49.808 78.9567 49.88C78.3327 50 77.9247 50.648 77.9247 51.176C77.9247 51.8 78.2847 52.064 78.9567 52.064C79.5327 52.064 80.6608 51.872 82.4368 49.016C83.1568 47.84 84.3808 45.728 85.1248 44.384C85.1728 44.312 85.1248 44.24 85.0528 44.336C84.7408 44.768 84.2368 45.416 83.8048 45.872C83.1088 46.568 82.3168 47.192 81.3808 47.192C80.4207 47.192 79.7487 46.616 79.7487 45.392C79.7487 44.168 80.3247 42.584 81.5248 41.144C83.1568 39.2 85.1728 38.024 86.9248 38.048C87.5728 38.048 88.1728 38.36 88.1248 39.104ZM87.8848 39.44C88.0048 38.696 87.6208 38.312 87.1648 38.312C85.7008 38.312 83.7328 40.808 82.8688 42.104C82.1248 43.232 81.1168 44.912 81.1168 46.112C81.1168 46.568 81.3568 46.832 81.7408 46.832C82.3168 46.832 83.0608 46.28 83.6848 45.608C84.8128 44.456 85.6528 43.112 86.7568 41.336C87.1168 40.76 87.7408 39.704 87.8848 39.44ZM90.3322 47.24C89.4442 47.24 88.8682 46.76 88.8682 45.752C88.8682 44.72 89.4682 43.424 90.6202 41.888C91.5322 40.64 92.1562 39.728 92.1562 39.08C92.1562 38.888 92.0602 38.744 91.8682 38.744C91.2682 38.744 90.5242 39.464 89.9242 40.496C90.2362 39.392 91.3882 38.144 92.5642 38.144C93.1642 38.144 93.6922 38.456 93.6922 39.2C93.6922 40.208 92.9722 41.24 91.8682 42.872C90.6442 44.672 90.1642 45.536 90.1642 46.28C90.1642 46.568 90.3322 46.832 90.7402 46.832C91.2202 46.832 92.0122 46.4 92.8042 45.464C93.5242 44.624 93.9322 44 94.4122 43.088C94.1962 43.88 93.6442 44.816 92.9482 45.632C92.1082 46.64 91.2202 47.24 90.3322 47.24ZM92.8762 35.792C92.9722 35.144 93.5242 34.688 94.0762 34.688C94.6282 34.688 95.0362 35.192 94.9642 35.744C94.9162 36.344 94.3882 36.848 93.7642 36.848C93.1882 36.848 92.8042 36.368 92.8762 35.792ZM101.021 38.816C101.021 38.504 100.853 38.264 100.493 38.264C99.6528 38.264 98.7408 39.08 98.0208 39.8C97.5408 40.256 97.0608 40.904 96.7248 41.36C96.8208 41.528 97.3488 41.816 97.9008 41.84C99.5808 41.864 101.021 39.848 101.021 38.816ZM95.8128 46.952C96.5568 46.952 97.4928 46.448 98.3328 45.608C98.8368 45.08 99.7968 43.76 99.6528 42.944C99.7248 43.088 99.7968 43.208 99.7968 43.448C99.7968 44.12 99.3888 45.08 98.5488 45.896C97.6128 46.76 96.5808 47.216 95.5008 47.216C94.2288 47.216 93.2928 46.616 93.2928 45.176C93.2928 43.952 93.9648 42.056 95.4288 40.496C97.0848 38.72 99.0048 38.024 100.349 38.024C101.285 38.024 101.885 38.504 101.885 39.248C101.885 40.832 100.253 42.08 98.1408 42.08C97.3008 42.08 96.7968 41.744 96.6288 41.48C95.4048 43.232 94.7568 44.888 94.7568 45.848C94.7568 46.496 95.0688 46.952 95.8128 46.952ZM104.379 41.696C103.059 43.424 102.147 45.008 101.835 45.848C101.643 46.352 101.523 46.952 101.667 47.216C100.875 47.24 100.419 46.712 100.419 45.944C100.419 45.2 100.779 44.216 101.739 42.728C102.891 40.928 103.587 39.728 103.587 39.2C103.587 38.96 103.443 38.816 103.203 38.816C102.603 38.816 101.955 39.488 101.259 40.424C101.667 39.344 102.819 38.168 104.091 38.168C104.811 38.168 105.171 38.6 105.171 39.152C105.171 39.872 104.667 40.784 104.259 41.336C104.187 41.456 104.235 41.528 104.331 41.408C105.795 39.512 107.115 38.072 108.315 38.072C108.987 38.072 109.467 38.504 109.467 39.104C109.467 40.472 108.219 41.336 107.355 41.336C106.995 41.336 106.755 41.264 106.587 41.144C107.067 41.072 108.123 39.872 108.123 38.984C108.123 38.72 107.979 38.624 107.739 38.624C107.163 38.624 105.987 39.584 104.379 41.696Z" fill="white"/>
</svg>
