<svg width="24" height="25" viewBox="0 0 24 25" fill="none" xmlns="http://www.w3.org/2000/svg">
<path d="M16.035 3.51517C16.5735 2.97657 17.2967 2.66293 18.0578 2.63786C18.819 2.61279 19.5613 2.87817 20.134 3.38017L20.278 3.51517L20.985 4.22217C21.5233 4.76059 21.8368 5.48355 21.8619 6.24451C21.8869 7.00547 21.6217 7.74749 21.12 8.32017L20.985 8.46417L9.77302 19.6772C9.61449 19.8357 9.42245 19.9567 9.21102 20.0312L9.04902 20.0782L4.59502 21.1062C4.43898 21.1422 4.27657 21.1403 4.12143 21.1006C3.96628 21.0609 3.82293 20.9845 3.70341 20.8779C3.58389 20.7714 3.49168 20.6376 3.43454 20.488C3.3774 20.3384 3.35699 20.1773 3.37502 20.0182L3.39502 19.9052L4.42202 15.4502C4.47275 15.2317 4.57185 15.0273 4.71202 14.8522L4.82302 14.7272L16.035 3.51517ZM15.328 7.05017L6.33802 16.0402L5.70202 18.7982L8.46002 18.1612L17.45 9.17117L15.328 7.05017ZM18.864 4.92917C18.6918 4.75699 18.4627 4.65356 18.2197 4.63828C17.9767 4.623 17.7364 4.69692 17.544 4.84617L17.45 4.92917L16.742 5.63617L18.864 7.75717L19.571 7.05017C19.7432 6.87798 19.8466 6.64888 19.8619 6.40585C19.8772 6.16283 19.8033 5.92257 19.654 5.73017L19.571 5.63617L18.864 4.92917Z" fill="#232323"/>
</svg>
