<svg width="42" height="42" viewBox="0 0 42 42" fill="none" xmlns="http://www.w3.org/2000/svg">
<g clip-path="url(#clip0_734_3218)">
<path d="M28.425 28.425C26.2882 30.0538 23.6864 30.9561 21 31C12.25 31 7.25 21 7.25 21C8.80486 18.1024 10.9614 15.5708 13.575 13.575M18.375 11.3C19.2354 11.0986 20.1163 10.9979 21 11C29.75 11 34.75 21 34.75 21C33.9912 22.4195 33.0863 23.7559 32.05 24.9875M23.65 23.65C23.3067 24.0185 22.8927 24.314 22.4327 24.5189C21.9727 24.7239 21.4761 24.8341 20.9726 24.843C20.4691 24.8519 19.969 24.7592 19.502 24.5706C19.0351 24.382 18.6109 24.1013 18.2548 23.7452C17.8987 23.3891 17.618 22.9649 17.4294 22.498C17.2408 22.0311 17.1482 21.5309 17.157 21.0274C17.1659 20.5239 17.2761 20.0273 17.4811 19.5673C17.6861 19.1073 17.9816 18.6933 18.35 18.35M7.25 7.25002L34.75 34.75" stroke="#D8C4B1" stroke-width="2" stroke-linecap="round" stroke-linejoin="round"/>
</g>
<defs>
<clipPath id="clip0_734_3218">
<rect width="30" height="30" fill="white" transform="translate(6 6.00002)"/>
</clipPath>
</defs>
</svg>
