<svg width="130" height="147" viewBox="0 0 130 147" fill="none" xmlns="http://www.w3.org/2000/svg">
<path d="M77.125 112.688C80.9167 116.062 85.9167 119.625 92.125 123.375C93.2917 124.042 93.875 124.729 93.875 125.438C93.875 125.979 93.6458 126.479 93.1875 126.938C92.7292 127.396 92.2292 127.625 91.6875 127.625C90.5625 127.625 88 126.292 84 123.625C80.0417 120.958 76.4583 118.167 73.25 115.25C65.625 119.458 57.7917 121.562 49.75 121.562C41.9167 121.562 34.4583 119.583 27.375 115.625C19.2917 111.125 13.2083 104.708 9.125 96.375C6 90.0833 4.4375 83.4167 4.4375 76.375C4.4375 64.7083 8.3125 54.6042 16.0625 46.0625C20.4375 41.1875 25.6458 37.4583 31.6875 34.875C37.3958 32.375 43.3958 31.125 49.6875 31.125C58.3542 31.125 66.3542 33.3958 73.6875 37.9375C81.1458 42.6042 86.7917 48.9792 90.625 57.0625C93.5417 63.2292 95 69.6875 95 76.4375C95 83.4375 93.3958 90.2083 90.1875 96.75C86.9792 103.25 82.625 108.562 77.125 112.688ZM73.875 110.062C77.4167 107.688 80.75 104.25 83.875 99.75C88.6667 92.875 91.0625 85.125 91.0625 76.5C91.0625 69.2083 89.2083 62.2708 85.5 55.6875C81.875 49.2292 76.875 44.1667 70.5 40.5C64.1667 36.8333 57.2292 35 49.6875 35C48.0208 35 46.3958 35.1458 44.8125 35.4375V117.375C46.2708 117.667 47.7083 117.812 49.125 117.812C57 117.812 63.9792 116.021 70.0625 112.438C62.6875 105.104 59 100.729 59 99.3125C59 98.8542 59.2083 98.4167 59.625 98C60.0417 97.5833 60.4583 97.375 60.875 97.375C61.5833 97.375 62.5625 98.125 63.8125 99.625C67.4375 103.917 70.7917 107.396 73.875 110.062Z" fill="#232323"/>
<circle cx="101.5" cy="127.5" r="2.5" fill="#232323"/>
<circle cx="114.5" cy="127.5" r="2.5" fill="#232323"/>
<circle cx="127.5" cy="127.5" r="2.5" fill="#232323"/>
<path d="M76.125 110.688C79.9167 114.062 84.9167 117.625 91.125 121.375C92.2917 122.042 92.875 122.729 92.875 123.438C92.875 123.979 92.6458 124.479 92.1875 124.938C91.7292 125.396 91.2292 125.625 90.6875 125.625C89.5625 125.625 87 124.292 83 121.625C79.0417 118.958 75.4583 116.167 72.25 113.25C64.625 117.458 56.7917 119.562 48.75 119.562C40.9167 119.562 33.4583 117.583 26.375 113.625C18.2917 109.125 12.2083 102.708 8.125 94.375C5 88.0833 3.4375 81.4167 3.4375 74.375C3.4375 62.7083 7.3125 52.6042 15.0625 44.0625C19.4375 39.1875 24.6458 35.4583 30.6875 32.875C36.3958 30.375 42.3958 29.125 48.6875 29.125C57.3542 29.125 65.3542 31.3958 72.6875 35.9375C80.1458 40.6042 85.7917 46.9792 89.625 55.0625C92.5417 61.2292 94 67.6875 94 74.4375C94 81.4375 92.3958 88.2083 89.1875 94.75C85.9792 101.25 81.625 106.562 76.125 110.688ZM72.875 108.062C76.4167 105.688 79.75 102.25 82.875 97.75C87.6667 90.875 90.0625 83.125 90.0625 74.5C90.0625 67.2083 88.2083 60.2708 84.5 53.6875C80.875 47.2292 75.875 42.1667 69.5 38.5C63.1667 34.8333 56.2292 33 48.6875 33C47.0208 33 45.3958 33.1458 43.8125 33.4375V115.375C45.2708 115.667 46.7083 115.812 48.125 115.812C56 115.812 62.9792 114.021 69.0625 110.438C61.6875 103.104 58 98.7292 58 97.3125C58 96.8542 58.2083 96.4167 58.625 96C59.0417 95.5833 59.4583 95.375 59.875 95.375C60.5833 95.375 61.5625 96.125 62.8125 97.625C66.4375 101.917 69.7917 105.396 72.875 108.062Z" fill="#DD4E3E"/>
<circle cx="100.5" cy="125.5" r="2.5" fill="#DD4E3E"/>
<circle cx="113.5" cy="125.5" r="2.5" fill="#DD4E3E"/>
<circle cx="126.5" cy="125.5" r="2.5" fill="#DD4E3E"/>
</svg>
