<svg width="20" height="21" viewBox="0 0 20 21" fill="none" xmlns="http://www.w3.org/2000/svg">
<g clip-path="url(#clip0_650_6270)">
<path d="M9.16672 10.4165C8.15726 10.2074 7.2611 9.63165 6.65131 8.80045C6.04153 7.96926 5.76138 6.94158 5.86498 5.91591C5.96859 4.89024 6.44859 3.93935 7.21228 3.24688C7.97597 2.55442 8.96917 2.16951 10.0001 2.16651C11.0333 2.16547 12.0302 2.54841 12.797 3.24098C13.5638 3.93356 14.046 4.88636 14.1498 5.91443C14.2537 6.94249 13.9718 7.97246 13.359 8.8044C12.7461 9.63634 11.846 10.2109 10.8334 10.4165V12.9998H12.5001C12.7211 12.9998 12.933 13.0876 13.0893 13.2439C13.2456 13.4002 13.3334 13.6122 13.3334 13.8332C13.3334 14.0542 13.2456 14.2661 13.0893 14.4224C12.933 14.5787 12.7211 14.6665 12.5001 14.6665H10.8334V15.4998H12.5001C12.7211 15.4998 12.933 15.5876 13.0893 15.7439C13.2456 15.9002 13.3334 16.1122 13.3334 16.3332C13.3334 16.5542 13.2456 16.7661 13.0893 16.9224C12.933 17.0787 12.7211 17.1665 12.5001 17.1665H10.8334V17.9998C10.8334 18.2209 10.7456 18.4328 10.5893 18.5891C10.433 18.7454 10.2211 18.8332 10.0001 18.8332C9.77904 18.8332 9.56708 18.7454 9.4108 18.5891C9.25452 18.4328 9.16672 18.2209 9.16672 17.9998V10.4165Z" fill="#543310"/>
</g>
<defs>
<clipPath id="clip0_650_6270">
<rect width="20" height="20" fill="white" transform="translate(0 0.5)"/>
</clipPath>
</defs>
</svg>
