<svg width="20" height="21" viewBox="0 0 20 21" fill="none" xmlns="http://www.w3.org/2000/svg">
<path d="M10 1.3335L16.8474 2.85515C17.2287 2.93988 17.5 3.27805 17.5 3.66864V11.9909C17.5 13.6627 16.6645 15.2238 15.2735 16.1512L10 19.6668L4.7265 16.1512C3.33551 15.2238 2.5 13.6627 2.5 11.9909V3.66864C2.5 3.27805 2.77128 2.93988 3.15256 2.85515L10 1.3335ZM10 6.3335C9.0795 6.3335 8.33333 7.07969 8.33333 8.00016C8.33333 8.61704 8.6685 9.15566 9.16658 9.44383L9.16667 13.0002H10.8333L10.8342 9.44333C11.3319 9.155 11.6667 8.6167 11.6667 8.00016C11.6667 7.07969 10.9205 6.3335 10 6.3335Z" fill="#543310"/>
</svg>
